<svg width="1703" height="260" viewBox="0 0 1703 260" fill="none" xmlns="http://www.w3.org/2000/svg">
<g clip-path="url(#clip0_44_85)">
<path d="M40.4999 184.375V141.115H65.9999V134.535H74.8599V141.895H83.9999V184.375L106 205.875V52.4755H123L131 44.8755H171.63V169.875H194V67.9555H230V10.2755L244 0.875488H261V10.2755H273V148.875H303V202.665H325V117.115H356V64.0855H438V146.535L464 139.875V98.8755H478V84.9855H510V169.375H531V143.055L574 171.875V214.875H600V259.875H0.419922V201.875L40.4999 184.375Z" fill="url(#paint0_linear_44_85)"/>
</g>
<g clip-path="url(#clip1_44_85)">
<path d="M1662.4 184.375V141.115H1636.9V134.535H1628.04V141.895H1618.9V184.375L1596.9 205.875V52.4755H1579.9L1571.9 44.8755H1531.27V169.875H1508.9V67.9555H1472.9V10.2755L1458.9 0.875488H1441.9V10.2755H1429.9V148.875H1399.9V202.665H1377.9V117.115H1346.9V64.0855H1264.9V146.535L1238.9 139.875V98.8755H1224.9V84.9855H1192.9V169.375H1171.9V143.055L1128.9 171.875V214.875H1102.9V259.875H1702.48V201.875L1662.4 184.375Z" fill="url(#paint1_linear_44_85)"/>
</g>
<defs>
<linearGradient id="paint0_linear_44_85" x1="300.21" y1="0.875488" x2="300.21" y2="259.875" gradientUnits="userSpaceOnUse">
<stop stop-color="#D6E5F9"/>
<stop offset="1" stop-color="white"/>
</linearGradient>
<linearGradient id="paint1_linear_44_85" x1="1402.69" y1="0.875488" x2="1402.69" y2="259.875" gradientUnits="userSpaceOnUse">
<stop stop-color="#D6E5F9"/>
<stop offset="1" stop-color="white"/>
</linearGradient>
<clipPath id="clip0_44_85">
<rect width="599.58" height="259" fill="white" transform="translate(0.419922 0.875488)"/>
</clipPath>
<clipPath id="clip1_44_85">
<rect width="599.58" height="259" fill="white" transform="matrix(-1 0 0 1 1702.48 0.875488)"/>
</clipPath>
</defs>
</svg>
