<svg width="601" height="260" viewBox="0 0 601 260" fill="none" xmlns="http://www.w3.org/2000/svg">
<g clip-path="url(#clip0_104_229)">
<path d="M560.4 184.375V141.115H534.9V134.535H526.04V141.895H516.9V184.375L494.9 205.875V52.4755H477.9L469.9 44.8755H429.27V169.875H406.9V67.9555H370.9V10.2755L356.9 0.875488H339.9V10.2755H327.9V148.875H297.9V202.665H275.9V117.115H244.9V64.0855H162.9V146.535L136.9 139.875V98.8755H122.9V84.9855H90.9005V169.375H69.9005V143.055L26.9005 171.875V214.875H0.900452V259.875H600.48V201.875L560.4 184.375Z" fill="url(#paint0_linear_104_229)"/>
</g>
<defs>
<linearGradient id="paint0_linear_104_229" x1="300.69" y1="0.875488" x2="300.69" y2="259.875" gradientUnits="userSpaceOnUse">
<stop stop-color="#D6E5F9"/>
<stop offset="1" stop-color="white"/>
</linearGradient>
<clipPath id="clip0_104_229">
<rect width="599.58" height="259" fill="white" transform="matrix(-1 0 0 1 600.48 0.875488)"/>
</clipPath>
</defs>
</svg>
