<svg width="1703" height="260" viewBox="0 0 1703 260" fill="none" xmlns="http://www.w3.org/2000/svg">
<g opacity="0.16" clip-path="url(#clip0_63_93)">
<path d="M40.9999 184.448V141.188H66.4999V134.608H75.3599V141.968H84.4999V184.448L106.5 205.948V52.5482H123.5L131.5 44.9482H172.13V169.948H194.5V68.0282H230.5V10.3482L244.5 0.948242H261.5V10.3482H273.5V148.948H303.5V202.738H325.5V117.188H356.5V64.1582H438.5V146.608L464.5 139.948V98.9482H478.5V85.0582H510.5V169.448H531.5V143.128L574.5 171.948V214.948H600.5V259.948H0.919922V201.948L40.9999 184.448Z" fill="url(#paint0_linear_63_93)"/>
</g>
<g opacity="0.16" clip-path="url(#clip1_63_93)">
<path d="M1662.9 184.448V141.188H1637.4V134.608H1628.54V141.968H1619.4V184.448L1597.4 205.948V52.5482H1580.4L1572.4 44.9482H1531.77V169.948H1509.4V68.0282H1473.4V10.3482L1459.4 0.948242H1442.4V10.3482H1430.4V148.948H1400.4V202.738H1378.4V117.188H1347.4V64.1582H1265.4V146.608L1239.4 139.948V98.9482H1225.4V85.0582H1193.4V169.448H1172.4V143.128L1129.4 171.948V214.948H1103.4V259.948H1702.98V201.948L1662.9 184.448Z" fill="url(#paint1_linear_63_93)"/>
</g>
<defs>
<linearGradient id="paint0_linear_63_93" x1="300.71" y1="0.948242" x2="300.71" y2="259.948" gradientUnits="userSpaceOnUse">
<stop stop-color="white"/>
<stop offset="1" stop-color="white" stop-opacity="0"/>
</linearGradient>
<linearGradient id="paint1_linear_63_93" x1="1403.19" y1="0.948242" x2="1403.19" y2="259.948" gradientUnits="userSpaceOnUse">
<stop stop-color="white"/>
<stop offset="1" stop-color="white" stop-opacity="0"/>
</linearGradient>
<clipPath id="clip0_63_93">
<rect width="599.58" height="259" fill="white" transform="translate(0.919922 0.948242)"/>
</clipPath>
<clipPath id="clip1_63_93">
<rect width="599.58" height="259" fill="white" transform="matrix(-1 0 0 1 1702.98 0.948242)"/>
</clipPath>
</defs>
</svg>
