<svg width="457" height="336" viewBox="0 0 457 336" fill="none" xmlns="http://www.w3.org/2000/svg">
<path d="M228.75 335.87C354.764 335.87 456.919 329.982 456.919 322.72C456.919 315.457 354.764 309.57 228.75 309.57C102.737 309.57 0.582031 315.457 0.582031 322.72C0.582031 329.982 102.737 335.87 228.75 335.87Z" fill="#D8E6F9"/>
<path d="M232.376 0.0070933V286.284H21.1532C21.1532 286.284 14.9621 217.421 14.9621 197.305C14.9621 177.189 16.5116 164.807 22.7027 153.975C28.8939 143.142 53.6512 102.91 53.6512 102.91C53.6512 102.91 44.3681 104.46 30.4363 104.46C16.5045 104.46 10.3205 99.8183 8.77095 88.9857C7.2214 78.153 14.9621 73.5115 21.1532 73.5115H50.5521C50.5521 73.5115 55.1936 75.061 55.1936 78.153V87.4361C55.1936 87.4361 55.1937 90.5282 56.7432 90.5282C58.2928 90.5282 59.8352 90.5281 61.3848 85.8866C62.9343 81.245 83.0501 39.4639 92.3332 27.0817C101.616 14.6995 107.907 8.96325 123.282 5.41633C143.397 0.774774 232.376 0 232.376 0V0.0070933Z" fill="white"/>
<path d="M232.377 256.202H177.168C177.168 256.202 170.458 256.259 170.458 251.284V245.199H147.45C147.45 245.199 143.519 245.853 145.616 250.701C147.713 255.549 155.532 267.632 155.532 267.632C155.532 267.632 159.086 271.897 165.483 271.897H232.37V256.202H232.377Z" fill="black"/>
<path d="M225.836 0.0070933V286.284H437.066C437.066 286.284 443.257 217.421 443.257 197.305C443.257 177.189 441.707 164.807 435.516 153.975C429.325 143.142 404.568 102.91 404.568 102.91C404.568 102.91 413.851 104.46 427.783 104.46C441.707 104.46 447.899 99.8183 449.448 88.9857C450.998 78.153 443.257 73.5115 437.066 73.5115H407.667C407.667 73.5115 403.025 75.061 403.025 78.153V87.4361C403.025 87.4361 403.025 90.5282 401.476 90.5282C399.926 90.5282 398.384 90.5281 396.834 85.8866C395.285 81.245 375.169 39.4639 365.886 27.0817C356.603 14.6995 350.312 8.96325 334.937 5.41633C314.822 0.774774 225.843 0 225.843 0L225.836 0.0070933Z" fill="white"/>
<path d="M355.047 22.4402C348.856 16.2491 347.307 14.6996 324.099 11.6076C305.057 9.06999 251.149 7.79054 232.384 7.41382V7.29297C232.384 7.29297 231.211 7.31431 229.114 7.34985C227.017 7.3072 225.844 7.29297 225.844 7.29297V7.41382C207.079 7.79054 153.165 9.06999 134.129 11.6076C110.914 14.6996 109.372 16.2491 103.181 22.4402C96.9897 28.6313 76.8739 65.7709 62.9492 101.361H395.293C381.369 65.7709 361.253 28.6313 355.062 22.4402H355.047Z" fill="black"/>
<path d="M225.836 256.202H281.044C281.044 256.202 287.754 256.259 287.754 251.284V245.199H310.763C310.763 245.199 314.694 245.853 312.597 250.701C310.5 255.549 302.681 267.632 302.681 267.632C302.681 267.632 299.127 271.897 292.73 271.897C286.333 271.897 225.843 271.897 225.843 271.897V256.202H225.836Z" fill="black"/>
<path opacity="0.5" d="M100.096 189.443L112.265 183.131L123.794 185.378L152.958 186.799L142.033 195.841H106.457L100.096 189.443Z" fill="#2E87FF"/>
<path opacity="0.5" d="M357.408 189.443L345.239 183.131L333.709 185.378L304.545 186.799L315.47 195.841H351.046L357.408 189.443Z" fill="#2E87FF"/>
<path d="M20.4844 288.246L21.906 309.57C21.906 309.57 24.7492 320.232 31.8573 320.232H66.836C66.836 320.232 75.9272 319.522 75.9272 310.992V298.197H34.7005L20.4844 288.246Z" fill="black"/>
<path d="M436.156 288.246L434.734 309.57C434.734 309.57 431.891 320.232 424.783 320.232H389.804C389.804 320.232 380.713 319.522 380.713 310.992V298.197H421.94L436.156 288.246Z" fill="black"/>
<path d="M123.794 185.378L111.468 199.395H33.8199C33.8199 199.395 28.304 199.395 26.8824 194.42C25.4608 189.444 24.0392 179.493 24.0392 179.493C24.0392 179.493 21.196 173.095 29.0149 172.385C36.8337 171.674 60.667 173.095 60.667 173.095L123.794 185.378Z" fill="black"/>
<path d="M334.42 185.378L346.745 199.395H424.394C424.394 199.395 429.91 199.395 431.331 194.42C432.753 189.444 434.174 179.493 434.174 179.493C434.174 179.493 437.018 173.095 429.199 172.385C421.38 171.674 397.547 173.095 397.547 173.095L334.42 185.378Z" fill="black"/>
<path d="M232.376 186.799H143.319L115.541 210.647C115.541 210.647 111.802 212.9 115.541 216.099C119.279 219.297 139.182 228.538 139.182 228.538H169.747V220.719C169.747 220.719 168.325 212.9 176.855 212.9H232.369V186.799H232.376Z" fill="black"/>
<path d="M225.836 186.799H314.893L342.671 210.647C342.671 210.647 346.41 212.9 342.671 216.099C338.932 219.297 319.03 228.538 319.03 228.538H288.465V220.719C288.465 220.719 289.887 212.9 281.357 212.9H225.843V186.799H225.836Z" fill="black"/>
</svg>
