<svg width="146" height="96" viewBox="0 0 146 96" fill="none" xmlns="http://www.w3.org/2000/svg">
<path d="M25.2558 42.3852C26.1829 42.3852 27.0971 42.4546 27.9985 42.5656C29.2475 19.3738 47.0946 0.970215 68.9333 0.970215C88.0938 0.970215 104.177 15.1407 108.684 34.2798C111.375 33.3777 114.246 32.8919 117.221 32.8919C133.11 32.8919 146 46.7848 146 63.9115C146 81.0382 133.11 94.9311 117.221 94.9311C117.066 94.9311 116.925 94.9311 116.77 94.9311V95.1393H25.3588V94.9311C25.3588 94.9311 25.2944 94.9311 25.2687 94.9311C11.8126 94.9311 0.893188 83.1756 0.893188 68.6581C0.893188 54.1407 11.7997 42.3852 25.2687 42.3852H25.2558Z" fill="white"/>
</svg>
