<svg width="228" height="228" viewBox="0 0 228 228" fill="none" xmlns="http://www.w3.org/2000/svg">
<rect x="49" y="24" width="130" height="186.324" rx="12" fill="#2E87FF"/>
<path d="M96.4873 65.4711C96.115 65.7321 95.702 65.9278 95.2532 66.0683C94.8045 66.2088 94.3558 66.2791 93.907 66.2791C92.9535 66.2791 92.1325 65.9378 91.4441 65.2503C91.0311 64.8438 90.6945 64.3771 90.4243 63.8602C90.154 63.3433 89.9245 62.8013 89.7359 62.2442C89.4758 61.5015 89.282 60.7487 89.1596 59.9909C89.0373 59.2281 88.9302 58.4603 88.8384 57.6825C88.7466 58.4603 88.6293 59.2432 88.4865 60.0211C88.3489 60.7989 88.1449 61.5818 87.8848 62.3597C87.737 62.8063 87.5585 63.2379 87.3545 63.6544C87.1505 64.0709 86.8956 64.4574 86.5998 64.8087C86.2429 65.2553 85.8553 65.5966 85.4219 65.8374C84.9732 66.0583 84.4836 66.1837 83.9533 66.2138C83.423 66.2439 82.9131 66.1837 82.4286 66.0332C81.8881 65.8676 81.3884 65.6066 80.9294 65.2553C80.4705 64.904 80.0779 64.5126 79.7413 64.086C79.2008 63.3985 78.7776 62.6307 78.4818 61.7775C78.181 60.9244 77.977 60.0612 77.8648 59.188C77.7169 58.0187 77.6761 56.8394 77.7526 55.65C77.8291 54.4606 77.9413 53.2763 78.0892 52.0869C78.1249 51.7707 78.1759 51.4596 78.2421 51.1535C78.3084 50.8473 78.3849 50.5462 78.4818 50.2501C78.5736 50.0444 78.6756 49.8436 78.7878 49.6379C78.8999 49.4321 79.0478 49.2565 79.2365 49.111C79.4609 48.9453 79.7413 48.8098 80.0779 48.7095C80.4144 48.6091 80.7663 48.5439 81.1283 48.5138C81.4904 48.4836 81.8524 48.4987 82.2043 48.5539C82.5612 48.6091 82.857 48.6944 83.1017 48.8048C83.4944 49.0106 83.7748 49.3067 83.9431 49.6931C84.0553 49.9892 84.1165 50.2953 84.1267 50.6115C84.1369 50.9276 84.1267 51.2438 84.1114 51.56C84.091 51.8761 84.0604 52.2977 84.0145 52.8246C83.9686 53.3515 83.9227 53.9287 83.8768 54.551C83.8309 55.1732 83.7901 55.8156 83.7493 56.4881C83.7136 57.1555 83.6983 57.7929 83.7085 58.3951C83.7187 58.9973 83.7595 59.5443 83.836 60.0361C83.9125 60.5279 84.0298 60.9043 84.1981 61.1653C84.2746 61.2757 84.3765 61.3861 84.504 61.5015C84.6366 61.6119 84.7641 61.6521 84.8967 61.6119C85.0292 61.5768 85.1465 61.4864 85.2587 61.3459C85.3709 61.2054 85.4678 61.0498 85.5545 60.8742C85.6361 60.6986 85.7023 60.5179 85.7482 60.3322C85.7941 60.1465 85.8349 59.9809 85.8757 59.8304C86.1358 58.6962 86.3041 57.557 86.3806 56.4078C86.457 55.2586 86.6049 54.1143 86.8293 52.9852C86.8854 52.7242 86.9721 52.4683 87.0944 52.2174C87.2168 51.9664 87.3953 51.7757 87.6401 51.6453C87.7879 51.5549 87.997 51.4746 88.2724 51.4094C88.5426 51.3442 88.7517 51.3592 88.9047 51.4495C88.9251 51.4696 88.9455 51.4696 88.9761 51.4495C89.0016 51.4295 89.0271 51.4194 89.0475 51.4194C89.2718 51.4194 89.5064 51.4546 89.7461 51.5298C89.9908 51.6051 90.1846 51.7256 90.3325 51.8912C90.5568 52.1321 90.7098 52.4081 90.7965 52.7142C90.8832 53.0203 90.9393 53.3315 90.9801 53.6476C91.1279 54.5409 91.2401 55.4191 91.3166 56.2924C91.3931 57.1656 91.4951 58.0438 91.6226 58.9371C91.6787 59.2532 91.7399 59.5744 91.8062 59.8956C91.8724 60.2218 91.9795 60.543 92.1274 60.8541C92.1835 60.9645 92.2447 61.08 92.311 61.2004C92.3773 61.3208 92.4487 61.4162 92.5353 61.4915C92.622 61.5667 92.7087 61.6169 92.8005 61.647C92.8923 61.6771 92.9943 61.647 93.1065 61.5768C93.3308 61.4463 93.5042 61.2255 93.6266 60.9093C93.749 60.5932 93.8357 60.2469 93.8917 59.8655C93.9478 59.4841 93.9784 59.1027 93.9886 58.7263C93.9988 58.3449 94.0039 58.0237 94.0039 57.7678C93.9682 56.749 93.9019 55.7303 93.8102 54.7216C93.7184 53.7079 93.6419 52.6941 93.5858 51.6754C93.5654 51.2839 93.5705 50.8774 93.6011 50.4509C93.6317 50.0243 93.7541 49.6529 93.9784 49.3368C94.1824 49.0608 94.468 48.865 94.83 48.7546C95.1921 48.6442 95.5439 48.579 95.8805 48.5589C96.3088 48.5238 96.7473 48.5388 97.1961 48.6141C97.6448 48.6894 98.0374 48.855 98.374 49.116C98.634 49.3017 98.838 49.5375 98.9757 49.8236C99.1134 50.1096 99.2307 50.4057 99.3276 50.7018C99.4193 51.0732 99.4907 51.4345 99.5366 51.7858C99.5825 52.1371 99.6335 52.4984 99.6896 52.8698C99.7661 53.5021 99.8273 54.1344 99.8732 54.7617C99.9191 55.394 99.9548 56.0314 99.9701 56.6838C99.9701 57.6323 99.9038 58.5808 99.7763 59.5393C99.6437 60.4928 99.3938 61.4162 99.0216 62.3095C98.7615 62.9418 98.4199 63.534 98.0017 64.091C97.5836 64.6481 97.0839 65.1098 96.5026 65.4811L96.4873 65.4711ZM85.9573 51.0531C85.9369 51.2187 85.84 51.314 85.6616 51.3291C85.4831 51.3492 85.376 51.2839 85.3403 51.1334C85.2485 50.8373 85.1924 50.5362 85.172 50.2301C85.1516 49.9239 85.0955 49.6329 85.0038 49.3518C84.8559 48.9453 84.6213 48.6191 84.3052 48.3783C83.9686 48.1022 83.5811 47.8714 83.1425 47.6957C82.704 47.5201 82.2604 47.4398 81.8116 47.4599H81.3374C81.113 47.4599 80.9549 47.4398 80.8632 47.4047C80.7714 47.3495 80.7357 47.2742 80.7663 47.1839C80.7969 47.0935 80.853 47.0283 80.9498 46.9881C81.0416 46.9681 81.2303 46.953 81.5108 46.9329C81.7912 46.9129 81.9748 46.9028 82.0717 46.9028C82.4439 46.9028 82.8162 46.9681 83.1935 47.0986C83.5658 47.229 83.9125 47.3846 84.2287 47.5703C84.6213 47.8112 84.9324 48.0822 85.1669 48.3783C85.4015 48.6743 85.5749 49.0457 85.6871 49.4924C85.7074 49.5476 85.7329 49.6479 85.7686 49.7985C85.8043 49.949 85.84 50.1046 85.8655 50.2702C85.891 50.4358 85.9165 50.5964 85.9369 50.7419C85.9573 50.8925 85.9624 50.9929 85.9624 51.0481L85.9573 51.0531ZM95.9264 67.1422C95.8142 67.2526 95.6408 67.343 95.4062 67.4082C95.1717 67.4735 94.9269 67.5186 94.6617 67.5487C94.4017 67.5788 94.1416 67.5889 93.8917 67.5889H93.29C93.0453 67.5538 92.8107 67.5236 92.5761 67.5036C92.3416 67.4835 92.1121 67.4484 91.8877 67.3932C91.5308 67.2828 91.2146 67.1222 90.9342 66.9214C90.8016 66.8311 90.7098 66.7257 90.6537 66.6153C90.5976 66.5049 90.6435 66.4397 90.7914 66.4196C90.8679 66.3995 90.9393 66.4196 91.0158 66.4597C91.0923 66.5049 91.1636 66.5501 91.2401 66.5852C91.541 66.7508 91.8622 66.8662 92.2039 66.9315C92.5506 66.9967 92.8923 67.0369 93.2237 67.0569C93.5246 67.0569 93.8102 67.0469 94.0906 67.0268C94.3711 67.0067 94.6515 66.9716 94.932 66.9164C94.9881 66.8963 95.1105 66.8612 95.294 66.806C95.4827 66.7508 95.6 66.7157 95.6561 66.6956C95.7887 66.6755 95.8856 66.7257 95.9518 66.8361C96.0181 66.9465 96.0028 67.0519 95.9111 67.1422H95.9264Z" fill="white"/>
<path d="M103.794 67.5588C103.254 67.6541 102.719 67.6441 102.183 67.5287C101.653 67.4183 101.168 67.2125 100.74 66.9164C100.628 66.8412 100.582 66.7408 100.602 66.6103C100.623 66.4798 100.704 66.4347 100.852 66.4698C100.944 66.4698 101.015 66.4999 101.061 66.5551C101.107 66.6103 101.168 66.6555 101.245 66.6956C101.653 66.9365 102.102 67.0921 102.591 67.1573C103.075 67.2226 103.545 67.2075 103.993 67.1172C104.126 67.0971 104.32 67.0369 104.58 66.9365C104.84 66.8361 105.008 66.7358 105.085 66.6454C105.161 66.5702 105.238 66.5601 105.324 66.6153C105.406 66.6705 105.431 66.7458 105.396 66.8361C105.36 66.9315 105.258 67.0218 105.1 67.1122C104.942 67.2075 104.814 67.2677 104.723 67.3079C104.575 67.3831 104.417 67.4333 104.259 67.4584C104.1 67.4885 103.947 67.5186 103.794 67.5538V67.5588ZM115.722 67.0871C115.385 67.2527 115.013 67.3681 114.6 67.4333C114.187 67.4986 113.779 67.5036 113.366 67.4484C112.953 67.3932 112.57 67.2727 112.218 67.0871C111.862 66.9014 111.576 66.6505 111.352 66.3343C111.239 66.1687 111.112 65.8776 110.974 65.4711C110.837 65.0646 110.709 64.628 110.597 64.1613C110.485 63.6996 110.383 63.2479 110.291 62.8113C110.199 62.3747 110.133 62.0536 110.097 61.8528C109.725 61.8729 109.342 61.8829 108.95 61.893C108.557 61.903 108.175 61.9231 107.803 61.9632C107.711 61.9632 107.532 61.9783 107.272 62.0034C107.012 62.0335 106.732 62.0586 106.431 62.0887C106.13 62.1188 105.855 62.1389 105.589 62.1589C105.329 62.179 105.151 62.1891 105.059 62.1891C105.059 62.3195 105.059 62.5153 105.044 62.7712C105.034 63.0322 105.018 63.2981 104.988 63.5792C104.962 63.8552 104.921 64.1161 104.876 64.357C104.83 64.5979 104.768 64.7736 104.692 64.884C104.559 65.0696 104.386 65.2252 104.162 65.3406C103.937 65.4611 103.693 65.5464 103.417 65.5916C103.147 65.6367 102.882 65.6518 102.617 65.6317C102.357 65.6116 102.112 65.5665 101.887 65.4912C101.739 65.436 101.602 65.3657 101.479 65.2804C101.357 65.1951 101.25 65.0897 101.158 64.9592C100.99 64.7384 100.908 64.4223 100.908 64.0107C100.908 63.5992 100.949 63.1777 101.036 62.731C101.122 62.2844 101.224 61.8478 101.342 61.4212C101.464 60.9947 101.551 60.6434 101.607 60.3623C101.903 59.0826 102.311 57.833 102.826 56.6186C103.341 55.4041 103.942 54.2398 104.631 53.1257C105.171 52.2726 105.778 51.4546 106.451 50.6767C107.124 49.8989 107.889 49.2364 108.746 48.6995C109.026 48.5339 109.358 48.4285 109.74 48.3783C110.123 48.3331 110.505 48.3381 110.888 48.3933C111.27 48.4485 111.637 48.5539 111.994 48.7145C112.346 48.8701 112.647 49.0608 112.892 49.2866C113.152 49.5476 113.376 49.8386 113.565 50.1648C113.753 50.491 113.901 50.8273 114.013 51.1786C114.182 51.7005 114.304 52.2274 114.375 52.7644C114.452 53.3014 114.534 53.8434 114.625 54.3803C114.661 54.566 114.717 54.8722 114.794 55.2987C114.87 55.7253 114.962 56.2121 115.074 56.7591C115.186 57.3061 115.304 57.8832 115.426 58.4854C115.548 59.0876 115.666 59.6648 115.778 60.2118C115.89 60.7588 115.987 61.2456 116.073 61.6722C116.155 62.0987 116.226 62.3948 116.283 62.5654C116.303 62.6407 116.339 62.7812 116.395 62.982C116.451 63.1877 116.512 63.3985 116.578 63.6243C116.645 63.8451 116.711 64.0609 116.772 64.2667C116.838 64.4724 116.879 64.6079 116.9 64.6832C117.047 65.1449 117.032 65.5815 116.843 65.993C116.752 66.2339 116.599 66.4447 116.395 66.6203C116.191 66.796 115.966 66.9516 115.722 67.082V67.0871ZM107.155 55.3941C106.895 55.9712 106.645 56.5533 106.41 57.1505C106.176 57.7427 105.967 58.3399 105.778 58.9321C106.431 58.8568 107.078 58.8116 107.726 58.7916C108.369 58.7715 109.016 58.7464 109.674 58.7062C109.654 58.5005 109.623 58.094 109.577 57.4817C109.531 56.8695 109.48 56.2271 109.424 55.5446C109.368 54.8671 109.322 54.2248 109.286 53.6075C109.251 52.9953 109.23 52.5888 109.23 52.383C108.782 52.8096 108.389 53.2813 108.052 53.8032C107.716 54.3251 107.415 54.8521 107.155 55.3891V55.3941ZM115.722 49.8838C115.645 50.0143 115.558 50.0595 115.456 50.0243C115.354 49.9892 115.329 49.9039 115.385 49.7734C115.349 49.6981 115.283 49.5877 115.191 49.4372C115.1 49.2866 114.998 49.131 114.896 48.9654C114.794 48.7998 114.686 48.6392 114.574 48.4937C114.462 48.3431 114.381 48.2428 114.324 48.1876C114.064 47.9668 113.769 47.7911 113.442 47.6606C113.116 47.5302 112.784 47.4398 112.448 47.3846C112.356 47.3646 112.167 47.3545 111.887 47.3545C111.607 47.3545 111.418 47.3344 111.326 47.2993C111.25 47.2642 111.214 47.1989 111.214 47.1036C111.214 47.0082 111.25 46.948 111.326 46.9079C111.438 46.8527 111.556 46.8276 111.678 46.8376C111.8 46.8477 111.918 46.8527 112.03 46.8527C112.422 46.8727 112.81 46.948 113.192 47.0885C113.575 47.2291 113.927 47.3997 114.243 47.6054C114.559 47.8112 114.819 48.0722 115.013 48.3984C115.207 48.7246 115.39 49.0457 115.558 49.3569C115.594 49.4322 115.64 49.5225 115.696 49.6329C115.752 49.7433 115.762 49.8286 115.722 49.8838Z" fill="white"/>
<path d="M124.543 66.3594C124.059 66.3946 123.574 66.4297 123.085 66.4548C122.6 66.4849 122.116 66.4949 121.627 66.4949C121.29 66.4749 120.953 66.4548 120.617 66.4247C120.28 66.3946 119.954 66.3344 119.638 66.244C119.225 66.1135 118.893 65.9178 118.628 65.6619C118.439 65.4561 118.312 65.1952 118.236 64.869C118.159 64.5428 118.128 64.2015 118.139 63.8402C118.149 63.4789 118.195 63.1276 118.281 62.7813C118.363 62.44 118.475 62.1389 118.603 61.878C118.694 61.7124 118.807 61.5568 118.939 61.4213C119.072 61.2808 119.22 61.1854 119.388 61.1302C119.592 61.0549 119.796 61.0349 120.005 61.06C120.209 61.0901 120.413 61.1202 120.622 61.1553C121.183 61.2507 121.749 61.3109 122.315 61.351C122.886 61.3862 123.447 61.4514 124.008 61.5467C124.288 61.5819 124.543 61.5467 124.778 61.4514C125.012 61.351 125.196 61.2055 125.339 61.0198C125.476 60.8341 125.548 60.6334 125.548 60.4226C125.548 60.2118 125.456 60.0011 125.267 59.7953C125.176 59.705 125.058 59.6297 124.916 59.5745C124.778 59.5193 124.63 59.4741 124.482 59.434C123.921 59.3035 123.365 59.163 122.815 59.0024C122.264 58.8468 121.728 58.6461 121.203 58.4052C120.846 58.2546 120.505 58.079 120.168 57.8783C119.832 57.6725 119.536 57.4316 119.271 57.1556C119.082 56.9498 118.919 56.7341 118.781 56.5032C118.643 56.2724 118.526 56.0265 118.429 55.7655C118.297 55.359 118.23 54.9425 118.22 54.5109C118.21 54.0843 118.236 53.6577 118.292 53.2312C118.348 52.8598 118.424 52.4884 118.516 52.1171C118.608 51.7457 118.751 51.4045 118.934 51.0883C119.215 50.6065 119.572 50.19 120.01 49.8337C120.449 49.4824 120.913 49.1763 121.397 48.9153C122.274 48.4887 123.197 48.1826 124.171 47.9969C125.14 47.8112 126.114 47.736 127.083 47.7761C127.552 47.7962 128.011 47.8213 128.47 47.8614C128.929 47.8966 129.362 48.022 129.77 48.2228C130.03 48.3532 130.275 48.549 130.499 48.8099C130.688 49.0709 130.831 49.372 130.933 49.7132C131.035 50.0545 131.091 50.4108 131.101 50.7721C131.111 51.1335 131.07 51.4797 130.973 51.816C130.882 52.1522 130.729 52.4383 130.525 52.6791C130.377 52.8297 130.209 52.9501 130.02 53.0405C129.831 53.1358 129.637 53.196 129.433 53.2362C129.061 53.2914 128.689 53.2814 128.327 53.2061C127.965 53.1308 127.593 53.0756 127.22 53.0405C126.603 52.9652 125.951 52.9853 125.262 53.0957C124.982 53.1308 124.701 53.191 124.421 53.2763C124.14 53.3617 123.88 53.4771 123.636 53.6226C123.151 53.9187 122.84 54.3553 122.713 54.9324C122.677 55.0629 122.662 55.2034 122.672 55.349C122.682 55.4995 122.723 55.625 122.799 55.7404C122.947 55.9813 123.223 56.172 123.625 56.3125C124.028 56.453 124.462 56.5584 124.926 56.6337C125.395 56.709 125.859 56.7642 126.328 56.7993C126.797 56.8344 127.169 56.8746 127.45 56.9097C127.766 56.9448 128.077 56.995 128.373 57.0502C128.669 57.1054 128.959 57.1907 129.24 57.3011C129.745 57.5069 130.173 57.8481 130.53 58.3299C130.734 58.6059 130.892 58.9171 130.994 59.2634C131.096 59.6046 131.167 59.9559 131.203 60.3072C131.259 60.9746 131.203 61.6521 131.035 62.3397C130.866 63.0272 130.596 63.6495 130.224 64.2065C130.02 64.5227 129.76 64.8037 129.454 65.0546C129.148 65.3056 128.822 65.5063 128.49 65.6518C127.873 65.9279 127.231 66.1135 126.557 66.1938C125.884 66.2791 125.211 66.3394 124.543 66.3745V66.3594ZM118.97 49.4322C118.822 49.4874 118.72 49.4473 118.674 49.3067C118.628 49.1662 118.643 49.0307 118.715 48.9053C118.735 48.8501 118.791 48.7698 118.883 48.6694C118.975 48.569 119.077 48.4636 119.179 48.3633C119.281 48.2629 119.378 48.1625 119.475 48.0722C119.566 47.9819 119.643 47.9166 119.699 47.8765C119.867 47.746 120.03 47.6306 120.189 47.5302C120.347 47.4298 120.52 47.3295 120.709 47.2391C121.101 47.0535 121.509 46.9129 121.927 46.8226C122.345 46.7323 122.774 46.667 123.202 46.6269C123.447 46.6068 123.569 46.6921 123.58 46.8778C123.59 47.0635 123.483 47.1839 123.258 47.2391C122.57 47.3897 121.881 47.5804 121.198 47.8213C120.515 48.0622 119.944 48.4335 119.475 48.9354C119.439 48.9705 119.357 49.0608 119.235 49.2014C119.113 49.3419 119.026 49.4222 118.97 49.4372V49.4322ZM127.486 67.7194C127.409 67.7395 127.276 67.7596 127.078 67.7897C126.884 67.8198 126.67 67.8449 126.445 67.875C126.221 67.9051 126.007 67.9302 125.803 67.9603C125.599 67.9904 125.456 68.0005 125.385 68.0005C125.252 68.0005 125.155 67.9704 125.089 67.9051C125.023 67.8399 124.987 67.7596 124.977 67.6693C124.967 67.5789 124.992 67.4936 125.048 67.4183C125.104 67.3431 125.196 67.2979 125.329 67.2778C125.441 67.2778 125.64 67.2628 125.93 67.2377C126.221 67.2076 126.517 67.1825 126.828 67.1524C127.134 67.1222 127.424 67.0921 127.695 67.057C127.965 67.0219 128.159 66.9817 128.271 66.9466C128.419 66.8914 128.526 66.9265 128.592 67.057C128.658 67.1875 128.633 67.2979 128.521 67.3932C128.373 67.5237 128.21 67.604 128.031 67.6291C127.853 67.6592 127.669 67.6893 127.486 67.7245V67.7194Z" fill="white"/>
<path d="M138.041 67.333C137.725 67.3681 137.409 67.3782 137.103 67.3631C136.797 67.343 136.501 67.2878 136.22 67.1975C135.828 67.1072 135.512 66.9265 135.267 66.6706C135.119 66.52 135.002 66.3544 134.915 66.1687C134.834 65.983 134.772 65.7873 134.732 65.5866C134.675 65.3106 134.604 64.7635 134.522 63.9556C134.441 63.1476 134.349 62.2794 134.257 61.351C134.165 60.4226 134.079 59.5544 134.007 58.7464C133.931 57.9385 133.875 57.3965 133.839 57.1154C133.727 56.2623 133.548 55.4292 133.309 54.6112C133.064 53.7932 132.85 52.9702 132.666 52.1321C132.59 51.836 132.539 51.5349 132.513 51.2288C132.483 50.9227 132.513 50.6216 132.61 50.3255C132.722 49.9892 132.896 49.6731 133.13 49.3669C133.365 49.0608 133.64 48.835 133.956 48.6844C134.181 48.5941 134.461 48.5088 134.798 48.4335C135.134 48.3582 135.481 48.3081 135.833 48.2779C136.19 48.2478 136.526 48.2528 136.853 48.293C137.179 48.3281 137.444 48.4134 137.653 48.5439C137.949 48.7497 138.209 49.0006 138.423 49.2967C138.638 49.5928 138.821 49.9089 138.969 50.2452C139.061 50.5061 139.132 50.7671 139.178 51.023C139.224 51.284 139.265 51.55 139.306 51.831C139.397 52.6641 139.474 53.4921 139.53 54.3101C139.586 55.1281 139.632 55.9511 139.668 56.7892C140.096 56.7541 140.534 56.724 140.983 56.7039C141.432 56.6838 141.881 56.6688 142.329 56.6487H142.681C142.86 56.6487 142.977 56.6588 143.033 56.6788C143.013 56.6588 143.003 56.6437 143.003 56.6236V56.5383C142.926 55.8357 142.87 55.1231 142.834 54.4105C142.799 53.6979 142.809 52.9852 142.86 52.2827C142.88 52.0217 142.906 51.7607 142.946 51.5048C142.982 51.2438 143.079 51.003 143.227 50.7821C143.339 50.5764 143.528 50.4058 143.788 50.2652C144.048 50.1247 144.339 50.0143 144.655 49.929C144.971 49.8437 145.292 49.7935 145.618 49.7734C145.945 49.7534 146.23 49.7534 146.475 49.7734C146.623 49.7935 146.776 49.8136 146.939 49.8437C147.097 49.8738 147.25 49.934 147.403 50.0244C147.663 50.21 147.862 50.4509 147.99 50.747C148.081 51.008 148.143 51.2689 148.173 51.5249C148.199 51.7858 148.224 52.0468 148.245 52.3027C148.265 52.8949 148.265 53.5021 148.245 54.1144C148.224 54.7266 148.219 55.3389 148.219 55.9512C148.199 56.8595 148.194 57.7678 148.204 58.6661C148.214 59.5644 148.229 60.4627 148.245 61.351C148.245 61.6672 148.255 62.0636 148.275 62.5504C148.296 63.0322 148.285 63.524 148.245 64.0258C148.209 64.5277 148.132 64.9944 148.02 65.431C147.908 65.8676 147.74 66.1788 147.515 66.3644C147.291 66.53 147.021 66.6404 146.705 66.7007C146.128 66.8312 145.527 66.8412 144.915 66.7308C144.711 66.6957 144.507 66.6154 144.313 66.4949C144.119 66.3745 143.971 66.2239 143.88 66.0382C143.732 65.7973 143.645 65.5314 143.63 65.2453C143.609 64.9593 143.594 64.6732 143.574 64.3972C143.538 63.6193 143.507 62.8314 143.487 62.0285C143.467 61.2306 143.41 60.4427 143.319 59.6648C143.263 59.6849 143.196 59.6949 143.125 59.6949H142.901C142.396 59.6949 141.886 59.71 141.376 59.7351C140.861 59.7652 140.356 59.8154 139.851 59.8906C139.887 60.2269 139.948 60.6936 140.035 61.2958C140.116 61.898 140.183 62.5303 140.229 63.1878C140.274 63.8452 140.29 64.4675 140.269 65.0546C140.249 65.6368 140.157 66.0683 139.989 66.3494C139.785 66.6655 139.499 66.9014 139.137 67.057C138.775 67.2126 138.413 67.3129 138.061 67.3481L138.041 67.333ZM136.894 68.5575C136.985 68.6127 137.021 68.703 136.99 68.8235C136.965 68.9439 136.883 69.0142 136.751 69.0343C136.674 69.0343 136.562 69.0192 136.414 68.9941C136.266 68.964 136.108 68.9389 135.94 68.9088C135.772 68.8787 135.609 68.8486 135.451 68.8134C135.292 68.7783 135.185 68.7482 135.129 68.7281C134.828 68.6328 134.558 68.4973 134.318 68.3116C134.058 68.0908 133.854 67.8148 133.717 67.4886C133.574 67.1624 133.462 66.8362 133.365 66.4999C133.232 65.9981 133.161 65.4862 133.141 64.9542C133.12 64.4273 133.095 63.9004 133.054 63.3835C133.054 63.3283 133.054 63.2279 133.039 63.0924C133.028 62.9519 133.013 62.8114 132.998 62.6608C132.977 62.5103 132.967 62.3698 132.967 62.2292V61.9633C132.967 61.8729 133.013 61.8127 133.11 61.7976C133.202 61.7776 133.268 61.8177 133.304 61.908C133.324 61.9633 133.339 62.0636 133.36 62.1991C133.38 62.3396 133.39 62.4852 133.401 62.6458C133.411 62.8013 133.426 62.9519 133.441 63.0924C133.462 63.2329 133.472 63.3283 133.472 63.3835C133.528 63.9757 133.584 64.5829 133.64 65.1951C133.696 65.8074 133.834 66.3945 134.058 66.9466C134.115 67.0971 134.181 67.2427 134.252 67.3932C134.329 67.5438 134.42 67.6642 134.533 67.7545C134.681 67.885 134.839 67.9854 135.007 68.0607C135.175 68.1359 135.343 68.2012 135.512 68.2564C135.568 68.2765 135.66 68.2915 135.792 68.3116C135.925 68.3317 136.062 68.3517 136.21 68.3819C136.358 68.412 136.496 68.4371 136.618 68.4672C136.741 68.4973 136.827 68.5274 136.883 68.5625L136.894 68.5575ZM142.467 49.9039C142.447 49.9993 142.401 50.0595 142.329 50.0996C142.253 50.1348 142.192 50.1197 142.136 50.0444C142.003 49.8939 141.998 49.7082 142.12 49.4723C142.243 49.2415 142.365 49.0508 142.498 48.9002C142.855 48.5289 143.298 48.2579 143.829 48.0923C144.359 47.9266 144.889 47.8213 145.409 47.7861C145.501 47.7861 145.634 47.7861 145.802 47.8012C145.97 47.8112 146.149 47.8313 146.332 47.8564C146.521 47.8865 146.689 47.9216 146.837 47.9668C146.985 48.012 147.097 48.0722 147.174 48.1475C147.306 48.2428 147.332 48.3633 147.26 48.5088C147.184 48.6593 147.072 48.7145 146.924 48.6744C146.832 48.6744 146.756 48.6443 146.699 48.5891C146.496 48.4988 146.281 48.4335 146.057 48.4084C145.833 48.3783 145.618 48.3683 145.414 48.3683C144.93 48.4034 144.451 48.4887 143.987 48.6192C143.818 48.6744 143.65 48.7396 143.482 48.8149C143.314 48.8902 143.166 48.9906 143.033 49.121C142.977 49.1562 142.885 49.2515 142.753 49.3971C142.62 49.5476 142.538 49.648 142.503 49.7032C142.503 49.7233 142.503 49.7534 142.487 49.7985C142.477 49.8437 142.472 49.8788 142.472 49.8939L142.467 49.9039Z" fill="white"/>
<path d="M88.9099 71.7743C88.7416 71.9399 88.6141 71.985 88.5325 71.8997C88.451 71.8144 88.4815 71.6839 88.6294 71.4982C88.8895 71.1821 89.1954 70.9161 89.5371 70.7053C89.8838 70.4946 90.251 70.339 90.6436 70.2487C90.9598 70.1734 91.2912 70.1583 91.638 70.1934C91.9847 70.2286 92.3162 70.3139 92.6323 70.4444C92.7241 70.4795 92.9026 70.5648 93.1627 70.6953C93.4227 70.8258 93.591 70.9161 93.6675 70.9713C93.7593 71.0667 93.8103 71.1771 93.8205 71.3075C93.8307 71.438 93.7695 71.5233 93.6369 71.5585C93.5451 71.5785 93.4431 71.5585 93.3411 71.5033C93.2391 71.4481 93.1423 71.3929 93.0454 71.3377C92.6731 71.0968 92.2499 70.9211 91.7859 70.8107C91.3167 70.7003 90.8731 70.7103 90.4397 70.8408C90.1388 70.9362 89.8583 71.0616 89.5983 71.2323C89.3382 71.4029 89.1037 71.5836 88.8997 71.7893L88.9099 71.7743ZM93.3054 90.5633C93.1372 90.5985 92.9128 90.6236 92.6323 90.6336C92.3519 90.6436 92.0714 90.6336 91.791 90.6185C91.5105 90.5985 91.2453 90.5583 90.9904 90.4931C90.7405 90.4278 90.5467 90.3325 90.4142 90.202C90.2816 90.0916 90.1694 89.8858 90.0776 89.5898C89.9858 89.2937 89.8991 88.9725 89.8277 88.6312C89.7513 88.29 89.6901 87.9537 89.634 87.6275C89.5779 87.3013 89.5422 87.0454 89.5218 86.8597C89.3535 85.7456 89.2158 84.6215 89.1037 83.4923C88.9915 82.3582 88.8895 81.229 88.7977 80.0949C88.762 79.578 88.7161 78.9256 88.6702 78.1477C88.6243 77.3698 88.6294 76.5819 88.6855 75.794C88.7416 75.0061 88.8691 74.2785 89.0629 73.611C89.2566 72.9436 89.5728 72.4518 90.0011 72.1356C90.302 71.9148 90.6232 71.7743 90.9649 71.7191C91.3116 71.6639 91.6533 71.6839 91.9847 71.7743C92.3213 71.8696 92.6272 72.0202 92.9077 72.236C93.1882 72.4518 93.4227 72.7227 93.6063 73.059C94.4069 72.8532 95.2075 72.6826 96.0029 72.5421C96.7984 72.4016 97.6041 72.3062 98.4251 72.251C98.8942 72.2159 99.3634 72.1958 99.8376 72.1958C100.312 72.1958 100.766 72.2912 101.194 72.4718C101.602 72.6224 101.893 72.8884 102.061 73.2798C102.285 73.7415 102.362 74.2283 102.285 74.7251C102.209 75.227 101.949 75.5883 101.5 75.8091C101.332 75.9044 101.046 75.9697 100.648 76.0199C100.246 76.065 99.8172 76.1052 99.3583 76.1303C98.8993 76.1604 98.4659 76.1805 98.0579 76.2005C97.6449 76.2206 97.3491 76.2357 97.1605 76.2557C96.7117 76.2909 96.263 76.3511 95.8143 76.4213C95.3655 76.4966 94.9168 76.5619 94.4681 76.6171C94.4681 77.0436 94.4783 77.4752 94.4987 77.9118C94.5191 78.3484 94.5752 78.78 94.6669 79.2066C94.9117 79.1715 95.2839 79.1263 95.7888 79.0811C96.2936 79.036 96.8239 78.9958 97.3848 78.9707C97.9458 78.9406 98.4761 78.9406 98.9809 78.9557C99.4857 78.9757 99.858 79.0209 100.103 79.0962C100.307 79.1715 100.49 79.3019 100.648 79.4876C100.806 79.6733 100.934 79.8791 101.026 80.0999C101.082 80.2655 101.133 80.4662 101.179 80.6971C101.225 80.9279 101.255 81.1588 101.26 81.3946C101.27 81.6255 101.25 81.8463 101.204 82.047C101.158 82.2528 101.061 82.4084 100.908 82.5188C100.776 82.6141 100.633 82.6743 100.475 82.7145C100.317 82.7496 100.164 82.7898 100.011 82.8249C99.0982 83.0306 98.1701 83.1411 97.237 83.1611C96.3038 83.1812 95.3706 83.2464 94.4375 83.3568C94.4579 83.6529 94.5089 84.0996 94.5904 84.6918C94.6771 85.2839 94.7536 85.9012 94.8301 86.5436C94.9066 87.1859 94.9474 87.7982 94.9576 88.3803C94.9678 88.9625 94.9168 89.389 94.8046 89.645C94.672 89.9059 94.463 90.1117 94.1723 90.2723C93.8817 90.4278 93.591 90.5282 93.2901 90.5633H93.3054ZM96.6658 84.772C96.5333 84.8072 96.4058 84.8072 96.2732 84.772C96.2171 84.7369 96.1865 84.6817 96.1763 84.6064C96.1661 84.5312 96.1916 84.476 96.2477 84.4408C96.2834 84.4057 96.3293 84.3906 96.3854 84.4007C96.4415 84.4107 96.4976 84.4007 96.5537 84.3856C96.6658 84.3656 96.8698 84.3304 97.1707 84.2752C97.4715 84.22 97.7877 84.1748 98.1242 84.1347C98.4608 84.0996 98.7769 84.0644 99.0778 84.0394C99.3786 84.0092 99.5928 83.9992 99.7203 83.9992C99.8682 84.0193 99.9753 84.0946 100.042 84.22C100.108 84.3505 100.067 84.4509 99.9141 84.5261C99.8376 84.5613 99.6795 84.5763 99.4398 84.5663C99.1951 84.5563 99.0268 84.5512 98.935 84.5512C98.5628 84.5713 98.1854 84.5964 97.803 84.6365C97.4205 84.6717 97.0432 84.7219 96.6709 84.7771L96.6658 84.772Z" fill="white"/>
<path d="M111.873 89.2587C111.516 89.4243 111.143 89.5398 110.751 89.595C110.358 89.6502 109.976 89.6602 109.603 89.6251C109.063 89.605 108.533 89.5147 108.023 89.349C107.508 89.1834 107.038 88.9526 106.61 88.6515C106.126 88.3353 105.687 87.9489 105.294 87.4822C104.902 87.0205 104.586 86.5186 104.341 85.9767C104.152 85.5852 104.009 85.1787 103.907 84.7522C103.806 84.3256 103.714 83.899 103.642 83.4724C103.494 82.6394 103.418 81.8063 103.418 80.9833C103.418 80.1603 103.443 79.3272 103.5 78.4941C103.52 78.1981 103.551 77.7564 103.596 77.1743C103.642 76.5871 103.709 75.9849 103.79 75.3626C103.872 74.7403 103.979 74.1532 104.096 73.5961C104.219 73.0391 104.372 72.6426 104.56 72.3967C104.785 72.0806 105.075 71.8698 105.427 71.7544C105.708 71.664 106.024 71.6088 106.381 71.5988C106.738 71.5888 107.079 71.6239 107.416 71.6941C107.752 71.7694 108.068 71.8848 108.369 72.0404C108.67 72.201 108.9 72.3967 109.068 72.6376C109.216 72.8434 109.318 73.0742 109.374 73.3352C109.43 73.5961 109.455 73.8571 109.455 74.113C109.435 74.6701 109.359 75.2171 109.216 75.7541C109.078 76.291 108.93 76.828 108.782 77.37C108.482 78.4841 108.293 79.6183 108.206 80.7826C108.125 81.9418 108.176 83.091 108.359 84.2202C108.395 84.5163 108.461 84.8023 108.553 85.0834C108.645 85.3594 108.798 85.6053 109.002 85.806C109.206 86.0118 109.471 86.1523 109.802 86.2226C110.129 86.2978 110.424 86.2878 110.684 86.1924C110.888 86.1372 111.072 86.0369 111.23 85.8863C111.388 85.7358 111.516 85.5802 111.607 85.4146C111.867 84.988 112.066 84.5464 112.194 84.0947C112.326 83.6381 112.418 83.1713 112.474 82.6896C112.622 81.7963 112.719 80.898 112.77 79.9896C112.816 79.0813 112.887 78.173 112.979 77.2596C112.999 77.0538 113.035 76.7377 113.091 76.3111C113.147 75.8846 113.209 75.4329 113.275 74.9612C113.341 74.4894 113.418 74.0378 113.514 73.6112C113.606 73.1846 113.708 72.8885 113.82 72.7229C113.897 72.6125 113.994 72.5122 114.116 72.4319C114.239 72.3465 114.361 72.2863 114.494 72.2512C114.733 72.1609 114.993 72.1006 115.264 72.0856C115.534 72.0655 115.799 72.0755 116.059 72.1157C116.472 72.1508 116.803 72.2713 117.069 72.477C117.273 72.6075 117.431 72.7731 117.543 72.9789C117.655 73.1846 117.737 73.3954 117.793 73.6212C117.981 74.2686 118.073 74.9361 118.073 75.6136C118.073 76.291 118.099 76.9635 118.155 77.631C118.211 78.3386 118.298 79.0412 118.42 79.7488C118.542 80.4564 118.716 81.1489 118.94 81.8364C119.129 82.4286 119.343 83.0107 119.598 83.5778C119.848 84.1449 120.108 84.717 120.368 85.2891C120.516 85.6404 120.648 86.0118 120.761 86.4032C120.873 86.7947 120.883 87.1761 120.786 87.5424C120.71 87.8586 120.536 88.1346 120.256 88.3755C120.011 88.5963 119.725 88.7719 119.389 88.8924C119.052 89.0128 118.726 89.073 118.41 89.073C118.002 89.0379 117.655 88.9426 117.375 88.797C117.074 88.6113 116.824 88.3705 116.62 88.0744C116.416 87.7783 116.258 87.4571 116.156 87.1158C116.054 86.7746 115.962 86.4333 115.891 86.1021C115.799 85.7308 115.712 85.3644 115.641 85.0031C115.564 84.6417 115.483 84.2754 115.391 83.904C115.243 84.5514 115.049 85.1938 114.815 85.8261C114.58 86.4584 114.269 87.0406 113.877 87.5826C113.616 87.9338 113.316 88.26 112.979 88.5561C112.643 88.8522 112.27 89.0931 111.857 89.2788L111.873 89.2587ZM109.547 91.1256C109.435 91.1808 109.231 91.2009 108.93 91.1808C108.629 91.1607 108.425 91.1457 108.313 91.1256C107.808 91.0704 107.298 90.9901 106.789 90.8897C106.274 90.7893 105.794 90.6087 105.345 90.3477C104.861 90.0516 104.438 89.6502 104.086 89.1483C104.03 89.073 103.948 88.9576 103.846 88.802C103.744 88.6465 103.704 88.521 103.719 88.4257C103.755 88.2751 103.836 88.1948 103.958 88.1747C104.081 88.1547 104.168 88.2099 104.224 88.3403C104.3 88.4909 104.387 88.6264 104.489 88.7569C104.591 88.8874 104.698 89.0078 104.81 89.1182C105.238 89.5448 105.743 89.8609 106.325 90.0667C106.457 90.1018 106.656 90.152 106.926 90.2072C107.197 90.2624 107.487 90.3126 107.793 90.3628C108.099 90.4079 108.395 90.4531 108.675 90.4882C108.956 90.5234 109.16 90.5334 109.292 90.5183C109.481 90.4832 109.619 90.5083 109.71 90.6037C109.802 90.699 109.828 90.7994 109.782 90.9098C109.736 91.0202 109.654 91.0955 109.542 91.1306L109.547 91.1256ZM119.766 79.1265C119.766 79.3122 119.679 79.4125 119.501 79.4326C119.323 79.4527 119.215 79.3674 119.18 79.1817C119.144 79.0311 119.113 78.7501 119.098 78.3336C119.078 77.917 119.057 77.4804 119.027 77.0237C119.001 76.5671 118.981 76.1305 118.971 75.7139C118.96 75.2974 118.955 75.0113 118.955 74.8658C118.976 74.4392 118.966 74.0026 118.925 73.556C118.889 73.1093 118.767 72.7029 118.563 72.3315C118.415 72.0705 118.236 71.8246 118.032 71.5938C117.828 71.3629 117.584 71.1923 117.303 71.0769C117.155 71.0217 116.997 71.0066 116.839 71.0367C116.681 71.0668 116.528 71.0518 116.375 70.9966C116.263 70.9614 116.212 70.8912 116.222 70.7858C116.232 70.6854 116.294 70.6152 116.406 70.575C116.498 70.5399 116.656 70.5148 116.88 70.5048C117.104 70.4947 117.262 70.5048 117.354 70.5198C117.522 70.555 117.675 70.6252 117.818 70.7306C117.956 70.831 118.104 70.9414 118.252 71.0518C118.512 71.2726 118.741 71.5386 118.935 71.8447C119.129 72.1508 119.266 72.472 119.343 72.8032C119.491 73.4506 119.567 74.113 119.567 74.7805C119.567 75.4479 119.588 76.1154 119.623 76.7829C119.623 76.8581 119.634 77.0037 119.649 77.2295C119.669 77.4503 119.679 77.6912 119.69 77.9522C119.7 78.2131 119.71 78.454 119.73 78.6748C119.751 78.8956 119.756 79.0462 119.756 79.1215L119.766 79.1265Z" fill="white"/>
<path d="M127.246 88.9224C126.889 89.2938 126.43 89.5246 125.859 89.62C125.288 89.7153 124.763 89.6952 124.278 89.5648C124.089 89.5096 123.911 89.4242 123.732 89.3138C123.554 89.2034 123.401 89.0729 123.268 88.9224C123.08 88.6815 122.947 88.2951 122.86 87.7681C122.774 87.2412 122.718 86.6791 122.677 86.0819C122.641 85.4898 122.621 84.9076 122.621 84.3405V83.0458C122.6 81.8414 122.57 80.647 122.524 79.4676C122.478 78.2883 122.407 77.1039 122.315 75.9196C122.294 75.5683 122.259 75.222 122.203 74.8908C122.147 74.5546 122.121 74.2133 122.121 73.862C122.121 73.6763 122.141 73.4907 122.177 73.305C122.213 73.1193 122.279 72.9537 122.371 72.8031C122.504 72.6174 122.667 72.4669 122.876 72.3565C123.08 72.2461 123.299 72.1658 123.534 72.1206C123.768 72.0755 124.003 72.0604 124.247 72.0805C124.492 72.1005 124.717 72.1457 124.921 72.221C125.145 72.3163 125.334 72.4468 125.497 72.6225C125.655 72.7981 125.793 72.9888 125.905 73.1946C126.129 73.6211 126.282 74.0628 126.369 74.5144C126.455 74.9711 126.542 75.4278 126.634 75.8945C126.97 75.2471 127.435 74.7001 128.036 74.2635C128.633 73.8269 129.286 73.5057 129.994 73.305C130.703 73.0992 131.443 73.0239 132.207 73.0691C132.972 73.1143 133.691 73.2849 134.364 73.586C134.885 73.8269 135.364 74.1882 135.792 74.67C136.108 75.0414 136.384 75.4529 136.618 75.9095C136.853 76.3662 137.042 76.8329 137.194 77.3147C137.567 78.3937 137.801 79.5028 137.893 80.657C137.985 81.8062 137.97 82.9404 137.837 84.0545C137.745 84.8876 137.587 85.7056 137.373 86.5035C137.159 87.3014 136.838 88.0542 136.409 88.7568C136.297 88.9425 136.134 89.088 135.92 89.1884C135.705 89.2887 135.496 89.359 135.287 89.3991C135.139 89.4343 134.925 89.4493 134.655 89.4393C134.385 89.4293 134.109 89.4092 133.829 89.3841C133.549 89.354 133.283 89.3088 133.028 89.2436C132.779 89.1783 132.585 89.098 132.452 89.0077C132.248 88.8772 132.095 88.7016 131.988 88.4808C131.886 88.26 131.825 88.0341 131.805 87.8133C131.769 87.2563 131.805 86.6942 131.907 86.1271C132.014 85.56 132.111 84.998 132.207 84.4409C132.34 83.6078 132.473 82.7698 132.595 81.9367C132.717 81.1036 132.773 80.2555 132.753 79.4024C132.733 79.031 132.697 78.6546 132.641 78.2732C132.585 77.8918 132.473 77.5355 132.304 77.1993C132.116 76.7727 131.835 76.4566 131.458 76.2508C131.233 76.1605 130.999 76.1153 130.754 76.1253C130.509 76.1354 130.265 76.1906 130.02 76.291C129.775 76.3913 129.546 76.5218 129.331 76.6824C129.117 76.838 128.944 77.0136 128.811 77.1993C128.546 77.5506 128.337 77.932 128.179 78.3385C128.021 78.745 127.893 79.1665 127.797 79.5931C127.649 80.1853 127.567 80.7875 127.557 81.3897C127.547 81.9919 127.567 82.5991 127.613 83.2114C127.659 83.8236 127.715 84.4409 127.781 85.0632C127.848 85.6855 127.878 86.3028 127.878 86.915C127.878 87.2663 127.837 87.6226 127.751 87.989C127.669 88.3503 127.496 88.6614 127.231 88.9224H127.246ZM137.521 74.4743C137.577 74.6248 137.541 74.7302 137.424 74.7955C137.302 74.8607 137.194 74.8306 137.103 74.7001C136.899 74.4391 136.705 74.1832 136.526 73.9323C136.348 73.6814 136.139 73.4555 135.894 73.2498C135.69 73.044 135.461 72.8784 135.206 72.7479C134.956 72.6174 134.696 72.507 134.436 72.4117C134.38 72.3916 134.247 72.3464 134.043 72.2712C133.839 72.1959 133.707 72.1507 133.65 72.1307C133.447 72.0955 133.248 72.0755 133.064 72.0755H132.253C132.177 72.0755 132.105 72.0554 132.029 72.0202C131.896 71.945 131.886 71.8546 131.998 71.7442C132.075 71.689 132.177 71.6589 132.304 71.6589C132.712 71.6238 133.12 71.6087 133.523 71.6188C133.926 71.6288 134.313 71.6991 134.686 71.8295C135.303 72.0353 135.869 72.3766 136.394 72.8583C136.914 73.3401 137.291 73.8771 137.516 74.4743H137.521Z" fill="white"/>
<rect x="70.5" y="103.201" width="87" height="78.879" rx="4" fill="#005FDF"/>
<rect x="80.8574" y="120.251" width="46.5" height="5.90492" rx="2.95246" fill="white"/>
<rect x="80.8574" y="139.688" width="46.5" height="5.90492" rx="2.95246" fill="white"/>
<rect x="80.8574" y="159.125" width="46.5" height="5.90492" rx="2.95246" fill="white"/>
<ellipse cx="140.643" cy="123.204" rx="6.5" ry="6.397" fill="white"/>
<ellipse cx="140.643" cy="142.641" rx="6.5" ry="6.397" fill="white"/>
<ellipse cx="140.643" cy="162.078" rx="6.5" ry="6.397" fill="white"/>
<circle cx="173.759" cy="35.8079" r="34.8079" fill="white" stroke="#EFF6FF" stroke-width="2"/>
<path d="M176.431 48.4629C176.431 49.8562 175.367 50.8022 174.278 50.8022C173.188 50.8022 172.125 49.8562 172.125 48.4629C172.125 47.0695 173.188 46.1235 174.278 46.1235C175.367 46.1235 176.431 47.0695 176.431 48.4629Z" fill="#2E87FF" stroke="#2E87FF" stroke-width="6"/>
<path d="M161.324 40.3175C163.944 35.8403 168.762 32.8455 174.28 32.8455C179.476 32.8455 184.053 35.5076 186.753 39.5536C186.892 39.7654 187.031 39.9847 187.162 40.1965" stroke="#2E87FF" stroke-width="6" stroke-miterlimit="10" stroke-linecap="round"/>
<path d="M161.324 40.3175C163.944 35.8403 168.762 32.8455 174.28 32.8455C179.476 32.8455 184.053 35.5076 186.753 39.5536C186.892 39.7654 187.031 39.9847 187.162 40.1965" stroke="#2E87FF" stroke-width="6" stroke-miterlimit="10" stroke-linecap="round"/>
<path d="M153.236 31.5523C157.528 25.1466 165.491 20.8434 174.607 20.8434C183.147 20.8434 190.679 24.6248 195.124 30.3725" stroke="#2E87FF" stroke-width="6" stroke-miterlimit="10" stroke-linecap="round"/>
</svg>
