<svg width="25" height="24" viewBox="0 0 25 24" fill="none" xmlns="http://www.w3.org/2000/svg">
<g clip-path="url(#clip0_104_508)">
<path d="M12.5 20C17.1944 20 21 16.4183 21 12C21 7.58172 17.1944 4 12.5 4C7.80558 4 4 7.58172 4 12C4 16.4183 7.80558 20 12.5 20Z" fill="#4F5055"/>
<path d="M8.53372 13.1429C9.15965 13.1429 9.66706 12.6312 9.66706 12C9.66706 11.3688 9.15965 10.8571 8.53372 10.8571C7.9078 10.8571 7.40039 11.3688 7.40039 12C7.40039 12.6312 7.9078 13.1429 8.53372 13.1429Z" fill="white"/>
<path d="M12.5005 13.1429C13.1264 13.1429 13.6339 12.6312 13.6339 12C13.6339 11.3688 13.1264 10.8571 12.5005 10.8571C11.8746 10.8571 11.3672 11.3688 11.3672 12C11.3672 12.6312 11.8746 13.1429 12.5005 13.1429Z" fill="white"/>
<path d="M16.4673 13.1429C17.0932 13.1429 17.6007 12.6312 17.6007 12C17.6007 11.3688 17.0932 10.8571 16.4673 10.8571C15.8414 10.8571 15.334 11.3688 15.334 12C15.334 12.6312 15.8414 13.1429 16.4673 13.1429Z" fill="white"/>
<path d="M6.32382 19.68L9.14582 18.9143C9.47449 18.8228 9.58782 18.4114 9.34982 18.16L7.28716 16.08C7.04916 15.84 6.62982 15.9428 6.53916 16.2857L5.77982 19.1314C5.68916 19.4628 5.99516 19.7714 6.32382 19.68Z" fill="#4F5055"/>
</g>
<defs>
<clipPath id="clip0_104_508">
<rect width="17" height="16" fill="white" transform="translate(4 4)"/>
</clipPath>
</defs>
</svg>
