<svg width="470" height="150" viewBox="0 0 470 150" fill="none" xmlns="http://www.w3.org/2000/svg">
<path d="M337.628 148L388.228 2H418.228L469.028 148H439.028L428.628 112.8H377.228L366.628 148H337.628ZM383.428 91.4H422.228L403.028 26.6H402.628L383.428 91.4Z" fill="black" fill-opacity="0.03"/>
<path d="M349.105 2V25.2H307.304V148H278.904V25.2H237.104V2H349.105Z" fill="black" fill-opacity="0.03"/>
<path d="M117.206 148L167.806 2H197.806L248.606 148H218.606L208.206 112.8H156.806L146.206 148H117.206ZM163.006 91.4H201.806L182.606 26.6H182.206L163.006 91.4Z" fill="black" fill-opacity="0.03"/>
<path d="M116.603 73C116.603 97.9333 109.936 117 96.6029 130.2C83.4029 143.4 64.5363 150 40.0029 150C25.7363 150 12.4029 149 0.00292969 147V2.99999C12.4029 0.999994 25.7363 0 40.0029 0C64.4029 0 83.2696 6.39999 96.6029 19.2C109.936 31.8667 116.603 49.8 116.603 73ZM90.0029 73C90.0029 39.2667 73.8029 22.4 41.4029 22.4C36.3363 22.4 31.7363 22.8 27.6029 23.6V126.4C31.7363 127.2 36.3363 127.6 41.4029 127.6C57.6696 127.6 69.8029 123.133 77.8029 114.2C85.9363 105.267 90.0029 91.5333 90.0029 73Z" fill="black" fill-opacity="0.03"/>
</svg>
