<svg width="228" height="228" viewBox="0 0 228 228" fill="none" xmlns="http://www.w3.org/2000/svg">
<rect x="37.1465" y="70.6223" width="153.707" height="111.035" rx="12" fill="#C9D4E2"/>
<rect x="98.0723" y="179.297" width="31.8569" height="22.8111" fill="#021438"/>
<rect x="90.2051" y="196.604" width="47.5886" height="7.4726" fill="#021438"/>
<path d="M61.6992 164.927C61.6992 162.71 63.4968 160.912 65.7142 160.912H162.283C164.5 160.912 166.298 162.71 166.298 164.927C166.298 167.145 164.5 168.942 162.283 168.942H65.7142C63.4968 168.942 61.6992 167.145 61.6992 164.927Z" fill="white"/>
<g clip-path="url(#clip0_104_479)">
<path d="M172.197 71.6173C172.197 39.0373 145.777 12.6173 113.197 12.6173C113.027 12.6173 112.867 12.6273 112.697 12.6273V46.6173C126.777 46.6173 138.197 58.0373 138.197 72.1173C138.197 83.8073 130.327 93.6573 119.597 96.6673L128.397 128.637C153.617 121.937 172.197 98.9573 172.197 71.6273V71.6173Z" fill="#2E87FF"/>
<path d="M112.697 46.6173V22.6173C100.147 22.6173 88.7066 27.2973 79.9766 34.9873L95.5766 53.2173C100.107 49.1173 106.107 46.6173 112.697 46.6173Z" fill="#0547F5"/>
<path d="M119.577 96.6673C117.387 97.2773 115.087 97.6173 112.697 97.6173C98.6173 97.6173 87.1973 86.1973 87.1973 72.1173C87.1973 64.6273 90.4273 57.8873 95.5773 53.2173L79.9773 34.9873C69.6973 44.0573 63.1973 57.3273 63.1973 72.1173C63.1973 99.4573 85.3573 121.617 112.697 121.617C117.327 121.617 121.797 120.967 126.047 119.777L119.577 96.6673Z" fill="#0DC1B6"/>
</g>
<defs>
<clipPath id="clip0_104_479">
<rect width="109" height="116.01" fill="white" transform="translate(63.1973 12.6173)"/>
</clipPath>
</defs>
</svg>
