<svg width="84" height="54" viewBox="0 0 84 54" fill="none" xmlns="http://www.w3.org/2000/svg">
<path d="M22.345 22.843C21.8945 23.1589 21.4102 23.3958 20.8809 23.565C20.3515 23.7342 19.8109 23.8132 19.2816 23.8132C18.144 23.8132 17.1642 23.3958 16.342 22.561C15.8577 22.0647 15.4523 21.5006 15.1257 20.8689C14.7991 20.2372 14.5287 19.583 14.3035 18.9174C13.9881 18.015 13.7629 17.1125 13.6165 16.1875C13.4701 15.2625 13.3462 14.3375 13.2336 13.3899C13.1209 14.3375 12.9858 15.2738 12.8168 16.2213C12.6479 17.1689 12.4114 18.1052 12.096 19.0528C11.9158 19.5942 11.7131 20.1131 11.4653 20.6208C11.2175 21.1284 10.9247 21.5909 10.5643 22.0195C10.1476 22.561 9.67457 22.9784 9.16775 23.2717C8.63841 23.5424 8.05276 23.6891 7.42205 23.7229C6.79135 23.7568 6.18317 23.6778 5.60877 23.5086C4.96681 23.3055 4.36989 22.9897 3.82928 22.561C3.28868 22.1324 2.81565 21.6586 2.4102 21.1397C1.76823 20.3049 1.26141 19.3799 0.91227 18.3421C0.551867 17.3043 0.315353 16.2665 0.180202 15.2061C0 13.796 -0.0450504 12.3747 0.0450504 10.9308C0.135151 9.48685 0.270302 8.05423 0.450504 6.61032C0.495554 6.22678 0.551867 5.85452 0.630705 5.48226C0.709544 5.11 0.799644 4.74902 0.91227 4.38805C1.0249 4.13987 1.14878 3.8917 1.28394 3.64353C1.41909 3.39536 1.59929 3.18103 1.81328 3.00054C2.08358 2.79749 2.4102 2.63956 2.81565 2.51548C3.2211 2.39139 3.63782 2.31243 4.0658 2.27858C4.49378 2.24474 4.92175 2.25602 5.34973 2.32371C5.76645 2.39139 6.12685 2.49291 6.41968 2.62828C6.88145 2.87645 7.21932 3.23743 7.42205 3.71121C7.5572 4.07219 7.62478 4.44445 7.63604 4.82799C7.63604 5.21153 7.63604 5.59507 7.62478 5.9786C7.60225 6.36214 7.56847 6.86977 7.51215 7.51276C7.45584 8.15575 7.39953 8.85514 7.34321 9.59966C7.2869 10.3555 7.24185 11.1338 7.1968 11.946C7.15175 12.7582 7.14049 13.5253 7.15175 14.2585C7.15175 14.9918 7.20806 15.6573 7.29816 16.2439C7.38826 16.8418 7.53468 17.293 7.72614 17.6089C7.81624 17.7442 7.94013 17.8796 8.09781 18.015C8.25548 18.1503 8.41316 18.1954 8.55957 18.1503C8.71725 18.1052 8.86366 18.0037 8.98755 17.8345C9.1227 17.6653 9.23533 17.4735 9.33669 17.2592C9.43806 17.0448 9.51689 16.8305 9.57321 16.6049C9.62952 16.3793 9.67457 16.1762 9.71962 15.9957C10.035 14.6195 10.2264 13.2433 10.3165 11.8445C10.4066 10.4457 10.5868 9.06948 10.8459 7.69325C10.9135 7.37739 11.0148 7.07282 11.1612 6.76824C11.3076 6.46367 11.5216 6.23806 11.8145 6.08013C11.9947 5.96732 12.2424 5.87708 12.5691 5.79812C12.8957 5.71915 13.1435 5.74171 13.3237 5.84324C13.3462 5.8658 13.3687 5.8658 13.4025 5.84324C13.4363 5.82068 13.4588 5.8094 13.4813 5.8094C13.7516 5.8094 14.0219 5.85452 14.3148 5.94476C14.6076 6.03501 14.8328 6.18165 15.013 6.3847C15.2833 6.678 15.4635 7.00513 15.5649 7.37739C15.6663 7.74965 15.7338 8.12191 15.7789 8.50545C15.9591 9.58838 16.0943 10.6488 16.1844 11.7091C16.2745 12.7695 16.3983 13.8299 16.556 14.9128C16.6236 15.2963 16.6912 15.6799 16.77 16.0747C16.8488 16.4695 16.9727 16.8531 17.1529 17.2366C17.2205 17.372 17.2881 17.5073 17.3669 17.654C17.4458 17.8006 17.5359 17.9134 17.6372 18.0037C17.7386 18.0939 17.84 18.1503 17.9526 18.1842C18.0652 18.218 18.1891 18.1842 18.3242 18.1052C18.5945 17.9473 18.7973 17.6765 18.9437 17.293C19.0901 16.9095 19.1915 16.4921 19.259 16.0296C19.3266 15.5671 19.3604 15.1046 19.3717 14.6421C19.3717 14.1796 19.3829 13.796 19.3829 13.4802C19.3379 12.2393 19.259 11.0097 19.1464 9.79143C19.0338 8.56185 18.9437 7.33227 18.8761 6.10269C18.8536 5.62891 18.8649 5.13256 18.8874 4.61366C18.9212 4.09475 19.0676 3.64353 19.3379 3.25999C19.5857 2.92158 19.9235 2.68468 20.3515 2.54932C20.7795 2.41395 21.1962 2.33499 21.6017 2.31243C22.1085 2.2673 22.6378 2.28986 23.1672 2.38011C23.6965 2.47035 24.1695 2.6734 24.5637 2.98926C24.8791 3.21487 25.1156 3.49688 25.2845 3.84658C25.4535 4.19628 25.5886 4.54597 25.7012 4.90695C25.8139 5.35817 25.8927 5.79812 25.949 6.22678C26.0053 6.65544 26.0616 7.09538 26.1292 7.5466C26.2193 8.31368 26.2869 9.08076 26.3432 9.83655C26.3995 10.6036 26.4333 11.382 26.4558 12.1603C26.4558 13.311 26.377 14.4616 26.2193 15.6122C26.0616 16.7741 25.7688 17.8909 25.3183 18.9738C25.003 19.7409 24.5975 20.4628 24.102 21.1284C23.6064 21.8052 23.0095 22.3692 22.3225 22.8205L22.345 22.843ZM9.80972 5.36945C9.7872 5.5725 9.67457 5.68531 9.46058 5.70787C9.24659 5.73043 9.1227 5.65147 9.07765 5.47098C8.96503 5.11 8.89745 4.74902 8.87493 4.37677C8.8524 4.00451 8.78483 3.65481 8.6722 3.31639C8.492 2.82005 8.2217 2.42523 7.83877 2.13194C7.43331 1.79352 6.98281 1.52279 6.45347 1.30846C5.93539 1.09413 5.40605 1.00388 4.86544 1.02644H4.30231C4.03201 1.02644 3.85181 1.00388 3.73918 0.958759C3.62656 0.891076 3.59277 0.800831 3.62656 0.688026C3.66034 0.57522 3.72792 0.496257 3.84055 0.451134C3.95317 0.428573 4.17842 0.406012 4.50504 0.383451C4.84292 0.36089 5.05691 0.349609 5.16953 0.349609C5.60877 0.349609 6.05928 0.428573 6.49852 0.586501C6.93776 0.744429 7.35448 0.936198 7.72614 1.16181C8.18791 1.4551 8.57084 1.78224 8.84114 2.14322C9.1227 2.50419 9.32543 2.95542 9.46058 3.49688C9.48311 3.56457 9.51689 3.68865 9.56194 3.86914C9.60699 4.04963 9.64078 4.2414 9.67457 4.44445C9.70836 4.6475 9.73088 4.83927 9.75341 5.01976C9.77593 5.20025 9.7872 5.32433 9.7872 5.39202L9.80972 5.36945ZM21.6805 24.8622C21.5453 24.9976 21.3426 25.0991 21.0611 25.1781C20.7795 25.2571 20.4867 25.3135 20.1713 25.3473C19.856 25.3812 19.5519 25.4037 19.259 25.4037H18.5382C18.2454 25.3586 17.9638 25.3248 17.6935 25.3022C17.412 25.2796 17.1417 25.2345 16.8714 25.1668C16.4547 25.0315 16.0717 24.8397 15.7338 24.5915C15.5762 24.4787 15.4635 24.3546 15.396 24.2193C15.3284 24.0839 15.396 24.0049 15.5649 23.9824C15.655 23.9598 15.7451 23.9824 15.8352 24.0275C15.9253 24.0839 16.0154 24.1403 16.1055 24.1741C16.4659 24.3772 16.8488 24.5125 17.2543 24.5915C17.6598 24.6705 18.0652 24.7269 18.4707 24.7382C18.8311 24.7382 19.1689 24.7382 19.5068 24.7043C19.8447 24.6818 20.1713 24.6366 20.5092 24.569C20.5768 24.5464 20.7232 24.5013 20.9372 24.4336C21.1624 24.3659 21.3088 24.3208 21.3651 24.2982C21.5228 24.2757 21.6354 24.3321 21.7143 24.4674C21.7931 24.6028 21.7706 24.7269 21.6692 24.8397L21.6805 24.8622Z" fill="#4F5055"/>
<path d="M31.0508 25.3697C30.4089 25.4825 29.7669 25.4712 29.1362 25.3358C28.5055 25.2005 27.9311 24.9523 27.413 24.5913C27.2779 24.5011 27.2216 24.377 27.2441 24.2191C27.2666 24.0611 27.368 24.0047 27.5482 24.0499C27.6608 24.0499 27.7396 24.0837 27.796 24.1514C27.8523 24.2191 27.9198 24.2755 28.0099 24.3206C28.4942 24.6139 29.0348 24.7944 29.6092 24.8733C30.1836 24.9523 30.7468 24.9297 31.2761 24.8282C31.4338 24.8056 31.659 24.7267 31.9744 24.6139C32.2897 24.4898 32.4812 24.377 32.5713 24.2642C32.6614 24.1739 32.7515 24.1627 32.8529 24.2303C32.9542 24.298 32.9767 24.3883 32.9317 24.5011C32.8866 24.6139 32.774 24.7267 32.5826 24.8395C32.3911 24.9523 32.2447 25.0313 32.1321 25.0764C31.9519 25.1666 31.7716 25.223 31.5802 25.2682C31.3887 25.302 31.2085 25.3358 31.0283 25.381L31.0508 25.3697ZM45.253 24.7944C44.8475 24.9974 44.4083 25.1328 43.924 25.2118C43.4397 25.2907 42.9441 25.302 42.4599 25.223C41.9756 25.1553 41.5138 25.0087 41.0971 24.7831C40.6804 24.5575 40.3312 24.2529 40.0609 23.8694C39.9258 23.6663 39.7794 23.3166 39.6104 22.8203C39.4415 22.3239 39.2951 21.7937 39.1599 21.2297C39.0248 20.6657 38.9009 20.1242 38.7882 19.594C38.6756 19.0638 38.5968 18.6803 38.5517 18.4321C38.1125 18.4547 37.6507 18.4773 37.189 18.4773C36.7272 18.4773 36.2654 18.5224 35.8262 18.5562C35.7136 18.5562 35.4996 18.5788 35.1955 18.6126C34.8801 18.6465 34.5535 18.6803 34.1931 18.7142C33.8327 18.748 33.5061 18.7818 33.1907 18.8044C32.8754 18.827 32.6727 18.8382 32.56 18.8382C32.56 18.9962 32.56 19.2331 32.5488 19.5489C32.5375 19.8648 32.515 20.1919 32.4812 20.5303C32.4474 20.8687 32.4024 21.1846 32.346 21.4779C32.2897 21.7712 32.2222 21.9855 32.1321 22.1209C31.9744 22.3465 31.7604 22.527 31.5013 22.6736C31.231 22.8203 30.9382 22.9218 30.6116 22.9782C30.285 23.0346 29.9696 23.0572 29.6655 23.0233C29.3502 23.0008 29.0686 22.9444 28.7983 22.8541C28.6181 22.7864 28.4604 22.7075 28.314 22.6059C28.1676 22.5044 28.0437 22.3803 27.9311 22.2224C27.7284 21.9517 27.627 21.5681 27.627 21.0718C27.627 20.5754 27.6721 20.0565 27.7734 19.5151C27.8748 18.9736 27.9987 18.4434 28.1451 17.9245C28.2915 17.4056 28.3929 16.9769 28.4604 16.6385C28.8208 15.0818 29.3051 13.5702 29.9133 12.1037C30.5215 10.626 31.2423 9.21593 32.0645 7.87354C32.7064 6.83573 33.4272 5.85432 34.2269 4.90675C35.0265 3.95919 35.9388 3.16955 36.9637 2.51528C37.3016 2.31223 37.6958 2.18814 38.1463 2.13174C38.5968 2.07534 39.0586 2.08662 39.5091 2.1543C39.9596 2.22198 40.3988 2.34607 40.8268 2.53784C41.2435 2.72961 41.6039 2.95522 41.8967 3.22595C42.2121 3.54181 42.4711 3.89151 42.6964 4.28632C42.9216 4.68114 43.1018 5.08724 43.2257 5.5159C43.4284 6.14762 43.5749 6.79061 43.6537 7.4336C43.7438 8.08787 43.8452 8.74214 43.9578 9.38513C44.0028 9.61075 44.0704 9.983 44.1605 10.5019C44.2506 11.0208 44.3632 11.6074 44.4984 12.273C44.6335 12.9385 44.7687 13.6379 44.9151 14.3599C45.0615 15.0931 45.1967 15.7925 45.3318 16.4468C45.467 17.1123 45.5796 17.6989 45.681 18.2178C45.7823 18.7367 45.8612 19.0977 45.9287 19.3007C45.9513 19.391 45.9963 19.5602 46.0639 19.8084C46.1315 20.0565 46.199 20.316 46.2779 20.5867C46.3567 20.8575 46.4356 21.1169 46.5144 21.3651C46.5932 21.6133 46.6383 21.7825 46.6608 21.8727C46.841 22.4367 46.8185 22.9669 46.5932 23.4633C46.4806 23.7566 46.3004 24.0047 46.0639 24.2191C45.8161 24.4334 45.5571 24.6139 45.2642 24.7718L45.253 24.7944ZM35.0491 10.626C34.7337 11.3254 34.4409 12.0361 34.1706 12.7467C33.889 13.4687 33.6412 14.1906 33.416 14.9013C34.1931 14.8111 34.9702 14.7547 35.7361 14.7321C36.5019 14.7096 37.2791 14.6757 38.0562 14.6306C38.0337 14.3824 37.9999 13.8861 37.9436 13.1416C37.8872 12.397 37.8309 11.6187 37.7633 10.7952C37.6958 9.97172 37.6395 9.19337 37.5944 8.44885C37.5494 7.70433 37.5268 7.20799 37.5268 6.95982C36.9975 7.47872 36.5245 8.05403 36.1303 8.68574C35.7361 9.31745 35.3757 9.96044 35.0603 10.6034L35.0491 10.626ZM45.253 3.94791C45.1629 4.10584 45.0615 4.16224 44.9376 4.11712C44.8137 4.07199 44.7912 3.97047 44.8588 3.81254C44.8137 3.7223 44.7349 3.58693 44.6223 3.40644C44.5096 3.22595 44.397 3.03418 44.2731 2.83113C44.1492 2.62808 44.0254 2.43631 43.8902 2.25583C43.7551 2.07534 43.6537 1.95125 43.5861 1.88357C43.2708 1.61283 42.9216 1.3985 42.5387 1.24058C42.1445 1.08265 41.7503 0.969842 41.3561 0.902159C41.2435 0.879598 41.0182 0.868317 40.6916 0.868317C40.365 0.868317 40.1398 0.845756 40.0271 0.800634C39.937 0.755512 39.892 0.676548 39.892 0.563743C39.892 0.450937 39.937 0.371973 40.0271 0.326851C40.1623 0.259168 40.2974 0.236607 40.4438 0.247887C40.5903 0.247887 40.7254 0.259168 40.8606 0.259168C41.3223 0.281729 41.7841 0.371973 42.2459 0.541182C42.6964 0.71039 43.1131 0.91344 43.496 1.16161C43.8677 1.40978 44.183 1.72564 44.4083 2.12046C44.6448 2.51528 44.8588 2.89882 45.0615 3.28236C45.1066 3.3726 45.1629 3.48541 45.2305 3.62077C45.298 3.75614 45.3093 3.85766 45.2642 3.92535L45.253 3.94791Z" fill="#4F5055"/>
<path d="M55.7607 23.9148C55.1863 23.9599 54.6006 24.0051 54.0262 24.0276C53.4518 24.0615 52.8662 24.084 52.2918 24.084C51.8863 24.0615 51.4921 24.0276 51.0867 24.0051C50.6925 23.9712 50.2983 23.9035 49.9154 23.7907C49.4311 23.6328 49.0256 23.3959 48.7103 23.0801C48.485 22.8319 48.3273 22.516 48.2485 22.1212C48.1584 21.7264 48.1246 21.309 48.1359 20.8691C48.1359 20.4291 48.2035 20.0005 48.3048 19.5831C48.4062 19.1657 48.5301 18.8047 48.6877 18.4889C48.8004 18.2858 48.9355 18.1053 49.0932 17.9361C49.2509 17.7669 49.4311 17.6541 49.6225 17.5864C49.8703 17.4962 50.1068 17.4736 50.3546 17.4962C50.6024 17.53 50.8389 17.5751 51.0867 17.609C51.7512 17.7218 52.4269 17.8008 53.1027 17.8459C53.7784 17.891 54.4542 17.97 55.1187 18.0828C55.4566 18.1279 55.7607 18.0828 56.031 17.97C56.3125 17.8459 56.5265 17.6767 56.6954 17.4511C56.8644 17.2255 56.9432 16.9886 56.9432 16.7291C56.9432 16.4697 56.8306 16.2215 56.6053 15.9733C56.4927 15.8605 56.3576 15.7703 56.1886 15.7026C56.0197 15.6349 55.8508 15.5785 55.6706 15.5334C55.0061 15.3754 54.3416 15.2062 53.6883 15.0145C53.0351 14.8227 52.3931 14.5858 51.7737 14.2925C51.357 14.112 50.9403 13.8977 50.5348 13.6495C50.1406 13.4013 49.7802 13.108 49.4649 12.7696C49.2396 12.5215 49.0481 12.262 48.8792 11.98C48.7103 11.698 48.5751 11.4047 48.4625 11.0888C48.3048 10.5925 48.226 10.0849 48.2147 9.56595C48.2035 9.04705 48.226 8.52814 48.2936 8.00924C48.3611 7.55802 48.4512 7.10679 48.5639 6.65557C48.6765 6.20435 48.8454 5.78697 49.0594 5.40343C49.3973 4.81684 49.8253 4.30922 50.3433 3.88056C50.8614 3.4519 51.4133 3.07964 51.9877 2.76378C53.0351 2.24488 54.1276 1.87262 55.2876 1.64701C56.4477 1.4214 57.5965 1.33115 58.7565 1.37627C59.3084 1.39884 59.8602 1.43268 60.4008 1.4778C60.9415 1.52292 61.4595 1.66957 61.9551 1.91774C62.2704 2.07567 62.552 2.31256 62.8223 2.62842C63.0476 2.94427 63.2165 3.30525 63.3404 3.72263C63.4643 4.14001 63.5318 4.56867 63.5431 5.00861C63.5431 5.44855 63.4981 5.86593 63.3967 6.27203C63.2841 6.67813 63.1039 7.02783 62.8674 7.32112C62.6872 7.50161 62.4844 7.64826 62.2704 7.76107C62.0452 7.87387 61.8087 7.95284 61.5722 7.99796C61.1329 8.06564 60.6937 8.05436 60.2544 7.96412C59.8265 7.87387 59.3759 7.80619 58.9367 7.76107C58.2046 7.67082 57.4275 7.69338 56.6053 7.82875C56.2675 7.87387 55.9409 7.94156 55.603 8.04308C55.2651 8.14461 54.961 8.27997 54.6682 8.46046C54.0938 8.82144 53.7221 9.35162 53.5644 10.051C53.5194 10.2089 53.5081 10.3782 53.5194 10.5586C53.5194 10.7391 53.5757 10.8971 53.6658 11.0324C53.846 11.3257 54.1726 11.5513 54.6457 11.7205C55.1187 11.8897 55.6368 12.0138 56.1999 12.1041C56.7518 12.1943 57.3149 12.262 57.8668 12.3071C58.4186 12.3523 58.8691 12.3974 59.1957 12.4425C59.5674 12.4876 59.9391 12.544 60.2995 12.6117C60.6599 12.6794 60.9978 12.7809 61.3356 12.9163C61.9326 13.1645 62.4506 13.5818 62.8674 14.1684C63.1151 14.5068 63.2953 14.8791 63.4192 15.2965C63.5431 15.7139 63.6219 16.1312 63.667 16.5599C63.7346 17.3721 63.667 18.1956 63.4643 19.0191C63.2615 19.8538 62.9462 20.6096 62.4957 21.2752C62.2479 21.6587 61.9438 21.9971 61.5834 22.3017C61.2118 22.6063 60.8288 22.8432 60.4346 23.0237C59.7026 23.3621 58.9367 23.5764 58.1371 23.6779C57.3374 23.7794 56.5378 23.8584 55.7381 23.8923L55.7607 23.9148ZM49.127 3.40677C48.9468 3.47446 48.8342 3.42933 48.7778 3.26013C48.7215 3.09092 48.7328 2.93299 48.8229 2.77506C48.8454 2.70738 48.913 2.61713 49.0256 2.49305C49.1382 2.36896 49.2509 2.24488 49.3748 2.12079C49.4987 1.9967 49.6113 1.8839 49.7239 1.77109C49.8365 1.65829 49.9266 1.57932 49.9942 1.5342C50.1969 1.37627 50.3884 1.24091 50.5799 1.11682C50.7713 0.992735 50.9741 0.87993 51.1993 0.767124C51.6611 0.541513 52.1454 0.372305 52.6522 0.259499C53.1477 0.146694 53.6545 0.06773 54.1726 0.0226078C54.4655 4.66611e-05 54.6119 0.101572 54.6231 0.327183C54.6231 0.552794 54.5105 0.699441 54.2402 0.767124C53.418 0.947613 52.5959 1.1845 51.785 1.4778C50.9741 1.77109 50.287 2.22232 49.7352 2.83147C49.6901 2.87659 49.6 2.97811 49.4536 3.14732C49.3072 3.31653 49.2058 3.40677 49.1382 3.42933L49.127 3.40677ZM59.2633 25.5731C59.1732 25.5956 59.0155 25.6182 58.779 25.652C58.5425 25.6859 58.2947 25.7197 58.0244 25.7535C57.7541 25.7874 57.5064 25.8212 57.2586 25.8551C57.0108 25.8889 56.8419 25.9002 56.763 25.9002C56.6054 25.9002 56.4927 25.8551 56.4139 25.7874C56.335 25.7084 56.29 25.6069 56.2787 25.5054C56.2787 25.3926 56.29 25.291 56.3576 25.2008C56.4251 25.1106 56.5378 25.0542 56.6954 25.0316C56.8306 25.0316 57.0671 25.009 57.4163 24.9752C57.7654 24.9413 58.1145 24.9075 58.4862 24.8737C58.8579 24.8398 59.1957 24.806 59.5224 24.7609C59.849 24.7157 60.0742 24.6706 60.2094 24.6255C60.3896 24.5578 60.5135 24.6029 60.5923 24.7609C60.6711 24.9188 60.6374 25.0542 60.5135 25.167C60.3333 25.3249 60.1418 25.4151 59.9278 25.449C59.7138 25.4828 59.4998 25.5279 59.2746 25.5731H59.2633Z" fill="#4F5055"/>
<path d="M71.8213 25.0992C71.4384 25.1443 71.0667 25.1556 70.7063 25.1331C70.3346 25.1105 69.9855 25.0428 69.6589 24.93C69.1971 24.8172 68.8142 24.6029 68.5214 24.287C68.3412 24.1065 68.206 23.9035 68.1046 23.6779C68.0033 23.4523 67.9357 23.2154 67.8907 22.9672C67.8231 22.6288 67.7442 21.9745 67.6429 20.9931C67.5415 20.0117 67.4402 18.9626 67.3275 17.8345C67.2149 16.7065 67.1135 15.6574 67.0234 14.676C66.9333 13.6946 66.8658 13.0403 66.8207 12.7019C66.6856 11.6641 66.4716 10.6601 66.19 9.66742C65.8972 8.67473 65.6494 7.68204 65.4241 6.66679C65.334 6.30582 65.2777 5.94484 65.2439 5.57258C65.2102 5.20032 65.2439 4.83934 65.3566 4.47837C65.4917 4.07227 65.6945 3.68873 65.976 3.31647C66.2576 2.94421 66.5842 2.67348 66.9559 2.49299C67.2262 2.38018 67.5528 2.27866 67.9582 2.18841C68.3637 2.09817 68.7691 2.04177 69.1971 2.00793C69.6138 1.97408 70.0193 1.97408 70.4135 2.01921C70.7964 2.06433 71.123 2.16585 71.3595 2.32378C71.7199 2.57195 72.024 2.87653 72.2718 3.23751C72.5308 3.59848 72.7448 3.98202 72.925 4.38812C73.0377 4.70398 73.1165 5.01983 73.1728 5.33569C73.2291 5.65154 73.2742 5.97868 73.3192 6.3171C73.4319 7.33235 73.5219 8.32503 73.5895 9.31772C73.6571 10.3104 73.7134 11.3031 73.7585 12.3183C74.2653 12.2732 74.7946 12.2394 75.324 12.2168C75.8533 12.1943 76.3939 12.1717 76.9233 12.1491H77.34C77.554 12.1491 77.6891 12.1491 77.7567 12.183C77.7342 12.1604 77.7229 12.1379 77.7229 12.1153V12.0138C77.6328 11.1565 77.5652 10.2991 77.5202 9.43053C77.4751 8.56193 77.4864 7.7046 77.554 6.84728C77.5765 6.53143 77.6103 6.21557 77.6553 5.89972C77.7004 5.58386 77.813 5.29057 77.9932 5.01983C78.1284 4.77166 78.3536 4.56861 78.6577 4.3994C78.973 4.23019 79.3109 4.09483 79.6939 3.9933C80.0768 3.89178 80.4597 3.83537 80.8426 3.81281C81.2256 3.79025 81.5747 3.79025 81.8563 3.81281C82.0365 3.83537 82.2167 3.85794 82.4081 3.89178C82.5996 3.92562 82.7798 4.00458 82.96 4.10611C83.2754 4.33172 83.5006 4.62501 83.6583 4.98599C83.7709 5.30185 83.8385 5.6177 83.8723 5.93356C83.9061 6.24941 83.9286 6.56527 83.9511 6.88112C83.9736 7.60308 83.9736 8.33632 83.9511 9.06955C83.9286 9.81407 83.9173 10.5586 83.9173 11.2918C83.8948 12.3973 83.8948 13.4915 83.9061 14.5857C83.9061 15.68 83.9286 16.7629 83.9511 17.8458C83.9511 18.2294 83.9511 18.7144 83.9849 19.301C84.0074 19.8876 83.9849 20.4855 83.9511 21.0833C83.9061 21.6925 83.816 22.2565 83.6808 22.7867C83.5457 23.3169 83.3429 23.6891 83.0839 23.9148C82.8136 24.1178 82.4982 24.2532 82.1153 24.3209C81.4283 24.4788 80.7187 24.4901 79.9867 24.3547C79.7389 24.3096 79.5024 24.2193 79.2659 24.0727C79.0294 23.926 78.8604 23.7456 78.7478 23.5199C78.5676 23.2266 78.4662 22.9108 78.4437 22.5611C78.4212 22.2114 78.3987 21.873 78.3761 21.5346C78.3311 20.587 78.2973 19.6394 78.2748 18.6693C78.2522 17.6992 78.1847 16.7403 78.072 15.804C78.0045 15.8266 77.9256 15.8379 77.8355 15.8379H77.5652C76.9683 15.8379 76.3601 15.8492 75.752 15.883C75.1438 15.9168 74.5356 15.9845 73.9387 16.0748C73.9837 16.4809 74.0513 17.0449 74.1527 17.7781C74.254 18.5114 74.3329 19.2785 74.3892 20.0681C74.4455 20.869 74.4567 21.6248 74.4342 22.3242C74.4117 23.0349 74.2991 23.5538 74.0963 23.8922C73.8486 24.2757 73.5107 24.5577 73.0827 24.7495C72.6547 24.9413 72.2268 25.0541 71.7988 25.0992H71.8213ZM70.4585 26.5882C70.5712 26.6559 70.6049 26.7575 70.5712 26.9041C70.5374 27.0508 70.4473 27.1297 70.2896 27.1523C70.1995 27.1523 70.0643 27.1297 69.8841 27.1072C69.7039 27.0733 69.5125 27.0395 69.321 27.0056C69.1295 26.9718 68.9268 26.9267 68.7353 26.8928C68.5439 26.8477 68.42 26.8139 68.3524 26.7913C67.992 26.6785 67.6767 26.5093 67.3838 26.2837C67.0685 26.0129 66.832 25.6858 66.663 25.291C66.4941 24.8962 66.3589 24.5013 66.2463 24.0952C66.0886 23.4861 65.9985 22.8657 65.976 22.2227C65.9535 21.5797 65.9197 20.948 65.8747 20.3163C65.8747 20.2486 65.8746 20.1358 65.8634 19.9666C65.8634 19.7974 65.8409 19.6281 65.8183 19.4477C65.7958 19.2672 65.7845 19.098 65.7845 18.9288V18.6129C65.7845 18.5001 65.8409 18.4324 65.9535 18.4098C66.0661 18.3873 66.145 18.4324 66.19 18.5452C66.2125 18.6129 66.2351 18.7257 66.2576 18.8949C66.2801 19.0641 66.2914 19.2446 66.3026 19.4364C66.3026 19.6281 66.3364 19.8086 66.3477 19.9778C66.3702 20.1471 66.3815 20.2599 66.3815 20.3275C66.449 21.0495 66.5166 21.7827 66.5842 22.516C66.6518 23.2605 66.8207 23.9712 67.0797 24.6367C67.1473 24.8172 67.2262 24.9977 67.3163 25.1782C67.4064 25.3587 67.519 25.5053 67.6541 25.6181C67.8343 25.776 68.0258 25.9001 68.2173 25.9904C68.42 26.0806 68.6227 26.1596 68.8142 26.2273C68.8818 26.2498 68.9944 26.2724 69.1521 26.295C69.3097 26.3175 69.4787 26.3401 69.6476 26.3739C69.8278 26.4078 69.9855 26.4416 70.1319 26.4754C70.2783 26.5093 70.3797 26.5431 70.4473 26.5882H70.4585ZM77.0922 3.9933C77.0697 4.10611 77.0134 4.18507 76.9233 4.23019C76.8332 4.27532 76.7543 4.25276 76.6867 4.16251C76.5291 3.98202 76.5291 3.75641 76.6755 3.4744C76.8219 3.19238 76.9683 2.96677 77.126 2.78628C77.5427 2.33506 78.072 2.00793 78.714 1.80488C79.3447 1.60183 79.9754 1.47774 80.5949 1.43262C80.7075 1.43262 80.8652 1.43262 81.0566 1.4439C81.2594 1.45518 81.4733 1.47774 81.6873 1.51158C81.9126 1.54542 82.1153 1.59054 82.2843 1.64695C82.4645 1.70335 82.5996 1.78231 82.6784 1.86128C82.8361 1.97408 82.8699 2.12073 82.7798 2.30122C82.6897 2.48171 82.5546 2.54939 82.3856 2.50427C82.273 2.50427 82.1829 2.47043 82.1153 2.40274C81.8675 2.28994 81.6198 2.21098 81.3495 2.18841C81.0792 2.15457 80.8314 2.13201 80.5836 2.13201C80.0092 2.17713 79.4348 2.27866 78.883 2.43659C78.6802 2.50427 78.4775 2.58323 78.286 2.67348C78.0833 2.76372 77.9031 2.88781 77.7567 3.04574C77.6891 3.09086 77.5765 3.20366 77.4188 3.38415C77.2611 3.56464 77.1598 3.68873 77.1147 3.75641C77.1147 3.77897 77.1147 3.81281 77.1035 3.86922C77.0922 3.92562 77.0922 3.95946 77.0922 3.98202V3.9933Z" fill="#4F5055"/>
<path d="M13.3352 30.4803C13.1324 30.6833 12.986 30.7285 12.8847 30.6269C12.7833 30.5254 12.8283 30.3675 12.9973 30.1419C13.3126 29.7583 13.673 29.4425 14.0785 29.183C14.4839 28.9236 14.9232 28.7431 15.3962 28.6303C15.7679 28.54 16.1733 28.5175 16.5788 28.5626C16.9842 28.6077 17.3784 28.7092 17.7614 28.8672C17.874 28.9123 18.088 29.0138 18.3921 29.1718C18.7074 29.3297 18.8989 29.4425 18.989 29.5102C19.1016 29.623 19.1579 29.7583 19.1692 29.9163C19.1692 30.0742 19.1129 30.1757 18.9552 30.2208C18.8426 30.2434 18.7299 30.2208 18.6061 30.1532C18.4822 30.0855 18.3695 30.0178 18.2569 29.9501C17.8064 29.6568 17.3109 29.4425 16.759 29.3071C16.2071 29.1718 15.6665 29.183 15.1597 29.341C14.7993 29.4538 14.4727 29.6117 14.1573 29.8147C13.842 30.0178 13.5717 30.2434 13.3239 30.4916L13.3352 30.4803ZM18.5723 53.2444C18.3695 53.2896 18.1105 53.3121 17.7726 53.3234C17.4347 53.3347 17.1081 53.3234 16.7703 53.3121C16.4324 53.2896 16.117 53.2444 15.8242 53.1655C15.5201 53.0865 15.2949 52.9737 15.1372 52.8158C14.9795 52.6804 14.8444 52.4322 14.7317 52.0713C14.6191 51.7103 14.5177 51.3268 14.4276 50.9094C14.3375 50.492 14.2587 50.0859 14.1911 49.6911C14.1235 49.2963 14.0785 48.9917 14.056 48.7661C13.8532 47.4124 13.6843 46.0587 13.5604 44.6825C13.4253 43.3176 13.3014 41.9413 13.1887 40.5651C13.1437 39.9334 13.0986 39.1438 13.0423 38.2075C12.986 37.2599 12.9973 36.3123 13.0536 35.3535C13.1212 34.3946 13.2676 33.5148 13.5041 32.7026C13.7406 31.8904 14.1123 31.2925 14.6191 30.9202C14.9795 30.6495 15.3624 30.4803 15.7679 30.4126C16.1846 30.3449 16.5901 30.3675 16.9842 30.4803C17.3784 30.5931 17.7501 30.7736 18.088 31.033C18.4259 31.2925 18.6962 31.6196 18.9214 32.0257C19.8787 31.7776 20.8248 31.5745 21.7708 31.4053C22.7169 31.2361 23.6742 31.1233 24.6541 31.0556C25.2059 31.0105 25.7691 30.9879 26.3435 30.9879C26.9179 30.9879 27.4472 31.1007 27.9653 31.3263C28.4496 31.5068 28.7987 31.834 29.0014 32.3077C29.2717 32.8718 29.3618 33.4584 29.2717 34.0562C29.1816 34.6541 28.8663 35.1053 28.3369 35.3761C28.1342 35.4889 27.7963 35.5678 27.3233 35.6242C26.8503 35.6806 26.3322 35.7258 25.7916 35.7596C25.251 35.7934 24.7329 35.8273 24.2374 35.8498C23.7531 35.8724 23.3927 35.895 23.1674 35.9175C22.6381 35.9626 22.0975 36.0303 21.5681 36.1206C21.0388 36.2108 20.4982 36.2898 19.9688 36.3575C19.9688 36.8764 19.9688 37.3953 20.0026 37.9255C20.0251 38.4556 20.0927 38.9745 20.2053 39.4935C20.4982 39.4483 20.9374 39.3919 21.5343 39.3468C22.1313 39.2904 22.7732 39.2453 23.4377 39.2114C24.1022 39.1776 24.7329 39.1663 25.3411 39.1889C25.938 39.2114 26.3885 39.2678 26.6701 39.3581C26.9179 39.4483 27.1318 39.6063 27.3233 39.8319C27.5148 40.0575 27.6612 40.3057 27.7738 40.5764C27.8414 40.7794 27.8977 41.0163 27.954 41.2983C28.0103 41.5804 28.0441 41.8624 28.0554 42.1444C28.0554 42.4264 28.0441 42.6859 27.9878 42.934C27.9315 43.1822 27.8189 43.374 27.6387 43.5093C27.481 43.6221 27.312 43.7011 27.1206 43.7462C26.9291 43.7913 26.7489 43.8365 26.5687 43.8816C25.4762 44.1298 24.3838 44.2651 23.2688 44.2877C22.1538 44.3103 21.05 44.3892 19.935 44.5246C19.9576 44.8856 20.0139 45.427 20.1152 46.149C20.2166 46.8709 20.3067 47.6155 20.3968 48.3938C20.4869 49.1722 20.532 49.9167 20.5432 50.6161C20.5432 51.3268 20.4982 51.8344 20.363 52.1502C20.2053 52.4661 19.9576 52.7143 19.6084 52.906C19.2593 53.0978 18.9101 53.2106 18.561 53.2557L18.5723 53.2444ZM22.5705 46.2279C22.4128 46.2731 22.2551 46.2731 22.1087 46.2279C22.0412 46.1828 22.0074 46.1151 21.9961 46.0249C21.9848 45.9347 22.0074 45.867 22.0749 45.8218C22.12 45.7767 22.1763 45.7654 22.2439 45.7767C22.3115 45.7767 22.379 45.7767 22.4466 45.7542C22.5818 45.7316 22.8183 45.6865 23.1787 45.6188C23.5391 45.5511 23.9107 45.4947 24.3162 45.4496C24.7216 45.4045 25.0933 45.3593 25.4537 45.3255C25.8141 45.2917 26.0619 45.2804 26.2196 45.2804C26.3998 45.3029 26.5237 45.3932 26.6025 45.5511C26.6813 45.709 26.625 45.8331 26.4561 45.9234C26.366 45.9685 26.1745 45.9911 25.893 45.9685C25.6001 45.9685 25.4087 45.9572 25.296 45.9572C24.8568 45.9798 24.4063 46.0136 23.9445 46.0587C23.4828 46.1039 23.0435 46.1603 22.593 46.2279H22.5705Z" fill="#4F5055"/>
<path d="M40.6693 51.6653C40.2526 51.8684 39.8021 52.0037 39.3404 52.0714C38.8786 52.1391 38.4168 52.1504 37.9776 52.1053C37.3356 52.0827 36.7049 51.9699 36.0967 51.7668C35.4886 51.5638 34.9254 51.2818 34.4073 50.9208C33.833 50.5373 33.3036 50.0635 32.8418 49.4995C32.3801 48.9354 31.9971 48.3263 31.7043 47.6833C31.4791 47.2095 31.3101 46.7132 31.1862 46.1943C31.0624 45.6753 30.961 45.1564 30.8709 44.6375C30.6907 43.6223 30.6006 42.6183 30.6006 41.6143C30.6006 40.6104 30.6344 39.6064 30.7019 38.5912C30.7245 38.2302 30.7583 37.7 30.8146 36.9893C30.8709 36.2786 30.9497 35.5454 31.0511 34.8009C31.1525 34.0451 31.2763 33.3344 31.4228 32.6576C31.5692 31.9808 31.7494 31.4957 31.9746 31.2024C32.2449 30.8189 32.5828 30.5594 33.0108 30.424C33.3487 30.3112 33.7203 30.2548 34.1483 30.2436C34.565 30.2436 34.9817 30.2774 35.3872 30.3676C35.7814 30.4579 36.1643 30.5933 36.5247 30.785C36.8851 30.9768 37.1554 31.2137 37.3581 31.507C37.5383 31.7551 37.6622 32.0372 37.7298 32.353C37.7974 32.6689 37.8312 32.9847 37.8312 33.3006C37.8086 33.9774 37.7185 34.643 37.5496 35.286C37.3807 35.9402 37.2117 36.5945 37.0315 37.2375C36.6711 38.5912 36.4459 39.9674 36.3445 41.3662C36.2431 42.7762 36.3107 44.1638 36.5247 45.5287C36.5698 45.8897 36.6486 46.2394 36.7612 46.5778C36.8739 46.9162 37.0541 47.2095 37.2906 47.4577C37.5383 47.7058 37.8537 47.8751 38.2366 47.9653C38.6308 48.0555 38.98 48.0443 39.284 47.9315C39.5318 47.8638 39.7458 47.7397 39.9373 47.5592C40.1287 47.3787 40.2752 47.1869 40.3878 46.9839C40.7031 46.465 40.9284 45.9348 41.0861 45.3821C41.2437 44.8293 41.3564 44.2653 41.4239 43.6787C41.6041 42.5958 41.7168 41.5128 41.7731 40.4073C41.8294 39.3018 41.9082 38.2076 42.0209 37.1021C42.0434 36.854 42.0884 36.4704 42.156 35.9515C42.2236 35.4326 42.2912 34.8911 42.37 34.3158C42.4488 33.7405 42.5389 33.1991 42.6516 32.6802C42.7642 32.1612 42.8881 31.8003 43.0232 31.5972C43.1133 31.4619 43.226 31.349 43.3724 31.2475C43.5188 31.146 43.6652 31.0783 43.8229 31.0332C44.1157 30.9204 44.4198 30.8527 44.7351 30.8301C45.0618 30.8076 45.3771 30.8301 45.6812 30.864C46.1655 30.9091 46.5709 31.0558 46.8863 31.3039C47.1341 31.4619 47.3143 31.6649 47.4494 31.9131C47.5846 32.1612 47.6859 32.4207 47.7535 32.6914C47.9788 33.4811 48.0914 34.282 48.0914 35.1055C48.0914 35.929 48.1252 36.7412 48.1928 37.5534C48.2603 38.4107 48.3617 39.2567 48.5081 40.114C48.6545 40.9714 48.8573 41.8061 49.1276 42.6409C49.3528 43.3628 49.6118 44.0622 49.9159 44.7503C50.22 45.4385 50.5241 46.1266 50.8282 46.826C51.0084 47.2546 51.1661 47.7058 51.29 48.1796C51.4251 48.6534 51.4364 49.1159 51.3238 49.5671C51.2337 49.9507 51.0197 50.2891 50.6931 50.5824C50.4002 50.8531 50.0624 51.0562 49.6569 51.2028C49.2514 51.3495 48.8685 51.4172 48.4856 51.4172C48.0013 51.372 47.5846 51.2592 47.2467 51.0787C46.8863 50.8531 46.5935 50.5598 46.3457 50.1988C46.0979 49.8379 45.9177 49.4543 45.7938 49.037C45.6699 48.6196 45.5686 48.2135 45.4785 47.8074C45.3659 47.3562 45.2645 46.9162 45.1744 46.4763C45.0843 46.0363 44.9829 45.5964 44.8703 45.1452C44.6901 45.9348 44.4648 46.7132 44.1833 47.469C43.9017 48.236 43.53 48.9467 43.0683 49.5897C42.7529 50.0184 42.4038 50.4132 41.9983 50.7742C41.5929 51.1351 41.1536 51.4284 40.6693 51.654V51.6653ZM37.8988 53.9214C37.7636 53.9891 37.5271 54.0117 37.1667 53.9891C36.8063 53.9666 36.5698 53.944 36.4346 53.9214C35.8377 53.8537 35.2295 53.7635 34.6213 53.6394C34.0132 53.5153 33.4388 53.301 32.9094 52.9851C32.335 52.6242 31.8282 52.1391 31.4115 51.53C31.3439 51.4397 31.2538 51.3043 31.1299 51.1126C31.006 50.9208 30.961 50.7742 30.9835 50.6614C31.0286 50.4809 31.1187 50.3793 31.2651 50.3568C31.4115 50.3342 31.5129 50.4019 31.5804 50.5598C31.6705 50.7403 31.7719 50.9095 31.8958 51.0675C32.0197 51.2254 32.1436 51.372 32.2787 51.5074C32.7855 52.0263 33.3937 52.4098 34.0807 52.658C34.2384 52.7031 34.4749 52.7595 34.8015 52.8272C35.1281 52.8949 35.466 52.9513 35.8377 53.0077C36.2094 53.0641 36.5585 53.1092 36.8851 53.1544C37.223 53.1995 37.4595 53.2108 37.6172 53.1882C37.8424 53.1431 38.0001 53.1882 38.1127 53.2897C38.2254 53.4025 38.2479 53.5266 38.1916 53.662C38.1353 53.7973 38.0452 53.8876 37.91 53.9327L37.8988 53.9214ZM50.0736 39.3808C50.0736 39.6064 49.9723 39.7305 49.7583 39.7531C49.5443 39.7756 49.4204 39.6741 49.3753 39.4485C49.3303 39.268 49.2965 38.9296 49.274 38.422C49.2514 37.9143 49.2289 37.3841 49.1951 36.8314C49.1613 36.2786 49.1388 35.7485 49.1276 35.2408C49.1163 34.7332 49.1163 34.3948 49.1163 34.2143C49.1388 33.6954 49.1163 33.1652 49.0825 32.6237C49.0375 32.0823 48.891 31.5859 48.6545 31.1347C48.4743 30.8189 48.2716 30.5256 48.0238 30.2436C47.776 29.9615 47.4945 29.7585 47.1566 29.6231C46.9764 29.5554 46.7962 29.5329 46.6047 29.578C46.4133 29.6118 46.2331 29.5893 46.0529 29.5329C45.9177 29.4878 45.8614 29.4088 45.8727 29.2847C45.8727 29.1606 45.9515 29.0817 46.0867 29.0365C46.1993 28.9914 46.3907 28.9689 46.6498 28.9463C46.9201 28.9463 47.1003 28.9463 47.2129 28.9689C47.4156 29.014 47.5958 29.0929 47.7648 29.217C47.9337 29.3411 48.1027 29.4652 48.2829 29.6006C48.5982 29.8713 48.8685 30.1872 49.105 30.5594C49.3415 30.9317 49.4992 31.3152 49.5893 31.7213C49.7695 32.5109 49.8596 33.3119 49.8596 34.1128C49.8596 34.9137 49.8822 35.7372 49.9272 36.5381C49.9272 36.6283 49.9272 36.8088 49.961 37.0796C49.9835 37.3503 49.9948 37.6436 50.006 37.9595C50.0173 38.2753 50.0286 38.5686 50.0511 38.8393C50.0736 39.1101 50.0849 39.2906 50.0849 39.3808H50.0736Z" fill="#4F5055"/>
<path d="M58.971 51.2586C58.5543 51.7099 58.0024 51.9919 57.3267 52.1047C56.6509 52.2175 56.0202 52.1949 55.4458 52.037C55.2205 51.9693 55.0066 51.8678 54.7926 51.7324C54.5786 51.597 54.3984 51.4391 54.2407 51.2586C54.0155 50.9653 53.8578 50.5028 53.7564 49.8598C53.655 49.2169 53.5875 48.54 53.5424 47.8181C53.4974 47.0961 53.4748 46.3967 53.4748 45.7086V44.1406C53.4523 42.6741 53.4185 41.2302 53.3622 39.8089C53.3059 38.3762 53.2271 36.9436 53.1144 35.511C53.0919 35.0823 53.0469 34.6649 52.9793 34.2588C52.9117 33.8527 52.8779 33.4354 52.8779 33.0067C52.8779 32.7811 52.9005 32.5555 52.9455 32.3299C52.9906 32.1043 53.0694 31.9012 53.182 31.7207C53.3397 31.4951 53.5424 31.3146 53.7789 31.1792C54.0267 31.0439 54.2858 30.9424 54.5673 30.8972C54.8489 30.8408 55.1304 30.8296 55.412 30.8521C55.7048 30.8747 55.9639 30.9311 56.2117 31.0213C56.482 31.1341 56.7072 31.3033 56.8987 31.5064C57.0901 31.7207 57.2478 31.9463 57.383 32.1945C57.6533 32.7134 57.8335 33.2436 57.9348 33.7963C58.0362 34.3491 58.1376 34.9018 58.2502 35.4659C58.6556 34.6762 59.2075 34.0219 59.9171 33.4918C60.6266 32.9616 61.4037 32.578 62.2484 32.3299C63.0931 32.0817 63.9716 31.9914 64.8839 32.0479C65.7961 32.1043 66.6521 32.3073 67.4517 32.6683C68.0712 32.9616 68.6456 33.4015 69.1524 33.9881C69.524 34.4393 69.8619 34.9357 70.1322 35.4884C70.4138 36.0412 70.639 36.6052 70.8192 37.1918C71.2585 38.5003 71.54 39.8427 71.6527 41.2415C71.7653 42.6403 71.7428 44.0052 71.5851 45.3589C71.4725 46.3742 71.2923 47.3556 71.0332 48.3257C70.7742 49.2958 70.3913 50.2095 69.8844 51.0556C69.7493 51.2812 69.5578 51.4504 69.2988 51.5745C69.0398 51.6986 68.792 51.7775 68.5442 51.8227C68.364 51.8678 68.1162 51.8791 67.7896 51.8678C67.463 51.8678 67.1364 51.8339 66.8098 51.8001C66.4719 51.7663 66.1565 51.7099 65.8637 51.6309C65.5596 51.5519 65.3344 51.4617 65.1767 51.3489C64.9289 51.1909 64.7487 50.9766 64.6248 50.7059C64.5009 50.4352 64.4334 50.1644 64.4108 49.8937C64.3658 49.2169 64.4108 48.54 64.5347 47.8519C64.6586 47.1638 64.7825 46.487 64.8951 45.8101C65.0528 44.7949 65.2105 43.7909 65.3569 42.7757C65.5033 41.7604 65.5709 40.7452 65.5483 39.7073C65.5258 39.2561 65.4808 38.8049 65.4132 38.3424C65.3456 37.8799 65.2105 37.4512 65.0077 37.0451C64.7825 36.5262 64.4446 36.1427 64.0054 35.8945C63.7351 35.7817 63.4535 35.7366 63.1719 35.7479C62.8791 35.7592 62.5863 35.8268 62.3047 35.9509C62.0119 36.075 61.7416 36.2329 61.4826 36.4247C61.2235 36.6165 61.0208 36.8195 60.8631 37.0451C60.5478 37.4738 60.3 37.9363 60.1085 38.4326C59.917 38.929 59.7706 39.4366 59.658 39.9555C59.4778 40.6775 59.3877 41.3994 59.3764 42.1327C59.3652 42.8659 59.3764 43.5991 59.444 44.3437C59.5003 45.0882 59.5679 45.8327 59.6467 46.5885C59.7256 47.3443 59.7594 48.0888 59.7594 48.8333C59.7594 49.262 59.7143 49.6906 59.613 50.1306C59.5116 50.5705 59.3089 50.9428 58.9935 51.2586H58.971ZM71.2022 33.7512C71.2697 33.9317 71.2247 34.0558 71.0895 34.1348C70.9431 34.2137 70.8192 34.1799 70.7066 34.0219C70.4588 33.7061 70.2336 33.4015 70.0196 33.0969C69.8056 32.7924 69.5578 32.5216 69.265 32.2735C69.0172 32.0253 68.7469 31.8222 68.4428 31.6643C68.1387 31.5064 67.8347 31.371 67.5306 31.2582C67.463 31.2357 67.3053 31.1792 67.0688 31.089C66.821 30.9988 66.6746 30.9424 66.607 30.9198C66.3593 30.8747 66.134 30.8521 65.9088 30.8521H64.9402C64.8501 30.8521 64.76 30.8296 64.6699 30.7844C64.5122 30.6942 64.5009 30.5814 64.6361 30.446C64.7262 30.3783 64.8501 30.3445 65.0077 30.3445C65.492 30.2994 65.9763 30.2881 66.4606 30.2881C66.9336 30.2994 67.3954 30.3896 67.8459 30.5363C68.578 30.7844 69.2537 31.2018 69.8844 31.7884C70.5039 32.375 70.9544 33.0293 71.2134 33.7399L71.2022 33.7512Z" fill="#4F5055"/>
</svg>
