<svg width="228" height="228" viewBox="0 0 228 228" fill="none" xmlns="http://www.w3.org/2000/svg">
<path d="M145.542 24.0346C145.315 21.4667 143.578 19.7674 140.67 19.7674C136.894 19.7674 134.741 22.6751 134.741 27.5466C134.741 32.6824 136.932 35.3258 140.633 35.3258C143.389 35.3258 145.164 33.8153 145.542 31.3984L152.83 31.474C152.452 36.1566 148.336 41.5945 140.481 41.5945C132.967 41.5945 127.34 36.6098 127.34 27.5466C127.34 18.4456 133.118 13.4987 140.481 13.4987C147.279 13.4987 152.226 17.3127 152.83 24.0346H145.542Z" fill="#2E87FF"/>
<path d="M106.75 41.2168V13.8762H125.82V19.6918H113.925V24.6387H124.612V30.4543H113.925V41.2168H106.75Z" fill="#2E87FF"/>
<path d="M104.208 13.8762V41.2168H98.2038L88.0455 26.4514H87.8567V41.2168H80.6816V13.8762H86.7993L96.8065 28.5661H97.0331V13.8762H104.208Z" fill="#2E87FF"/>
<path d="M60.6004 209.496L78.0912 194.191C78.0912 194.191 118.287 192.005 133.176 182.713C148.066 173.421 133.176 107.338 133.176 107.338L66.9517 134.843L49.3844 158.412L32.1777 170.141L60.6004 209.496Z" fill="#FFD0D0"/>
<path d="M147.014 52.5547H88.9659C83.8642 52.5547 79.7285 56.5061 79.7285 61.3804V169.587C79.7285 174.461 83.8642 178.413 88.9659 178.413H147.014C152.115 178.413 156.251 174.461 156.251 169.587V61.3804C156.251 56.5061 152.115 52.5547 147.014 52.5547Z" fill="#C9D4E2"/>
<path d="M148.054 70.5938H87.9297V163.036H148.054V70.5938Z" fill="white"/>
<path d="M111.289 62.3385H124.689" stroke="white" stroke-width="4" stroke-miterlimit="10"/>
<path d="M151.334 130.24H136.029C132.105 130.24 128.924 133.422 128.924 137.346V138.439C128.924 142.364 132.105 145.545 136.029 145.545H151.334C155.258 145.545 158.44 142.364 158.44 138.439V137.346C158.44 133.422 155.258 130.24 151.334 130.24Z" fill="#FFD0D0"/>
<path d="M148.055 175.061H132.75C128.826 175.061 125.645 178.242 125.645 182.166V183.259C125.645 187.184 128.826 190.365 132.75 190.365H148.055C151.979 190.365 155.16 187.184 155.16 183.259V182.166C155.16 178.242 151.979 175.061 148.055 175.061Z" fill="#FFD0D0"/>
<path d="M154.613 145.545H127.283C123.359 145.545 120.178 148.726 120.178 152.65V153.744C120.178 157.668 123.359 160.849 127.283 160.849H154.613C158.537 160.849 161.718 157.668 161.718 153.744V152.65C161.718 148.726 158.537 145.545 154.613 145.545Z" fill="#FFD0D0"/>
<path d="M154.613 160.849H127.283C123.359 160.849 120.178 164.414 120.178 168.811C120.178 173.208 123.359 176.773 127.283 176.773H154.613C158.537 176.773 161.718 173.208 161.718 168.811C161.718 164.414 158.537 160.849 154.613 160.849Z" fill="#FFD0D0"/>
<path d="M164.094 35.2272C164.527 35.1808 164.975 35.1576 165.424 35.1576C172.469 35.1576 178.185 40.8728 178.185 47.9182C178.185 48.5292 178.138 49.1324 178.061 49.7201" stroke="#2E87FF" stroke-width="4" stroke-miterlimit="10" stroke-linecap="round"/>
<path d="M165.982 26.3651C166.648 26.2955 167.32 26.2645 168.001 26.2645C178.89 26.2645 187.722 35.0964 187.722 45.9855C187.722 46.5887 187.691 47.1919 187.645 47.7797" stroke="#2E87FF" stroke-width="4" stroke-miterlimit="10" stroke-linecap="round"/>
<path d="M169.074 16.9335C169.739 16.8794 170.412 16.8562 171.093 16.8562C185.4 16.8562 197.001 28.4567 197.001 42.7641C197.001 43.3673 196.977 43.9628 196.939 44.5583" stroke="#2E87FF" stroke-width="4" stroke-miterlimit="10" stroke-linecap="round"/>
<path d="M35.2031 167.955L47.4795 160.849C47.4795 160.849 51.3056 132.427 65.5169 123.681C79.7283 114.936 91.5455 111.11 96.5632 115.756C101.581 120.402 97.2191 131.334 88.4737 135.706C79.7283 140.079 77.5419 142.265 77.5419 142.265" fill="#FFD0D0"/>
<path d="M68.6833 201.027L43.6273 163.343C42.0015 160.898 38.558 160.329 35.9359 162.073L20.8258 172.119C18.2037 173.863 17.396 177.258 19.0218 179.703L44.0778 217.387C45.7036 219.832 49.1471 220.401 51.7692 218.658L66.8793 208.611C69.5014 206.868 70.3091 203.472 68.6833 201.027Z" fill="#2E87FF"/>
</svg>
