
<svg width="146" height="209" viewBox="0 0 146 209" fill="none" xmlns="http://www.w3.org/2000/svg">
<path d="M129.542 11.0346C129.315 8.4667 127.578 6.76735 124.67 6.76735C120.894 6.76735 118.741 9.67512 118.741 14.5466C118.741 19.6824 120.932 22.3258 124.633 22.3258C127.389 22.3258 129.164 20.8153 129.542 18.3984L136.83 18.474C136.452 23.1566 132.336 28.5945 124.481 28.5945C116.967 28.5945 111.34 23.6098 111.34 14.5466C111.34 5.44564 117.118 0.498657 124.481 0.498657C131.279 0.498657 136.226 4.31274 136.83 11.0346H129.542Z" fill="#2E87FF"/>
<path d="M90.75 28.2168V0.876221H109.82V6.69176H97.925V11.6387H108.612V17.4543H97.925V28.2168H90.75Z" fill="#2E87FF"/>
<path d="M88.2081 0.876221V28.2168H82.2038L72.0455 13.4514H71.8567V28.2168H64.6816V0.876221H70.7993L80.8065 15.5661H81.0331V0.876221H88.2081Z" fill="#2E87FF"/>
<path d="M44.6004 196.496L62.0912 181.191C62.0912 181.191 102.287 179.005 117.176 169.713C132.066 160.421 117.176 94.3383 117.176 94.3383L50.9517 121.843L33.3844 145.412L16.1777 157.141L44.6004 196.496Z" fill="#FFD0D0"/>
<path d="M131.014 39.5547H72.9659C67.8642 39.5547 63.7285 43.5061 63.7285 48.3804V156.587C63.7285 161.461 67.8642 165.413 72.9659 165.413H131.014C136.115 165.413 140.251 161.461 140.251 156.587V48.3804C140.251 43.5061 136.115 39.5547 131.014 39.5547Z" fill="#C9D4E2"/>
<path d="M132.054 57.5936H71.9297V150.036H132.054V57.5936Z" fill="white"/>
<path d="M95.2891 49.3385H108.689" stroke="white" stroke-width="4" stroke-miterlimit="10"/>
<path d="M135.334 117.24H120.029C116.105 117.24 112.924 120.422 112.924 124.346V125.439C112.924 129.363 116.105 132.545 120.029 132.545H135.334C139.258 132.545 142.44 129.363 142.44 125.439V124.346C142.44 120.422 139.258 117.24 135.334 117.24Z" fill="#FFD0D0"/>
<path d="M132.055 162.061H116.75C112.826 162.061 109.645 165.242 109.645 169.166V170.259C109.645 174.184 112.826 177.365 116.75 177.365H132.055C135.979 177.365 139.16 174.184 139.16 170.259V169.166C139.16 165.242 135.979 162.061 132.055 162.061Z" fill="#FFD0D0"/>
<path d="M138.613 132.545H111.283C107.359 132.545 104.178 135.726 104.178 139.65V140.744C104.178 144.668 107.359 147.849 111.283 147.849H138.613C142.537 147.849 145.718 144.668 145.718 140.744V139.65C145.718 135.726 142.537 132.545 138.613 132.545Z" fill="#FFD0D0"/>
<path d="M138.613 147.849H111.283C107.359 147.849 104.178 151.414 104.178 155.811C104.178 160.208 107.359 163.773 111.283 163.773H138.613C142.537 163.773 145.718 160.208 145.718 155.811C145.718 151.414 142.537 147.849 138.613 147.849Z" fill="#FFD0D0"/>
<path d="M19.2031 154.955L31.4795 147.849C31.4795 147.849 35.3056 119.427 49.5169 110.681C63.7283 101.936 75.5455 98.1098 80.5632 102.756C85.5809 107.402 81.2191 118.334 72.4737 122.706C63.7283 127.079 61.5419 129.265 61.5419 129.265" fill="#FFD0D0"/>
<path d="M52.6833 188.027L27.6273 150.343C26.0015 147.898 22.558 147.329 19.9359 149.073L4.82582 159.119C2.20371 160.863 1.39602 164.258 3.02178 166.703L28.0778 204.387C29.7036 206.832 33.1471 207.401 35.7692 205.658L50.8793 195.611C53.5014 193.867 54.3091 190.472 52.6833 188.027Z" fill="#2E87FF"/>
</svg>
