<svg width="304" height="219" viewBox="0 0 304 219" fill="none" xmlns="http://www.w3.org/2000/svg">
<path d="M48.4007 88.4254C62.7906 47.9207 90.8153 32.909 103.029 30.4663L157.657 34.4635L250.925 63.7761L275.574 133.061L241.598 163.039C218.059 175.031 160.588 198.481 119.018 196.349C67.0542 193.684 30.4134 139.056 48.4007 88.4254Z" fill="white"/>
<path d="M141.022 90.8605C140.992 90.3263 140.903 89.2877 140.784 87.7149C140.666 86.1421 140.547 84.4802 140.399 82.759C140.25 81.0082 140.132 79.3463 140.043 77.7735C139.954 76.2007 139.894 75.1621 139.894 74.6279C138.766 75.7259 137.758 76.9426 136.927 78.278C136.066 79.6134 135.324 80.9785 134.671 82.3436C134.018 83.8274 133.395 85.3111 132.802 86.8543C132.208 88.3677 131.674 89.9109 131.199 91.4243C132.861 91.2463 134.493 91.1276 136.125 91.0682C137.758 91.0089 139.39 90.9495 141.052 90.8605H141.022Z" fill="#2E87FF"/>
<path d="M303.494 111.634C303.494 89.6147 285.63 71.75 263.61 71.75C263.373 71.75 263.106 71.75 262.839 71.75C265.48 69.0198 267.082 65.2807 267.082 61.1854C267.082 52.7279 260.227 45.9025 251.8 45.9025C248.209 45.9025 244.885 47.1489 242.274 49.2559C231.947 33.8839 217.791 21.2718 201.203 12.8142C186.365 5.18762 169.509 0.85498 151.674 0.85498C128.29 0.85498 106.656 8.27388 88.9695 20.8563C88.6134 21.0937 88.287 21.3608 87.9309 21.5982C87.4858 21.9246 87.011 22.2511 86.5658 22.6072C68.5231 36.0799 54.8129 55.0129 47.8392 76.9432C37.5714 74.2724 26.6508 78.3973 21.4873 87.6561C16.3831 96.8258 18.5494 108.192 26.0573 115.521C25.3154 116.115 24.6625 116.798 24.0394 117.51C21.784 113.978 17.7778 111.634 13.2374 111.634C6.17465 111.634 0.447266 117.272 0.447266 124.216C0.447266 131.16 5.64049 136.235 12.1988 136.769C11.1898 139.826 10.6557 143.09 10.6557 146.503C10.6557 163.982 24.989 178.167 42.6756 178.167C49.9165 178.167 56.5935 175.763 61.9351 171.757C81.5803 200.305 114.491 219 151.763 219C186.81 219 217.999 202.441 237.941 176.742C239.781 177.247 241.68 177.543 243.698 177.543C252.749 177.543 260.465 171.964 263.67 164.041C265.658 165.287 268.002 166.029 270.525 166.029C277.588 166.029 283.315 160.391 283.315 153.447C283.315 151.191 282.692 149.055 281.653 147.245C294.651 140.657 303.554 127.214 303.554 111.664L303.494 111.634ZM223.074 67.1502C223.37 66.5567 223.697 66.0522 224.023 65.6961C224.913 64.7465 226.041 64.064 227.376 63.6188C228.712 63.2034 230.047 62.9363 231.383 62.8473C231.62 62.8473 231.947 62.8473 232.362 62.877C232.777 62.877 233.223 62.9363 233.697 63.0253C234.172 63.0847 234.588 63.2034 234.973 63.3221C235.359 63.4408 235.626 63.5892 235.834 63.7969C236.16 64.0343 236.25 64.3607 236.042 64.7168C235.864 65.1026 235.567 65.251 235.181 65.1323C234.944 65.1323 234.766 65.073 234.617 64.9246C234.113 64.6872 233.549 64.5388 232.985 64.4498C232.421 64.3607 231.887 64.3311 231.353 64.3311C230.136 64.4201 228.92 64.6278 227.733 64.9839C227.317 65.1323 226.872 65.2807 226.457 65.4884C226.041 65.6665 225.655 65.9335 225.329 66.2896C225.181 66.3787 224.943 66.6161 224.617 67.0019C224.29 67.3876 224.083 67.6547 223.993 67.8031C223.993 67.8624 223.993 67.9218 223.964 68.0405C223.964 68.1592 223.934 68.2482 223.934 68.3076C223.875 68.545 223.756 68.723 223.578 68.8121C223.4 68.9011 223.222 68.8714 223.074 68.6637C222.747 68.2779 222.717 67.8031 223.044 67.2096L223.074 67.1502ZM197.493 123.534C197.671 123.385 197.938 123.326 198.265 123.326C199.303 123.237 200.342 123.207 201.351 123.207C202.36 123.207 203.339 123.415 204.289 123.742C205.862 124.276 207.286 125.136 208.592 126.383C209.927 127.629 210.847 128.994 211.441 130.537C211.589 130.923 211.5 131.19 211.203 131.368C210.907 131.546 210.61 131.457 210.402 131.101C209.898 130.448 209.393 129.795 208.948 129.143C208.503 128.49 207.969 127.926 207.345 127.392C206.841 126.887 206.247 126.442 205.624 126.116C205.001 125.789 204.348 125.492 203.666 125.255C203.517 125.225 203.191 125.077 202.686 124.899C202.182 124.721 201.826 124.602 201.707 124.543C201.203 124.454 200.698 124.394 200.223 124.394H198.176C197.968 124.394 197.79 124.335 197.612 124.246C197.285 124.068 197.256 123.801 197.553 123.534H197.493ZM199.927 99.9121V99.2296C199.927 98.9921 200.045 98.8438 200.283 98.8141C200.52 98.7547 200.698 98.8734 200.787 99.1108C200.817 99.2592 200.876 99.4966 200.936 99.8527C200.965 100.209 201.025 100.595 201.054 101.01C201.054 101.426 201.114 101.811 201.143 102.167C201.173 102.524 201.203 102.761 201.203 102.909C201.351 104.423 201.499 105.996 201.618 107.568C201.766 109.141 202.123 110.655 202.686 112.079C202.835 112.465 202.983 112.851 203.191 113.236C203.369 113.622 203.606 113.919 203.903 114.156C204.289 114.483 204.675 114.75 205.12 114.958C205.535 115.136 205.98 115.314 206.396 115.462C206.544 115.521 206.782 115.551 207.108 115.61C207.435 115.67 207.791 115.729 208.176 115.789C208.562 115.848 208.889 115.937 209.215 115.996C209.512 116.056 209.749 116.145 209.898 116.234C210.135 116.382 210.224 116.59 210.135 116.916C210.076 117.213 209.868 117.421 209.541 117.45C209.363 117.45 209.067 117.421 208.681 117.332C208.295 117.272 207.909 117.183 207.464 117.124C207.049 117.065 206.633 116.976 206.218 116.887C205.832 116.797 205.535 116.708 205.417 116.679C204.645 116.441 203.962 116.085 203.369 115.61C202.716 115.047 202.212 114.334 201.855 113.504C201.499 112.673 201.203 111.812 200.965 110.951C200.639 109.675 200.431 108.34 200.401 106.975C200.342 105.61 200.283 104.274 200.194 102.939C200.194 102.791 200.194 102.553 200.164 102.197C200.164 101.841 200.105 101.455 200.045 101.099C199.986 100.713 199.986 100.357 199.986 100.001L199.927 99.9121ZM163.871 65.6961C163.871 65.6961 164.049 65.34 164.286 65.0729C164.524 64.8059 164.761 64.5388 165.028 64.3014C165.295 64.0343 165.533 63.7969 165.77 63.5595C166.007 63.3221 166.185 63.144 166.334 63.055C166.749 62.7286 167.165 62.4318 167.58 62.1647C167.996 61.8977 168.411 61.6603 168.886 61.4229C169.865 60.948 170.904 60.5919 171.972 60.3545C173.04 60.1171 174.109 59.9687 175.177 59.85C175.8 59.7907 176.127 60.0281 176.127 60.5029C176.127 60.9777 175.889 61.3041 175.326 61.4229C173.575 61.8086 171.853 62.3131 170.132 62.9363C168.411 63.5595 166.957 64.5091 165.77 65.7852C165.681 65.8742 165.473 66.1116 165.176 66.4677C164.88 66.8238 164.642 67.0315 164.494 67.0612C164.108 67.2096 163.871 67.0909 163.752 66.7348C163.633 66.3787 163.663 66.0226 163.871 65.6961ZM160.428 120.418C160.844 120.507 161.23 120.685 161.586 120.952C161.942 121.219 162.298 121.486 162.684 121.783C163.337 122.347 163.93 123.029 164.405 123.831C164.909 124.632 165.236 125.433 165.444 126.294C165.829 127.956 166.007 129.647 166.007 131.368C166.007 133.089 166.067 134.811 166.156 136.502C166.156 136.71 166.156 137.066 166.215 137.659C166.274 138.223 166.304 138.846 166.334 139.529C166.334 140.182 166.393 140.805 166.452 141.399C166.482 141.962 166.512 142.348 166.512 142.556C166.512 143.031 166.304 143.298 165.829 143.327C165.384 143.387 165.117 143.179 165.028 142.675C164.939 142.289 164.85 141.577 164.82 140.479C164.761 139.41 164.702 138.283 164.642 137.125C164.583 135.968 164.524 134.84 164.494 133.772C164.494 132.704 164.464 131.962 164.464 131.606C164.524 130.508 164.464 129.38 164.405 128.252C164.316 127.095 163.989 126.056 163.485 125.107C163.099 124.424 162.654 123.801 162.15 123.207C161.645 122.614 161.022 122.169 160.31 121.872C159.924 121.724 159.538 121.694 159.152 121.753C158.737 121.813 158.351 121.783 157.995 121.635C157.698 121.546 157.579 121.368 157.609 121.1C157.609 120.833 157.787 120.655 158.054 120.566C158.292 120.477 158.678 120.418 159.271 120.388C159.835 120.388 160.25 120.388 160.488 120.418H160.428ZM145.175 60.5623C145.472 60.4139 145.739 60.3545 146.065 60.3842C146.362 60.3842 146.659 60.4139 146.956 60.4139C147.935 60.4732 148.914 60.6513 149.894 61.0074C150.873 61.3635 151.733 61.8086 152.564 62.3428C153.366 62.877 154.018 63.5595 154.523 64.3904C155.027 65.2213 155.473 66.0522 155.888 66.8535C155.977 67.0315 156.096 67.2689 156.244 67.5657C156.392 67.8624 156.422 68.0702 156.303 68.2186C156.125 68.545 155.888 68.6637 155.621 68.5747C155.354 68.4856 155.294 68.2779 155.443 67.9218C155.354 67.7438 155.176 67.447 154.938 67.0612C154.701 66.6754 154.464 66.2896 154.196 65.8445C153.929 65.4291 153.662 65.0136 153.366 64.6278C153.069 64.242 152.861 63.9749 152.742 63.8266C152.09 63.2627 151.348 62.8176 150.517 62.4615C149.686 62.1351 148.855 61.8977 147.994 61.7493C147.757 61.7196 147.282 61.6899 146.57 61.6899C145.858 61.6899 145.383 61.6306 145.145 61.5416C144.967 61.4525 144.849 61.2745 144.849 61.0371C144.849 60.7997 144.938 60.6216 145.145 60.5326L145.175 60.5623ZM119.15 101.277C119.357 100.149 119.624 99.0218 119.921 97.9238C120.218 96.8258 120.455 95.9059 120.604 95.1937C121.346 91.8997 122.384 88.6947 123.69 85.5788C124.996 82.4628 126.509 79.4656 128.26 76.5871C129.625 74.3911 131.168 72.2841 132.86 70.2959C134.551 68.3076 136.48 66.5864 138.676 65.2213C139.388 64.8059 140.219 64.5091 141.199 64.3904C142.178 64.2717 143.128 64.2717 144.107 64.4201C145.086 64.5685 146.006 64.8355 146.896 65.251C147.787 65.6665 148.558 66.1413 149.152 66.7051C149.805 67.358 150.368 68.1295 150.843 68.9605C151.318 69.7914 151.704 70.6816 151.971 71.5719C152.386 72.9073 152.713 74.2724 152.891 75.6375C153.069 77.0322 153.306 78.3973 153.514 79.792C153.603 80.2669 153.751 81.0681 153.929 82.1364C154.107 83.2344 154.345 84.4808 154.642 85.9052C154.909 87.3 155.205 88.7837 155.532 90.3269C155.829 91.87 156.125 93.3538 156.422 94.7782C156.719 96.173 156.956 97.4193 157.164 98.5173C157.372 99.6153 157.55 100.387 157.698 100.802C157.728 100.98 157.847 101.366 157.965 101.871C158.114 102.405 158.262 102.939 158.41 103.533C158.559 104.096 158.737 104.66 158.915 105.165C159.093 105.699 159.182 106.055 159.241 106.233C159.627 107.42 159.568 108.548 159.093 109.586C158.856 110.21 158.47 110.744 157.965 111.189C157.431 111.634 156.867 112.049 156.274 112.376C155.413 112.821 154.493 113.118 153.425 113.266C152.386 113.444 151.348 113.444 150.309 113.296C149.27 113.147 148.291 112.851 147.401 112.376C146.511 111.901 145.769 111.248 145.205 110.447C144.908 110.031 144.611 109.29 144.255 108.221C143.899 107.183 143.573 106.055 143.306 104.868C143.038 103.681 142.771 102.524 142.534 101.396C142.297 100.268 142.148 99.4373 142.029 98.9328C141.08 98.9921 140.13 99.0218 139.121 99.0515C138.142 99.0515 137.163 99.1405 136.213 99.2296C135.976 99.2296 135.531 99.2592 134.878 99.3482C134.225 99.4076 133.513 99.4966 132.741 99.556C131.999 99.6153 131.287 99.6747 130.604 99.734C129.952 99.7934 129.506 99.7934 129.269 99.7934C129.269 100.12 129.269 100.624 129.239 101.307C129.239 101.989 129.18 102.672 129.091 103.384C129.032 104.096 128.913 104.779 128.794 105.372C128.675 105.996 128.527 106.441 128.319 106.737C127.993 107.212 127.548 107.598 126.984 107.924C126.42 108.251 125.797 108.459 125.114 108.577C124.432 108.696 123.749 108.726 123.096 108.696C122.444 108.637 121.82 108.518 121.257 108.34C120.871 108.192 120.544 108.014 120.218 107.806C119.921 107.598 119.654 107.301 119.417 106.975C119.001 106.411 118.764 105.61 118.764 104.541C118.764 103.473 118.883 102.405 119.09 101.247L119.15 101.277ZM67.8702 61.3042C67.9296 61.0667 68.1076 60.8887 68.345 60.7997C68.5824 60.7403 69.0572 60.7106 69.7694 60.6513C70.4817 60.6216 70.9565 60.5919 71.1939 60.5919C72.1435 60.5919 73.0931 60.77 74.013 61.0964C74.9627 61.4229 75.8233 61.8383 76.6245 62.3131C77.6038 62.9363 78.405 63.6188 78.9986 64.3904C79.5921 65.162 80.0372 66.1116 80.3043 67.2393C80.3636 67.3876 80.423 67.6547 80.512 68.0405C80.601 68.4263 80.6901 68.8121 80.7494 69.2572C80.8088 69.6727 80.8681 70.0881 80.9275 70.4739C80.9868 70.8597 80.9868 71.1268 80.9868 71.2455C80.9275 71.6609 80.6901 71.8983 80.2449 71.9577C79.7998 72.017 79.5327 71.839 79.4437 71.4532C79.2063 70.6816 79.0579 69.9101 79.0282 69.1385C78.9689 68.3669 78.8502 67.5954 78.6128 66.8832C78.227 65.8445 77.6335 64.9839 76.8322 64.3904C75.9716 63.6782 74.9923 63.0847 73.8943 62.6395C72.7963 62.1944 71.6687 61.9867 70.541 62.046H69.3243C68.7605 62.046 68.345 61.9867 68.1076 61.8977C67.8702 61.7493 67.7812 61.5712 67.8702 61.3338V61.3042ZM85.8833 100.298C85.4975 101.426 85.0524 102.553 84.5479 103.622C84.0137 104.69 83.3905 105.699 82.6486 106.589C81.7584 107.746 80.7494 108.607 79.6811 109.23C78.5534 109.794 77.307 110.12 75.9716 110.21C74.6362 110.269 73.3305 110.12 72.1138 109.735C70.7487 109.319 69.4727 108.637 68.3153 107.746C67.158 106.826 66.149 105.847 65.3181 104.749C63.953 102.998 62.8847 101.01 62.1428 98.8141C61.4009 96.6181 60.8668 94.3924 60.57 92.1668C60.1842 89.1695 60.0952 86.1426 60.2733 83.086C60.4513 80.0294 60.7481 76.9729 61.1338 73.9163C61.2229 73.115 61.3416 72.3138 61.5196 71.5126C61.6977 70.741 61.8757 69.9398 62.1131 69.1979C62.3505 68.6637 62.6176 68.1592 62.8847 67.625C63.1815 67.0909 63.5376 66.6458 64.0124 66.26C64.5762 65.8148 65.2884 65.4884 66.149 65.2213C67.0096 64.9542 67.8702 64.7762 68.8198 64.7168C69.7398 64.6575 70.6597 64.6872 71.55 64.8355C72.4402 64.9839 73.2118 65.1917 73.8053 65.4884C74.7846 66.0226 75.4968 66.7645 75.942 67.7734C76.2387 68.545 76.3871 69.3166 76.3871 70.1475C76.3871 70.9487 76.3871 71.7796 76.3574 72.5809C76.2981 73.3821 76.2387 74.4801 76.12 75.8452C76.0013 77.2103 75.8826 78.694 75.7639 80.2669C75.6452 81.8693 75.5265 83.5312 75.4375 85.2523C75.3484 86.9735 75.3188 88.6057 75.3188 90.1488C75.3188 91.6919 75.4375 93.1164 75.6452 94.3628C75.8233 95.6388 76.1497 96.5884 76.5651 97.271C76.7432 97.5677 77.0103 97.8348 77.3367 98.1315C77.6631 98.4283 77.9896 98.5173 78.316 98.4283C78.6424 98.3393 78.9392 98.1019 79.236 97.7458C79.5327 97.3897 79.7701 96.9742 79.9778 96.5291C80.1856 96.0839 80.3636 95.6091 80.4823 95.1343C80.601 94.6595 80.7197 94.2144 80.8088 93.8583C81.4616 90.9501 81.9068 88.0122 82.0848 85.0743C82.2629 82.1364 82.6486 79.1985 83.2125 76.2606C83.3609 75.6078 83.5686 74.9252 83.895 74.3021C84.1918 73.6492 84.6666 73.1744 85.2898 72.848C85.6756 72.6105 86.2097 72.4028 86.8923 72.2248C87.5748 72.0467 88.109 72.1061 88.4947 72.3435C88.5541 72.4028 88.6134 72.4028 88.6728 72.3435C88.7321 72.3138 88.7915 72.2841 88.8508 72.2841C89.4147 72.2841 90.0082 72.3731 90.6314 72.5809C91.2546 72.7589 91.7294 73.0854 92.1152 73.5008C92.679 74.124 93.0648 74.8362 93.2725 75.6078C93.4802 76.3793 93.6286 77.1806 93.7473 78.0115C94.1331 80.2965 94.4002 82.5816 94.6079 84.8072C94.786 87.0626 95.053 89.3179 95.3795 91.6029C95.5278 92.4042 95.6762 93.2351 95.8543 94.066C96.0323 94.8969 96.2994 95.7278 96.6555 96.5291C96.8039 96.8258 96.9523 97.1226 97.1303 97.4193C97.3084 97.7458 97.4864 97.9832 97.6942 98.1612C97.9019 98.3393 98.1393 98.4877 98.3767 98.547C98.6141 98.6064 98.8812 98.547 99.1483 98.369C99.7121 98.0425 100.157 97.4787 100.454 96.6478C100.751 95.8465 100.988 94.9563 101.137 93.977C101.285 92.9977 101.344 92.0184 101.374 91.0391C101.374 90.0598 101.404 89.2586 101.404 88.576C101.315 85.9646 101.137 83.3531 100.899 80.7417C100.662 78.1302 100.484 75.5188 100.335 72.9073C100.276 71.8983 100.306 70.8597 100.365 69.7617C100.424 68.6637 100.751 67.7141 101.315 66.9128C101.849 66.2006 102.561 65.6961 103.481 65.3994C104.401 65.1026 105.291 64.9542 106.122 64.8949C107.22 64.8059 108.318 64.8355 109.446 65.0433C110.573 65.2213 111.582 65.6665 112.413 66.3193C113.066 66.7941 113.571 67.3876 113.927 68.1295C114.283 68.8714 114.58 69.6133 114.817 70.3849C115.054 71.3345 115.232 72.2841 115.351 73.1744C115.47 74.0943 115.589 75.0143 115.737 75.9639C115.915 77.596 116.093 79.1985 116.212 80.8307C116.33 82.4628 116.419 84.095 116.449 85.7568C116.449 88.1902 116.271 90.6236 115.945 93.0867C115.618 95.5498 114.965 97.9238 114.045 100.209C113.393 101.841 112.532 103.354 111.464 104.779C110.395 106.203 109.149 107.39 107.665 108.34C106.716 109.022 105.677 109.527 104.549 109.883C103.422 110.239 102.294 110.417 101.137 110.417C98.7328 110.417 96.6555 109.527 94.9047 107.776C93.866 106.737 93.0054 105.521 92.3229 104.185C91.6404 102.85 91.0468 101.455 90.6017 100.031C89.9488 98.1315 89.4444 96.2026 89.1476 94.244C88.8508 92.2855 88.5541 90.3269 88.3464 88.3089C88.1089 90.2972 87.8122 92.3151 87.4561 94.3034C87.1 96.2917 86.5955 98.3096 85.9426 100.328L85.8833 100.298ZM106.211 112.613C105.914 112.91 105.499 113.118 104.905 113.296C104.312 113.474 103.689 113.593 103.036 113.652C102.383 113.711 101.73 113.771 101.077 113.771H99.5637C98.9405 113.682 98.347 113.593 97.7535 113.563C97.16 113.504 96.5962 113.414 96.0323 113.266C95.1421 112.969 94.3408 112.584 93.6286 112.049C93.3022 111.812 93.0648 111.545 92.9164 111.278C92.768 110.981 92.9164 110.833 93.2725 110.773C93.4506 110.714 93.6583 110.773 93.8363 110.892C94.0144 111.011 94.2221 111.129 94.4002 111.218C95.1421 111.664 95.973 111.931 96.8336 112.109C97.6942 112.287 98.5548 112.376 99.4154 112.435C100.157 112.435 100.899 112.435 101.611 112.376C102.324 112.316 103.036 112.227 103.748 112.079C103.896 112.049 104.193 111.931 104.668 111.782C105.143 111.634 105.439 111.545 105.588 111.486C105.914 111.426 106.181 111.545 106.33 111.842C106.508 112.138 106.448 112.406 106.211 112.643V112.613ZM87.5154 124.009C87.3077 123.801 87.3967 123.445 87.7528 122.97C88.4057 122.169 89.1773 121.486 90.0675 120.922C90.9281 120.359 91.8778 119.973 92.857 119.735C93.6583 119.557 94.4892 119.498 95.3795 119.587C96.2401 119.676 97.1007 119.884 97.9019 120.24C98.1393 120.329 98.5844 120.537 99.2373 120.893C99.8902 121.219 100.335 121.457 100.513 121.605C100.751 121.842 100.869 122.139 100.899 122.466C100.899 122.792 100.78 123 100.424 123.118C100.187 123.178 99.9495 123.118 99.6824 122.97C99.4154 122.822 99.1779 122.673 98.9405 122.525C97.9909 121.902 96.9226 121.457 95.7653 121.16C94.5782 120.863 93.4506 120.893 92.3526 121.219C91.6107 121.457 90.8985 121.783 90.2159 122.228C89.5631 122.673 88.9695 123.148 88.4354 123.653C88.0199 124.098 87.6935 124.187 87.4858 123.979L87.5154 124.009ZM116.301 156.444C116.123 156.533 115.707 156.563 115.114 156.563C114.491 156.563 114.075 156.533 113.838 156.533C112.888 156.592 111.938 156.652 110.959 156.741C109.98 156.83 109.03 156.949 108.081 157.097C107.754 157.186 107.428 157.186 107.101 157.097C106.953 157.008 106.864 156.86 106.864 156.681C106.864 156.503 106.894 156.355 107.042 156.236C107.131 156.147 107.25 156.118 107.398 156.118C107.546 156.118 107.695 156.118 107.814 156.088C108.081 156.029 108.615 155.94 109.357 155.791C110.099 155.643 110.929 155.524 111.76 155.435C112.591 155.346 113.422 155.257 114.164 155.198C114.906 155.138 115.47 155.079 115.796 155.079C116.182 155.109 116.449 155.316 116.598 155.643C116.776 155.969 116.657 156.236 116.271 156.444H116.301ZM122.325 131.279C122.147 132.555 121.464 133.505 120.337 134.069C119.921 134.306 119.209 134.484 118.17 134.603C117.161 134.722 116.063 134.811 114.906 134.9C113.749 134.959 112.651 135.018 111.612 135.078C110.573 135.137 109.802 135.167 109.357 135.226C108.229 135.315 107.101 135.463 105.944 135.641C104.816 135.82 103.689 135.998 102.561 136.146C102.561 137.244 102.561 138.342 102.62 139.47C102.68 140.597 102.798 141.695 103.036 142.793C103.659 142.704 104.609 142.586 105.855 142.467C107.131 142.348 108.466 142.259 109.891 142.17C111.315 142.111 112.651 142.081 113.927 142.14C115.203 142.2 116.152 142.318 116.776 142.497C117.28 142.675 117.755 143.031 118.17 143.506C118.556 143.98 118.883 144.514 119.12 145.078C119.268 145.523 119.387 146.028 119.506 146.621C119.624 147.215 119.684 147.808 119.713 148.402C119.713 148.996 119.713 149.559 119.565 150.094C119.446 150.628 119.209 151.013 118.823 151.31C118.497 151.548 118.141 151.696 117.725 151.815C117.339 151.904 116.924 151.993 116.568 152.111C114.253 152.646 111.909 152.913 109.564 152.972C107.19 153.031 104.846 153.18 102.472 153.477C102.531 154.248 102.65 155.376 102.858 156.919C103.065 158.432 103.273 160.035 103.481 161.667C103.659 163.329 103.778 164.872 103.807 166.385C103.807 167.899 103.689 168.967 103.422 169.65C103.095 170.332 102.561 170.866 101.819 171.252C101.077 171.668 100.335 171.905 99.5934 171.994C99.1779 172.083 98.6141 172.142 97.9019 172.172C97.1897 172.172 96.4775 172.172 95.7653 172.142C95.053 172.083 94.4002 171.994 93.7473 171.816C93.1241 171.638 92.6196 171.401 92.2932 171.074C91.9668 170.777 91.67 170.273 91.4326 169.501C91.1952 168.73 90.9875 167.929 90.8094 167.038C90.6314 166.148 90.4533 165.287 90.3049 164.456C90.1566 163.626 90.0675 162.973 90.0082 162.498C89.5927 159.649 89.2366 156.741 88.9399 153.833C88.6431 150.924 88.4057 148.016 88.1683 145.108C88.0793 143.773 87.9606 142.111 87.8419 140.093C87.7232 138.105 87.7232 136.087 87.8715 134.039C88.0199 132.021 88.3464 130.152 88.8212 128.43C89.3257 126.709 90.0972 125.463 91.1952 124.632C91.9371 124.068 92.768 123.712 93.6286 123.564C94.4892 123.415 95.3498 123.475 96.2104 123.712C97.071 123.949 97.8426 124.335 98.5548 124.899C99.267 125.463 99.8605 126.145 100.335 127.006C102.353 126.472 104.371 126.056 106.389 125.671C108.407 125.314 110.425 125.047 112.502 124.929C113.689 124.84 114.876 124.78 116.093 124.78C117.31 124.78 118.437 125.018 119.535 125.492C120.574 125.878 121.316 126.561 121.731 127.57C122.295 128.757 122.473 130.003 122.295 131.279H122.325ZM122.028 113.622C120.693 113.325 119.476 112.821 118.378 112.049C118.081 111.871 117.963 111.604 118.022 111.278C118.052 110.951 118.289 110.833 118.645 110.922C118.883 110.922 119.061 110.981 119.179 111.129C119.298 111.278 119.446 111.397 119.624 111.486C120.663 112.109 121.791 112.495 123.037 112.673C124.254 112.851 125.441 112.791 126.569 112.554C126.895 112.495 127.399 112.346 128.052 112.079C128.705 111.812 129.15 111.575 129.328 111.337C129.506 111.129 129.714 111.129 129.922 111.278C130.13 111.426 130.189 111.604 130.1 111.842C130.011 112.079 129.744 112.316 129.358 112.554C128.943 112.791 128.646 112.969 128.408 113.058C128.023 113.236 127.637 113.385 127.251 113.444C126.865 113.504 126.45 113.593 126.094 113.711C124.729 113.949 123.364 113.919 122.028 113.652V113.622ZM141.258 172.825C141.139 173.122 140.932 173.3 140.664 173.389C140.368 173.537 139.863 173.567 139.092 173.537C138.35 173.478 137.816 173.448 137.548 173.389C136.272 173.24 134.996 173.033 133.691 172.795C132.385 172.528 131.168 172.053 130.041 171.401C128.824 170.629 127.756 169.62 126.865 168.314C126.717 168.136 126.509 167.81 126.272 167.424C126.005 167.009 125.916 166.682 125.945 166.445C126.034 166.059 126.242 165.851 126.539 165.792C126.836 165.762 127.073 165.881 127.221 166.207C127.399 166.593 127.637 166.949 127.904 167.276C128.171 167.602 128.438 167.929 128.705 168.196C129.803 169.294 131.079 170.095 132.533 170.629C132.86 170.718 133.364 170.837 134.047 170.985C134.729 171.133 135.471 171.252 136.243 171.371C137.014 171.49 137.756 171.608 138.468 171.697C139.181 171.786 139.685 171.816 140.041 171.757C140.516 171.668 140.872 171.757 141.11 171.964C141.347 172.202 141.406 172.469 141.288 172.766L141.258 172.825ZM169.123 164.16C168.945 164.961 168.5 165.703 167.788 166.296C167.165 166.86 166.452 167.305 165.592 167.632C164.731 167.958 163.93 168.107 163.129 168.107C162.09 168.018 161.23 167.78 160.517 167.394C159.775 166.92 159.123 166.296 158.618 165.525C158.084 164.753 157.698 163.952 157.431 163.062C157.164 162.171 156.956 161.311 156.749 160.45C156.511 159.501 156.303 158.551 156.125 157.631C155.947 156.711 155.74 155.762 155.502 154.812C155.116 156.474 154.642 158.136 154.048 159.738C153.455 161.37 152.653 162.854 151.674 164.249C151.021 165.169 150.25 166 149.419 166.742C148.558 167.513 147.609 168.136 146.6 168.611C145.709 169.056 144.76 169.323 143.751 169.472C142.742 169.62 141.792 169.65 140.842 169.531C139.477 169.472 138.142 169.234 136.836 168.819C135.531 168.403 134.344 167.78 133.246 167.038C132.029 166.237 130.901 165.228 129.922 164.041C128.943 162.854 128.141 161.548 127.518 160.183C127.043 159.174 126.687 158.136 126.42 157.038C126.153 155.94 125.945 154.842 125.738 153.744C125.352 151.607 125.174 149.47 125.174 147.334C125.174 145.197 125.263 143.09 125.381 140.924C125.411 140.152 125.5 139.025 125.619 137.541C125.738 136.027 125.916 134.484 126.123 132.882C126.331 131.279 126.598 129.766 126.895 128.341C127.192 126.917 127.577 125.878 128.052 125.255C128.616 124.454 129.358 123.89 130.248 123.623C130.96 123.385 131.762 123.267 132.652 123.237C133.542 123.237 134.433 123.296 135.263 123.475C136.124 123.682 136.925 123.979 137.667 124.365C138.439 124.751 139.003 125.285 139.448 125.908C139.834 126.442 140.101 127.036 140.219 127.688C140.368 128.341 140.427 129.024 140.427 129.677C140.368 131.101 140.19 132.496 139.834 133.891C139.477 135.285 139.121 136.65 138.736 138.045C137.994 140.894 137.489 143.832 137.281 146.8C137.074 149.767 137.192 152.735 137.667 155.643C137.756 156.414 137.934 157.156 138.172 157.868C138.409 158.581 138.795 159.204 139.299 159.738C139.804 160.272 140.486 160.628 141.317 160.806C142.148 160.984 142.89 160.984 143.543 160.747C144.047 160.599 144.522 160.361 144.908 159.975C145.323 159.59 145.62 159.174 145.858 158.759C146.511 157.661 147.015 156.533 147.341 155.376C147.668 154.218 147.905 153.002 148.054 151.755C148.439 149.47 148.677 147.156 148.796 144.811C148.914 142.467 149.092 140.152 149.33 137.808C149.389 137.274 149.478 136.472 149.597 135.374C149.745 134.276 149.894 133.119 150.072 131.902C150.25 130.686 150.428 129.528 150.665 128.43C150.902 127.332 151.17 126.561 151.437 126.145C151.615 125.849 151.882 125.611 152.179 125.403C152.475 125.196 152.802 125.047 153.128 124.929C153.751 124.691 154.375 124.543 155.087 124.513C155.769 124.454 156.452 124.513 157.105 124.572C158.143 124.662 159.004 124.988 159.657 125.492C160.161 125.819 160.577 126.264 160.874 126.768C161.17 127.303 161.378 127.837 161.497 128.401C161.971 130.062 162.209 131.784 162.209 133.505C162.209 135.226 162.268 136.977 162.417 138.698C162.565 140.508 162.773 142.318 163.099 144.129C163.396 145.939 163.841 147.719 164.405 149.5C164.88 151.013 165.444 152.527 166.067 153.981C166.69 155.435 167.343 156.919 168.025 158.373C168.411 159.293 168.738 160.243 169.005 161.222C169.301 162.231 169.301 163.21 169.094 164.16H169.123ZM168.648 110.773C167.788 110.714 166.957 110.536 166.185 110.299C165.147 109.972 164.286 109.468 163.633 108.785C163.159 108.251 162.832 107.568 162.654 106.737C162.476 105.907 162.387 105.016 162.417 104.096C162.417 103.176 162.565 102.256 162.773 101.366C162.98 100.476 163.248 99.7044 163.574 99.0515C163.811 98.636 164.078 98.2206 164.435 97.8645C164.761 97.5084 165.147 97.2413 165.562 97.1226C166.067 96.9148 166.601 96.8555 167.105 96.9445C167.64 97.0039 168.144 97.0929 168.678 97.1819C170.103 97.4193 171.527 97.5974 172.951 97.6864C174.406 97.7755 175.83 97.9535 177.225 98.1909C177.937 98.2799 178.59 98.1909 179.183 97.9535C179.777 97.6864 180.252 97.3303 180.608 96.8555C180.964 96.3807 181.142 95.8762 181.142 95.3124C181.142 94.7485 180.905 94.2144 180.43 93.7099C180.192 93.4725 179.896 93.2944 179.539 93.1461C179.183 92.9977 178.827 92.879 178.441 92.7899C177.017 92.4635 175.622 92.0777 174.228 91.6919C172.833 91.2765 171.468 90.772 170.162 90.1488C169.272 89.763 168.381 89.3179 167.551 88.7837C166.69 88.2496 165.948 87.6264 165.295 86.9142C164.82 86.38 164.405 85.8162 164.049 85.2227C163.693 84.6292 163.396 84.006 163.159 83.3234C162.832 82.2848 162.654 81.2165 162.624 80.1185C162.624 79.0205 162.654 77.9225 162.802 76.8245C162.951 75.8749 163.129 74.9252 163.366 73.9756C163.604 73.026 163.96 72.1357 164.435 71.3345C165.147 70.0881 166.067 69.0198 167.165 68.1295C168.263 67.2096 169.45 66.438 170.666 65.7555C172.892 64.6575 175.207 63.8859 177.67 63.3814C180.133 62.9066 182.566 62.7286 185.029 62.8176C186.216 62.877 187.374 62.9363 188.531 63.0253C189.688 63.1144 190.787 63.4408 191.825 63.9453C192.478 64.2717 193.101 64.7762 193.665 65.4587C194.14 66.1116 194.496 66.9128 194.763 67.7734C195.03 68.6637 195.149 69.554 195.178 70.5036C195.178 71.4235 195.089 72.3138 194.852 73.1744C194.615 74.035 194.229 74.7769 193.724 75.4001C193.339 75.7858 192.923 76.0826 192.448 76.32C191.974 76.5574 191.469 76.7355 190.965 76.8245C190.015 76.9729 189.095 76.9432 188.175 76.7651C187.255 76.5871 186.335 76.4387 185.386 76.3497C183.842 76.1716 182.181 76.2013 180.43 76.498C179.717 76.5871 179.005 76.7355 178.293 76.9729C177.581 77.1806 176.928 77.4773 176.305 77.8631C175.088 78.6347 174.287 79.7327 173.96 81.2165C173.871 81.5429 173.842 81.899 173.871 82.2848C173.871 82.6706 173.99 82.997 174.198 83.2938C174.584 83.9169 175.266 84.3918 176.275 84.7479C177.284 85.104 178.382 85.371 179.569 85.5788C180.756 85.7568 181.943 85.9052 183.101 86.0239C184.288 86.1129 185.207 86.202 185.92 86.3207C186.721 86.4097 187.493 86.5284 188.264 86.6768C189.006 86.8252 189.748 87.0329 190.46 87.3296C191.736 87.8638 192.834 88.7244 193.724 89.9708C194.229 90.683 194.644 91.4842 194.882 92.3745C195.149 93.2648 195.327 94.155 195.416 95.0453C195.564 96.7665 195.416 98.5173 195 100.268C194.585 102.019 193.902 103.622 192.953 105.046C192.448 105.847 191.795 106.589 190.994 107.242C190.223 107.895 189.392 108.399 188.561 108.785C186.988 109.497 185.356 109.972 183.664 110.18C181.973 110.388 180.252 110.566 178.56 110.655C177.343 110.744 176.097 110.833 174.88 110.922C173.664 110.981 172.417 111.011 171.201 111.011C170.34 110.951 169.509 110.922 168.648 110.833V110.773ZM188.62 113.236C188.234 113.563 187.819 113.771 187.374 113.83C186.929 113.919 186.454 113.978 185.979 114.097C185.801 114.156 185.445 114.216 184.94 114.275C184.436 114.334 183.931 114.423 183.338 114.483C182.774 114.572 182.21 114.631 181.706 114.691C181.172 114.75 180.845 114.809 180.637 114.809C180.311 114.809 180.044 114.72 179.896 114.572C179.717 114.394 179.628 114.216 179.599 113.949C179.599 113.711 179.628 113.504 179.777 113.296C179.925 113.088 180.163 112.999 180.489 112.94C180.786 112.94 181.29 112.91 182.003 112.821C182.744 112.762 183.486 112.673 184.288 112.613C185.059 112.524 185.801 112.465 186.484 112.346C187.166 112.257 187.641 112.168 187.938 112.049C188.323 111.901 188.59 111.99 188.739 112.346C188.917 112.673 188.828 112.969 188.561 113.207L188.62 113.236ZM212.153 155.198C211.916 157.334 211.53 159.441 210.996 161.489C210.461 163.537 209.631 165.465 208.562 167.276C208.295 167.75 207.88 168.107 207.316 168.374C206.782 168.641 206.247 168.819 205.713 168.908C205.328 168.997 204.793 169.027 204.111 169.027C203.428 169.027 202.746 168.967 202.034 168.878C201.321 168.819 200.668 168.7 200.016 168.522C199.392 168.374 198.888 168.166 198.562 167.929C198.057 167.602 197.642 167.127 197.404 166.563C197.137 166 196.989 165.436 196.929 164.842C196.84 163.418 196.929 161.964 197.196 160.51C197.464 159.056 197.731 157.601 197.968 156.177C198.294 154.04 198.651 151.874 198.947 149.737C199.274 147.601 199.392 145.434 199.363 143.238C199.303 142.289 199.214 141.31 199.066 140.33C198.918 139.351 198.651 138.431 198.205 137.57C197.731 136.472 197.018 135.671 196.069 135.137C195.505 134.9 194.911 134.781 194.288 134.811C193.665 134.811 193.042 134.989 192.448 135.226C191.825 135.493 191.261 135.82 190.697 136.235C190.163 136.65 189.718 137.096 189.392 137.57C188.739 138.49 188.205 139.47 187.789 140.508C187.403 141.547 187.077 142.615 186.84 143.743C186.454 145.256 186.246 146.8 186.246 148.343C186.246 149.886 186.246 151.459 186.395 153.031C186.513 154.604 186.662 156.177 186.81 157.779C186.958 159.382 187.047 160.955 187.047 162.528C187.047 163.448 186.958 164.367 186.721 165.287C186.513 166.207 186.068 167.009 185.415 167.691C184.525 168.641 183.338 169.234 181.913 169.472C180.459 169.709 179.124 169.65 177.907 169.323C177.432 169.175 176.987 168.967 176.542 168.67C176.097 168.374 175.711 168.047 175.385 167.661C174.91 167.038 174.584 166.059 174.346 164.694C174.138 163.329 173.99 161.904 173.871 160.361C173.782 158.848 173.723 157.334 173.723 155.88V152.557C173.664 149.441 173.604 146.384 173.486 143.357C173.367 140.33 173.189 137.303 172.951 134.247C172.892 133.327 172.803 132.466 172.655 131.606C172.506 130.745 172.447 129.855 172.447 128.964C172.447 128.49 172.506 128.015 172.595 127.54C172.684 127.065 172.862 126.62 173.1 126.264C173.426 125.789 173.842 125.403 174.376 125.107C174.88 124.81 175.444 124.632 176.038 124.513C176.631 124.394 177.225 124.365 177.848 124.394C178.471 124.454 179.035 124.573 179.539 124.751C180.103 124.988 180.608 125.344 180.994 125.789C181.379 126.234 181.735 126.739 182.032 127.243C182.596 128.341 182.982 129.469 183.19 130.656C183.397 131.813 183.635 133 183.872 134.187C184.733 132.526 185.89 131.131 187.403 130.003C188.917 128.875 190.579 128.045 192.359 127.54C194.14 127.006 196.009 126.798 197.968 126.917C199.897 127.036 201.707 127.481 203.428 128.252C204.764 128.875 205.951 129.795 207.049 131.042C207.85 131.991 208.562 133.06 209.156 134.217C209.749 135.374 210.224 136.591 210.61 137.837C211.559 140.597 212.153 143.476 212.39 146.414C212.628 149.381 212.568 152.29 212.242 155.138L212.153 155.198ZM212.687 113.088C211.886 113.177 211.085 113.207 210.313 113.147C209.541 113.088 208.8 112.969 208.087 112.732C207.108 112.495 206.277 112.049 205.684 111.367C205.298 110.981 205.001 110.566 204.793 110.091C204.586 109.616 204.437 109.112 204.319 108.577C204.17 107.865 203.992 106.47 203.784 104.393C203.577 102.316 203.339 100.09 203.102 97.7161C202.864 95.342 202.657 93.1164 202.479 91.0391C202.301 88.9618 202.152 87.567 202.063 86.8548C201.766 84.6588 201.321 82.5222 200.728 80.4152C200.105 78.3083 199.57 76.2013 199.096 74.0647C198.918 73.2931 198.769 72.5215 198.71 71.75C198.651 70.9487 198.71 70.1772 198.947 69.4353C199.244 68.5747 199.66 67.7438 200.253 66.9722C200.847 66.1709 201.529 65.6071 202.36 65.2213C202.924 64.9839 203.636 64.7762 204.497 64.5685C205.357 64.3904 206.218 64.242 207.108 64.1827C207.998 64.1233 208.859 64.1233 209.69 64.2124C210.521 64.3014 211.174 64.5091 211.708 64.8652C212.45 65.3994 213.103 66.0226 213.666 66.7941C214.201 67.5657 214.675 68.3669 215.061 69.2275C215.299 69.9101 215.477 70.5629 215.595 71.2455C215.714 71.8983 215.803 72.6105 215.922 73.3228C216.159 75.4594 216.337 77.596 216.486 79.703C216.634 81.81 216.753 83.9169 216.842 86.0833C217.94 85.9942 219.038 85.9052 220.165 85.8755C221.293 85.8162 222.421 85.7865 223.578 85.7272H224.468C224.913 85.7272 225.21 85.7272 225.359 85.7865C225.299 85.7568 225.299 85.6975 225.299 85.6381V85.4304C225.121 83.6202 224.973 81.81 224.884 79.9701C224.795 78.1302 224.824 76.32 224.943 74.5098C225.002 73.8272 225.062 73.1744 225.151 72.5215C225.24 71.8687 225.477 71.2455 225.863 70.652C226.16 70.1178 226.605 69.6727 227.287 69.3166C227.94 68.9604 228.682 68.6637 229.483 68.456C230.285 68.2482 231.086 68.0999 231.917 68.0702C232.748 68.0108 233.46 68.0108 234.083 68.0702C234.469 68.1295 234.855 68.1889 235.241 68.2482C235.656 68.3076 236.042 68.4856 236.398 68.723C237.051 69.1979 237.555 69.821 237.882 70.5926C238.119 71.2455 238.267 71.928 238.356 72.5809C238.416 73.2337 238.475 73.9163 238.535 74.5691C238.594 76.1123 238.594 77.6554 238.535 79.2282C238.505 80.801 238.475 82.3738 238.475 83.9466C238.446 86.291 238.416 88.6057 238.445 90.9204C238.445 93.2351 238.505 95.5498 238.564 97.8348C238.564 98.636 238.564 99.6747 238.653 100.921C238.683 102.167 238.653 103.414 238.564 104.72C238.475 105.996 238.297 107.212 238 108.34C237.704 109.468 237.288 110.269 236.724 110.744C236.16 111.189 235.478 111.456 234.677 111.604C233.223 111.931 231.709 111.96 230.136 111.664C229.602 111.575 229.098 111.367 228.623 111.07C228.118 110.744 227.762 110.358 227.525 109.883C227.139 109.26 226.931 108.577 226.902 107.835C226.872 107.094 226.813 106.381 226.753 105.669C226.664 103.651 226.575 101.633 226.546 99.5857C226.486 97.538 226.368 95.5201 226.13 93.5022C225.982 93.5615 225.833 93.5615 225.626 93.5615H225.062C223.786 93.5615 222.51 93.5912 221.204 93.6802C219.898 93.7396 218.622 93.8879 217.346 94.066C217.435 94.9266 217.584 96.1433 217.821 97.6864C218.029 99.2296 218.207 100.862 218.325 102.553C218.444 104.245 218.474 105.847 218.444 107.361C218.385 108.874 218.147 109.972 217.732 110.684C217.198 111.515 216.486 112.109 215.566 112.524C214.646 112.94 213.726 113.177 212.835 113.266L212.687 113.088ZM229.899 164.16C229.899 164.16 237.08 140.746 216.782 130.923C216.782 130.923 237.169 141.666 249.604 111.04C249.633 110.951 249.663 110.892 249.663 110.892C249.663 110.951 249.633 110.981 249.604 111.04C248.773 113.088 238.713 138.668 260.969 146.443C260.969 146.443 241.116 139.974 229.929 164.16H229.899Z" fill="#2E87FF"/>
</svg>
