<svg width="333" height="168" viewBox="0 0 333 168" fill="none" xmlns="http://www.w3.org/2000/svg">
<path d="M308.106 83.3184C307.178 83.3184 306.264 83.3828 305.363 83.4858C304.114 61.969 286.267 44.8945 264.428 44.8945C245.268 44.8945 229.185 58.0416 224.678 75.7985C221.987 74.9615 219.115 74.5108 216.141 74.5108C200.251 74.5108 187.361 87.4003 187.361 103.29C187.361 119.18 200.251 132.069 216.141 132.069C216.295 132.069 216.437 132.069 216.591 132.069V132.263H308.015V132.069C308.015 132.069 308.08 132.069 308.106 132.069C321.562 132.069 332.481 121.163 332.481 107.694C332.481 94.2249 321.575 83.3184 308.106 83.3184Z" fill="white"/>
<path d="M166.243 164.889C211.672 164.889 248.5 128.062 248.5 82.6324C248.5 37.2032 211.672 0.375488 166.243 0.375488C120.814 0.375488 83.9863 37.2032 83.9863 82.6324C83.9863 128.062 120.814 164.889 166.243 164.889Z" fill="#FFDF6B"/>
<path d="M120.75 118.729C119.823 118.729 118.909 118.793 118.007 118.896C116.758 97.3796 98.9113 80.3052 77.0725 80.3052C57.9121 80.3052 41.8292 93.4522 37.3223 111.209C34.6311 110.372 31.7596 109.921 28.7851 109.921C12.8954 109.921 0.00585938 122.811 0.00585938 138.701C0.00585938 154.59 12.8954 167.48 28.7851 167.48C28.9397 167.48 29.0813 167.48 29.2358 167.48V167.673H120.647V167.48C120.647 167.48 120.711 167.48 120.737 167.48C134.193 167.48 145.113 156.573 145.113 143.105C145.113 129.636 134.206 118.729 120.737 118.729H120.75Z" fill="white"/>
</svg>
