<svg width="37" height="38" viewBox="0 0 37 38" fill="none" xmlns="http://www.w3.org/2000/svg">
<path d="M2.09375 21.2272C2.52684 21.1808 2.97539 21.1576 3.42395 21.1576C10.4693 21.1576 16.1845 26.8728 16.1845 33.9182C16.1845 34.5292 16.1381 35.1324 16.0608 35.7201" stroke="#2E87FF" stroke-width="4" stroke-miterlimit="10" stroke-linecap="round"/>
<path d="M3.98242 12.3651C4.64752 12.2955 5.32035 12.2645 6.00092 12.2645C16.89 12.2645 25.7218 21.0964 25.7218 31.9855C25.7218 32.5887 25.6909 33.1919 25.6445 33.7797" stroke="#2E87FF" stroke-width="4" stroke-miterlimit="10" stroke-linecap="round"/>
<path d="M7.07422 2.93354C7.73932 2.8794 8.41215 2.8562 9.09271 2.8562C23.4001 2.8562 35.0006 14.4567 35.0006 28.7641C35.0006 29.3673 34.9774 29.9628 34.9387 30.5583" stroke="#2E87FF" stroke-width="4" stroke-miterlimit="10" stroke-linecap="round"/>
</svg>
