<svg width="41" height="41" viewBox="0 0 41 41" fill="none" xmlns="http://www.w3.org/2000/svg">
<g clip-path="url(#clip0_75_258)">
<rect x="0.5" y="0.19043" width="40" height="40" rx="16" fill="white"/>
<path d="M17.0359 7.44043C18.5755 4.77377 22.4245 4.77376 23.9641 7.44043L36.6297 29.3779C38.1693 32.0446 36.2448 35.3779 33.1656 35.3779H7.83438C4.75518 35.3779 2.83068 32.0446 4.37028 29.3779L17.0359 7.44043Z" fill="#2E87FF"/>
<g clip-path="url(#clip1_75_258)">
<path d="M20.5 31.1904C21.8807 31.1904 23 30.1845 23 28.9438C23 27.7031 21.8807 26.6973 20.5 26.6973C19.1193 26.6973 18 27.7031 18 28.9438C18 30.1845 19.1193 31.1904 20.5 31.1904Z" fill="white"/>
<path d="M20.5 14.1904C19.1201 14.1904 18 15.1969 18 16.437C17.9909 18.0676 19.4408 25.2388 19.4408 25.2388H21.5593C21.5593 25.2388 23.0107 18.0662 23 16.437C23 15.1969 21.8815 14.1904 20.5 14.1904Z" fill="white"/>
</g>
</g>
<defs>
<clipPath id="clip0_75_258">
<rect x="0.5" y="0.19043" width="40" height="40" rx="16" fill="white"/>
</clipPath>
<clipPath id="clip1_75_258">
<rect width="5" height="17" fill="white" transform="translate(18 14.1904)"/>
</clipPath>
</defs>
</svg>
