<?xml version="1.0" encoding="UTF-8"?>
<svg id="Layer_2" data-name="Layer 2" xmlns="http://www.w3.org/2000/svg" viewBox="0 0 102.14 73.51">
  <defs>
    <style>
      .cls-1 {
        fill: #196daf;
        stroke-width: 0px;
      }
    </style>
  </defs>
  <g id="_레이어_1" data-name="레이어 1">
    <g>
      <path class="cls-1" d="M47.39,30.33c-.01-.18-.04-.53-.08-1.06-.04-.53-.08-1.09-.13-1.67-.05-.59-.09-1.15-.12-1.68-.03-.53-.05-.88-.05-1.06-.38.37-.72.78-1,1.23-.29.45-.54.91-.76,1.37-.22.5-.43,1-.63,1.52-.2.51-.38,1.03-.54,1.54.56-.06,1.11-.1,1.66-.12.55-.02,1.1-.04,1.66-.07Z"/>
      <path class="cls-1" d="M102.14,37.33c0-7.42-6.02-13.44-13.44-13.44-.08,0-.17,0-.26,0,.89-.92,1.43-2.18,1.43-3.56,0-2.85-2.31-5.15-5.15-5.15-1.21,0-2.33.42-3.21,1.13-3.48-5.18-8.25-9.43-13.84-12.28C62.67,1.46,56.99,0,50.98,0c-7.88,0-15.17,2.5-21.13,6.74-.12.08-.23.17-.35.25-.15.11-.31.22-.46.34-6.08,4.54-10.7,10.92-13.05,18.31-3.46-.9-7.14.49-8.88,3.61-1.72,3.09-.99,6.92,1.54,9.39-.25.2-.47.43-.68.67-.76-1.19-2.11-1.98-3.64-1.98-2.38,0-4.31,1.9-4.31,4.24s1.75,4.05,3.96,4.23c-.34,1.03-.52,2.13-.52,3.28,0,5.89,4.83,10.67,10.79,10.67,2.44,0,4.69-.81,6.49-2.16,6.62,9.62,17.71,15.92,30.27,15.92,11.81,0,22.32-5.58,29.04-14.24.62.17,1.26.27,1.94.27,3.05,0,5.65-1.88,6.73-4.55.67.42,1.46.67,2.31.67,2.38,0,4.31-1.9,4.31-4.24,0-.76-.21-1.48-.56-2.09,4.38-2.22,7.38-6.75,7.38-11.99ZM75.04,22.34c.1-.2.21-.37.32-.49.3-.32.68-.55,1.13-.7.45-.14.9-.23,1.35-.26.08,0,.19,0,.33.01.14,0,.29.02.45.05.16.02.3.06.43.1.13.04.22.09.29.16.11.08.14.19.07.31-.06.13-.16.18-.29.14-.08,0-.14-.02-.19-.07-.17-.08-.36-.13-.55-.16-.19-.03-.37-.04-.55-.04-.41.03-.82.1-1.22.22-.14.05-.29.1-.43.17-.14.06-.27.15-.38.27-.05.03-.13.11-.24.24-.11.13-.18.22-.21.27,0,.02,0,.04-.01.08,0,.04-.01.07-.01.09-.02.08-.06.14-.12.17-.06.03-.12.02-.17-.05-.11-.13-.12-.29-.01-.49ZM66.42,41.34c.06-.05.15-.07.26-.07.35-.03.7-.04,1.04-.04.34,0,.67.07.99.18.53.18,1.01.47,1.45.89.45.42.76.88.96,1.4.05.13.02.22-.08.28-.1.06-.2.03-.27-.09-.17-.22-.34-.44-.49-.66-.15-.22-.33-.41-.54-.59-.17-.17-.37-.32-.58-.43-.21-.11-.43-.21-.66-.29-.05-.01-.16-.06-.33-.12-.17-.06-.29-.1-.33-.12-.17-.03-.34-.05-.5-.05h-.69c-.07,0-.13-.02-.19-.05-.11-.06-.12-.15-.02-.24ZM67.24,33.38v-.23c0-.08.04-.13.12-.14.08-.02.14.02.17.1.01.05.03.13.05.25.01.12.03.25.04.39,0,.14.02.27.03.39.01.12.02.2.02.25.05.51.1,1.04.14,1.57.05.53.17,1.04.36,1.52.05.13.1.26.17.39.06.13.14.23.24.31.13.11.26.2.41.27.14.06.29.12.43.17.05.02.13.03.24.05.11.02.23.04.36.06.13.02.24.05.35.07.1.02.18.05.23.08.08.05.11.12.08.23-.02.1-.09.17-.2.18-.06,0-.16-.01-.29-.04-.13-.02-.26-.05-.41-.07-.14-.02-.28-.05-.42-.08-.13-.03-.23-.06-.27-.07-.26-.08-.49-.2-.69-.36-.22-.19-.39-.43-.51-.71-.12-.28-.22-.57-.3-.86-.11-.43-.18-.88-.19-1.34-.02-.46-.04-.91-.07-1.36,0-.05,0-.13-.01-.25,0-.12-.02-.25-.04-.37-.02-.13-.02-.25-.02-.37ZM55.1,21.85s.06-.12.14-.21c.08-.09.16-.18.25-.26.09-.09.17-.17.25-.25.08-.08.14-.14.19-.17.14-.11.28-.21.42-.3.14-.09.28-.17.44-.25.33-.16.68-.28,1.04-.36.36-.08.72-.13,1.08-.17.21-.02.32.06.32.22,0,.16-.08.27-.27.31-.59.13-1.17.3-1.75.51-.58.21-1.07.53-1.47.96-.03.03-.1.11-.2.23-.1.12-.18.19-.23.2-.13.05-.21.01-.25-.11-.04-.12-.03-.24.04-.35ZM53.94,40.28c.14.03.27.09.39.18.12.09.24.18.37.28.22.19.42.42.58.69.17.27.28.54.35.83.13.56.19,1.13.19,1.71s.02,1.16.05,1.73c0,.07,0,.19.02.39.02.19.03.4.04.63,0,.22.02.43.04.63.01.19.02.32.02.39,0,.16-.07.25-.23.26-.15.02-.24-.05-.27-.22-.03-.13-.06-.37-.07-.74-.02-.36-.04-.74-.06-1.13-.02-.39-.04-.77-.05-1.13,0-.36-.01-.61-.01-.73.02-.37,0-.75-.02-1.13-.03-.39-.14-.74-.31-1.06-.13-.23-.28-.44-.45-.64-.17-.2-.38-.35-.62-.45-.13-.05-.26-.06-.39-.04-.14.02-.27.01-.39-.04-.1-.03-.14-.09-.13-.18,0-.09.06-.15.15-.18.08-.03.21-.05.41-.06.19,0,.33,0,.41.01ZM48.8,20.11c.1-.05.19-.07.3-.06.1,0,.2.01.3.01.33.02.66.08.99.2.33.12.62.27.9.45.27.18.49.41.66.69.17.28.32.56.46.83.03.06.07.14.12.24.05.1.06.17.02.22-.06.11-.14.15-.23.12-.09-.03-.11-.1-.06-.22-.03-.06-.09-.16-.17-.29-.08-.13-.16-.26-.25-.41-.09-.14-.18-.28-.28-.41-.1-.13-.17-.22-.21-.27-.22-.19-.47-.34-.75-.46-.28-.11-.56-.19-.85-.24-.08-.01-.24-.02-.48-.02s-.4-.02-.48-.05c-.06-.03-.1-.09-.1-.17s.03-.14.1-.17ZM40.03,33.83c.07-.38.16-.76.26-1.13.1-.37.18-.68.23-.92.25-1.11.6-2.19,1.04-3.24.44-1.05.95-2.06,1.54-3.03.46-.74.98-1.45,1.55-2.12.57-.67,1.22-1.25,1.96-1.71.24-.14.52-.24.85-.28.33-.04.65-.04.98.01.33.05.64.14.94.28.3.14.56.3.76.49.22.22.41.48.57.76.16.28.29.58.38.88.14.45.25.91.31,1.37.06.47.14.93.21,1.4.03.16.08.43.14.79.06.37.14.79.24,1.27.09.47.19.97.3,1.49.1.52.2,1.02.3,1.5.1.47.18.89.25,1.26s.13.63.18.77c.01.06.05.19.09.36.05.18.1.36.15.56.05.19.11.38.17.55.06.18.09.3.11.36.13.4.11.78-.05,1.13-.08.21-.21.39-.38.54-.18.15-.37.29-.57.4-.29.15-.6.25-.96.3-.35.06-.7.06-1.05.01-.35-.05-.68-.15-.98-.31-.3-.16-.55-.38-.74-.65-.1-.14-.2-.39-.32-.75-.12-.35-.23-.73-.32-1.13-.09-.4-.18-.79-.26-1.17-.08-.38-.13-.66-.17-.83-.32.02-.64.03-.98.04-.33,0-.66.03-.98.06-.08,0-.23.01-.45.04-.22.02-.46.05-.72.07-.25.02-.49.04-.72.06-.22.02-.37.02-.45.02,0,.11,0,.28-.01.51,0,.23-.02.46-.05.7-.02.24-.06.47-.1.67-.04.21-.09.36-.16.46-.11.16-.26.29-.45.4s-.4.18-.63.22c-.23.04-.46.05-.68.04-.22-.02-.43-.06-.62-.12-.13-.05-.24-.11-.35-.18-.1-.07-.19-.17-.27-.28-.14-.19-.22-.46-.22-.82s.04-.72.11-1.11ZM22.75,20.35c.02-.08.08-.14.16-.17.08-.02.24-.03.48-.05.24-.01.4-.02.48-.02.32,0,.64.06.95.17.32.11.61.25.88.41.33.21.6.44.8.7.2.26.35.58.44.96.02.05.04.14.07.27.03.13.06.26.08.41.02.14.04.28.06.41.02.13.02.22.02.26-.02.14-.1.22-.25.24-.15.02-.24-.04-.27-.17-.08-.26-.13-.52-.14-.78-.02-.26-.06-.52-.14-.76-.13-.35-.33-.64-.6-.84-.29-.24-.62-.44-.99-.59-.37-.15-.75-.22-1.13-.2h-.41c-.19,0-.33-.02-.41-.05-.08-.05-.11-.11-.08-.19ZM28.82,33.49c-.13.38-.28.76-.45,1.12-.18.36-.39.7-.64,1-.3.39-.64.68-1,.89-.38.19-.8.3-1.25.33-.45.02-.89-.03-1.3-.16-.46-.14-.89-.37-1.28-.67-.39-.31-.73-.64-1.01-1.01-.46-.59-.82-1.26-1.07-2-.25-.74-.43-1.49-.53-2.24-.13-1.01-.16-2.03-.1-3.06.06-1.03.16-2.06.29-3.09.03-.27.07-.54.13-.81.06-.26.12-.53.2-.78.08-.18.17-.35.26-.53.1-.18.22-.33.38-.46.19-.15.43-.26.72-.35.29-.09.58-.15.9-.17.31-.02.62-.01.92.04.3.05.56.12.76.22.33.18.57.43.72.77.1.26.15.52.15.8,0,.27,0,.55-.01.82-.02.27-.04.64-.08,1.1-.04.46-.08.96-.12,1.49-.04.54-.08,1.1-.11,1.68-.03.58-.04,1.13-.04,1.65s.04,1,.11,1.42c.06.43.17.75.31.98.06.1.15.19.26.29.11.1.22.13.33.1.11-.03.21-.11.31-.23.1-.12.18-.26.25-.41.07-.15.13-.31.17-.47.04-.16.08-.31.11-.43.22-.98.37-1.97.43-2.96s.19-1.98.38-2.97c.05-.22.12-.45.23-.66.1-.22.26-.38.47-.49.13-.08.31-.15.54-.21.23-.06.41-.04.54.04.02.02.04.02.06,0,.02-.01.04-.02.06-.02.19,0,.39.03.6.1.21.06.37.17.5.31.19.21.32.45.39.71.07.26.12.53.16.81.13.77.22,1.54.29,2.29.06.76.15,1.52.26,2.29.05.27.1.55.16.83.06.28.15.56.27.83.05.1.1.2.16.3.06.11.12.19.19.25.07.06.15.11.23.13.08.02.17,0,.26-.06.19-.11.34-.3.44-.58.1-.27.18-.57.23-.9.05-.33.07-.66.08-.99,0-.33.01-.6.01-.83-.03-.88-.09-1.76-.17-2.64-.08-.88-.14-1.76-.19-2.64-.02-.34-.01-.69.01-1.06.02-.37.13-.69.32-.96.18-.24.42-.41.73-.51.31-.1.61-.15.89-.17.37-.03.74-.02,1.12.05.38.06.72.21,1,.43.22.16.39.36.51.61.12.25.22.5.3.76.08.32.14.64.18.94.04.31.08.62.13.94.06.55.12,1.09.16,1.64.04.55.07,1.1.08,1.66,0,.82-.06,1.64-.17,2.47-.11.83-.33,1.63-.64,2.4-.22.55-.51,1.06-.87,1.54-.36.48-.78.88-1.28,1.2-.32.23-.67.4-1.05.52-.38.12-.76.18-1.15.18-.81,0-1.51-.3-2.1-.89-.35-.35-.64-.76-.87-1.21-.23-.45-.43-.92-.58-1.4-.22-.64-.39-1.29-.49-1.95-.1-.66-.2-1.32-.27-2-.08.67-.18,1.35-.3,2.02-.12.67-.29,1.35-.51,2.03ZM35.67,37.64c-.1.1-.24.17-.44.23-.2.06-.41.1-.63.12-.22.02-.44.04-.66.04h-.51c-.21-.03-.41-.06-.61-.07-.2-.02-.39-.05-.58-.1-.3-.1-.57-.23-.81-.41-.11-.08-.19-.17-.24-.26-.05-.1,0-.15.12-.17.06-.02.13,0,.19.04.06.04.13.08.19.11.25.15.53.24.82.3.29.06.58.09.87.11.25,0,.5,0,.74-.02.24-.02.48-.05.72-.1.05-.01.15-.05.31-.1.16-.05.26-.08.31-.1.11-.02.2.02.25.12.06.1.04.19-.04.27ZM29.37,41.48c-.07-.07-.04-.19.08-.35.22-.27.48-.5.78-.69.29-.19.61-.32.94-.4.27-.06.55-.08.85-.05.29.03.58.1.85.22.08.03.23.1.45.22.22.11.37.19.43.24.08.08.12.18.13.29,0,.11-.04.18-.16.22-.08.02-.16,0-.25-.05-.09-.05-.17-.1-.25-.15-.32-.21-.68-.36-1.07-.46-.4-.1-.78-.09-1.15.02-.25.08-.49.19-.72.34-.22.15-.42.31-.6.48-.14.15-.25.18-.32.11ZM39.07,52.41c-.06.03-.2.04-.4.04-.21,0-.35-.01-.43-.01-.32.02-.64.04-.97.07-.33.03-.65.07-.97.12-.11.03-.22.03-.33,0-.05-.03-.08-.08-.08-.14,0-.06.01-.11.06-.15.03-.03.07-.04.12-.04.05,0,.1,0,.14-.01.09-.02.27-.05.52-.1.25-.05.53-.09.81-.12s.56-.06.81-.08c.25-.02.44-.04.55-.04.13.01.22.08.27.19.06.11.02.2-.11.27ZM41.1,43.92c-.06.43-.29.75-.67.94-.14.08-.38.14-.73.18-.34.04-.71.07-1.1.1-.39.02-.76.04-1.11.06-.35.02-.61.03-.76.05-.38.03-.76.08-1.15.14-.38.06-.76.12-1.14.17,0,.37,0,.74.02,1.12.02.38.06.75.14,1.12.21-.03.53-.07.95-.11.43-.04.88-.07,1.36-.1.48-.02.93-.03,1.36-.01.43.02.75.06.96.12.17.06.33.18.47.34.13.16.24.34.32.53.05.15.09.32.13.52.04.2.06.4.07.6,0,.2,0,.39-.05.57-.04.18-.12.31-.25.41-.11.08-.23.13-.37.17-.13.03-.27.06-.39.1-.78.18-1.57.27-2.36.29-.8.02-1.59.07-2.39.17.02.26.06.64.13,1.16.07.51.14,1.05.21,1.6.06.56.1,1.08.11,1.59,0,.51-.04.87-.13,1.1-.11.23-.29.41-.54.54-.25.14-.5.22-.75.25-.14.03-.33.05-.57.06-.24,0-.48,0-.72-.01-.24-.02-.46-.05-.68-.11-.21-.06-.38-.14-.49-.25-.11-.1-.21-.27-.29-.53-.08-.26-.15-.53-.21-.83-.06-.3-.12-.59-.17-.87-.05-.28-.08-.5-.1-.66-.14-.96-.26-1.94-.36-2.92-.1-.98-.18-1.96-.26-2.94-.03-.45-.07-1.01-.11-1.69-.04-.67-.04-1.35.01-2.04.05-.68.16-1.31.32-1.89.17-.58.43-1,.8-1.28.25-.19.53-.31.82-.36.29-.05.58-.03.87.05.29.08.55.21.79.4.24.19.44.42.6.71.68-.18,1.36-.32,2.04-.45.68-.12,1.36-.21,2.06-.25.4-.03.8-.05,1.21-.05s.79.08,1.16.24c.35.13.6.36.74.7.19.4.25.82.19,1.25ZM41.01,37.97c-.45-.1-.86-.27-1.23-.53-.1-.06-.14-.15-.12-.26.01-.11.09-.15.21-.12.08,0,.14.02.18.07.04.05.09.09.15.12.35.21.73.34,1.15.4.41.06.81.04,1.19-.04.11-.02.28-.07.5-.16.22-.09.37-.17.43-.25.06-.07.13-.07.2-.02.07.05.09.11.06.19-.03.08-.12.16-.25.24-.14.08-.24.14-.32.17-.13.06-.26.11-.39.13-.13.02-.27.05-.39.09-.46.08-.92.07-1.37-.02ZM47.48,57.93c-.04.1-.11.16-.2.19-.1.05-.27.06-.53.05-.25-.02-.43-.03-.52-.05-.43-.05-.86-.12-1.3-.2-.44-.09-.85-.25-1.23-.47-.41-.26-.77-.6-1.07-1.04-.05-.06-.12-.17-.2-.3-.09-.14-.12-.25-.11-.33.03-.13.1-.2.2-.22.1-.01.18.03.23.14.06.13.14.25.23.36.09.11.18.22.27.31.37.37.8.64,1.29.82.11.03.28.07.51.12.23.05.48.09.74.13.26.04.51.08.75.11.24.03.41.04.53.02.16-.03.28,0,.36.07.08.08.1.17.06.27ZM56.88,55.01c-.06.27-.21.52-.45.72-.21.19-.45.34-.74.45-.29.11-.56.16-.83.16-.35-.03-.64-.11-.88-.24-.25-.16-.47-.37-.64-.63-.18-.26-.31-.53-.4-.83-.09-.3-.16-.59-.23-.88-.08-.32-.15-.64-.21-.95-.06-.31-.13-.63-.21-.95-.13.56-.29,1.12-.49,1.66-.2.55-.47,1.05-.8,1.52-.22.31-.48.59-.76.84-.29.26-.61.47-.95.63-.3.15-.62.24-.96.29-.34.05-.66.06-.98.02-.46-.02-.91-.1-1.35-.24-.44-.14-.84-.35-1.21-.6-.41-.27-.79-.61-1.12-1.01-.33-.4-.6-.84-.81-1.3-.16-.34-.28-.69-.37-1.06-.09-.37-.16-.74-.23-1.11-.13-.72-.19-1.44-.19-2.16s.03-1.43.07-2.16c.01-.26.04-.64.08-1.14.04-.51.1-1.03.17-1.57.07-.54.16-1.05.26-1.53.1-.48.23-.83.39-1.04.19-.27.44-.46.74-.55.24-.08.51-.12.81-.13.3,0,.6.02.88.08.29.07.56.17.81.3.26.13.45.31.6.52.13.18.22.38.26.6.05.22.07.45.07.67-.02.48-.08.95-.2,1.42-.12.47-.24.93-.37,1.4-.25.96-.42,1.95-.49,2.95-.07,1-.03,2,.13,2.98.03.26.09.51.17.75.08.24.21.45.38.63.17.18.4.3.68.36.28.06.53.06.75-.02.17-.05.33-.13.46-.26.14-.13.24-.27.32-.41.22-.37.39-.75.5-1.14.11-.39.19-.8.24-1.22.13-.77.21-1.55.25-2.34.04-.79.1-1.57.18-2.36.02-.18.05-.45.09-.82.05-.37.1-.76.16-1.17.06-.41.12-.8.2-1.17.08-.37.17-.63.26-.77.06-.1.15-.18.25-.25.1-.07.21-.12.32-.16.21-.08.42-.13.66-.14.23-.02.46,0,.68.02.35.03.64.14.86.31.17.11.31.26.41.43.1.18.17.36.21.55.16.56.24,1.14.24,1.72s.02,1.17.07,1.75c.05.61.12,1.22.23,1.83.1.61.25,1.21.44,1.81.16.51.35,1.02.56,1.51.21.49.43.99.66,1.48.13.31.24.63.33.96.1.34.1.67.03.99ZM56.72,37.02c-.29-.02-.57-.08-.83-.16-.35-.11-.64-.28-.86-.51-.16-.18-.27-.41-.33-.69-.06-.28-.09-.58-.08-.89,0-.31.05-.62.12-.92.07-.3.16-.56.27-.78.08-.14.17-.28.29-.4.11-.12.24-.21.38-.25.17-.07.35-.09.52-.06.18.02.35.05.53.08.48.08.96.14,1.44.17.49.03.97.09,1.44.17.24.03.46,0,.66-.08.2-.09.36-.21.48-.37.12-.16.18-.33.18-.52s-.08-.37-.24-.54c-.08-.08-.18-.14-.3-.19-.12-.05-.24-.09-.37-.12-.48-.11-.95-.24-1.42-.37-.47-.14-.93-.31-1.37-.52-.3-.13-.6-.28-.88-.46-.29-.18-.54-.39-.76-.63-.16-.18-.3-.37-.42-.57-.12-.2-.22-.41-.3-.64-.11-.35-.17-.71-.18-1.08,0-.37.01-.74.06-1.11.05-.32.11-.64.19-.96.08-.32.2-.62.36-.89.24-.42.55-.78.92-1.08.37-.31.77-.57,1.18-.8.75-.37,1.53-.63,2.36-.8.83-.16,1.65-.22,2.48-.19.4.02.79.04,1.18.07.39.03.76.14,1.11.31.22.11.43.28.62.51.16.22.28.49.37.78.09.3.13.6.14.92,0,.31-.03.61-.11.9-.08.29-.21.54-.38.75-.13.13-.27.23-.43.31-.16.08-.33.14-.5.17-.32.05-.63.04-.94-.02-.31-.06-.62-.11-.94-.14-.52-.06-1.08-.05-1.67.05-.24.03-.48.08-.72.16-.24.07-.46.17-.67.3-.41.26-.68.63-.79,1.13-.03.11-.04.23-.03.36,0,.13.04.24.11.34.13.21.36.37.7.49.34.12.71.21,1.11.28.4.06.8.11,1.19.15.4.03.71.06.95.1.27.03.53.07.79.12.25.05.5.12.74.22.43.18.8.47,1.1.89.17.24.31.51.39.81.09.3.15.6.18.9.05.58,0,1.17-.14,1.76-.14.59-.37,1.13-.69,1.61-.17.27-.39.52-.66.74-.26.22-.54.39-.82.52-.53.24-1.08.4-1.65.47-.57.07-1.15.13-1.72.16-.41.03-.83.06-1.24.09-.41.02-.83.03-1.24.03-.29-.02-.57-.03-.86-.06ZM63.45,37.85c-.13.11-.27.18-.42.2-.15.03-.31.05-.47.09-.06.02-.18.04-.35.06-.17.02-.34.05-.54.07-.19.03-.38.05-.55.07-.18.02-.29.04-.36.04-.11,0-.2-.03-.25-.08-.06-.06-.09-.12-.1-.21,0-.08.01-.15.06-.22.05-.07.13-.1.24-.12.1,0,.27-.01.51-.04.25-.02.5-.05.77-.07.26-.03.51-.05.74-.09.23-.03.39-.06.49-.1.13-.05.22-.02.27.1.06.11.03.21-.06.29ZM71.38,52c-.08.72-.21,1.43-.39,2.12-.18.69-.46,1.34-.82,1.95-.09.16-.23.28-.42.37-.18.09-.36.15-.54.18-.13.03-.31.04-.54.04-.23,0-.46-.02-.7-.05-.24-.02-.46-.06-.68-.12-.21-.05-.38-.12-.49-.2-.17-.11-.31-.27-.39-.46-.09-.19-.14-.38-.16-.58-.03-.48,0-.97.09-1.46.09-.49.18-.98.26-1.46.11-.72.23-1.45.33-2.17.11-.72.15-1.45.14-2.19-.02-.32-.05-.65-.1-.98-.05-.33-.14-.64-.29-.93-.16-.37-.4-.64-.72-.82-.19-.08-.39-.12-.6-.11-.21,0-.42.06-.62.14-.21.09-.4.2-.59.34-.18.14-.33.29-.44.45-.22.31-.4.64-.54.99-.13.35-.24.71-.32,1.09-.13.51-.2,1.03-.2,1.55,0,.52,0,1.05.05,1.58.04.53.09,1.06.14,1.6.05.54.08,1.07.08,1.6,0,.31-.03.62-.11.93-.07.31-.22.58-.44.81-.3.32-.7.52-1.18.6-.49.08-.94.06-1.35-.05-.16-.05-.31-.12-.46-.22-.15-.1-.28-.21-.39-.34-.16-.21-.27-.54-.35-1-.07-.46-.12-.94-.16-1.46-.03-.51-.05-1.02-.05-1.51v-1.12c-.02-1.05-.04-2.08-.08-3.1-.04-1.02-.1-2.04-.18-3.07-.02-.31-.05-.6-.1-.89-.05-.29-.07-.59-.07-.89,0-.16.02-.32.05-.48.03-.16.09-.31.17-.43.11-.16.25-.29.43-.39.17-.1.36-.16.56-.2.2-.04.4-.05.61-.04.21.02.4.06.57.12.19.08.36.2.49.35.13.15.25.32.35.49.19.37.32.75.39,1.15.07.39.15.79.23,1.19.29-.56.68-1.03,1.19-1.41.51-.38,1.07-.66,1.67-.83.6-.18,1.23-.25,1.89-.21.65.04,1.26.19,1.84.45.45.21.85.52,1.22.94.27.32.51.68.71,1.07.2.39.36.8.49,1.22.32.93.52,1.9.6,2.89.08,1,.06,1.98-.05,2.94ZM71.56,37.81c-.27.03-.54.04-.8.02-.26-.02-.51-.06-.75-.14-.33-.08-.61-.23-.81-.46-.13-.13-.23-.27-.3-.43-.07-.16-.12-.33-.16-.51-.05-.24-.11-.71-.18-1.41-.07-.7-.15-1.45-.23-2.25-.08-.8-.15-1.55-.21-2.25-.06-.7-.11-1.17-.14-1.41-.1-.74-.25-1.46-.45-2.17-.21-.71-.39-1.42-.55-2.14-.06-.26-.11-.52-.13-.78-.02-.27,0-.53.08-.78.1-.29.24-.57.44-.83.2-.27.43-.46.71-.59.19-.08.43-.15.72-.22.29-.06.58-.11.88-.13.3-.02.59-.02.87.01.28.03.5.1.68.22.25.18.47.39.66.65.18.26.34.53.47.82.08.23.14.45.18.68.04.22.07.46.11.7.08.72.14,1.44.19,2.15.05.71.09,1.42.12,2.15.37-.03.74-.06,1.12-.07.38-.02.76-.03,1.15-.05h.3c.15,0,.25,0,.3.02-.02-.01-.02-.03-.02-.05v-.07c-.06-.61-.11-1.22-.14-1.84-.03-.62-.02-1.23.02-1.84.02-.23.04-.45.07-.67.03-.22.11-.43.24-.63.1-.18.25-.33.48-.45.22-.12.47-.22.74-.29.27-.07.54-.12.82-.13.28-.02.52-.02.73,0,.13.02.26.04.39.06.14.02.27.08.39.16.22.16.39.37.5.63.08.22.13.45.16.67.02.22.04.45.06.67.02.52.02,1.04,0,1.57-.01.53-.02,1.06-.02,1.59-.01.79-.02,1.57-.01,2.35,0,.78.02,1.56.04,2.33,0,.27,0,.62.03,1.04.01.42,0,.84-.03,1.28-.03.43-.09.84-.19,1.22-.1.38-.24.65-.43.81-.19.15-.42.24-.69.29-.49.11-1,.12-1.53.02-.18-.03-.35-.1-.51-.2-.17-.11-.29-.24-.37-.4-.13-.21-.2-.44-.21-.69-.01-.25-.03-.49-.05-.73-.03-.68-.06-1.36-.07-2.05-.02-.69-.06-1.37-.14-2.05-.05.02-.1.02-.17.02h-.19c-.43,0-.86.01-1.3.04-.44.02-.87.07-1.3.13.03.29.08.7.16,1.22.07.52.13,1.07.17,1.64.04.57.05,1.11.04,1.62-.02.51-.1.88-.24,1.12-.18.28-.42.48-.73.62-.31.14-.62.22-.92.25ZM77.36,55.02s2.42-7.89-4.42-11.2c0,0,6.87,3.62,11.06-6.7.01-.03.02-.05.02-.05,0,.02-.01.03-.02.05-.28.69-3.67,9.31,3.83,11.93,0,0-6.69-2.18-10.46,5.97Z"/>
    </g>
  </g>
</svg>