<?xml version="1.0" encoding="UTF-8"?>
<svg id="Layer_2" data-name="Layer 2" xmlns="http://www.w3.org/2000/svg" viewBox="0 0 84.35 47.87">
  <defs>
    <style>
      .cls-1 {
        fill: #216eaf;
        stroke-width: 0px;
      }
    </style>
  </defs>
  <g id="_레이어_1" data-name="레이어 1">
    <g>
      <g>
        <path class="cls-1" d="M19.84,20.25c-.4.28-.83.49-1.3.64-.47.15-.95.22-1.42.22-1.01,0-1.88-.37-2.61-1.11-.43-.44-.79-.94-1.08-1.5-.29-.56-.53-1.14-.73-1.73-.28-.8-.48-1.6-.61-2.42-.13-.82-.24-1.64-.34-2.48-.1.84-.22,1.67-.37,2.51-.15.84-.36,1.67-.64,2.51-.16.48-.34.94-.56,1.39-.22.45-.48.86-.8,1.24-.37.48-.79.85-1.24,1.11-.47.24-.99.37-1.55.4-.56.03-1.1-.04-1.61-.19-.57-.18-1.1-.46-1.58-.84-.48-.38-.9-.8-1.26-1.26-.57-.74-1.02-1.56-1.33-2.48-.32-.92-.53-1.84-.65-2.78C0,12.23-.04,10.97.04,9.69c.08-1.28.2-2.55.36-3.83.04-.34.09-.67.16-1,.07-.33.15-.65.25-.97.1-.22.21-.44.33-.66.12-.22.28-.41.47-.57.24-.18.53-.32.89-.43.36-.11.73-.18,1.11-.21.38-.03.76-.02,1.14.04.37.06.69.15.95.27.41.22.71.54.89.96.12.32.18.65.19.99,0,.34,0,.68-.01,1.02-.02.34-.05.79-.1,1.36-.05.57-.1,1.19-.15,1.85-.05.67-.09,1.36-.13,2.08-.04.72-.05,1.4-.04,2.05,0,.65.05,1.24.13,1.76.08.53.21.93.38,1.21.08.12.19.24.33.36.14.12.28.16.41.12.14-.04.27-.13.38-.28.12-.15.22-.32.31-.51.09-.19.16-.38.21-.58.05-.2.09-.38.13-.54.28-1.22.45-2.44.53-3.68.08-1.24.24-2.46.47-3.68.06-.28.15-.55.28-.82.13-.27.32-.47.58-.61.16-.1.38-.18.67-.25.29-.07.51-.05.67.04.02.02.04.02.07,0,.03-.02.05-.03.07-.03.24,0,.48.04.74.12.26.08.46.21.62.39.24.26.4.55.49.88.09.33.15.66.19,1,.16.96.28,1.9.36,2.84.08.94.19,1.88.33,2.84.06.34.12.68.19,1.03.07.35.18.69.34,1.03.06.12.12.24.19.37.07.13.15.23.24.31.09.08.18.13.28.16.1.03.21,0,.33-.07.24-.14.42-.38.55-.72.13-.34.22-.71.28-1.12.06-.41.09-.82.1-1.23,0-.41.01-.75.01-1.03-.04-1.1-.11-2.19-.21-3.27-.1-1.09-.18-2.18-.24-3.27-.02-.42-.01-.86.01-1.32.03-.46.16-.86.4-1.2.22-.3.52-.51.9-.63.38-.12.75-.19,1.11-.21.45-.04.92-.02,1.39.06.47.08.89.26,1.24.54.28.2.49.45.64.76.15.31.27.62.37.94.1.4.17.79.22,1.17.05.38.1.77.16,1.17.08.68.14,1.36.19,2.03.05.68.08,1.37.1,2.06,0,1.02-.07,2.04-.21,3.06-.14,1.03-.4,2.02-.8,2.98-.28.68-.64,1.32-1.08,1.91-.44.6-.97,1.1-1.58,1.5ZM8.71,4.76c-.02.18-.12.28-.31.3-.19.02-.3-.05-.34-.21-.1-.32-.16-.64-.18-.97s-.08-.64-.18-.94c-.16-.44-.4-.79-.74-1.05-.36-.3-.76-.54-1.23-.73-.46-.19-.93-.27-1.41-.25h-.5c-.24,0-.4-.02-.5-.06-.1-.06-.13-.14-.1-.24.03-.1.09-.17.19-.21.1-.02.3-.04.59-.06.3-.02.49-.03.59-.03.39,0,.79.07,1.18.21.39.14.76.31,1.09.51.41.26.75.55.99.87.25.32.43.72.55,1.2.02.06.05.17.09.33.04.16.07.33.1.51.03.18.05.35.07.51.02.16.03.27.03.33ZM19.25,22.04c-.12.12-.3.21-.55.28-.25.07-.51.12-.79.15-.28.03-.55.05-.81.05h-.64c-.26-.04-.51-.07-.75-.09-.25-.02-.49-.06-.73-.12-.37-.12-.71-.29-1.01-.51-.14-.1-.24-.21-.3-.33-.06-.12,0-.19.15-.21.08-.02.16,0,.24.04.08.05.16.1.24.13.32.18.66.3,1.02.37.36.07.72.12,1.08.13.32,0,.62,0,.92-.03.3-.02.59-.06.89-.12.06-.02.19-.06.38-.12.2-.06.33-.1.38-.12.14-.02.24.03.31.15.07.12.05.23-.04.33Z"/>
        <path class="cls-1" d="M27.57,22.49c-.57.1-1.14.09-1.7-.03-.56-.12-1.07-.34-1.53-.66-.12-.08-.17-.19-.15-.33.02-.14.11-.19.27-.15.1,0,.17.03.22.09.05.06.11.11.19.15.43.26.91.42,1.42.49.51.07,1.01.05,1.48-.04.14-.02.34-.09.62-.19.28-.11.45-.21.53-.31.08-.08.16-.09.25-.03s.11.14.07.24c-.04.1-.14.2-.31.3s-.3.17-.4.21c-.16.08-.32.13-.49.17-.17.03-.33.06-.49.1ZM40.18,21.98c-.36.18-.75.3-1.18.37-.43.07-.87.08-1.3.01-.43-.06-.84-.19-1.21-.39-.37-.2-.68-.47-.92-.81-.12-.18-.25-.49-.4-.93-.15-.44-.28-.91-.4-1.41-.12-.5-.23-.98-.33-1.45-.1-.47-.17-.81-.21-1.03-.39.02-.8.04-1.21.04-.41,0-.82.04-1.21.07-.1,0-.29.02-.56.05-.28.03-.57.06-.89.09-.32.03-.61.06-.89.08-.28.02-.46.03-.56.03,0,.14,0,.35-.01.63-.01.28-.03.57-.06.87-.03.3-.07.58-.12.84-.05.26-.11.45-.19.57-.14.2-.33.36-.56.49-.24.13-.5.22-.79.27-.29.05-.57.07-.84.04-.28-.02-.53-.07-.77-.15-.16-.06-.3-.13-.43-.22-.13-.09-.24-.2-.34-.34-.18-.24-.27-.58-.27-1.02s.04-.9.13-1.38c.09-.48.2-.95.33-1.41.13-.46.22-.84.28-1.14.32-1.38.75-2.72,1.29-4.02.54-1.31,1.18-2.56,1.91-3.75.57-.92,1.21-1.79,1.92-2.63.71-.84,1.52-1.54,2.43-2.12.3-.18.65-.29,1.05-.34.4-.05.81-.04,1.21.02.4.06.79.17,1.17.34.37.17.69.37.95.61.28.28.51.59.71.94.2.35.36.71.47,1.09.18.56.31,1.13.38,1.7.08.58.17,1.16.27,1.73.04.2.1.53.18.99.08.46.18.98.3,1.57.12.59.24,1.21.37,1.85.13.65.25,1.27.37,1.85.12.59.22,1.11.31,1.57.09.46.16.78.22.96.02.08.06.23.12.45.06.22.12.45.19.69.07.24.14.47.21.69.07.22.11.37.13.45.16.5.14.97-.06,1.41-.1.26-.26.48-.47.67-.22.19-.45.35-.71.49ZM31.12,9.42c-.28.62-.54,1.25-.78,1.88-.25.64-.47,1.28-.67,1.91.69-.08,1.38-.13,2.06-.15.68-.02,1.37-.05,2.06-.09-.02-.22-.05-.66-.1-1.32-.05-.66-.1-1.35-.16-2.08-.06-.73-.11-1.42-.15-2.08-.04-.66-.06-1.1-.06-1.32-.47.46-.89.97-1.24,1.53-.35.56-.67,1.13-.95,1.7ZM40.18,3.5c-.08.14-.17.19-.28.15-.11-.04-.13-.13-.07-.27-.04-.08-.11-.2-.21-.36-.1-.16-.2-.33-.31-.51s-.22-.35-.34-.51c-.12-.16-.21-.27-.27-.33-.28-.24-.59-.43-.93-.57-.35-.14-.7-.24-1.05-.3-.1-.02-.3-.03-.59-.03s-.49-.02-.59-.06c-.08-.04-.12-.11-.12-.21s.04-.17.12-.21c.12-.06.24-.08.37-.07.13,0,.25.01.37.01.41.02.82.1,1.23.25.4.15.77.33,1.11.55.33.22.61.5.81.85.21.35.4.69.58,1.03.04.08.09.18.15.3.06.12.07.21.03.27Z"/>
        <path class="cls-1" d="M49.51,21.2c-.51.04-1.03.08-1.54.1-.51.03-1.03.05-1.54.05-.36-.02-.71-.05-1.07-.07-.35-.03-.7-.09-1.04-.19-.43-.14-.79-.35-1.07-.63-.2-.22-.34-.5-.41-.85-.08-.35-.11-.72-.1-1.11,0-.39.06-.77.15-1.14.09-.37.2-.69.34-.97.1-.18.22-.34.36-.49.14-.15.3-.25.47-.31.22-.08.43-.1.65-.08.22.03.43.07.65.1.59.1,1.19.17,1.79.21.6.04,1.2.11,1.79.21.3.04.57,0,.81-.1.25-.11.44-.26.59-.46.15-.2.22-.41.22-.64s-.1-.45-.3-.67c-.1-.1-.22-.18-.37-.24-.15-.06-.3-.11-.46-.15-.59-.14-1.18-.29-1.76-.46-.58-.17-1.15-.38-1.7-.64-.37-.16-.74-.35-1.1-.57-.35-.22-.67-.48-.95-.78-.2-.22-.37-.45-.52-.7-.15-.25-.27-.51-.37-.79-.14-.44-.21-.89-.22-1.35-.01-.46.01-.92.07-1.38.06-.4.14-.8.24-1.2.1-.4.25-.77.44-1.11.3-.52.68-.97,1.14-1.35.46-.38.95-.71,1.46-.99.93-.46,1.9-.79,2.93-.99,1.03-.2,2.05-.28,3.08-.24.49.02.98.05,1.46.09.48.04.94.17,1.38.39.28.14.53.35.77.63.2.28.35.6.46.97.11.37.17.75.18,1.14,0,.39-.04.76-.13,1.12-.1.36-.26.67-.47.93-.16.16-.34.29-.53.39-.2.1-.41.17-.62.21-.39.06-.78.05-1.17-.03-.38-.08-.78-.14-1.17-.18-.65-.08-1.34-.06-2.07.06-.3.04-.59.1-.89.19s-.57.21-.83.37c-.51.32-.84.79-.98,1.41-.04.14-.05.29-.04.45,0,.16.05.3.13.42.16.26.45.46.87.61.42.15.88.26,1.38.34.49.08.99.14,1.48.18.49.04.89.08,1.18.12.33.04.66.09.98.15.32.06.62.15.92.27.53.22.99.59,1.36,1.11.22.3.38.63.49,1,.11.37.18.74.22,1.12.06.72,0,1.45-.18,2.18-.18.74-.46,1.41-.86,2-.22.34-.49.64-.81.91-.33.27-.67.48-1.02.64-.65.3-1.33.49-2.04.58-.71.09-1.42.16-2.13.19ZM43.62,3.02c-.16.06-.26.02-.31-.13-.05-.15-.04-.29.04-.43.02-.06.08-.14.18-.25.1-.11.2-.22.31-.33s.21-.21.31-.31c.1-.1.18-.17.24-.21.18-.14.35-.26.52-.37.17-.11.35-.21.55-.31.41-.2.84-.35,1.29-.45.44-.1.89-.17,1.35-.21.26-.02.39.07.4.27,0,.2-.1.33-.34.39-.73.16-1.46.37-2.18.63-.72.26-1.33.66-1.82,1.2-.04.04-.12.13-.25.28-.13.15-.22.23-.28.25ZM52.61,22.67c-.08.02-.22.04-.43.07-.21.03-.43.06-.67.09-.24.03-.46.06-.68.09-.22.03-.37.04-.44.04-.14,0-.24-.04-.31-.1-.07-.07-.11-.16-.12-.25,0-.1.01-.19.07-.27.06-.08.16-.13.3-.15.12,0,.33-.02.64-.05.31-.03.62-.06.95-.09.33-.03.63-.06.92-.1.29-.04.49-.08.61-.12.16-.06.27-.02.34.12.07.14.04.26-.07.36-.16.14-.33.22-.52.25-.19.03-.38.07-.58.11Z"/>
        <path class="cls-1" d="M63.77,22.25c-.34.04-.67.05-.99.03-.33-.02-.64-.08-.93-.18-.41-.1-.75-.29-1.01-.57-.16-.16-.28-.34-.37-.54-.09-.2-.15-.41-.19-.63-.06-.3-.13-.88-.22-1.75s-.18-1.8-.28-2.8c-.1-1-.19-1.93-.27-2.8s-.14-1.45-.18-1.75c-.12-.92-.31-1.81-.56-2.69-.26-.88-.48-1.76-.68-2.66-.08-.32-.13-.64-.16-.97-.03-.33,0-.65.1-.97.12-.36.3-.7.55-1.03.25-.33.54-.57.87-.73.24-.1.53-.19.89-.27.36-.08.72-.13,1.1-.16.37-.03.73-.03,1.08.01.34.04.63.13.84.27.32.22.59.49.81.81.23.32.42.66.58,1.02.1.28.17.56.22.84.05.28.09.57.13.87.1.9.18,1.78.24,2.66.06.88.11,1.76.15,2.66.45-.04.92-.07,1.39-.09.47-.02.95-.04,1.42-.06h.37c.19,0,.31,0,.37.03-.02-.02-.03-.04-.03-.06v-.09c-.08-.76-.14-1.52-.18-2.29-.04-.77-.03-1.53.03-2.29.02-.28.05-.56.09-.84.04-.28.14-.54.3-.78.12-.22.32-.4.59-.55.28-.15.58-.27.92-.36.34-.09.68-.14,1.02-.16.34-.02.65-.02.9,0,.16.02.32.04.49.07.17.03.33.1.49.19.28.2.48.46.62.78.1.28.16.56.19.84.03.28.05.56.07.84.02.64.02,1.29,0,1.94-.02.66-.03,1.32-.03,1.97-.02.98-.02,1.95-.01,2.92,0,.97.02,1.93.04,2.89,0,.34,0,.77.03,1.29.02.52,0,1.05-.03,1.58-.04.54-.12,1.04-.24,1.51-.12.47-.3.8-.53,1-.24.18-.52.3-.86.36-.61.14-1.24.15-1.89.03-.22-.04-.43-.12-.64-.25-.21-.13-.36-.29-.46-.49-.16-.26-.25-.54-.27-.85-.02-.31-.04-.61-.06-.91-.04-.84-.07-1.68-.09-2.54-.02-.86-.08-1.71-.18-2.54-.06.02-.13.03-.21.03h-.24c-.53,0-1.07.01-1.61.04-.54.03-1.08.09-1.61.17.04.36.1.86.19,1.51.09.65.16,1.33.21,2.03.05.71.06,1.38.04,2-.02.63-.12,1.09-.3,1.39-.22.34-.52.59-.9.76-.38.17-.76.27-1.14.31ZM62.56,23.57c.1.06.13.15.1.28-.03.13-.11.2-.25.22-.08,0-.2-.02-.36-.04-.16-.03-.33-.06-.5-.09s-.35-.07-.52-.1c-.17-.04-.28-.07-.34-.09-.32-.1-.6-.25-.86-.45-.28-.24-.49-.53-.64-.88-.15-.35-.27-.7-.37-1.06-.14-.54-.22-1.09-.24-1.66-.02-.57-.05-1.13-.09-1.69,0-.06,0-.16-.01-.31,0-.15-.02-.3-.04-.46-.02-.16-.03-.31-.03-.46v-.28c0-.1.05-.16.15-.18.1-.02.17.02.21.12.02.06.04.16.06.31.02.15.03.31.04.48,0,.17.03.33.04.48.02.15.03.25.03.31.06.64.12,1.29.18,1.94.06.66.21,1.29.44,1.88.06.16.13.32.21.48.08.16.18.29.3.39.16.14.33.25.5.33.18.08.36.15.53.21.06.02.16.04.3.06.14.02.29.04.44.07.16.03.3.06.43.09.13.03.22.06.28.1ZM68.45,3.53c-.02.1-.07.17-.15.21-.08.04-.15.02-.21-.06-.14-.16-.14-.36-.01-.61.13-.25.26-.45.4-.61.37-.4.84-.69,1.41-.87.56-.18,1.12-.29,1.67-.33.1,0,.24,0,.41.01.18.01.37.03.56.06.2.03.38.07.53.12.16.05.28.12.35.19.14.1.17.23.09.39-.08.16-.2.22-.35.18-.1,0-.18-.03-.24-.09-.22-.1-.44-.17-.68-.19-.24-.03-.46-.05-.68-.05-.51.04-1.02.13-1.51.27-.18.06-.36.13-.53.21-.18.08-.34.19-.47.33-.06.04-.16.14-.3.3-.14.16-.23.27-.27.33,0,.02,0,.05-.01.1s-.01.08-.01.1Z"/>
        <path class="cls-1" d="M11.84,27.02c-.18.18-.31.22-.4.13-.09-.09-.05-.23.1-.43.28-.34.6-.62.96-.85s.75-.39,1.17-.49c.33-.08.69-.1,1.05-.06.36.04.71.13,1.05.27.1.04.29.13.56.27.28.14.45.24.53.3.1.1.15.22.16.36,0,.14-.05.23-.19.27-.1.02-.2,0-.31-.06-.11-.06-.21-.12-.31-.18-.4-.26-.84-.45-1.33-.57-.49-.12-.97-.11-1.42.03-.32.1-.61.24-.89.42-.28.18-.52.38-.74.6ZM16.48,47.2c-.18.04-.41.06-.71.07-.3.01-.59,0-.89-.01-.3-.02-.58-.06-.84-.13-.27-.07-.47-.17-.61-.31-.14-.12-.26-.34-.36-.66-.1-.32-.19-.66-.27-1.03-.08-.37-.15-.73-.21-1.08-.06-.35-.1-.62-.12-.82-.18-1.2-.33-2.4-.44-3.62-.12-1.21-.23-2.43-.33-3.65-.04-.56-.08-1.26-.13-2.09-.05-.84-.04-1.68.01-2.53.06-.85.19-1.63.4-2.35.21-.72.54-1.25.99-1.58.32-.24.66-.39,1.02-.45.37-.06.73-.04,1.08.06.35.1.68.26.98.49.3.23.54.52.74.88.85-.22,1.69-.4,2.53-.55.84-.15,1.69-.25,2.56-.31.49-.04.99-.06,1.5-.06s.98.1,1.44.3c.43.16.74.45.92.87.24.5.32,1.02.24,1.55s-.36.93-.83,1.17c-.18.1-.48.17-.9.22-.42.05-.88.09-1.36.12-.48.03-.94.06-1.38.08-.43.02-.75.04-.95.06-.47.04-.95.1-1.42.18-.47.08-.95.15-1.42.21,0,.46,0,.92.03,1.39.02.47.08.93.18,1.39.26-.04.65-.09,1.18-.13.53-.05,1.1-.09,1.69-.12.59-.03,1.15-.04,1.69-.02.53.02.93.07,1.18.15.22.08.41.22.58.42.17.2.3.42.4.66.06.18.11.39.16.64.05.25.08.5.09.75,0,.25-.01.48-.06.7-.05.22-.15.39-.31.51-.14.1-.29.17-.46.21-.17.04-.33.08-.49.12-.97.22-1.94.34-2.93.36-.99.02-1.97.09-2.96.21.02.32.07.8.16,1.44.09.64.17,1.3.25,1.99.08.69.12,1.35.13,1.97,0,.63-.04,1.08-.16,1.36-.14.28-.36.5-.67.67-.31.17-.62.27-.93.31ZM20.04,40.98c-.14.04-.28.04-.41,0-.06-.04-.09-.1-.1-.18-.01-.08.01-.14.07-.18.04-.04.09-.05.15-.04.06,0,.12,0,.18-.02.12-.02.33-.06.65-.12.32-.06.65-.11,1.01-.15.36-.04.69-.08,1.01-.11.32-.03.54-.04.68-.04.16.02.27.1.34.24.07.14.02.25-.13.33-.08.04-.25.06-.5.04-.26,0-.43-.01-.53-.01-.39.02-.79.05-1.2.09-.41.04-.8.09-1.2.15Z"/>
        <path class="cls-1" d="M36.11,45.8c-.37.18-.77.3-1.18.36-.41.06-.82.07-1.21.03-.57-.02-1.13-.12-1.67-.3-.54-.18-1.04-.43-1.5-.75-.51-.34-.98-.76-1.39-1.26-.41-.5-.75-1.04-1.01-1.61-.2-.42-.35-.86-.46-1.32-.11-.46-.2-.92-.28-1.38-.16-.9-.24-1.79-.24-2.68s.03-1.78.09-2.68c.02-.32.05-.79.1-1.42.05-.63.12-1.28.21-1.94.09-.67.2-1.3.33-1.9.13-.6.29-1.03.49-1.29.24-.34.54-.57.92-.69.3-.1.63-.15,1.01-.16.37,0,.74.03,1.1.11.35.08.69.2,1.01.37.32.17.56.38.74.64.16.22.27.47.33.75.06.28.09.56.09.84-.02.6-.1,1.19-.25,1.76-.15.58-.3,1.16-.46,1.73-.32,1.2-.52,2.42-.61,3.66-.09,1.25-.03,2.48.16,3.69.04.32.11.63.21.93.1.3.26.56.47.78.22.22.5.37.84.45.35.08.66.07.93-.03.22-.06.41-.17.58-.33.17-.16.3-.33.4-.51.28-.46.48-.93.62-1.42s.24-.99.3-1.51c.16-.96.26-1.92.31-2.9.05-.98.12-1.95.22-2.93.02-.22.06-.56.12-1.02.06-.46.12-.94.19-1.45.07-.51.15-.99.25-1.45.1-.46.21-.78.33-.96.08-.12.18-.22.31-.31.13-.09.26-.15.4-.19.26-.1.53-.16.81-.18.29-.02.57,0,.84.03.43.04.79.17,1.07.39.22.14.38.32.5.54.12.22.21.45.27.69.2.7.3,1.41.3,2.14s.03,1.45.09,2.17c.06.76.15,1.51.28,2.27.13.76.31,1.5.55,2.24.2.64.43,1.26.7,1.87.27.61.54,1.22.81,1.84.16.38.3.78.41,1.2.12.42.13.83.03,1.23-.08.34-.27.64-.56.9-.26.24-.56.42-.92.55-.36.13-.7.19-1.04.19-.43-.04-.8-.14-1.1-.3-.32-.2-.58-.46-.8-.78-.22-.32-.38-.66-.49-1.03-.11-.37-.2-.73-.28-1.09-.1-.4-.19-.79-.27-1.18-.08-.39-.17-.78-.27-1.18-.16.7-.36,1.39-.61,2.06-.25.68-.58,1.31-.99,1.88-.28.38-.59.73-.95,1.05-.36.32-.75.58-1.18.78ZM33.65,47.8c-.12.06-.33.08-.65.06-.32-.02-.53-.04-.65-.06-.53-.06-1.07-.14-1.61-.25-.54-.11-1.05-.3-1.52-.58-.51-.32-.96-.75-1.33-1.29-.06-.08-.14-.2-.25-.37-.11-.17-.15-.3-.13-.4.04-.16.12-.25.25-.27.13-.02.22.04.28.18.08.16.17.31.28.45.11.14.22.27.34.39.45.46.99.8,1.6,1.02.14.04.35.09.64.15.29.06.59.11.92.16.33.05.64.09.93.13.3.04.51.05.65.03.2-.04.34,0,.44.09.1.1.12.21.07.33-.05.12-.13.2-.25.24ZM44.46,34.91c0,.2-.09.31-.28.33-.19.02-.3-.07-.34-.27-.04-.16-.07-.46-.09-.91-.02-.45-.04-.92-.07-1.41-.03-.49-.05-.96-.06-1.41-.01-.45-.01-.75-.01-.91.02-.46,0-.93-.03-1.41-.04-.48-.17-.92-.38-1.32-.16-.28-.34-.54-.56-.79-.22-.25-.47-.43-.77-.55-.16-.06-.32-.08-.49-.04-.17.03-.33.01-.49-.04-.12-.04-.17-.11-.16-.22,0-.11.07-.18.19-.22.1-.04.27-.06.5-.08.24,0,.4,0,.5.02.18.04.34.11.49.22.15.11.3.22.46.34.28.24.52.52.73.85.21.33.35.67.43,1.03.16.7.24,1.41.24,2.12s.02,1.44.06,2.15c0,.08,0,.24.03.48.02.24.03.5.04.78s.02.54.04.78c.02.24.03.4.03.48Z"/>
        <path class="cls-1" d="M52.36,45.44c-.37.4-.86.65-1.46.75-.6.1-1.16.08-1.67-.06-.2-.06-.39-.15-.58-.27-.19-.12-.35-.26-.49-.42-.2-.26-.34-.67-.43-1.24-.09-.57-.15-1.17-.19-1.81-.04-.64-.06-1.26-.06-1.87v-1.39c-.02-1.3-.05-2.58-.1-3.84-.05-1.27-.12-2.54-.22-3.81-.02-.38-.06-.75-.12-1.11-.06-.36-.09-.73-.09-1.11,0-.2.02-.4.06-.6.04-.2.11-.38.21-.54.14-.2.32-.36.53-.48.22-.12.45-.21.7-.25.25-.05.5-.06.75-.04.26.02.49.07.71.15.24.1.44.25.61.43.17.19.31.39.43.61.24.46.4.93.49,1.42.09.49.18.98.28,1.48.36-.7.85-1.28,1.48-1.75.63-.47,1.32-.81,2.07-1.03.75-.22,1.53-.3,2.34-.25.81.05,1.57.23,2.28.55.55.26,1.06.65,1.51,1.17.33.4.63.84.87,1.33.25.49.45.99.61,1.51.39,1.16.64,2.35.74,3.59.1,1.24.08,2.45-.06,3.65-.1.9-.26,1.77-.49,2.63-.23.86-.57,1.67-1.02,2.42-.12.2-.29.35-.52.46-.23.11-.45.18-.67.22-.16.04-.38.05-.67.04-.29,0-.58-.03-.87-.06-.3-.03-.58-.08-.84-.15-.27-.07-.47-.15-.61-.25-.22-.14-.38-.33-.49-.57-.11-.24-.17-.48-.19-.72-.04-.6,0-1.2.11-1.81.11-.61.22-1.21.32-1.81.14-.9.28-1.79.41-2.69.13-.9.19-1.8.17-2.72-.02-.4-.06-.8-.12-1.21-.06-.41-.18-.79-.36-1.15-.2-.46-.5-.8-.89-1.02-.24-.1-.49-.14-.74-.13-.26.01-.52.07-.77.18-.26.11-.5.25-.73.42-.23.17-.41.35-.55.55-.28.38-.5.79-.67,1.23-.17.44-.3.89-.4,1.35-.16.64-.24,1.28-.25,1.93-.01.65,0,1.3.06,1.96.05.66.11,1.32.18,1.99.07.67.1,1.33.1,1.99,0,.38-.04.76-.13,1.15-.09.39-.27.72-.55,1ZM63.23,29.92c.06.16.02.27-.1.34-.13.07-.24.04-.34-.1-.22-.28-.42-.55-.61-.82-.19-.27-.41-.51-.67-.73-.22-.22-.46-.4-.73-.54-.27-.14-.54-.26-.81-.36-.06-.02-.2-.07-.41-.15-.22-.08-.35-.13-.41-.15-.22-.04-.42-.06-.62-.06h-.86c-.08,0-.16-.02-.24-.06-.14-.08-.15-.18-.03-.3.08-.06.19-.09.33-.09.43-.04.86-.05,1.29-.05.42.01.83.09,1.23.22.65.22,1.25.59,1.81,1.11.55.52.95,1.1,1.18,1.73Z"/>
      </g>
      <path class="cls-1" d="M79.63,21.25s-4.97,11.48,4.72,14.86c0,0-8.3-2.7-12.97,7.4,0,0,3-9.78-5.49-13.89,0,0,8.55,4.5,13.74-8.37Z"/>
    </g>
  </g>
</svg>