<svg width="56" height="32" viewBox="0 0 56 32" fill="none" xmlns="http://www.w3.org/2000/svg">
<g clip-path="url(#clip0_104_517)">
<path d="M13.1718 13.5366C12.9062 13.7238 12.6207 13.8642 12.3087 13.9645C11.9967 14.0647 11.678 14.1115 11.366 14.1115C10.6954 14.1115 10.1178 13.8642 9.6332 13.3695C9.34772 13.0754 9.10871 12.7412 8.91618 12.3668C8.72365 11.9925 8.56432 11.6047 8.43154 11.2103C8.24564 10.6756 8.11286 10.1408 8.02656 9.59263C7.94025 9.04448 7.86722 8.49633 7.80083 7.93481C7.73444 8.49633 7.65477 9.05117 7.55519 9.61269C7.4556 10.1742 7.31618 10.729 7.13029 11.2906C7.02407 11.6114 6.90456 11.9189 6.75851 12.2197C6.61245 12.5206 6.43983 12.7946 6.22739 13.0487C5.98174 13.3695 5.70291 13.6169 5.40415 13.7907C5.09212 13.9511 4.74689 14.038 4.3751 14.0581C4.00332 14.0781 3.64481 14.0313 3.30622 13.9311C2.9278 13.8107 2.57593 13.6236 2.25726 13.3695C1.93859 13.1155 1.65975 12.8347 1.42075 12.5272C1.04232 12.0326 0.743568 11.4844 0.537759 10.8694C0.325311 10.2544 0.185892 9.63943 0.106224 9.01106C0 8.17546 -0.026556 7.33318 0.026556 6.47753C0.0796681 5.62188 0.159336 4.77291 0.26556 3.91726C0.292116 3.68998 0.325311 3.46938 0.371784 3.24879C0.418257 3.02819 0.471369 2.81428 0.537759 2.60036C0.604149 2.4533 0.677178 2.30623 0.756846 2.15917C0.836515 2.0121 0.942739 1.88509 1.06888 1.77814C1.22822 1.65781 1.42075 1.56422 1.65975 1.49069C1.89876 1.41716 2.1444 1.37036 2.39668 1.35031C2.64896 1.33026 2.90124 1.33694 3.15353 1.37705C3.39917 1.41716 3.61162 1.47732 3.78423 1.55754C4.05643 1.7046 4.2556 1.91852 4.3751 2.19928C4.45477 2.41319 4.49461 2.63379 4.50125 2.86107C4.50125 3.08835 4.50125 3.31563 4.49461 3.54292C4.48133 3.7702 4.46141 4.07101 4.42822 4.45204C4.39502 4.83308 4.36183 5.24753 4.32863 5.68873C4.29544 6.13661 4.26888 6.59786 4.24232 7.07916C4.21577 7.56046 4.20913 8.01503 4.21577 8.44954C4.21577 8.88405 4.24896 9.27845 4.30207 9.62606C4.35519 9.98035 4.44149 10.2477 4.55436 10.4349C4.60747 10.5151 4.6805 10.5953 4.77344 10.6756C4.86639 10.7558 4.95934 10.7825 5.04564 10.7558C5.13859 10.729 5.2249 10.6689 5.29793 10.5686C5.37759 10.4683 5.44398 10.3547 5.50373 10.2277C5.56349 10.1007 5.60996 9.97367 5.64315 9.83997C5.67635 9.70627 5.7029 9.58595 5.72946 9.47899C5.91535 8.66345 6.02822 7.84791 6.08133 7.019C6.13444 6.19008 6.24066 5.37454 6.39336 4.559C6.4332 4.37183 6.49295 4.19134 6.57925 4.01085C6.66556 3.83036 6.7917 3.69666 6.96432 3.60308C7.07054 3.53623 7.2166 3.48275 7.40913 3.43596C7.60166 3.38917 7.74772 3.40253 7.85394 3.4627C7.86722 3.47607 7.8805 3.47607 7.90041 3.4627C7.92033 3.44933 7.93361 3.44264 7.94689 3.44264C8.10622 3.44264 8.26556 3.46938 8.43817 3.52286C8.61079 3.57634 8.74357 3.66324 8.84979 3.78357C9.00913 3.95737 9.11535 4.15123 9.1751 4.37183C9.23485 4.59242 9.27469 4.81302 9.30125 5.0403C9.40747 5.68204 9.48714 6.31041 9.54025 6.93878C9.59336 7.56715 9.66639 8.19552 9.75934 8.83725C9.79917 9.06454 9.839 9.29182 9.88548 9.52579C9.93195 9.75975 10.005 9.98703 10.1112 10.2143C10.151 10.2945 10.1909 10.3748 10.2373 10.4617C10.2838 10.5486 10.3369 10.6154 10.3967 10.6689C10.4564 10.7224 10.5162 10.7558 10.5826 10.7758C10.649 10.7959 10.722 10.7758 10.8017 10.729C10.961 10.6355 11.0805 10.475 11.1668 10.2477C11.2531 10.0205 11.3129 9.77312 11.3527 9.49905C11.3925 9.22497 11.4124 8.95089 11.4191 8.67682C11.4191 8.40274 11.4257 8.17546 11.4257 7.98829C11.3992 7.25296 11.3527 6.52432 11.2863 5.80237C11.2199 5.07373 11.1668 4.34509 11.127 3.61645C11.1137 3.33569 11.1203 3.04156 11.1336 2.73406C11.1535 2.42656 11.2398 2.15917 11.3992 1.93189C11.5452 1.73134 11.7444 1.59096 11.9967 1.51074C12.249 1.43053 12.4946 1.38373 12.7336 1.37036C13.0324 1.34363 13.3444 1.35699 13.6564 1.41047C13.9685 1.46395 14.2473 1.58428 14.4797 1.77145C14.6656 1.90515 14.805 2.07227 14.9046 2.27949C15.0042 2.48672 15.0838 2.69395 15.1502 2.90786C15.2166 3.17525 15.2631 3.43596 15.2963 3.68998C15.3295 3.944 15.3627 4.20471 15.4025 4.4721C15.4556 4.92666 15.4954 5.38123 15.5286 5.82911C15.5618 6.28367 15.5817 6.74492 15.595 7.20617C15.595 7.88802 15.5485 8.56986 15.4556 9.25171C15.3627 9.94024 15.19 10.602 14.9245 11.2438C14.7386 11.6983 14.4996 12.1262 14.2075 12.5206C13.9154 12.9216 13.5635 13.2559 13.1585 13.5233L13.1718 13.5366ZM5.78257 3.18194C5.76929 3.30226 5.7029 3.36911 5.57676 3.38248C5.45062 3.39585 5.37759 3.34906 5.35104 3.2421C5.28465 3.02819 5.24481 2.81428 5.23154 2.59368C5.21826 2.37308 5.17842 2.16585 5.11203 1.96531C5.00581 1.67118 4.84647 1.43721 4.62075 1.26341C4.38174 1.06287 4.11618 0.902431 3.80415 0.77542C3.49876 0.648409 3.18672 0.594931 2.86805 0.608301H2.5361C2.37676 0.608301 2.27054 0.594931 2.20415 0.568192C2.13776 0.528083 2.11784 0.474605 2.13776 0.407758C2.15768 0.34091 2.19751 0.294116 2.2639 0.267377C2.33029 0.254008 2.46307 0.240638 2.6556 0.227269C2.85477 0.213899 2.98091 0.207214 3.0473 0.207214C3.30622 0.207214 3.57178 0.254008 3.83071 0.347595C4.08963 0.441181 4.33527 0.554822 4.55436 0.688518C4.82656 0.862322 5.05228 1.05618 5.21162 1.27009C5.37759 1.48401 5.4971 1.7514 5.57676 2.07227C5.59004 2.11237 5.60996 2.18591 5.63651 2.29286C5.66307 2.39982 5.68299 2.51346 5.7029 2.63379C5.72282 2.75411 5.7361 2.86775 5.74938 2.97471C5.76266 3.08167 5.76929 3.1552 5.76929 3.19531L5.78257 3.18194ZM12.7801 14.7332C12.7004 14.8134 12.5809 14.8736 12.4149 14.9204C12.249 14.9672 12.0763 15.0006 11.8905 15.0207C11.7046 15.0407 11.5253 15.0541 11.3527 15.0541H10.9278C10.7552 15.0274 10.5892 15.0073 10.4299 14.9939C10.2639 14.9806 10.1046 14.9538 9.94523 14.9137C9.69958 14.8335 9.47386 14.7199 9.27469 14.5728C9.18174 14.5059 9.11535 14.4324 9.07552 14.3522C9.03568 14.272 9.07552 14.2252 9.1751 14.2118C9.22822 14.1984 9.28133 14.2118 9.33444 14.2385C9.38755 14.272 9.44066 14.3054 9.49378 14.3255C9.70622 14.4458 9.93195 14.526 10.171 14.5728C10.41 14.6196 10.649 14.653 10.888 14.6597C11.1004 14.6597 11.2996 14.6597 11.4988 14.6396C11.6979 14.6263 11.8905 14.5995 12.0896 14.5594C12.1295 14.546 12.2158 14.5193 12.3419 14.4792C12.4747 14.4391 12.561 14.4124 12.5942 14.399C12.6871 14.3856 12.7535 14.419 12.8 14.4993C12.8465 14.5795 12.8332 14.653 12.7734 14.7199L12.7801 14.7332Z" fill="white"/>
<path d="M18.3035 15.034C17.925 15.1009 17.5466 15.0942 17.1748 15.014C16.8031 14.9338 16.4645 14.7867 16.1591 14.5728C16.0794 14.5193 16.0462 14.4458 16.0595 14.3522C16.0728 14.2586 16.1325 14.2252 16.2387 14.2519C16.3051 14.2519 16.3516 14.272 16.3848 14.3121C16.418 14.3522 16.4578 14.3856 16.5109 14.4124C16.7964 14.5862 17.1151 14.6931 17.4537 14.7399C17.7923 14.7867 18.1242 14.7733 18.4362 14.7132C18.5292 14.6998 18.662 14.653 18.8479 14.5862C19.0338 14.5126 19.1466 14.4458 19.1997 14.3789C19.2528 14.3255 19.306 14.3188 19.3657 14.3589C19.4255 14.399 19.4387 14.4525 19.4122 14.5193C19.3856 14.5862 19.3192 14.653 19.2064 14.7199C19.0935 14.7867 19.0072 14.8335 18.9408 14.8602C18.8346 14.9137 18.7284 14.9471 18.6155 14.9739C18.5026 14.9939 18.3964 15.014 18.2902 15.0407L18.3035 15.034ZM26.6753 14.6931C26.4363 14.8134 26.1773 14.8937 25.8919 14.9405C25.6064 14.9873 25.3143 14.9939 25.0288 14.9471C24.7433 14.907 24.4711 14.8201 24.2255 14.6864C23.9798 14.5527 23.774 14.3723 23.6147 14.145C23.535 14.0246 23.4487 13.8174 23.3491 13.5233C23.2495 13.2292 23.1632 12.915 23.0836 12.5807C23.0039 12.2465 22.9309 11.9256 22.8645 11.6114C22.7981 11.2973 22.7516 11.07 22.725 10.9229C22.4661 10.9363 22.1939 10.9496 21.9217 10.9496C21.6495 10.9496 21.3773 10.9764 21.1184 10.9964C21.052 10.9964 20.9259 11.0098 20.7466 11.0299C20.5607 11.0499 20.3682 11.07 20.1558 11.09C19.9433 11.1101 19.7508 11.1301 19.5649 11.1435C19.379 11.1569 19.2595 11.1636 19.1931 11.1636C19.1931 11.2571 19.1931 11.3975 19.1865 11.5847C19.1798 11.7719 19.1665 11.9657 19.1466 12.1663C19.1267 12.3668 19.1001 12.554 19.067 12.7278C19.0338 12.9016 18.9939 13.0286 18.9408 13.1088C18.8479 13.2425 18.7217 13.3495 18.569 13.4364C18.4097 13.5233 18.2371 13.5834 18.0445 13.6169C17.852 13.6503 17.6661 13.6637 17.4869 13.6436C17.301 13.6302 17.135 13.5968 16.9757 13.5433C16.8694 13.5032 16.7765 13.4564 16.6902 13.3963C16.6039 13.3361 16.5309 13.2626 16.4645 13.169C16.345 13.0086 16.2852 12.7813 16.2852 12.4871C16.2852 12.193 16.3118 11.8855 16.3715 11.5646C16.4313 11.2438 16.5043 10.9296 16.5906 10.6221C16.6769 10.3146 16.7367 10.0606 16.7765 9.86003C16.9889 8.93753 17.2744 8.04177 17.6329 7.17275C17.9914 6.29705 18.4163 5.46145 18.901 4.66596C19.2794 4.05096 19.7043 3.46939 20.1757 2.90787C20.647 2.34635 21.1848 1.87841 21.7889 1.4907C21.9881 1.37037 22.2205 1.29684 22.486 1.26341C22.7516 1.22999 23.0238 1.23668 23.2894 1.27678C23.5549 1.31689 23.8138 1.39043 24.0661 1.50407C24.3118 1.61771 24.5242 1.7514 24.6968 1.91184C24.8827 2.09901 25.0354 2.30624 25.1682 2.54021C25.301 2.77417 25.4072 3.01482 25.4802 3.26885C25.5997 3.64319 25.686 4.02423 25.7325 4.40526C25.7856 4.79297 25.8454 5.18069 25.9118 5.56172C25.9383 5.69542 25.9782 5.91602 26.0313 6.22352C26.0844 6.53101 26.1508 6.87862 26.2304 7.27302C26.3101 7.66743 26.3898 8.08188 26.4761 8.50971C26.5624 8.94422 26.6421 9.35867 26.7217 9.74639C26.8014 10.1408 26.8678 10.4884 26.9275 10.7959C26.9873 11.1034 27.0338 11.3173 27.0736 11.4376C27.0869 11.4911 27.1134 11.5914 27.1533 11.7385C27.1931 11.8855 27.2329 12.0393 27.2794 12.1997C27.3259 12.3601 27.3723 12.5139 27.4188 12.661C27.4653 12.808 27.4919 12.9083 27.5051 12.9618C27.6114 13.296 27.5981 13.6102 27.4653 13.9043C27.3989 14.0781 27.2927 14.2252 27.1533 14.3522C27.0072 14.4792 26.8545 14.5862 26.6819 14.6798L26.6753 14.6931ZM20.6603 6.29705C20.4744 6.7115 20.3018 7.13264 20.1425 7.55378C19.9765 7.98161 19.8304 8.40944 19.6977 8.83058C20.1558 8.7771 20.6138 8.74367 21.0653 8.7303C21.5167 8.71694 21.9748 8.69688 22.4329 8.67014C22.4197 8.52308 22.3997 8.22895 22.3665 7.78775C22.3333 7.34656 22.3001 6.88531 22.2603 6.39732C22.2205 5.90933 22.1873 5.44808 22.1607 5.00689C22.1342 4.56569 22.1209 4.27156 22.1209 4.1245C21.8089 4.432 21.53 4.77292 21.2977 5.14727C21.0653 5.52161 20.8528 5.90265 20.667 6.28368L20.6603 6.29705ZM26.6753 2.33966C26.6221 2.43325 26.5624 2.46667 26.4894 2.43993C26.4163 2.4132 26.4031 2.35303 26.4429 2.25945C26.4163 2.20597 26.3699 2.12575 26.3035 2.01879C26.2371 1.91184 26.1707 1.7982 26.0977 1.67787C26.0246 1.55754 25.9516 1.4439 25.8719 1.33695C25.7923 1.22999 25.7325 1.15646 25.6927 1.11635C25.5068 0.955915 25.301 0.828904 25.0753 0.735318C24.8429 0.641731 24.6105 0.574883 24.3782 0.534774C24.3118 0.521405 24.179 0.51472 23.9865 0.51472C23.7939 0.51472 23.6611 0.501351 23.5948 0.474612C23.5416 0.447872 23.5151 0.401079 23.5151 0.334231C23.5151 0.267384 23.5416 0.22059 23.5948 0.193851C23.6744 0.153742 23.7541 0.140373 23.8404 0.147058C23.9267 0.147058 24.0064 0.153743 24.086 0.153743C24.3582 0.167112 24.6304 0.22059 24.9026 0.320862C25.1682 0.421133 25.4138 0.541459 25.6396 0.688524C25.8587 0.835589 26.0445 1.02276 26.1773 1.25673C26.3167 1.4907 26.4429 1.71798 26.5624 1.94526C26.5889 1.99874 26.6221 2.06559 26.662 2.1458C26.7018 2.22602 26.7084 2.28618 26.6819 2.32629L26.6753 2.33966Z" fill="white"/>
<path d="M32.8689 14.1717C32.5303 14.1984 32.1851 14.2252 31.8465 14.2386C31.5079 14.2586 31.1627 14.272 30.8241 14.272C30.5851 14.2586 30.3527 14.2386 30.1137 14.2252C29.8813 14.2051 29.649 14.165 29.4232 14.0982C29.1378 14.0046 28.8988 13.8642 28.7129 13.677C28.5801 13.53 28.4871 13.3428 28.4407 13.1088C28.3876 12.8749 28.3676 12.6275 28.3743 12.3668C28.3743 12.1061 28.4141 11.8521 28.4739 11.6048C28.5336 11.3574 28.6066 11.1435 28.6996 10.9563C28.766 10.836 28.8456 10.729 28.9386 10.6288C29.0315 10.5285 29.1378 10.4617 29.2506 10.4215C29.3967 10.3681 29.5361 10.3547 29.6822 10.3681C29.8282 10.3881 29.9676 10.4149 30.1137 10.4349C30.5054 10.5018 30.9037 10.5486 31.3021 10.5753C31.7004 10.602 32.0988 10.6488 32.4905 10.7157C32.6896 10.7424 32.8689 10.7157 33.0282 10.6488C33.1942 10.5753 33.3203 10.475 33.4199 10.3413C33.5195 10.2076 33.566 10.0673 33.566 9.9135C33.566 9.75976 33.4996 9.61269 33.3668 9.46562C33.3004 9.39878 33.2208 9.3453 33.1212 9.30519C33.0216 9.26508 32.922 9.23166 32.8158 9.20492C32.4241 9.11133 32.0324 9.01106 31.6473 8.89742C31.2622 8.78378 30.8838 8.6434 30.5187 8.46959C30.273 8.36264 30.0274 8.23563 29.7884 8.08856C29.556 7.9415 29.3436 7.76769 29.1577 7.56715C29.0249 7.42008 28.912 7.26634 28.8125 7.09922C28.7129 6.9321 28.6332 6.75829 28.5668 6.57112C28.4739 6.27699 28.4274 5.97617 28.4208 5.66867C28.4141 5.36118 28.4274 5.05368 28.4672 4.74618C28.5071 4.47879 28.5602 4.21139 28.6266 3.944C28.6929 3.67661 28.7925 3.42928 28.9187 3.20199C29.1178 2.85439 29.3701 2.55357 29.6755 2.29955C29.9809 2.04553 30.3062 1.82493 30.6448 1.63776C31.2622 1.33026 31.9062 1.10966 32.59 0.975966C33.2739 0.84227 33.951 0.788792 34.6349 0.815531C34.9602 0.828901 35.2855 0.848955 35.6042 0.875694C35.9228 0.902433 36.2282 0.989335 36.5203 1.1364C36.7062 1.22999 36.8722 1.37037 37.0315 1.55754C37.1643 1.74471 37.2639 1.95863 37.3369 2.20596C37.41 2.4533 37.4498 2.70732 37.4564 2.96803C37.4564 3.22873 37.4299 3.47607 37.3701 3.71672C37.3037 3.95737 37.1975 4.1646 37.0581 4.33841C36.9519 4.44536 36.8324 4.53226 36.7062 4.59911C36.5734 4.66596 36.434 4.71275 36.2946 4.73949C36.0357 4.7796 35.7768 4.77292 35.5178 4.71944C35.2656 4.66596 35 4.62585 34.7411 4.59911C34.3095 4.54563 33.8515 4.559 33.3668 4.63922C33.1676 4.66596 32.9751 4.70607 32.7759 4.76623C32.5768 4.82639 32.3975 4.90661 32.2249 5.01357C31.8863 5.22748 31.6672 5.54166 31.5743 5.95612C31.5477 6.04971 31.5411 6.14998 31.5477 6.25693C31.5477 6.36389 31.5809 6.45748 31.634 6.53769C31.7403 6.7115 31.9328 6.84519 32.2116 6.94547C32.4905 7.04574 32.7959 7.11927 33.1278 7.17275C33.4531 7.22623 33.7851 7.26634 34.1104 7.29307C34.4357 7.31981 34.7012 7.34655 34.8938 7.37329C35.1129 7.40003 35.332 7.43345 35.5444 7.47356C35.7569 7.51367 35.956 7.57383 36.1552 7.65405C36.5071 7.80112 36.8125 8.04845 37.0581 8.39606C37.2042 8.59661 37.3104 8.8172 37.3834 9.06454C37.4564 9.31188 37.5029 9.55921 37.5295 9.81323C37.5693 10.2945 37.5295 10.7825 37.41 11.2705C37.2905 11.7652 37.1046 12.2131 36.839 12.6075C36.693 12.8348 36.5137 13.0353 36.3012 13.2158C36.0822 13.3963 35.8564 13.5367 35.6241 13.6436C35.1925 13.8442 34.7411 13.9712 34.2697 14.0313C33.7983 14.0915 33.327 14.1383 32.8556 14.1583L32.8689 14.1717ZM28.9585 2.01879C28.8523 2.0589 28.7859 2.03216 28.7527 1.93189C28.7195 1.83162 28.7261 1.73803 28.7793 1.64444C28.7925 1.60433 28.8324 1.55086 28.8988 1.47732C28.9651 1.40379 29.0315 1.33026 29.1046 1.25673C29.1776 1.18319 29.244 1.11635 29.3104 1.0495C29.3768 0.982651 29.4299 0.935857 29.4697 0.909118C29.5892 0.815531 29.7021 0.735314 29.8149 0.661782C29.9278 0.588249 30.0473 0.521401 30.1801 0.454554C30.4523 0.320858 30.7378 0.220587 31.0365 0.153739C31.3286 0.0868912 31.6274 0.0400978 31.9328 0.0133588C32.1054 -1.07782e-05 32.1917 0.0601521 32.1983 0.193848C32.1983 0.327543 32.132 0.414445 31.9726 0.454554C31.488 0.56151 31.0033 0.70189 30.5253 0.875694C30.0473 1.0495 29.6423 1.31689 29.317 1.67787C29.2905 1.70461 29.2373 1.76477 29.151 1.86504C29.0647 1.96531 29.005 2.01879 28.9651 2.03216L28.9585 2.01879ZM34.9336 15.1544C34.8805 15.1677 34.7876 15.1811 34.6481 15.2012C34.5087 15.2212 34.3627 15.2413 34.2033 15.2613C34.044 15.2814 33.8979 15.3014 33.7519 15.3215C33.6058 15.3415 33.5062 15.3482 33.4598 15.3482C33.3668 15.3482 33.3004 15.3215 33.2539 15.2814C33.2075 15.2346 33.1809 15.1744 33.1743 15.1143C33.1743 15.0474 33.1809 14.9872 33.2208 14.9338C33.2606 14.8803 33.327 14.8469 33.4199 14.8335C33.4996 14.8335 33.639 14.8201 33.8448 14.8001C34.0506 14.78 34.2564 14.76 34.4755 14.7399C34.6946 14.7199 34.8938 14.6998 35.0863 14.6731C35.2788 14.6463 35.4116 14.6196 35.4913 14.5928C35.5975 14.5527 35.6705 14.5795 35.717 14.6731C35.7635 14.7666 35.7436 14.8469 35.6705 14.9137C35.5643 15.0073 35.4515 15.0608 35.3253 15.0808C35.1992 15.1009 35.073 15.1276 34.9403 15.1544H34.9336Z" fill="white"/>
<path d="M42.3377 14.8736C42.1119 14.9004 41.8929 14.907 41.6804 14.8937C41.4613 14.8803 41.2555 14.8402 41.063 14.7733C40.7908 14.7065 40.5651 14.5795 40.3924 14.3923C40.2862 14.2854 40.2066 14.165 40.1468 14.0313C40.087 13.8976 40.0472 13.7573 40.0207 13.6102C39.9808 13.4097 39.9344 13.0219 39.8746 12.4404C39.8149 11.8588 39.7551 11.2371 39.6887 10.5686C39.6223 9.90015 39.5626 9.27847 39.5095 8.69689C39.4563 8.11532 39.4165 7.7276 39.39 7.52706C39.3103 6.91206 39.1841 6.31711 39.0182 5.72885C38.8456 5.14059 38.6995 4.55233 38.5667 3.9507C38.5136 3.73679 38.4804 3.52288 38.4605 3.30228C38.4406 3.08168 38.4605 2.86777 38.5269 2.65386C38.6066 2.41321 38.7261 2.18592 38.892 1.96533C39.058 1.74473 39.2505 1.58429 39.4696 1.47734C39.629 1.41049 39.8215 1.35033 40.0605 1.29685C40.2995 1.24337 40.5385 1.20995 40.7908 1.18989C41.0364 1.16984 41.2754 1.16984 41.5078 1.19658C41.7335 1.22332 41.9261 1.28348 42.0655 1.37707C42.2779 1.52413 42.4572 1.70462 42.6032 1.91853C42.7559 2.13244 42.8821 2.35973 42.9883 2.60038C43.0547 2.78755 43.1012 2.97473 43.1344 3.1619C43.1675 3.34907 43.1941 3.54293 43.2207 3.74347C43.287 4.3451 43.3402 4.93336 43.38 5.52162C43.4198 6.10988 43.453 6.69814 43.4796 7.29977C43.7783 7.27303 44.0904 7.25298 44.4024 7.23961C44.7144 7.22624 45.0331 7.21287 45.3451 7.1995H45.5908C45.7169 7.1995 45.7966 7.1995 45.8364 7.21956C45.8231 7.20619 45.8165 7.19282 45.8165 7.17945V7.11928C45.7634 6.61124 45.7236 6.1032 45.697 5.58847C45.6705 5.07374 45.6771 4.5657 45.7169 4.05766C45.7302 3.87049 45.7501 3.68331 45.7767 3.49614C45.8032 3.30896 45.8696 3.13516 45.9758 2.97473C46.0555 2.82766 46.1883 2.70734 46.3675 2.60706C46.5534 2.50679 46.7526 2.42657 46.9783 2.36641C47.2041 2.30625 47.4298 2.27283 47.6555 2.25946C47.8812 2.24609 48.087 2.24609 48.253 2.25946C48.3592 2.27283 48.4655 2.28619 48.5783 2.30625C48.6912 2.3263 48.7974 2.3731 48.9036 2.43326C49.0895 2.56695 49.2223 2.74076 49.3153 2.95467C49.3817 3.14185 49.4215 3.32902 49.4414 3.51619C49.4613 3.70337 49.4746 3.89054 49.4879 4.07771C49.5012 4.50554 49.5012 4.94005 49.4879 5.37456C49.4746 5.81575 49.468 6.25695 49.468 6.69146C49.4547 7.34657 49.4547 7.99499 49.4613 8.64341C49.4613 9.29183 49.4746 9.93357 49.4879 10.5753C49.4879 10.8026 49.4879 11.09 49.5078 11.4376C49.5211 11.7853 49.5078 12.1395 49.4879 12.4938C49.4613 12.8548 49.4082 13.1891 49.3285 13.5032C49.2489 13.8174 49.1294 14.038 48.9767 14.1717C48.8173 14.292 48.6314 14.3723 48.4057 14.4124C48.0007 14.506 47.5825 14.5126 47.1509 14.4324C47.0049 14.4057 46.8655 14.3522 46.7261 14.2653C46.5866 14.1784 46.487 14.0714 46.4207 13.9378C46.3144 13.7639 46.2547 13.5768 46.2414 13.3695C46.2281 13.1623 46.2148 12.9618 46.2016 12.7612C46.175 12.1997 46.1551 11.6382 46.1418 11.0633C46.1285 10.4884 46.0887 9.9202 46.0223 9.36537C45.9825 9.37874 45.936 9.38542 45.8829 9.38542H45.7236C45.3717 9.38542 45.0132 9.39211 44.6547 9.41216C44.2962 9.43221 43.9377 9.47232 43.5858 9.5258C43.6124 9.76645 43.6522 10.1007 43.7119 10.5352C43.7717 10.9697 43.8182 11.4243 43.8514 11.8922C43.8846 12.3668 43.8912 12.8147 43.8779 13.2292C43.8646 13.6503 43.7983 13.9578 43.6788 14.1583C43.5327 14.3856 43.3335 14.5528 43.0812 14.6664C42.829 14.78 42.5767 14.8469 42.3244 14.8736H42.3377ZM41.5344 15.756C41.6007 15.7961 41.6207 15.8563 41.6007 15.9432C41.5808 16.0301 41.5277 16.0769 41.4348 16.0902C41.3817 16.0902 41.302 16.0769 41.1958 16.0635C41.0895 16.0435 40.9767 16.0234 40.8638 16.0033C40.7509 15.9833 40.6314 15.9566 40.5186 15.9365C40.4057 15.9098 40.3327 15.8897 40.2929 15.8763C40.0804 15.8095 39.8945 15.7092 39.7219 15.5755C39.536 15.4151 39.3966 15.2212 39.297 14.9873C39.1974 14.7533 39.1178 14.5193 39.0514 14.2787C38.9584 13.9177 38.9053 13.55 38.892 13.169C38.8788 12.788 38.8588 12.4136 38.8323 12.0393C38.8323 11.9992 38.8323 11.9323 38.8256 11.832C38.8256 11.7318 38.8124 11.6315 38.7991 11.5245C38.7858 11.4176 38.7792 11.3173 38.7792 11.217V11.0299C38.7792 10.963 38.8124 10.9229 38.8788 10.9095C38.9451 10.8962 38.9916 10.9229 39.0182 10.9898C39.0314 11.0299 39.0447 11.0967 39.058 11.197C39.0713 11.2973 39.0779 11.4042 39.0846 11.5179C39.0846 11.6315 39.1045 11.7385 39.1111 11.8387C39.1244 11.939 39.131 12.0059 39.131 12.046C39.1709 12.4738 39.2107 12.9083 39.2505 13.3428C39.2904 13.784 39.39 14.2051 39.5427 14.5995C39.5825 14.7065 39.629 14.8135 39.6821 14.9204C39.7352 15.0274 39.8016 15.1143 39.8812 15.1811C39.9875 15.2747 40.1003 15.3482 40.2132 15.4017C40.3327 15.4552 40.4522 15.502 40.5651 15.5421C40.6049 15.5555 40.6713 15.5688 40.7642 15.5822C40.8572 15.5956 40.9568 15.6089 41.0563 15.629C41.1626 15.6491 41.2555 15.6691 41.3418 15.6892C41.4281 15.7092 41.4879 15.7293 41.5277 15.756H41.5344ZM45.4447 2.36641C45.4314 2.43326 45.3983 2.48005 45.3451 2.50679C45.292 2.53353 45.2456 2.52016 45.2057 2.46668C45.1128 2.35973 45.1128 2.22603 45.1991 2.05891C45.2854 1.89179 45.3717 1.7581 45.4646 1.65114C45.7103 1.38375 46.0223 1.18989 46.4007 1.06957C46.7725 0.94924 47.1443 0.875708 47.5095 0.848969C47.5758 0.848969 47.6688 0.848968 47.7817 0.855653C47.9012 0.862338 48.0273 0.875708 48.1534 0.895762C48.2862 0.915816 48.4057 0.942555 48.5053 0.975979C48.6115 1.0094 48.6912 1.0562 48.7377 1.10299C48.8306 1.16984 48.8505 1.25674 48.7974 1.3637C48.7443 1.47065 48.6646 1.51076 48.5651 1.48402C48.4987 1.48402 48.4456 1.46397 48.4057 1.42386C48.2597 1.35701 48.1136 1.31022 47.9543 1.29685C47.7949 1.27679 47.6489 1.26342 47.5028 1.26342C47.1642 1.29016 46.8256 1.35033 46.5003 1.44391C46.3808 1.48402 46.2613 1.53082 46.1485 1.58429C46.029 1.63777 45.9227 1.7113 45.8364 1.80489C45.7966 1.83163 45.7302 1.89848 45.6373 2.00543C45.5443 2.11239 45.4846 2.18592 45.458 2.22603C45.458 2.2394 45.458 2.25946 45.4514 2.29288C45.4447 2.3263 45.4447 2.34636 45.4447 2.35973V2.36641Z" fill="white"/>
<path d="M7.85966 18.0623C7.74016 18.1826 7.65385 18.2093 7.5941 18.1492C7.53435 18.089 7.5609 17.9954 7.66049 17.8617C7.84638 17.6344 8.05883 17.4473 8.29783 17.2935C8.53684 17.1398 8.79576 17.0328 9.0746 16.966C9.29368 16.9125 9.53269 16.8991 9.77169 16.9258C10.0107 16.9526 10.2431 17.0127 10.4688 17.1063C10.5352 17.1331 10.6613 17.1932 10.8406 17.2868C11.0265 17.3804 11.1393 17.4473 11.1924 17.4874C11.2588 17.5542 11.292 17.6344 11.2987 17.728C11.2987 17.8216 11.2655 17.8818 11.1725 17.9085C11.1061 17.9219 11.0397 17.9085 10.9667 17.8684C10.8937 17.8283 10.8273 17.7882 10.7609 17.7481C10.4953 17.5743 10.2032 17.4473 9.87792 17.367C9.55261 17.2868 9.23393 17.2935 8.93518 17.3871C8.72273 17.4539 8.5302 17.5475 8.34431 17.6679C8.15841 17.7882 7.99908 17.9219 7.85302 18.0689L7.85966 18.0623ZM10.9468 31.5521C10.8273 31.5789 10.6746 31.5922 10.4754 31.5989C10.2763 31.6056 10.0837 31.5989 9.88456 31.5922C9.68539 31.5789 9.49949 31.5521 9.32688 31.5053C9.14763 31.4585 9.01485 31.3917 8.9219 31.2981C8.82895 31.2179 8.74929 31.0708 8.6829 30.8569C8.61651 30.643 8.55675 30.4157 8.50364 30.1684C8.45053 29.921 8.40406 29.6804 8.36422 29.4464C8.32439 29.2125 8.29783 29.032 8.28455 28.8983C8.16505 28.0961 8.06547 27.2939 7.99244 26.4784C7.91277 25.6695 7.83974 24.854 7.77335 24.0384C7.7468 23.6641 7.72024 23.1962 7.68704 22.6413C7.65385 22.0798 7.66049 21.5183 7.69368 20.9501C7.73352 20.3819 7.81982 19.8605 7.95924 19.3792C8.09866 18.8979 8.31775 18.5436 8.61651 18.323C8.82895 18.1625 9.05468 18.0623 9.29368 18.0221C9.53933 17.982 9.77833 17.9954 10.0107 18.0623C10.2431 18.1291 10.4621 18.2361 10.6613 18.3898C10.8605 18.5436 11.0198 18.7374 11.1526 18.9781C11.7169 18.831 12.2746 18.7107 12.8323 18.6104C13.3899 18.5101 13.9543 18.4433 14.5319 18.4032C14.8572 18.3764 15.1891 18.3631 15.5277 18.3631C15.8663 18.3631 16.1783 18.4299 16.4837 18.5636C16.7692 18.6706 16.975 18.8644 17.0945 19.1452C17.2538 19.4794 17.307 19.827 17.2538 20.1813C17.2007 20.5356 17.0148 20.803 16.7028 20.9634C16.5833 21.0303 16.3841 21.0771 16.1053 21.1105C15.8265 21.1439 15.5211 21.1707 15.2024 21.1907C14.8837 21.2108 14.5783 21.2308 14.2862 21.2442C14.0007 21.2576 13.7883 21.2709 13.6555 21.2843C13.3435 21.3111 13.0248 21.3512 12.7128 21.4046C12.4007 21.4581 12.0821 21.5049 11.77 21.545C11.77 21.8525 11.77 22.16 11.7899 22.4742C11.8032 22.7884 11.8431 23.0959 11.9095 23.4034C12.0821 23.3766 12.341 23.3432 12.6929 23.3165C13.0447 23.2831 13.4231 23.2563 13.8148 23.2363C14.2065 23.2162 14.5783 23.2095 14.9368 23.2229C15.2887 23.2363 15.5543 23.2697 15.7202 23.3232C15.8663 23.3766 15.9924 23.4702 16.1053 23.6039C16.2182 23.7376 16.3045 23.8847 16.3709 24.0451C16.4107 24.1655 16.4439 24.3058 16.4771 24.473C16.5103 24.6401 16.5302 24.8072 16.5368 24.9743C16.5368 25.1414 16.5302 25.2952 16.497 25.4422C16.4638 25.5893 16.3974 25.703 16.2912 25.7832C16.1982 25.85 16.0987 25.8968 15.9858 25.9235C15.8729 25.9503 15.7667 25.977 15.6605 26.0038C15.0165 26.1508 14.3725 26.231 13.7153 26.2444C13.058 26.2578 12.4074 26.3046 11.7501 26.3848C11.7634 26.5987 11.7966 26.9196 11.8563 27.3474C11.9161 27.7752 11.9692 28.2164 12.0223 28.6777C12.0754 29.1389 12.102 29.5801 12.1086 29.9946C12.1086 30.4157 12.0821 30.7165 12.0024 30.9037C11.9095 31.0909 11.7634 31.2379 11.5576 31.3516C11.3518 31.4652 11.146 31.5321 10.9402 31.5588L10.9468 31.5521ZM13.3036 27.3942C13.2107 27.4209 13.1177 27.4209 13.0314 27.3942C12.9916 27.3675 12.9717 27.3273 12.9651 27.2739C12.9584 27.2204 12.9717 27.1803 13.0115 27.1535C13.0381 27.1268 13.0713 27.1201 13.1111 27.1268C13.1509 27.1268 13.1908 27.1268 13.2306 27.1134C13.3103 27.1001 13.4497 27.0733 13.6621 27.0332C13.8746 26.9931 14.0937 26.9597 14.3327 26.933C14.5717 26.9062 14.7908 26.8795 15.0032 26.8594C15.2157 26.8394 15.3617 26.8327 15.4547 26.8327C15.5609 26.846 15.6339 26.8995 15.6804 26.9931C15.7269 27.0867 15.6937 27.1602 15.5941 27.2137C15.541 27.2404 15.4281 27.2538 15.2621 27.2404C15.0895 27.2404 14.9767 27.2338 14.9103 27.2338C14.6514 27.2471 14.3858 27.2672 14.1136 27.2939C13.8414 27.3207 13.5825 27.3541 13.3169 27.3942H13.3036Z" fill="white"/>
<path d="M23.9743 30.6162C23.7287 30.7366 23.4631 30.8168 23.1909 30.8569C22.9187 30.897 22.6465 30.9037 22.3876 30.8769C22.0092 30.8636 21.6374 30.7967 21.2789 30.6764C20.9204 30.5561 20.5884 30.389 20.283 30.175C19.9445 29.9478 19.6324 29.667 19.3602 29.3328C19.088 28.9985 18.8623 28.6375 18.6897 28.2565C18.5569 27.9758 18.4573 27.6816 18.3843 27.3741C18.3113 27.0666 18.2515 26.7591 18.1984 26.4516C18.0922 25.85 18.0391 25.255 18.0391 24.6601C18.0391 24.0652 18.059 23.4702 18.0988 22.8686C18.1121 22.6547 18.132 22.3405 18.1652 21.9193C18.1984 21.4982 18.2449 21.0637 18.3046 20.6225C18.3644 20.1746 18.4374 19.7535 18.5237 19.3524C18.61 18.9513 18.7162 18.6639 18.849 18.4901C19.0084 18.2628 19.2075 18.109 19.4598 18.0288C19.659 17.962 19.8781 17.9285 20.1303 17.9219C20.376 17.9219 20.6216 17.9419 20.8606 17.9954C21.093 18.0489 21.3187 18.1291 21.5312 18.2427C21.7436 18.3564 21.903 18.4967 22.0225 18.6706C22.1287 18.8176 22.2017 18.9847 22.2416 19.1719C22.2814 19.3591 22.3013 19.5463 22.3013 19.7334C22.288 20.1345 22.2349 20.5289 22.1353 20.9099C22.0357 21.2977 21.9362 21.6854 21.8299 22.0664C21.6175 22.8686 21.4847 23.6841 21.425 24.513C21.3652 25.3486 21.405 26.1709 21.5312 26.9797C21.5577 27.1936 21.6042 27.4009 21.6706 27.6014C21.737 27.8019 21.8432 27.9758 21.9826 28.1228C22.1287 28.2699 22.3146 28.3702 22.5403 28.4236C22.7727 28.4771 22.9785 28.4704 23.1577 28.4036C23.3038 28.3635 23.4299 28.2899 23.5428 28.183C23.6557 28.076 23.742 27.9624 23.8084 27.8421C23.9942 27.5346 24.127 27.2204 24.22 26.8928C24.3129 26.5653 24.3793 26.231 24.4191 25.8834C24.5254 25.2417 24.5918 24.5999 24.625 23.9448C24.6581 23.2897 24.7046 22.6413 24.771 21.9862C24.7843 21.8391 24.8108 21.6119 24.8507 21.3044C24.8905 20.9969 24.9303 20.676 24.9768 20.3351C25.0233 19.9941 25.0764 19.6733 25.1428 19.3658C25.2092 19.0583 25.2822 18.8444 25.3619 18.724C25.415 18.6438 25.4814 18.577 25.5677 18.5168C25.654 18.4566 25.7403 18.4165 25.8333 18.3898C26.0059 18.3229 26.1851 18.2828 26.371 18.2695C26.5635 18.2561 26.7494 18.2695 26.9287 18.2895C27.2142 18.3163 27.4532 18.4032 27.6391 18.5502C27.7851 18.6438 27.8913 18.7641 27.971 18.9112C28.0507 19.0583 28.1104 19.212 28.1503 19.3725C28.283 19.8404 28.3494 20.315 28.3494 20.803C28.3494 21.291 28.3694 21.7723 28.4092 22.2536C28.449 22.7616 28.5088 23.263 28.5951 23.771C28.6814 24.2791 28.8009 24.7737 28.9602 25.2684C29.093 25.6962 29.2457 26.1107 29.425 26.5185C29.6042 26.9262 29.7835 27.334 29.9627 27.7485C30.0689 28.0025 30.1619 28.2699 30.2349 28.5506C30.3146 28.8314 30.3212 29.1055 30.2548 29.3729C30.2017 29.6002 30.0756 29.8007 29.883 29.9745C29.7104 30.1349 29.5113 30.2553 29.2723 30.3422C29.0333 30.4291 28.8075 30.4692 28.5818 30.4692C28.2963 30.4424 28.0507 30.3756 27.8515 30.2686C27.6391 30.1349 27.4664 29.9611 27.3204 29.7472C27.1743 29.5333 27.0681 29.306 26.9951 29.0587C26.9221 28.8113 26.8623 28.5707 26.8092 28.33C26.7428 28.0627 26.683 27.8019 26.6299 27.5412C26.5768 27.2805 26.5171 27.0198 26.4507 26.7524C26.3445 27.2204 26.2117 27.6816 26.0457 28.1295C25.8797 28.5841 25.6606 29.0052 25.3884 29.3862C25.2025 29.6403 24.9967 29.8742 24.7577 30.0881C24.5187 30.3021 24.2598 30.4759 23.9743 30.6096V30.6162ZM22.3411 31.9532C22.2615 31.9933 22.1221 32.0067 21.9096 31.9933C21.6972 31.9799 21.5577 31.9666 21.4781 31.9532C21.1262 31.9131 20.7677 31.8596 20.4092 31.7861C20.0507 31.7125 19.7121 31.5855 19.4001 31.3984C19.0615 31.1844 18.7627 30.897 18.5171 30.536C18.4772 30.4825 18.4241 30.4023 18.3511 30.2887C18.2781 30.175 18.2515 30.0881 18.2648 30.0213C18.2913 29.9143 18.3445 29.8542 18.4308 29.8408C18.5171 29.8274 18.5768 29.8675 18.6167 29.9611C18.6698 30.0681 18.7295 30.1684 18.8025 30.2619C18.8756 30.3555 18.9486 30.4424 19.0283 30.5226C19.327 30.8301 19.6855 31.0574 20.0905 31.2045C20.1835 31.2312 20.3229 31.2647 20.5154 31.3048C20.7079 31.3449 20.9071 31.3783 21.1262 31.4117C21.3453 31.4452 21.5511 31.4719 21.7436 31.4986C21.9428 31.5254 22.0822 31.5321 22.1752 31.5187C22.3079 31.4919 22.4009 31.5187 22.4673 31.5788C22.5337 31.6457 22.5469 31.7192 22.5138 31.7994C22.4806 31.8797 22.4274 31.9331 22.3478 31.9599L22.3411 31.9532ZM29.5179 23.3365C29.5179 23.4702 29.4581 23.5437 29.332 23.5571C29.2059 23.5705 29.1328 23.5103 29.1063 23.3766C29.0797 23.2697 29.0598 23.0691 29.0465 22.7683C29.0333 22.4675 29.02 22.1533 29.0001 21.8258C28.9801 21.4982 28.9669 21.184 28.9602 20.8832C28.9536 20.5824 28.9536 20.3819 28.9536 20.2749C28.9669 19.9674 28.9536 19.6532 28.9337 19.3323C28.9071 19.0115 28.8208 18.7173 28.6814 18.45C28.5752 18.2628 28.4557 18.089 28.3096 17.9219C28.1635 17.7547 27.9976 17.6344 27.7984 17.5542C27.6922 17.5141 27.586 17.5007 27.4731 17.5275C27.3602 17.5475 27.254 17.5341 27.1478 17.5007C27.0681 17.474 27.0349 17.4272 27.0416 17.3536C27.0416 17.2801 27.088 17.2333 27.1677 17.2066C27.2341 17.1798 27.3469 17.1665 27.4996 17.1531C27.659 17.1531 27.7652 17.1531 27.8316 17.1665C27.9511 17.1932 28.0573 17.24 28.1569 17.3135C28.2565 17.3871 28.3561 17.4606 28.4623 17.5408C28.6482 17.7013 28.8075 17.8884 28.9469 18.109C29.0864 18.3296 29.1793 18.5569 29.2324 18.7976C29.3386 19.2655 29.3918 19.7401 29.3918 20.2147C29.3918 20.6894 29.405 21.1773 29.4316 21.652C29.4316 21.7054 29.4316 21.8124 29.4515 21.9728C29.4648 22.1333 29.4714 22.3071 29.4781 22.4942C29.4847 22.6814 29.4913 22.8552 29.5046 23.0157C29.5179 23.1761 29.5245 23.283 29.5245 23.3365H29.5179Z" fill="white"/>
<path d="M34.7616 30.3756C34.516 30.643 34.1907 30.8101 33.7923 30.877C33.394 30.9438 33.0222 30.9304 32.6836 30.8368C32.5508 30.7967 32.4247 30.7366 32.2986 30.6564C32.1724 30.5761 32.0662 30.4826 31.9732 30.3756C31.8405 30.2018 31.7475 29.9277 31.6878 29.5467C31.628 29.1657 31.5882 28.7646 31.5616 28.3367C31.5351 27.9089 31.5218 27.4945 31.5218 27.0867V26.1575C31.5085 25.2885 31.4886 24.4328 31.4554 23.5906C31.4222 22.7416 31.3757 21.8926 31.3093 21.0437C31.2961 20.7896 31.2695 20.5423 31.2297 20.3016C31.1898 20.061 31.1699 19.8137 31.1699 19.5596C31.1699 19.4259 31.1832 19.2922 31.2098 19.1586C31.2363 19.0249 31.2828 18.9045 31.3492 18.7976C31.4421 18.6639 31.5616 18.5569 31.701 18.4767C31.8471 18.3965 31.9998 18.3363 32.1658 18.3096C32.3317 18.2762 32.4977 18.2695 32.6637 18.2828C32.8363 18.2962 32.989 18.3296 33.1351 18.3831C33.2944 18.45 33.4272 18.5502 33.54 18.6706C33.6529 18.7976 33.7459 18.9313 33.8255 19.0783C33.9849 19.3858 34.0911 19.7 34.1508 20.0276C34.2106 20.3551 34.2703 20.6827 34.3367 21.0169C34.5757 20.549 34.901 20.1613 35.3193 19.8471C35.7376 19.5329 36.1956 19.3056 36.6936 19.1586C37.1915 19.0115 37.7093 18.958 38.2471 18.9914C38.7849 19.0249 39.2894 19.1452 39.7608 19.3591C40.1259 19.5329 40.4645 19.7936 40.7633 20.1412C40.9824 20.4086 41.1815 20.7027 41.3409 21.0303C41.5069 21.3578 41.6396 21.6921 41.7459 22.0397C42.0048 22.8151 42.1707 23.6106 42.2371 24.4395C42.3035 25.2684 42.2903 26.0773 42.1973 26.8795C42.1309 27.4811 42.0247 28.0627 41.872 28.6376C41.7193 29.2124 41.4936 29.7539 41.1948 30.2553C41.1151 30.389 41.0023 30.4892 40.8496 30.5628C40.6969 30.6363 40.5508 30.6831 40.4048 30.7098C40.2986 30.7366 40.1525 30.7433 39.96 30.7366C39.7674 30.7366 39.5749 30.7165 39.3824 30.6965C39.1832 30.6764 38.9973 30.643 38.8247 30.5962C38.6454 30.5494 38.5127 30.4959 38.4197 30.4291C38.2737 30.3355 38.1674 30.2085 38.0944 30.048C38.0214 29.8876 37.9815 29.7272 37.9683 29.5667C37.9417 29.1657 37.9683 28.7646 38.0413 28.3568C38.1143 27.949 38.1873 27.5479 38.2537 27.1469C38.3467 26.5452 38.4396 25.9503 38.5259 25.3486C38.6122 24.747 38.6521 24.1454 38.6388 23.5304C38.6255 23.263 38.599 22.9956 38.5591 22.7215C38.5193 22.4475 38.4396 22.1934 38.3201 21.9528C38.1873 21.6453 37.9882 21.418 37.7293 21.2709C37.5699 21.2041 37.4039 21.1774 37.238 21.184C37.0654 21.1907 36.8927 21.2308 36.7268 21.3044C36.5542 21.3779 36.3948 21.4715 36.2421 21.5851C36.0894 21.6988 35.9699 21.8191 35.877 21.9528C35.6911 22.2068 35.545 22.4809 35.4322 22.775C35.3193 23.0691 35.233 23.37 35.1666 23.6775C35.0604 24.1053 35.0073 24.5331 35.0006 24.9676C34.994 25.4021 35.0006 25.8366 35.0405 26.2778C35.0737 26.719 35.1135 27.1602 35.16 27.6081C35.2064 28.056 35.2264 28.4972 35.2264 28.9384C35.2264 29.1924 35.1998 29.4464 35.14 29.7071C35.0803 29.9678 34.9608 30.1884 34.7749 30.3756H34.7616ZM41.9716 20.0008C42.0114 20.1078 41.9849 20.1813 41.9052 20.2281C41.8189 20.2749 41.7459 20.2549 41.6795 20.1613C41.5334 19.9741 41.4006 19.7936 41.2745 19.6131C41.1483 19.4326 41.0023 19.2722 40.8297 19.1251C40.6836 18.9781 40.5243 18.8577 40.345 18.7642C40.1658 18.6706 39.9865 18.5903 39.8073 18.5235C39.7674 18.5101 39.6745 18.4767 39.5351 18.4232C39.389 18.3697 39.3027 18.3363 39.2629 18.323C39.1168 18.2962 38.984 18.2828 38.8512 18.2828H38.2803C38.2272 18.2828 38.1741 18.2695 38.121 18.2427C38.028 18.1893 38.0214 18.1224 38.101 18.0422C38.1542 18.0021 38.2272 17.982 38.3201 17.982C38.6056 17.9553 38.8911 17.9486 39.1766 17.9486C39.4554 17.9553 39.7276 18.0088 39.9932 18.0957C40.4247 18.2427 40.823 18.4901 41.1948 18.8377C41.56 19.1853 41.8255 19.573 41.9782 19.9941L41.9716 20.0008Z" fill="white"/>
<path d="M52.8661 14.2051C52.8661 14.2051 49.5665 21.8793 55.9997 24.1387C55.9997 24.1387 50.4894 22.3338 47.389 29.0854C47.389 29.0854 49.3807 22.5477 43.7441 19.8003C43.7441 19.8003 49.4205 22.8084 52.8661 14.2051Z" fill="white"/>
</g>
<defs>
<clipPath id="clip0_104_517">
<rect width="56" height="32" fill="white"/>
</clipPath>
</defs>
</svg>
