<svg width="39" height="30" viewBox="0 0 39 30" fill="none" xmlns="http://www.w3.org/2000/svg">
<path d="M20.8651 24.8485C20.8374 25.832 20.0719 26.4553 19.3353 26.4346C18.5987 26.4138 17.8696 25.7483 17.8973 24.7648C17.925 23.7813 18.6905 23.1579 19.4271 23.1787C20.1637 23.1995 20.8928 23.8649 20.8651 24.8485Z" fill="#2E87FF" stroke="#0547F5" stroke-width="5"/>
<path d="M9.54518 18.2284C11.668 14.8249 15.4567 12.6151 19.7217 12.7353C23.7384 12.8486 27.2176 15.0059 29.2168 18.1921C29.3194 18.3588 29.4218 18.5314 29.5187 18.6979" stroke="#0547F5" stroke-width="5" stroke-miterlimit="10" stroke-linecap="round"/>
<path d="M9.54518 18.2284C11.668 14.8249 15.4567 12.6151 19.7217 12.7353C23.7384 12.8486 27.2176 15.0059 29.2168 18.1921C29.3194 18.3588 29.4218 18.5314 29.5187 18.6979" stroke="#0547F5" stroke-width="5" stroke-miterlimit="10" stroke-linecap="round"/>
<path d="M3.48538 11.2773C6.94218 6.41963 13.1908 3.26706 20.2371 3.46572C26.8376 3.65181 32.5772 6.73872 35.8877 11.2782" stroke="#0547F5" stroke-width="5" stroke-miterlimit="10" stroke-linecap="round"/>
</svg>
