<svg width="50" height="50" viewBox="0 0 50 50" fill="none" xmlns="http://www.w3.org/2000/svg">
<g clip-path="url(#clip0_15838_991)">
<path d="M13.8947 32.7548C13.8533 32.9944 13.83 33.2384 13.8342 33.4844C13.8976 37.1162 19.0314 39.9707 25.3017 39.8612C31.5719 39.7518 36.603 36.7187 36.5396 33.0881C36.5353 32.8409 36.5034 32.599 36.4537 32.3611C33.4785 35.0438 29.5687 36.7179 25.2481 36.7933C20.9276 36.8687 16.9606 35.3333 13.8947 32.7548Z" fill="#AFB7C0"/>
<path d="M24.7898 10.5329C17.7948 10.655 12.0077 13.6221 10.6957 17.4604C13.298 20.2978 18.8074 22.2527 24.9924 22.1448C31.1775 22.0368 36.6165 19.8908 39.117 16.9643C39.0353 16.7521 38.9344 16.5438 38.8252 16.3369C36.9993 12.8738 31.3911 10.4165 24.7885 10.5318L24.7898 10.5329Z" fill="#6E4944"/>
<path d="M40.5881 13.3715C40.5954 13.7914 40.5185 14.2008 40.4057 14.6108C40.1919 15.4307 39.7496 16.2185 39.1145 16.9617C39.0387 16.747 38.9392 16.5447 38.8276 16.3426C37.0028 12.87 31.3912 10.4235 24.7922 10.5387C17.7973 10.6608 12.004 13.6184 10.6908 17.4579C9.7119 16.3828 9.12683 15.1808 9.10484 13.921C9.02442 9.31371 16.1673 5.28844 24.698 5.13954C33.2287 4.99063 40.5076 8.76417 40.5881 13.3715Z" fill="#D0D5DA"/>
<path d="M42.0625 14.6422L42.0441 13.5863L42.0213 13.6587C41.9954 14.2353 41.9093 14.8009 41.7269 15.3561C41.6246 15.682 41.4863 16.0084 41.3237 16.3233C39.2109 20.4168 32.7352 23.4703 25.0203 23.605C17.3055 23.7396 10.7152 20.9142 8.47275 16.8967C8.29933 16.5877 8.14969 16.2663 8.02406 15.9444C7.82245 15.3959 7.71662 14.8336 7.67058 14.2583L7.64532 14.1868L7.74501 19.8979C7.77915 21.8536 8.15977 23.7192 8.79046 25.4725C9.83657 28.3347 11.6085 30.8361 13.8983 32.7525C16.9677 35.3273 20.9312 36.8664 25.2505 36.791C29.5698 36.7156 33.4772 35.0391 36.4549 32.3587C37.8844 31.0616 39.1059 29.528 40.0362 27.8195L41.428 27.7953C42.3758 27.7787 43.2721 27.559 44.0817 27.1848C46.3796 26.1246 47.9709 23.7805 47.9238 21.0809C47.8653 17.7334 45.3096 15.0176 42.0625 14.6422ZM41.3779 24.9277L41.2819 24.9294C41.2898 24.9212 41.2937 24.9132 41.2935 24.9052C41.8746 23.1307 42.1779 21.2532 42.1438 19.2975L42.1136 17.5697C43.7641 17.925 45.0136 19.3794 45.0442 21.1311C45.0802 23.1948 43.4416 24.8917 41.3779 24.9277Z" fill="#D0D5DA"/>
<path d="M41.2971 24.9024C41.2936 24.9121 41.2902 24.9205 41.288 24.9302L41.342 24.9292C41.3274 24.9199 41.3104 24.9118 41.2971 24.9024Z" fill="#E5E8EB"/>
<path d="M41.4328 27.7986L40.041 27.8229C39.1059 29.5327 37.8893 31.0638 36.4513 32.3611C36.5011 32.6002 36.5329 32.8421 36.5372 33.0881C36.6006 36.7199 31.5695 39.7518 25.2993 39.8612C19.029 39.9707 13.8952 37.115 13.8318 33.4844C13.8275 33.2372 13.8509 32.9944 13.8923 32.7548C11.6085 30.8348 9.83295 28.3346 8.7904 25.47C5.59248 27.7029 3.6741 30.5628 3.72818 33.6608C3.84797 40.5237 13.5508 45.9208 25.4002 45.714C37.2496 45.5071 46.7595 39.7759 46.6396 32.9117C46.6033 30.8289 45.674 28.8852 44.0806 27.1883C43.2722 27.5625 42.3783 27.7821 41.4328 27.7986Z" fill="#E5E8EB"/>
<path d="M41.9381 12.3277C41.8064 11.6579 41.5671 11.014 41.2203 10.396C40.8734 9.77794 40.419 9.18578 39.8813 8.63108C39.6123 8.34773 39.3197 8.0888 39.015 7.81807C38.3818 7.30104 37.6654 6.82148 36.8777 6.39116C33.7386 4.63367 29.4238 3.59282 24.6725 3.67575C19.9212 3.75869 15.6333 4.9497 12.5574 6.81567C11.7853 7.27321 11.098 7.77729 10.4833 8.3161C10.1762 8.5975 9.89282 8.86648 9.63389 9.15905C9.11581 9.73218 8.69435 10.3396 8.36929 10.9694C8.04423 11.5992 7.81558 12.2513 7.71932 12.925C7.66519 13.262 7.63506 13.5986 7.64114 13.9466C7.64302 14.0545 7.66869 14.1501 7.67058 14.2581C7.71663 14.8334 7.82245 15.3956 8.02406 15.9442C8.1497 16.266 8.29933 16.5875 8.47275 16.8965C10.7152 20.914 17.2935 23.7396 25.0203 23.6047C32.7472 23.4698 39.2109 20.4166 41.3237 16.3231C41.4863 16.0082 41.6246 15.6817 41.7269 15.3559C41.9093 14.8006 41.9954 14.235 42.0213 13.6585C42.0315 13.5503 42.0418 13.4541 42.0399 13.3461C42.0338 12.9982 42.004 12.6626 41.9381 12.3277ZM40.4057 14.6108C40.192 15.4307 39.7497 16.2185 39.1146 16.9617C36.6212 19.8857 31.1738 22.0331 24.9948 22.1409C18.8157 22.2488 13.2968 20.2928 10.6909 17.4579C9.71197 16.3828 9.1269 15.1808 9.10491 13.921C9.02449 9.31371 16.1673 5.28843 24.698 5.13953C33.2287 4.99063 40.5077 8.76417 40.5881 13.3715C40.5954 13.7914 40.5186 14.2008 40.4057 14.6108Z" fill="#E5E8EB"/>
</g>
<defs>
<clipPath id="clip0_15838_991">
<rect width="48" height="48" fill="white" transform="translate(0.612244 1.11938) rotate(-1)"/>
</clipPath>
</defs>
</svg>
