<svg width="36" height="36" viewBox="0 0 36 36" fill="none" xmlns="http://www.w3.org/2000/svg">
<path d="M6.87511 25.9816C5.32974 24.3411 4.5 22.5 4.5 19.5154C4.5 14.2663 8.18477 9.56046 13.5459 7.23474L14.8849 9.30116C9.88206 12.0081 8.90427 15.519 8.51346 17.733C9.31894 17.3164 10.3734 17.1699 11.4071 17.2657C14.1136 17.5167 16.2468 19.7385 16.2468 22.5C16.2468 25.3995 13.8962 27.75 10.9967 27.75C9.38715 27.75 7.84794 27.0142 6.87511 25.9816ZM21.8751 25.9816C20.3298 24.3411 19.5 22.5 19.5 19.5154C19.5 14.2663 23.1847 9.56046 28.5459 7.23474L29.8849 9.30116C24.882 12.0081 23.9043 15.519 23.5134 17.733C24.3189 17.3164 25.3734 17.1699 26.4071 17.2657C29.1136 17.5167 31.2468 19.7385 31.2468 22.5C31.2468 25.3995 28.8963 27.75 25.9968 27.75C24.3871 27.75 22.848 27.0142 21.8751 25.9816Z" fill="#C4C7CC"/>
</svg>
