<svg width="61" height="49" viewBox="0 0 61 49" fill="none" xmlns="http://www.w3.org/2000/svg">
<g clip-path="url(#clip0_15988_638)">
<path d="M50.3183 21.3207C50.3584 21.2056 50.3813 21.1309 50.3813 21.1309L50.3183 21.3207Z" fill="#C4C7CC"/>
<path d="M50.324 21.3198L50.387 21.1357C50.387 21.1357 50.3584 21.2048 50.324 21.3198Z" fill="#C4C7CC"/>
<path d="M22.9837 40.1019C23.5676 39.3368 24.0828 38.5372 24.7984 37.8584C24.7182 38.2553 23.373 39.912 22.9837 40.1019Z" fill="#C4C7CC"/>
<path d="M40.8327 45.498L40.827 45.5095L40.8327 45.498Z" fill="#C4C7CC"/>
<path d="M21.8159 42.3805C21.856 42.4322 21.9762 42.3805 21.9533 42.4955C21.9304 42.6106 21.8731 42.7084 21.7701 42.7601C21.69 42.8004 21.6499 42.7256 21.6327 42.6566C20.8542 43.0535 20.276 43.0075 19.9039 42.5185C19.5833 42.0986 19.6062 41.4716 19.9554 41.0747C20.3046 40.6777 21.0145 40.5972 21.4266 40.8618C21.9304 41.184 22.0735 41.6959 21.8159 42.3805Z" fill="#C4C7CC"/>
<path d="M39.1326 42.5816C39.0925 42.6334 38.9723 42.5816 38.9952 42.6967C39.0181 42.8117 39.0753 42.9095 39.1784 42.9613C39.2585 43.0016 39.2986 42.9268 39.3158 42.8578C40.0943 43.2547 40.6725 43.2087 41.0446 42.7197C41.3652 42.2998 41.3423 41.6728 40.9931 41.2758C40.6439 40.8789 39.934 40.7984 39.5219 41.063C39.0181 41.3851 38.875 41.8971 39.1326 42.5816Z" fill="#C4C7CC"/>
<path d="M45.7043 46.5046C45.6929 47.0109 45.2979 47.4365 44.8514 47.4193C44.485 47.4078 44.2331 47.1029 44.2389 46.6887C44.2503 46.2113 44.6568 45.8143 45.109 45.8316C45.4754 45.8431 45.7101 46.1192 45.6986 46.5046H45.7043Z" fill="#C4C7CC"/>
<path d="M39.8882 43.6575C40.1859 43.5885 40.495 43.554 40.7526 43.3699C40.3347 43.5367 39.8882 43.577 39.4932 43.3929C38.2682 42.8234 38.2281 41.5694 38.9265 40.8618C39.4474 40.3326 40.1974 40.206 40.85 40.5282C41.514 40.8503 41.8632 41.4946 41.7773 42.2252C41.6972 42.904 41.1419 43.5022 40.4607 43.6518C40.2718 43.6921 40.0829 43.6863 39.8882 43.6518V43.6575ZM38.7491 42.0296C38.7491 42.7429 39.2986 43.3354 40.0084 43.3181C40.89 43.3009 41.3022 42.904 41.3652 41.9893C41.4224 41.2415 40.7813 40.7525 40.1115 40.718C39.3444 40.6778 38.7605 41.2645 38.7548 42.0353L38.7491 42.0296Z" fill="#C4C7CC"/>
<path d="M25.1419 36.3864C24.8499 36.3864 24.6724 36.5474 24.5179 36.789C24.163 37.3585 23.7909 37.9165 23.4131 38.4688C23.1841 38.7967 23.1268 38.8082 22.6803 38.7276C22.9551 38.0776 23.3558 37.5024 23.7107 36.9041C24.2546 35.9952 25.0274 35.6328 26.0692 35.5925C29.4467 35.466 32.8242 35.4602 36.2016 35.6616C36.9115 35.7018 37.4782 35.9664 37.8961 36.5762C38.3712 37.278 38.8349 37.9741 39.1669 38.7679C38.6346 38.8484 38.6288 38.8542 38.3712 38.4112C38.0564 37.882 37.7587 37.347 37.4439 36.8236C37.2664 36.5302 37.1691 36.4842 36.7512 36.4439C37.2549 37.2492 37.8618 37.9568 38.3827 38.7391C38.1308 38.8139 37.9705 38.7391 37.8389 38.5263C37.4839 37.9798 37.1176 37.4391 36.6939 36.9386C36.631 36.8638 36.5909 36.7373 36.4192 36.7833C36.8313 37.4448 37.2549 38.0891 37.7301 38.7449C36.4936 38.883 35.3258 38.3882 34.1179 38.463C34.1637 37.8878 34.1923 37.8648 34.719 37.8475C34.8049 37.8475 34.8907 37.8475 34.9823 37.8475C35.3372 37.813 35.6235 37.8878 35.6864 38.3077C35.6864 38.3422 35.7265 38.3652 35.7723 38.3825C35.6922 37.7382 35.5948 37.0997 35.3201 36.5072C35.2514 36.3576 35.114 36.3173 34.9594 36.3001C33.0703 36.1333 31.1812 36.0815 29.2864 36.1448C28.5308 36.1678 27.7751 36.1793 27.0195 36.2886C26.8535 36.3116 26.7104 36.3634 26.6474 36.5244C26.4299 37.0997 26.3097 37.6979 26.1952 38.3077C26.241 38.3077 26.2696 38.3077 26.2696 38.2962C26.3555 37.8648 26.6589 37.7842 27.0367 37.8187C27.0939 37.8187 27.1512 37.8187 27.2141 37.8187C27.592 37.8187 27.8171 38.0201 27.8896 38.4227C26.4013 38.3652 24.9415 38.6356 23.3844 38.7794C24.0141 37.9395 24.6724 37.2377 25.1877 36.4324C25.1991 36.4151 25.2163 36.3921 25.2106 36.3864C25.1934 36.3519 25.1648 36.3634 25.1361 36.3864H25.1419ZM24.1916 38.3997C24.5351 38.2329 25.72 36.7775 25.7887 36.4266C25.1533 37.0191 24.7068 37.7267 24.1916 38.3997Z" fill="#C4C7CC"/>
<path d="M20.9057 40.2754C21.6098 40.2754 22.2853 40.7874 22.4742 41.4489C22.6631 42.1104 22.3941 42.8698 21.7816 43.1861C21.335 43.4162 20.8256 43.376 20.339 43.2494C19.5547 43.0423 19.1597 42.4556 19.2685 41.6905C19.3773 40.8909 20.0928 40.2754 20.9 40.2754H20.9057ZM21.9762 42.5304C22.2681 41.748 22.1021 41.167 21.5297 40.7989C21.0603 40.494 20.2474 40.5918 19.8524 41.0462C19.4574 41.5007 19.4345 42.214 19.7951 42.6914C20.2188 43.2437 20.8771 43.2954 21.7644 42.8468C21.7873 42.9273 21.8331 43.0136 21.9247 42.9676C22.0392 42.91 22.1079 42.795 22.1308 42.6684C22.1594 42.5361 22.022 42.5936 21.9762 42.5361V42.5304Z" fill="#C4C7CC"/>
<path d="M36.9916 42.168C36.9744 41.9034 36.8542 41.8574 36.671 41.8689C35.904 41.9207 35.1426 41.9609 34.3755 42.0127C32.0113 42.1795 29.6413 42.2083 27.2771 42.0012C26.2925 41.9149 25.3021 41.8747 24.3118 41.8114C24.1401 41.7999 23.9969 41.8114 24.0084 42.099C28.3361 42.8066 32.6582 42.8641 36.9916 42.168Z" fill="#C4C7CC"/>
<path d="M36.8256 41.6735C36.7626 41.4894 36.6367 41.4319 36.4879 41.3974C36.1444 41.3226 35.7952 41.2996 35.446 41.2881C32.5551 41.1788 29.6642 41.1155 26.7676 41.2248C26.0292 41.2536 25.2907 41.2478 24.558 41.3341C24.3805 41.3571 24.2145 41.3859 24.1916 41.6102C28.3991 41.9151 32.6009 41.9439 36.8256 41.6735Z" fill="#C4C7CC"/>
<path d="M47.1527 48.2829C47.2729 48.001 47.3015 47.7537 47.0668 47.5581C46.9351 47.4488 46.7806 47.4431 46.6317 47.5293C46.334 47.6904 46.3283 47.955 46.3856 48.2484C46.3226 48.2599 46.2768 48.2714 46.231 48.2714C45.1605 48.2714 44.0958 48.2714 43.0253 48.2714C42.8707 48.2714 42.7219 48.2311 42.5959 48.1391C42.8249 47.2014 42.9279 46.258 42.8249 45.2974C42.6532 45.47 42.573 45.6828 42.3612 45.7863V45.7978V45.7921C42.9909 44.6991 43.2485 43.5141 43.1226 42.2601C43.0653 41.6388 42.9051 41.0405 42.4471 40.5861C42.0006 40.1489 41.5369 39.729 40.8442 39.7002C40.2088 39.6714 39.5791 39.6369 38.9208 39.7002C39.0181 39.9073 39.1727 40.0339 39.207 40.2294C40.3576 39.7577 41.3308 40.2064 41.7773 40.937C42.075 41.426 42.1494 41.9609 42.0063 42.5132C41.8575 43.0654 41.4567 43.4221 40.9702 43.7385C41.411 43.8017 41.8117 43.7845 42.2067 43.8075C41.1591 44.0836 37.2778 44.2447 36.3161 44.0491C36.9058 44.0146 37.4439 43.9858 37.9877 43.9513C38.5258 43.9168 39.0582 43.8823 39.5963 43.8477C38.8693 43.5659 38.3197 43.1229 38.1766 42.3233C38.0392 41.5352 38.314 40.891 38.9666 40.3963C38.7033 40.1777 38.6288 39.8153 38.2625 39.7175C38.4113 39.9533 38.5601 40.1892 38.7033 40.425C38.4685 40.2985 38.3254 40.0971 38.188 39.8958C38.0793 39.7347 37.9591 39.6599 37.753 39.683C37.3752 39.7232 36.9973 39.7405 36.6195 39.7692C36.5451 39.7692 36.465 39.7692 36.4249 39.8785C36.4421 39.9648 36.5909 40.0223 36.5108 40.1489C35.7036 39.4874 35.5147 39.4298 34.6045 39.4989C34.988 39.3896 35.4861 39.5564 35.9097 39.263C35.8524 39.1997 35.7723 39.1825 35.6979 39.1652C35.3315 39.0674 34.948 39.0617 34.5759 39.0387C31.622 38.8546 28.6739 38.8719 25.7258 39.0674C25.2735 39.0962 25.1132 39.148 24.9415 39.286C25.3995 39.5161 25.8918 39.3723 26.2696 39.4644C26.0063 39.4759 25.6628 39.5104 25.3193 39.5104C25.0961 39.5104 24.9071 39.5737 24.7182 39.6945C24.4435 39.8728 24.2546 40.1489 24.0027 40.402C24.0427 40.1374 24.2546 39.9993 24.2889 39.7577C24.0943 39.7347 23.9111 39.7117 23.7279 39.6887C23.2699 39.6312 22.7948 39.4874 22.5028 40.0626C22.4799 39.844 22.6746 39.7635 22.7147 39.5737C22.2853 39.6254 22.2223 40.0511 21.9304 40.2524C22.5887 40.7184 22.9265 41.3224 22.8291 42.1163C22.7318 42.9158 22.2052 43.3818 21.4782 43.7212C22.8177 43.865 24.1114 43.865 25.1361 44.0031C23.1612 44.0088 20.9229 44.1699 18.7189 43.6752H20.1157C19.0452 42.9619 18.696 42.214 18.9937 41.3282C19.1426 40.8852 19.4116 40.5401 19.7951 40.2812C20.3962 39.8785 21.0431 39.867 21.7415 40.1029C21.7701 39.8958 21.9361 39.7922 21.9819 39.5564C21.4782 39.5564 21.003 39.6024 20.5336 39.5449C19.8524 39.4644 19.3715 39.8153 18.8849 40.1892C18.3583 40.5918 18.0434 41.1096 17.9118 41.7654C17.7286 42.6915 17.8259 43.5889 18.0721 44.4805C18.1694 44.8372 18.2552 45.1938 18.4384 45.539C18.2667 45.5275 18.2667 45.3607 18.1465 45.3261C18.032 45.9762 18.1808 47.4488 18.4213 48.1218C18.1293 48.2484 14.5687 48.3289 14.0878 48.2139C14.1107 48.001 14.0878 47.8055 13.9161 47.6559C13.5898 47.3683 12.9658 47.5811 12.8799 48.0413C12.8341 48.3117 12.7082 48.3232 12.5136 48.3059C12.13 48.2829 11.7522 48.3002 11.3801 48.398C11.7465 48.4555 12.1128 48.513 12.4792 48.5245C16.286 48.6338 20.0928 48.7201 23.8996 48.5935C24.1572 48.582 24.4148 48.5533 24.6839 48.4382C23.3901 48.3289 22.1193 48.3117 20.8485 48.3059C20.8485 48.0471 20.8542 47.8342 20.8485 47.6214C20.8427 47.4258 20.9057 47.3395 21.1232 47.3625C21.4095 47.397 21.7014 47.4085 21.9934 47.4085C23.7508 47.4143 25.5082 47.42 27.2657 47.42C31.519 47.42 35.7723 47.4603 40.0256 47.3855C40.1058 47.3855 40.1745 47.4143 40.2374 47.4488V48.3634C38.9551 48.375 37.69 48.3404 36.4077 48.513C36.4478 48.536 36.465 48.5475 36.4764 48.5475C37.0489 48.6453 37.6328 48.6396 38.2109 48.6453C41.2392 48.6856 44.2675 48.6568 47.2958 48.5993C47.811 48.5878 48.3204 48.5648 48.8357 48.5188C49.0933 48.4958 49.3566 48.5015 49.6371 48.3922C48.8013 48.2829 47.9884 48.3117 47.1469 48.2829H47.1527ZM24.6438 43.3358C24.3862 43.2552 24.1229 43.1747 23.8882 43.0309C23.5733 42.8411 23.4932 42.6627 23.5791 42.3003C23.6191 42.1278 23.6764 41.9667 23.7336 41.7999C23.871 41.3799 24.1572 41.1959 24.6037 41.1613C28.2102 40.8795 31.8224 40.8967 35.4288 41.1211C35.8066 41.1441 36.1845 41.1901 36.5566 41.2189C36.7741 41.2361 36.9401 41.3397 37.0603 41.5237C37.2664 41.8401 37.3866 42.191 37.4381 42.5592C37.4782 42.8411 37.3122 43.0136 37.0718 43.1287C36.5165 43.3991 35.9211 43.5314 35.3315 43.6752C34.7648 43.8132 34.1866 43.888 33.6084 43.9628C33.0932 44.0261 32.578 44.0721 32.0227 44.1066C32.0227 44.1066 32.0227 44.1066 32.017 44.1066C31.7766 44.1181 31.5247 44.1296 31.2614 44.1354C31.2385 44.1354 31.2213 44.1354 31.1984 44.1354C31.0839 44.1354 30.9751 44.1411 30.8549 44.1411C30.7118 44.1411 30.5687 44.1411 30.4199 44.1411C30.1794 44.1354 29.9276 44.1239 29.6757 44.1124C28.09 44.0376 26.3383 43.842 24.6324 43.3243L24.6438 43.3358ZM21.5411 46.8448C21.0717 46.9081 20.6138 46.8736 20.1844 46.6607C20.0528 46.5974 19.9268 46.5169 19.8352 46.4076C19.7608 46.3213 19.6749 46.2293 19.7322 46.097C19.7837 45.9762 19.8925 45.9244 20.0127 45.9186C20.276 45.9071 20.5336 45.9186 20.7397 45.9186C21.0374 45.9359 21.2778 45.9474 21.5182 45.9647C21.8216 45.9934 22.0735 46.212 22.0678 46.4249C22.0678 46.6262 21.8445 46.7988 21.5469 46.839L21.5411 46.8448ZM38.6174 46.4766C36.339 46.4996 34.0664 46.4881 31.7938 46.3443C32.578 46.3213 33.3565 46.2983 34.1408 46.2753C35.1769 46.2465 36.2188 46.2235 37.2549 46.2005C37.5011 46.2005 37.7244 46.1372 37.8732 45.8669C32.9959 45.9359 28.1243 45.7806 23.2012 45.7633C23.2986 45.9877 23.4417 46.0625 23.6191 46.0912C24.1572 46.1775 24.7011 46.1718 25.2449 46.1948C26.3211 46.235 27.3973 46.258 28.3247 46.3501C26.4642 46.4421 24.4664 46.4306 22.4628 46.3961C22.5429 45.8841 22.1422 45.7288 21.8216 45.4527C27.6664 45.6253 33.4768 45.5792 39.3043 45.5562C39.0524 45.8496 38.543 45.9244 38.6231 46.4824L38.6174 46.4766ZM41.1877 46.5629C41.1133 46.632 41.0217 46.701 40.9244 46.7412C40.455 46.9598 39.9569 47.0059 39.4532 46.9023C39.2127 46.8505 39.041 46.701 39.0467 46.4421C39.0524 46.1775 39.2528 46.097 39.4818 46.0625C39.7623 46.0164 40.0428 46.0337 40.3519 46.0164C40.5465 46.0164 40.7698 46.0164 40.9931 46.0164C41.1247 46.0164 41.2507 46.0625 41.3022 46.189C41.3594 46.3328 41.2965 46.4594 41.1877 46.5514V46.5629Z" fill="#C4C7CC"/>
<path d="M31.7365 43.52C32.8184 43.4222 33.9004 43.3302 34.9766 43.2036C35.6292 43.1231 36.2818 43.0368 36.9057 42.7894C37.1176 42.7089 37.1977 42.5766 37.0718 42.3465C32.681 43.2266 28.2961 43.1346 23.9168 42.2832C23.8023 42.4903 23.8767 42.6168 24.0485 42.7031C24.329 42.8469 24.6324 42.9102 24.9358 42.9735C26.1551 43.2209 27.3916 43.3187 28.6281 43.4395C29.6585 43.543 30.6946 43.612 31.7365 43.52Z" fill="#C4C7CC"/>
<path d="M28.6682 17.1211C28.6567 17.0176 28.6453 16.8048 28.6224 16.4884C28.5995 16.172 28.5708 15.8383 28.5422 15.4932C28.5136 15.1423 28.4907 14.8086 28.4735 14.498C28.4564 14.1816 28.4449 13.9688 28.4449 13.8652C28.2159 14.0838 28.0213 14.3312 27.8496 14.5958C27.6778 14.8662 27.529 15.1365 27.3973 15.4127C27.2657 15.7118 27.1397 16.0109 27.0195 16.3158C26.8993 16.6207 26.7962 16.9256 26.7047 17.2362C27.0367 17.1959 27.363 17.1729 27.6893 17.1614C28.0156 17.1499 28.3419 17.1384 28.6739 17.1154L28.6682 17.1211Z" fill="#C4C7CC"/>
<path d="M60.7827 23.1959C60.7827 18.7723 57.2164 15.1885 52.8142 15.1885C52.7627 15.1885 52.7112 15.1885 52.6596 15.1885C53.1863 14.6362 53.5069 13.8884 53.5069 13.0658C53.5069 11.3688 52.1387 9.99397 50.45 9.99397C49.7115 9.99397 49.036 10.2586 48.5036 10.6958C44.6224 4.81673 37.982 0.945312 30.437 0.945312C20.7168 0.945312 12.4907 7.37659 9.7486 16.2354C7.67633 15.6717 5.46094 16.4943 4.41907 18.3753C3.39438 20.2219 3.82945 22.4999 5.32927 23.9725C5.18616 24.0933 5.04877 24.2256 4.92856 24.3752C4.47632 23.6676 3.68061 23.1959 2.77041 23.1959C1.35645 23.1959 0.211548 24.3292 0.211548 25.727C0.211548 27.1249 1.24769 28.1431 2.56433 28.2466C2.36397 28.8621 2.2552 29.5179 2.2552 30.1967C2.2552 33.7057 5.11746 36.5532 8.65522 36.5532C10.1722 36.5532 11.5633 36.0297 12.6624 35.1496C14.0477 37.1514 15.7594 38.9059 17.7229 40.3383C18.1522 39.7055 18.9365 38.9865 20.3333 38.7794C20.7798 38.6068 21.3179 38.5033 21.9762 38.509C22.3311 37.7037 23.5619 35.2416 25.3193 35.0978C25.3193 35.0978 26.8649 34.5341 35.6979 34.8735C35.6979 34.8735 37.9991 34.8389 39.2013 37.0537L40.2889 38.8254C40.3347 38.8427 40.3863 38.8599 40.4378 38.8772C40.8614 38.8887 42.3326 39.021 43.2657 40.2635C44.8342 39.1015 46.2424 37.7324 47.4446 36.2023C47.8739 36.3461 48.3376 36.4324 48.8185 36.4324C50.6274 36.4324 52.173 35.3106 52.8085 33.723C53.2035 33.9703 53.6729 34.1199 54.1824 34.1199C55.5963 34.1199 56.7412 32.9866 56.7412 31.5888C56.7412 31.1343 56.6153 30.7087 56.4092 30.3405C59.0024 29.0232 60.7827 26.3195 60.7827 23.1959ZM45.0632 12.3582C45.1262 12.2374 45.1891 12.1396 45.2521 12.0649C45.4296 11.875 45.6585 11.7312 45.9219 11.6507C46.1909 11.5644 46.46 11.5126 46.7233 11.4954C46.7691 11.4954 46.8378 11.4954 46.9237 11.5011C47.0095 11.5011 47.0954 11.5184 47.1927 11.5299C47.2843 11.5471 47.3702 11.5644 47.4503 11.5874C47.5247 11.6104 47.582 11.6449 47.6221 11.6794C47.685 11.7255 47.7022 11.7887 47.6621 11.8635C47.6221 11.9383 47.5648 11.9671 47.4904 11.9498C47.4446 11.9498 47.4045 11.9326 47.3759 11.9095C47.2729 11.8635 47.1641 11.829 47.0496 11.8175C46.9351 11.806 46.8263 11.7945 46.7233 11.7945C46.4771 11.8118 46.2367 11.8578 46.002 11.9211C45.9161 11.9498 45.8303 11.9843 45.7444 12.0188C45.6585 12.0591 45.5841 12.1109 45.5211 12.1799C45.4925 12.1972 45.4467 12.2489 45.378 12.3237C45.3093 12.3985 45.2693 12.4503 45.2521 12.4848C45.2521 12.4963 45.2521 12.5136 45.2464 12.5366C45.2464 12.5596 45.2407 12.5768 45.2407 12.5883C45.2349 12.6344 45.2063 12.6689 45.172 12.6861C45.1319 12.7034 45.1033 12.6976 45.0746 12.6574C45.0059 12.5826 45.0059 12.4848 45.0689 12.364L45.0632 12.3582ZM39.9569 23.6791C39.997 23.6504 40.0485 23.6331 40.1115 23.6331C40.3176 23.6159 40.5236 23.6101 40.724 23.6101C40.9301 23.6101 41.1247 23.6504 41.3136 23.7194C41.6227 23.8229 41.9147 24.0013 42.178 24.2486C42.4414 24.496 42.6303 24.7779 42.7448 25.0827C42.7734 25.1575 42.7562 25.215 42.6932 25.2496C42.6303 25.2841 42.5787 25.2668 42.533 25.1978C42.4299 25.0655 42.3326 24.9332 42.2467 24.8009C42.1551 24.6743 42.0521 24.5535 41.9261 24.45C41.8231 24.3464 41.7086 24.2601 41.577 24.1911C41.451 24.1221 41.3193 24.0645 41.1877 24.0185C41.1591 24.007 41.0904 23.984 40.9873 23.9495C40.8843 23.9092 40.8156 23.8862 40.787 23.8805C40.6839 23.8632 40.5866 23.8517 40.4893 23.8517H40.0771C40.0371 23.8517 40.0027 23.8402 39.9626 23.8229C39.8939 23.7827 39.8939 23.7367 39.9512 23.6791H39.9569ZM40.4435 18.9333V18.7953C40.4435 18.7492 40.4664 18.7205 40.5122 18.709C40.558 18.6975 40.5923 18.7205 40.6095 18.7665C40.621 18.7953 40.6267 18.847 40.6381 18.9161C40.6496 18.9909 40.6553 19.0656 40.661 19.1462C40.661 19.2267 40.6725 19.3015 40.6839 19.3763C40.6954 19.4453 40.6954 19.4971 40.6954 19.5258C40.724 19.8307 40.7526 20.1414 40.7812 20.4577C40.8099 20.7741 40.8786 21.0733 40.9931 21.3609C41.0217 21.4357 41.056 21.5162 41.0904 21.591C41.1247 21.6658 41.1762 21.729 41.2335 21.7808C41.3079 21.8498 41.388 21.9016 41.4739 21.9361C41.5598 21.9764 41.6456 22.0052 41.7315 22.0339C41.7601 22.0454 41.8059 22.0512 41.8746 22.0627C41.9376 22.0742 42.012 22.0857 42.0864 22.0972C42.1609 22.1145 42.2295 22.126 42.2925 22.1432C42.3555 22.1605 42.4013 22.172 42.4242 22.195C42.47 22.2237 42.4872 22.2698 42.4757 22.333C42.4643 22.3963 42.4242 22.4308 42.3555 22.4423C42.3154 22.4423 42.2582 22.4366 42.1838 22.4193C42.1093 22.4078 42.0292 22.3906 41.9433 22.3733C41.8575 22.3561 41.7773 22.3388 41.6972 22.3215C41.617 22.3043 41.5598 22.287 41.5369 22.2755C41.388 22.2295 41.2507 22.1547 41.1247 22.0627C40.993 21.9476 40.89 21.8038 40.8213 21.637C40.7526 21.4702 40.6897 21.2976 40.6439 21.125C40.5809 20.8662 40.5408 20.6015 40.5294 20.3312C40.5179 20.0608 40.5065 19.7847 40.4893 19.5201C40.4893 19.4913 40.4893 19.4395 40.4836 19.3705C40.4836 19.2957 40.4721 19.2267 40.4607 19.1462C40.4549 19.0714 40.4492 18.9966 40.4492 18.9218L40.4435 18.9333ZM33.2421 12.0591C33.2421 12.0591 33.2821 11.9901 33.3279 11.9383C33.3737 11.8865 33.4252 11.8348 33.4768 11.783C33.5283 11.7312 33.5798 11.6794 33.6256 11.6334C33.6714 11.5874 33.7115 11.5529 33.7401 11.5356C33.826 11.4666 33.9061 11.4091 33.9862 11.3573C34.0664 11.3055 34.1522 11.2538 34.2496 11.2077C34.4499 11.11 34.656 11.0409 34.8678 10.9891C35.0796 10.9431 35.2972 10.9086 35.509 10.8914C35.6292 10.8799 35.6979 10.9259 35.6979 11.0237C35.6979 11.1215 35.6464 11.179 35.5319 11.2077C35.1827 11.2825 34.8392 11.3861 34.49 11.5069C34.1465 11.6277 33.8546 11.8233 33.6199 12.0821C33.6027 12.0994 33.5626 12.1454 33.4997 12.2202C33.4367 12.295 33.3909 12.3352 33.368 12.341C33.2936 12.3697 33.2421 12.3467 33.2192 12.2777C33.1963 12.2087 33.202 12.1339 33.2421 12.0706V12.0591ZM32.5551 23.0464C32.641 23.0694 32.7154 23.1039 32.7898 23.1557C32.8585 23.2074 32.9329 23.2649 33.0073 23.3225C33.139 23.4375 33.2535 23.5756 33.3565 23.7309C33.4539 23.8862 33.5226 24.053 33.5626 24.2256C33.637 24.5593 33.6771 24.8987 33.6771 25.2438C33.6771 25.589 33.6886 25.9341 33.7057 26.2793C33.7057 26.3195 33.7057 26.3943 33.7172 26.5093C33.7286 26.6244 33.7344 26.751 33.7401 26.8833C33.7401 27.0156 33.7515 27.1421 33.763 27.2572C33.7744 27.3722 33.7802 27.447 33.7802 27.4873C33.7802 27.5851 33.7344 27.6368 33.6428 27.6426C33.5512 27.6541 33.4997 27.6081 33.4825 27.516C33.4653 27.4413 33.4481 27.2917 33.4367 27.0788C33.4252 26.866 33.4138 26.6417 33.4023 26.4058C33.3909 26.17 33.3794 25.9456 33.3737 25.7328C33.3737 25.5199 33.368 25.3704 33.368 25.2956C33.3794 25.077 33.368 24.8526 33.3565 24.6225C33.3394 24.3924 33.2764 24.1796 33.1734 23.9898C33.0989 23.8575 33.0073 23.7309 32.9043 23.6101C32.8013 23.4893 32.6753 23.403 32.5379 23.3455C32.4635 23.3167 32.3834 23.311 32.3032 23.3225C32.2231 23.3397 32.1429 23.3282 32.0685 23.2995C32.0113 23.2822 31.9884 23.2419 31.9884 23.1902C31.9884 23.1384 32.0227 23.1039 32.08 23.0809C32.1258 23.0636 32.2059 23.0521 32.3204 23.0464C32.4349 23.0464 32.515 23.0464 32.5608 23.0521L32.5551 23.0464ZM29.5039 11.0294C29.5612 11.0007 29.6184 10.9891 29.6814 10.9949C29.7444 10.9949 29.8016 11.0007 29.8589 11.0007C30.0592 11.0122 30.2538 11.0524 30.4485 11.1215C30.6431 11.1905 30.8206 11.2825 30.9809 11.3861C31.1411 11.4896 31.2728 11.6277 31.3701 11.7945C31.4674 11.9613 31.559 12.1281 31.6449 12.2892C31.6621 12.3295 31.6907 12.3755 31.7136 12.433C31.7422 12.4905 31.7479 12.5308 31.725 12.5596C31.685 12.6286 31.6449 12.6516 31.5934 12.6286C31.5419 12.6114 31.5304 12.5653 31.559 12.5021C31.5419 12.4618 31.5075 12.4043 31.4617 12.3295C31.4159 12.2547 31.3644 12.1684 31.3129 12.0879C31.2614 12.0016 31.2098 11.9211 31.1526 11.8463C31.0954 11.7715 31.0553 11.7197 31.0267 11.691C30.895 11.5759 30.7462 11.4839 30.5801 11.4206C30.4141 11.3516 30.2481 11.3055 30.0764 11.2768C30.0306 11.2653 29.9333 11.2595 29.7959 11.2595C29.6585 11.2595 29.5612 11.248 29.5097 11.2308C29.4696 11.2135 29.4524 11.179 29.4524 11.1272C29.4524 11.0754 29.4696 11.0467 29.5097 11.0294H29.5039ZM24.3061 19.2037C24.3461 18.9736 24.3977 18.7492 24.4606 18.5307C24.5236 18.3121 24.5694 18.128 24.598 17.9842C24.7469 17.3226 24.9529 16.6784 25.2163 16.0513C25.4739 15.4243 25.7773 14.8261 26.1265 14.2508C26.4012 13.8079 26.7046 13.3879 27.0481 12.9853C27.3859 12.5826 27.7751 12.2432 28.2102 11.9671C28.3533 11.8808 28.5193 11.8233 28.714 11.8002C28.9086 11.7772 29.0975 11.7772 29.2921 11.806C29.4868 11.8348 29.6699 11.8923 29.8474 11.9728C30.0249 12.0534 30.1794 12.1512 30.2996 12.2662C30.4313 12.3985 30.5458 12.5538 30.6374 12.7206C30.729 12.8875 30.8091 13.06 30.8664 13.2441C30.9522 13.5145 31.0095 13.7849 31.0496 14.061C31.0839 14.3371 31.1297 14.619 31.1755 14.8951C31.1927 14.9929 31.2213 15.1482 31.2614 15.3725C31.3014 15.5911 31.3472 15.8442 31.4045 16.1261C31.4617 16.408 31.519 16.7071 31.5819 17.0178C31.6449 17.3284 31.7022 17.6275 31.7594 17.9094C31.8166 18.1913 31.8682 18.4444 31.9082 18.663C31.9483 18.8816 31.9884 19.0369 32.0113 19.1232C32.0227 19.1634 32.0399 19.2325 32.0685 19.3418C32.0971 19.4453 32.1258 19.5546 32.1601 19.6696C32.1945 19.7847 32.2288 19.894 32.2574 19.9975C32.2918 20.1011 32.309 20.1759 32.3204 20.2161C32.3948 20.4577 32.3891 20.6821 32.2918 20.8892C32.246 21.0157 32.1716 21.1193 32.0628 21.2113C31.9598 21.3034 31.8453 21.3839 31.725 21.4472C31.5533 21.5335 31.3701 21.591 31.1583 21.6255C30.9522 21.66 30.7404 21.66 30.5344 21.6312C30.3283 21.6025 30.1336 21.5392 29.9562 21.4414C29.7787 21.3436 29.6299 21.2171 29.5154 21.056C29.4581 20.9697 29.3952 20.8201 29.3265 20.6131C29.2578 20.4002 29.1891 20.1759 29.1376 19.94C29.0803 19.6984 29.0288 19.4683 28.983 19.244C28.9372 19.0196 28.9029 18.8528 28.8857 18.7493C28.6968 18.7608 28.5021 18.7665 28.3075 18.7723C28.1072 18.7723 27.9182 18.7895 27.7293 18.8068C27.6835 18.8068 27.5919 18.8125 27.4603 18.8298C27.3286 18.847 27.1855 18.8585 27.0367 18.8758C26.8878 18.8931 26.7447 18.9046 26.6131 18.9103C26.4814 18.9218 26.3898 18.9218 26.344 18.9218C26.344 18.9909 26.344 19.0886 26.3383 19.221C26.3383 19.3533 26.3268 19.4971 26.3097 19.6351C26.2925 19.7789 26.2753 19.9113 26.2524 20.0378C26.2295 20.1644 26.1952 20.2564 26.1608 20.3139C26.0921 20.4117 26.0063 20.4865 25.8918 20.5498C25.7773 20.6131 25.6513 20.6533 25.5139 20.6763C25.3766 20.6993 25.2449 20.7108 25.1132 20.6993C24.9816 20.6878 24.8613 20.6648 24.7469 20.6303C24.6724 20.6015 24.6037 20.567 24.5408 20.521C24.4778 20.475 24.4263 20.4232 24.3805 20.3542C24.2946 20.2391 24.2545 20.0781 24.2545 19.8652C24.2545 19.6524 24.2774 19.4338 24.3175 19.2037H24.3061ZM14.0592 11.1732C14.0706 11.1272 14.105 11.0927 14.1508 11.0754C14.1966 11.0639 14.2939 11.0582 14.4313 11.0467C14.5744 11.0352 14.666 11.0294 14.7118 11.0294C14.9007 11.0294 15.0896 11.0639 15.2785 11.1272C15.4674 11.1962 15.6391 11.2768 15.7994 11.3688C15.9998 11.4954 16.1543 11.6334 16.2746 11.783C16.3948 11.9383 16.4806 12.1281 16.5379 12.3582C16.5493 12.387 16.5608 12.4388 16.5837 12.5193C16.6009 12.5941 16.618 12.6746 16.6352 12.7609C16.6467 12.8472 16.6581 12.9277 16.6696 13.0025C16.681 13.0773 16.681 13.1291 16.681 13.1636C16.6696 13.2499 16.6238 13.2959 16.5322 13.3074C16.4406 13.3189 16.3891 13.2844 16.3719 13.2096C16.3261 13.0543 16.2975 12.899 16.286 12.7437C16.2746 12.5883 16.2459 12.433 16.2001 12.2892C16.1257 12.0764 16.0055 11.9095 15.8452 11.783C15.6735 11.6392 15.4789 11.5241 15.2556 11.4321C15.0323 11.34 14.8091 11.2998 14.5858 11.3113H14.3454C14.2309 11.3113 14.1508 11.2998 14.105 11.2825C14.0592 11.2538 14.042 11.2135 14.0534 11.1675L14.0592 11.1732ZM17.6599 19.0024C17.5855 19.2325 17.4939 19.4568 17.3908 19.6696C17.2878 19.8882 17.1619 20.0838 17.0073 20.2679C16.8298 20.498 16.6295 20.6763 16.4119 20.7971C16.183 20.9122 15.9368 20.9755 15.6678 20.9927C15.3987 21.01 15.1411 20.9755 14.895 20.9007C14.6202 20.8144 14.3683 20.6821 14.1393 20.498C13.9103 20.3139 13.71 20.1183 13.5382 19.894C13.2635 19.5373 13.0517 19.1404 12.9028 18.7032C12.754 18.2603 12.6509 17.8173 12.5937 17.3687C12.5193 16.7646 12.5021 16.1549 12.5364 15.5451C12.5765 14.9354 12.628 14.3198 12.7082 13.7043C12.7254 13.5433 12.754 13.3822 12.7883 13.2269C12.8227 13.0658 12.8627 12.9105 12.9085 12.7609C12.9543 12.6574 13.0059 12.5481 13.0631 12.4445C13.1203 12.341 13.1948 12.2489 13.2921 12.1684C13.4066 12.0821 13.544 12.0131 13.7157 11.9613C13.8874 11.9095 14.0592 11.875 14.2481 11.8635C14.4313 11.8463 14.6145 11.8578 14.7919 11.8865C14.9694 11.9153 15.1239 11.9556 15.2441 12.0131C15.4445 12.1166 15.5819 12.272 15.6678 12.4733C15.725 12.6286 15.7536 12.7839 15.7594 12.945C15.7594 13.1061 15.7594 13.2729 15.7536 13.434C15.7422 13.595 15.7307 13.8136 15.7021 14.0897C15.6792 14.3659 15.6563 14.6592 15.6334 14.9814C15.6105 15.3035 15.5876 15.6372 15.5704 15.9823C15.5533 16.3275 15.5475 16.6553 15.5475 16.966C15.5475 17.2766 15.5704 17.5585 15.6105 17.8116C15.6449 18.0647 15.7078 18.2603 15.7937 18.3926C15.828 18.4501 15.8853 18.5076 15.9483 18.5652C16.017 18.6227 16.0799 18.64 16.1486 18.6227C16.2173 18.6054 16.2746 18.5594 16.3318 18.4846C16.3891 18.4156 16.4406 18.3293 16.4806 18.243C16.5207 18.151 16.5551 18.059 16.578 17.9612C16.6009 17.8634 16.6238 17.7771 16.6409 17.7023C16.7726 17.1213 16.8585 16.5288 16.8928 15.9363C16.9329 15.3438 17.0073 14.7513 17.1218 14.1703C17.1504 14.038 17.1962 13.9057 17.2535 13.7734C17.3164 13.6468 17.408 13.5433 17.5282 13.48C17.6027 13.434 17.7114 13.3937 17.8488 13.3592C17.9862 13.3247 18.0892 13.3304 18.1694 13.3822C18.1751 13.3937 18.1923 13.3937 18.2037 13.3822C18.2152 13.3707 18.2266 13.3649 18.2381 13.3649C18.3526 13.3649 18.4671 13.3822 18.593 13.4224C18.7132 13.4627 18.8162 13.5202 18.8907 13.6065C19.0052 13.7331 19.0796 13.8711 19.1254 14.0322C19.1654 14.1933 19.1998 14.3486 19.217 14.5154C19.2914 14.9756 19.3486 15.4301 19.3887 15.8788C19.4288 16.3275 19.4803 16.7819 19.5433 17.2421C19.5719 17.4032 19.6005 17.57 19.6349 17.7368C19.6692 17.9036 19.7207 18.0705 19.8009 18.2315C19.8295 18.2891 19.8581 18.3466 19.8925 18.4099C19.9268 18.4731 19.9612 18.5249 20.007 18.5594C20.047 18.5997 20.0928 18.6227 20.1386 18.64C20.1844 18.6572 20.2359 18.64 20.2932 18.6054C20.4077 18.5364 20.4935 18.4214 20.5565 18.2603C20.6195 18.0992 20.6653 17.9209 20.6939 17.7196C20.7225 17.524 20.7397 17.3284 20.7454 17.1328C20.7454 16.9372 20.7511 16.7704 20.7511 16.6381C20.734 16.1089 20.6996 15.5854 20.6538 15.0619C20.608 14.5384 20.568 14.015 20.5393 13.4915C20.5279 13.2901 20.5336 13.0831 20.5451 12.8587C20.5565 12.6401 20.6252 12.4503 20.734 12.2835C20.837 12.1396 20.9801 12.0419 21.1633 11.9786C21.3465 11.9211 21.524 11.8865 21.6957 11.8808C21.9132 11.8635 22.1365 11.8693 22.3597 11.9095C22.5887 11.9498 22.7833 12.0361 22.9551 12.1684C23.0867 12.2662 23.1898 12.387 23.2585 12.5366C23.3272 12.6861 23.3844 12.8357 23.4359 12.991C23.4817 13.1808 23.5161 13.3707 23.539 13.549C23.5619 13.7331 23.5905 13.9172 23.6134 14.107C23.6535 14.4349 23.6821 14.757 23.705 15.0849C23.7279 15.4128 23.7451 15.7407 23.7565 16.0743C23.7565 16.5633 23.7222 17.0523 23.6592 17.547C23.5905 18.0417 23.4646 18.5191 23.2757 18.9736C23.144 19.3015 22.9723 19.6064 22.7604 19.894C22.5486 20.1816 22.2968 20.4232 22.0048 20.6131C21.8159 20.7454 21.6098 20.8489 21.3808 20.9237C21.1576 20.9927 20.9286 21.033 20.6996 21.033C20.2188 21.033 19.8009 20.8547 19.4574 20.5038C19.2513 20.2909 19.0739 20.0551 18.9422 19.7847C18.8048 19.5201 18.6903 19.2382 18.593 18.9506C18.4613 18.5652 18.364 18.1798 18.301 17.7886C18.2381 17.3974 18.1866 17.0005 18.135 16.5978C18.0892 17.0005 18.032 17.4032 17.9576 17.8058C17.8889 18.2085 17.7858 18.6112 17.6542 19.0139L17.6599 19.0024ZM21.7186 21.4702C21.6613 21.5277 21.5755 21.5737 21.4553 21.6082C21.335 21.6427 21.2148 21.6658 21.0832 21.6773C20.9515 21.6945 20.8198 21.7003 20.6939 21.7003H20.3905C20.2703 21.683 20.1501 21.6658 20.0298 21.6543C19.9096 21.6427 19.7951 21.6255 19.6864 21.5967C19.5089 21.5392 19.3486 21.4587 19.2055 21.3551C19.1368 21.3091 19.091 21.2573 19.0624 21.1998C19.0338 21.1423 19.0624 21.1078 19.1311 21.102C19.1712 21.0905 19.2055 21.102 19.2456 21.125C19.2799 21.148 19.32 21.171 19.3601 21.1883C19.5089 21.2746 19.6749 21.3321 19.8467 21.3666C20.0184 21.4011 20.1901 21.4242 20.3619 21.4299C20.5107 21.4299 20.6595 21.4299 20.8027 21.4127C20.9458 21.4011 21.0889 21.3839 21.2263 21.3551C21.2549 21.3436 21.3179 21.3264 21.4095 21.2976C21.5011 21.2688 21.564 21.2516 21.5926 21.2401C21.6613 21.2286 21.7071 21.2516 21.7415 21.3091C21.7758 21.3666 21.7701 21.4184 21.7186 21.4644V21.4702ZM17.9805 23.7597C17.9404 23.7136 17.9576 23.6446 18.032 23.5526C18.1637 23.3915 18.3182 23.2534 18.49 23.1441C18.6617 23.0348 18.8506 22.9543 19.051 22.9083C19.2112 22.868 19.3773 22.8623 19.5547 22.8795C19.7264 22.8968 19.8982 22.9428 20.0585 23.0061C20.1043 23.0233 20.1959 23.0694 20.3275 23.1384C20.4592 23.2074 20.5451 23.2534 20.5851 23.2822C20.6309 23.3282 20.6595 23.3858 20.6653 23.4548C20.6653 23.5238 20.6366 23.5641 20.5737 23.5871C20.5279 23.5986 20.4764 23.5871 20.4248 23.5583C20.3733 23.5296 20.3218 23.5008 20.276 23.472C20.0871 23.3455 19.8753 23.2592 19.6406 23.2017C19.4059 23.1441 19.1769 23.1499 18.9594 23.2132C18.8105 23.2592 18.6674 23.3282 18.5357 23.4145C18.4041 23.5008 18.2839 23.5986 18.1808 23.7021C18.095 23.7884 18.032 23.8114 17.9919 23.7654L17.9805 23.7597ZM23.7336 30.2715C23.6935 30.2887 23.6134 30.2945 23.4932 30.2945C23.3672 30.2945 23.2814 30.2887 23.2356 30.2887C23.0467 30.3002 22.8578 30.3117 22.6631 30.3348C22.4685 30.352 22.2796 30.3808 22.0907 30.4038C22.022 30.421 21.959 30.421 21.8903 30.4038C21.8617 30.3865 21.8445 30.3578 21.8388 30.3175C21.8388 30.2772 21.8445 30.2485 21.8731 30.2312C21.8903 30.2139 21.9132 30.2082 21.9418 30.2082C21.9705 30.2082 21.9991 30.2082 22.0277 30.2024C22.085 30.1967 22.188 30.1737 22.3426 30.1449C22.4914 30.1162 22.6517 30.0931 22.8234 30.0759C22.9952 30.0586 23.1554 30.0414 23.3043 30.0241C23.4531 30.0069 23.5619 30.0011 23.6306 30.0011C23.705 30.0126 23.7622 30.0471 23.7909 30.1162C23.8252 30.1852 23.8023 30.237 23.7279 30.2772L23.7336 30.2715ZM24.9358 25.215C24.9014 25.4739 24.764 25.658 24.5408 25.773C24.4549 25.8191 24.3118 25.8593 24.1114 25.8823C23.9111 25.9053 23.6935 25.9283 23.4588 25.9399C23.2299 25.9571 23.0066 25.9686 22.8005 25.9744C22.5944 25.9859 22.4399 25.9916 22.3483 26.0031C22.1193 26.0204 21.896 26.0492 21.6671 26.0894C21.4381 26.1297 21.2148 26.1642 20.9858 26.193C20.9858 26.4116 20.9858 26.6359 20.9973 26.8603C21.0087 27.0846 21.0374 27.3089 21.0832 27.5275C21.2034 27.5103 21.3923 27.4873 21.6499 27.4643C21.9075 27.4413 22.1708 27.4182 22.457 27.4067C22.7375 27.3952 23.0066 27.3895 23.2642 27.401C23.5161 27.4067 23.705 27.4355 23.8309 27.47C23.934 27.5103 24.0256 27.5736 24.1057 27.6714C24.1859 27.7691 24.2488 27.8727 24.2946 27.9877C24.3232 28.074 24.3461 28.1776 24.3748 28.2984C24.3977 28.4192 24.4148 28.54 24.4148 28.655C24.4148 28.7758 24.4148 28.8851 24.3862 28.9944C24.3633 29.098 24.3118 29.1785 24.2374 29.236C24.1687 29.282 24.1 29.3166 24.0198 29.3338C23.9397 29.3511 23.8596 29.3741 23.7851 29.3913C23.3214 29.4949 22.8578 29.5524 22.3826 29.5639C21.9132 29.5754 21.4381 29.6042 20.9687 29.6617C20.9801 29.817 21.003 30.0471 21.0431 30.352C21.0889 30.6569 21.1232 30.9733 21.1633 31.3069C21.1977 31.6406 21.2205 31.9512 21.2263 32.2561C21.2263 32.5552 21.2034 32.7738 21.1461 32.9119C21.0774 33.0442 20.9744 33.1535 20.8256 33.234C20.6767 33.3145 20.5279 33.3663 20.379 33.3836C20.2932 33.4008 20.1787 33.4123 20.0413 33.4181C19.8982 33.4181 19.7608 33.4181 19.6177 33.4123C19.4746 33.4008 19.3429 33.3836 19.217 33.3491C19.091 33.3145 18.9937 33.2628 18.925 33.1995C18.8563 33.142 18.8048 33.0384 18.7533 32.8831C18.7075 32.7278 18.6617 32.5667 18.6273 32.3884C18.593 32.2101 18.5586 32.0375 18.53 31.8707C18.5014 31.7038 18.4842 31.5715 18.4728 31.4737C18.3869 30.8985 18.3182 30.3175 18.261 29.7365C18.2037 29.1497 18.1522 28.5687 18.1064 27.982C18.0892 27.7116 18.0663 27.378 18.0434 26.9753C18.0205 26.5726 18.0205 26.17 18.0492 25.7615C18.0778 25.3531 18.1408 24.9792 18.2381 24.634C18.3354 24.2889 18.4957 24.0358 18.7132 23.8747C18.862 23.7597 19.0281 23.6906 19.1998 23.6619C19.3715 23.6331 19.549 23.6446 19.715 23.6906C19.8867 23.7367 20.0413 23.8172 20.1787 23.9265C20.3218 24.0358 20.4363 24.1796 20.5336 24.3522C20.94 24.2486 21.3408 24.1566 21.7415 24.0876C22.1422 24.0185 22.5486 23.9668 22.9665 23.938C23.2012 23.9207 23.4417 23.9092 23.6821 23.9092C23.9225 23.9092 24.1515 23.9552 24.369 24.053C24.5751 24.1278 24.724 24.2716 24.8098 24.4672C24.9243 24.7088 24.9587 24.9562 24.9243 25.215H24.9358ZM24.8785 21.6715C24.6095 21.614 24.369 21.5104 24.1515 21.3551C24.0943 21.3149 24.0714 21.2631 24.0828 21.1998C24.0943 21.1308 24.1343 21.1078 24.2088 21.125C24.2545 21.125 24.2889 21.1365 24.3175 21.171C24.3404 21.1998 24.369 21.2228 24.4091 21.2458C24.6152 21.3666 24.8442 21.4472 25.0903 21.4817C25.3365 21.5162 25.5712 21.5047 25.8002 21.4587C25.8631 21.4472 25.9662 21.4184 26.0978 21.3666C26.2295 21.3149 26.3154 21.2631 26.3497 21.2171C26.3898 21.1826 26.4299 21.1768 26.4699 21.2056C26.51 21.2343 26.5215 21.2746 26.5043 21.3206C26.4871 21.3666 26.4356 21.4184 26.3554 21.4644C26.2753 21.5104 26.2123 21.545 26.1665 21.5622C26.0921 21.6025 26.012 21.6255 25.9318 21.6427C25.8517 21.6543 25.7715 21.6715 25.6971 21.6945C25.4223 21.7405 25.1533 21.7405 24.8842 21.6773L24.8785 21.6715ZM28.7197 33.5619C28.6968 33.6194 28.6567 33.6597 28.5995 33.6769C28.5422 33.7057 28.4392 33.7172 28.2903 33.7057C28.1415 33.6942 28.0327 33.6884 27.9812 33.6769C27.7236 33.6482 27.466 33.6079 27.2084 33.5561C26.9508 33.5044 26.7046 33.4123 26.4814 33.2743C26.2352 33.119 26.0234 32.9176 25.846 32.6588C25.8173 32.6185 25.7773 32.561 25.7257 32.4804C25.6742 32.3999 25.6513 32.3366 25.6628 32.2848C25.68 32.2101 25.72 32.164 25.783 32.1525C25.846 32.141 25.886 32.1698 25.9204 32.2388C25.9547 32.3136 26.0005 32.3884 26.052 32.4517C26.1036 32.5207 26.1608 32.5782 26.2123 32.6415C26.4299 32.8601 26.6817 33.0269 26.9794 33.1305C27.0481 33.1535 27.1454 33.1765 27.2828 33.2052C27.4202 33.234 27.5633 33.2628 27.7236 33.2858C27.8782 33.3088 28.027 33.3318 28.1701 33.3491C28.3132 33.3663 28.4163 33.3721 28.4792 33.3663C28.5708 33.3491 28.6453 33.3663 28.6911 33.4123C28.7368 33.4583 28.7483 33.5101 28.7254 33.5676L28.7197 33.5619ZM34.2896 31.8246C34.2553 31.9857 34.1637 32.1295 34.0206 32.2561C33.9004 32.3711 33.7515 32.4574 33.5798 32.5207C33.4081 32.584 33.2421 32.6127 33.0818 32.6127C32.8757 32.5897 32.6982 32.5437 32.5551 32.4689C32.4063 32.3711 32.2746 32.2503 32.1773 32.095C32.0742 31.9397 31.9941 31.7786 31.9426 31.6003C31.8911 31.422 31.8453 31.2494 31.8052 31.0768C31.7594 30.887 31.7136 30.6972 31.6793 30.5131C31.6392 30.3232 31.5991 30.1392 31.5533 29.9436C31.4789 30.2772 31.3816 30.6109 31.2614 30.933C31.1411 31.2609 30.9866 31.56 30.7862 31.8361C30.6546 32.0202 30.5057 32.1871 30.334 32.3366C30.1623 32.4919 29.9733 32.6127 29.7673 32.7105C29.5898 32.7968 29.4009 32.8543 29.2005 32.8831C29.0002 32.9119 28.8113 32.9176 28.6224 32.9004C28.3476 32.8889 28.0843 32.8428 27.8209 32.7565C27.5633 32.6703 27.3229 32.5495 27.1054 32.3999C26.8592 32.2388 26.6359 32.0375 26.4413 31.7959C26.241 31.5543 26.0807 31.2954 25.9605 31.0193C25.8631 30.818 25.7944 30.6109 25.7429 30.3865C25.6914 30.1679 25.6456 29.9436 25.6055 29.725C25.5311 29.2936 25.491 28.8621 25.491 28.4422C25.491 28.0223 25.5025 27.5851 25.5368 27.1536C25.5483 26.9983 25.5597 26.774 25.5884 26.4691C25.6113 26.17 25.6456 25.8593 25.6857 25.5372C25.7315 25.215 25.783 24.9102 25.8402 24.6225C25.9032 24.3349 25.9776 24.1278 26.0749 24.007C26.1894 23.8459 26.3326 23.7309 26.5157 23.6734C26.6588 23.6274 26.8191 23.5986 26.9966 23.5928C27.1741 23.5928 27.3515 23.6043 27.5233 23.6446C27.695 23.6849 27.8553 23.7424 28.0041 23.8229C28.1529 23.9035 28.2732 24.007 28.359 24.1336C28.4335 24.2371 28.485 24.3579 28.5136 24.496C28.5422 24.6283 28.5594 24.7606 28.5594 24.8987C28.5479 25.1863 28.5079 25.4682 28.4392 25.7443C28.3705 26.0204 28.2961 26.3023 28.2216 26.5784C28.0728 27.1536 27.9755 27.7404 27.9297 28.3386C27.8896 28.9369 27.9125 29.5294 28.0098 30.1104C28.027 30.2657 28.0614 30.4153 28.1072 30.5591C28.1529 30.7029 28.2274 30.8237 28.3304 30.933C28.4334 31.0366 28.5708 31.1113 28.7369 31.1516C28.9029 31.1919 29.0517 31.1861 29.1834 31.1401C29.2864 31.1113 29.378 31.0596 29.4581 30.979C29.5383 30.9042 29.6013 30.8237 29.647 30.7374C29.7787 30.5188 29.876 30.2887 29.9447 30.0529C30.0134 29.817 30.0592 29.5754 30.0878 29.3281C30.1623 28.8679 30.2138 28.4019 30.2367 27.936C30.2596 27.4643 30.2939 26.9983 30.3454 26.5266C30.3569 26.4231 30.3741 26.262 30.4027 26.0376C30.4313 25.8191 30.4599 25.5832 30.4943 25.3416C30.5286 25.1 30.5687 24.8641 30.6145 24.6455C30.6603 24.427 30.7118 24.2716 30.7691 24.1853C30.8091 24.1278 30.8549 24.076 30.9179 24.0358C30.9809 23.9955 31.0438 23.961 31.1068 23.9437C31.227 23.8977 31.3587 23.869 31.4961 23.8575C31.6335 23.846 31.7651 23.8575 31.9025 23.869C32.1086 23.8862 32.2803 23.9495 32.412 24.0588C32.515 24.1278 32.5952 24.2141 32.6524 24.3177C32.7097 24.4212 32.7497 24.5362 32.7784 24.6513C32.87 24.9849 32.9215 25.3301 32.9215 25.681C32.9215 26.0319 32.9387 26.377 32.9673 26.7222C32.9959 27.0846 33.0417 27.447 33.1047 27.8152C33.1676 28.1776 33.2535 28.54 33.368 28.8909C33.4596 29.1958 33.5741 29.4949 33.7 29.7883C33.826 30.0816 33.9576 30.375 34.0893 30.6741C34.1637 30.8525 34.2324 31.0481 34.2896 31.2494C34.3469 31.4507 34.3526 31.6463 34.3011 31.8361L34.2896 31.8246ZM34.198 21.1078C34.0263 21.0905 33.8603 21.0617 33.7 21.0157C33.4939 20.9467 33.3222 20.8489 33.1905 20.7166C33.0932 20.6131 33.0302 20.475 32.9902 20.3082C32.9501 20.1413 32.9387 19.963 32.9387 19.7789C32.9387 19.5949 32.9673 19.4108 33.0073 19.2325C33.0474 19.0541 33.1047 18.8988 33.1676 18.7665C33.2134 18.6802 33.2707 18.5997 33.3394 18.5307C33.4023 18.4616 33.4825 18.4099 33.5626 18.3811C33.6657 18.3408 33.7687 18.3293 33.8717 18.3466C33.9748 18.3638 34.0778 18.3753 34.1866 18.3983C34.4671 18.4444 34.7533 18.4789 35.0453 18.4961C35.3315 18.5134 35.6177 18.5479 35.904 18.5997C36.0471 18.6169 36.173 18.5997 36.2932 18.5479C36.4134 18.4961 36.505 18.4214 36.5737 18.3236C36.6424 18.2258 36.6825 18.128 36.6825 18.0129C36.6825 17.8979 36.6367 17.7943 36.5394 17.6908C36.4936 17.6448 36.4306 17.6045 36.3619 17.5757C36.2932 17.547 36.2188 17.524 36.1444 17.5067C35.8639 17.4377 35.5777 17.3629 35.3029 17.2824C35.0224 17.2018 34.7533 17.0983 34.49 16.9717C34.3125 16.8969 34.1351 16.8049 33.9691 16.7014C33.7973 16.5978 33.6485 16.4713 33.5168 16.3275C33.4195 16.2239 33.3394 16.1089 33.2707 15.9881C33.202 15.8673 33.139 15.7407 33.0932 15.6084C33.0302 15.3956 32.9902 15.1827 32.9844 14.9641C32.9844 14.7455 32.9902 14.5212 33.0188 14.3026C33.0474 14.1127 33.0875 13.9229 33.1333 13.7273C33.1791 13.5375 33.2535 13.3592 33.3451 13.1981C33.4882 12.9507 33.6657 12.7322 33.8889 12.5538C34.1122 12.3697 34.3412 12.2144 34.5873 12.0821C35.0281 11.8635 35.4975 11.7025 35.9898 11.6104C36.4821 11.5126 36.9687 11.4781 37.461 11.4954C37.6957 11.5069 37.9304 11.5184 38.1651 11.5414C38.3941 11.5586 38.6174 11.6219 38.8235 11.7255C38.9551 11.7945 39.0811 11.8923 39.1898 12.0246C39.2814 12.1569 39.3558 12.3122 39.4074 12.4905C39.4589 12.6689 39.4875 12.8472 39.4932 13.037C39.4932 13.2269 39.4761 13.4052 39.4303 13.5778C39.3845 13.7503 39.31 13.8999 39.2013 14.0207C39.1269 14.0955 39.041 14.1588 38.9494 14.2105C38.8578 14.2566 38.7548 14.2911 38.6517 14.3083C38.4628 14.3371 38.2739 14.3313 38.0907 14.2911C37.9075 14.2508 37.7186 14.222 37.5297 14.2048C37.2206 14.1645 36.8886 14.176 36.5394 14.2335C36.3963 14.2508 36.2589 14.2853 36.1158 14.3256C35.9726 14.3716 35.841 14.4291 35.7208 14.5039C35.4746 14.6592 35.32 14.8836 35.2571 15.177C35.2342 15.246 35.2285 15.315 35.2342 15.3898C35.2342 15.4646 35.2571 15.5336 35.2972 15.5911C35.3716 15.7177 35.509 15.8155 35.715 15.8845C35.9211 15.9535 36.1387 16.0111 36.3734 16.0513C36.6081 16.0916 36.8428 16.1204 37.0832 16.1376C37.3179 16.1549 37.5068 16.1779 37.6499 16.1951C37.8102 16.2124 37.9648 16.2354 38.1193 16.2642C38.2682 16.2929 38.417 16.3332 38.5601 16.3907C38.812 16.4943 39.0295 16.6726 39.2127 16.92C39.3158 17.0638 39.3959 17.2248 39.4474 17.4032C39.499 17.5815 39.5333 17.7598 39.5562 17.9439C39.5848 18.2891 39.5562 18.64 39.4703 18.9909C39.3845 19.3475 39.2471 19.6639 39.0582 19.9515C38.9551 20.1183 38.8235 20.2622 38.6689 20.3887C38.5143 20.521 38.3483 20.6188 38.1823 20.6993C37.8732 20.8432 37.5469 20.9352 37.2034 20.9812C36.8657 21.0272 36.5222 21.056 36.1845 21.0733C35.9383 21.0905 35.6921 21.1078 35.446 21.125C35.1998 21.1423 34.9537 21.148 34.7133 21.148C34.5415 21.1365 34.3755 21.125 34.2038 21.1135L34.198 21.1078ZM38.188 21.6025C38.1136 21.6715 38.0277 21.7118 37.9419 21.7233C37.8503 21.7405 37.7587 21.752 37.6671 21.7751C37.627 21.7866 37.5583 21.7981 37.461 21.8096C37.3637 21.8268 37.2549 21.8383 37.1404 21.8556C37.026 21.8728 36.9172 21.8844 36.8142 21.9016C36.7111 21.9189 36.6424 21.9246 36.6023 21.9246C36.5337 21.9246 36.4879 21.9074 36.4535 21.8728C36.4192 21.8383 36.402 21.7981 36.3963 21.752C36.3963 21.706 36.402 21.66 36.4306 21.6255C36.4592 21.5852 36.505 21.5622 36.5737 21.5565C36.631 21.5565 36.734 21.5507 36.8771 21.5335C37.026 21.5162 37.1748 21.5047 37.3294 21.4932C37.4839 21.4759 37.6328 21.4644 37.7701 21.4414C37.9075 21.4242 38.0048 21.4011 38.0621 21.3839C38.1365 21.3551 38.1938 21.3724 38.2224 21.4414C38.2567 21.5104 38.2453 21.568 38.188 21.614V21.6025ZM42.8936 30.0299C42.8478 30.4613 42.7677 30.8812 42.6589 31.2954C42.5501 31.7038 42.3841 32.095 42.1723 32.4574C42.1151 32.5552 42.0349 32.63 41.9261 32.6818C41.8174 32.7335 41.7086 32.768 41.6056 32.7911C41.5312 32.8141 41.4224 32.8198 41.285 32.8141C41.1476 32.8141 41.0102 32.7968 40.8671 32.7853C40.724 32.7681 40.5923 32.745 40.4607 32.7163C40.3347 32.6818 40.2374 32.6415 40.1744 32.5955C40.0714 32.5264 39.9913 32.4402 39.9397 32.3251C39.8882 32.2101 39.8596 32.095 39.8481 31.98C39.831 31.6923 39.8481 31.4047 39.8997 31.1113C39.9512 30.818 40.0027 30.5303 40.0542 30.2427C40.1229 29.8113 40.1859 29.3798 40.2489 28.9484C40.3118 28.517 40.3405 28.0798 40.329 27.6426C40.3176 27.4528 40.3004 27.2572 40.2718 27.0616C40.2431 26.866 40.1859 26.6819 40.1 26.5093C40.0027 26.2908 39.8653 26.1297 39.6707 26.0204C39.5562 25.9744 39.436 25.9514 39.3158 25.9571C39.1898 25.9571 39.0696 25.9916 38.9437 26.0434C38.8177 26.0952 38.7032 26.1642 38.5945 26.2447C38.4857 26.3253 38.3998 26.4173 38.3312 26.5093C38.1995 26.6934 38.0907 26.889 38.0106 27.1019C37.9304 27.3147 37.8675 27.5275 37.8217 27.7461C37.7472 28.051 37.7072 28.3617 37.7015 28.6723C37.7015 28.9829 37.7015 29.2993 37.7301 29.6157C37.753 29.9321 37.7816 30.2485 37.8159 30.5706C37.8503 30.8927 37.8675 31.2091 37.8675 31.5255C37.8675 31.7096 37.8446 31.8937 37.8045 32.0778C37.7644 32.2676 37.6728 32.4287 37.5412 32.561C37.3637 32.7508 37.129 32.8716 36.8428 32.9176C36.5565 32.9636 36.2875 32.9579 36.0413 32.8889C35.944 32.8601 35.8524 32.8198 35.7666 32.7565C35.675 32.699 35.6006 32.63 35.5319 32.5552C35.4403 32.4287 35.3716 32.2331 35.3258 31.957C35.2857 31.6866 35.2514 31.3932 35.2342 31.0883C35.217 30.7834 35.2056 30.4843 35.2056 30.1909V29.5237C35.1941 28.9024 35.1769 28.2869 35.154 27.6771C35.1311 27.0673 35.0968 26.4576 35.051 25.8478C35.0396 25.6637 35.0224 25.4912 34.9938 25.3186C34.9651 25.146 34.9537 24.9677 34.9537 24.7894C34.9537 24.6916 34.9651 24.5995 34.9823 24.5017C34.9995 24.4039 35.0338 24.3177 35.0796 24.2429C35.1426 24.1451 35.2285 24.0703 35.3372 24.0128C35.4403 23.9552 35.549 23.915 35.6692 23.892C35.7895 23.869 35.904 23.8632 36.0299 23.869C36.1501 23.8805 36.2646 23.9035 36.3676 23.938C36.4821 23.984 36.5794 24.053 36.6596 24.1451C36.7397 24.2371 36.8084 24.3349 36.8657 24.4385C36.9802 24.657 37.0546 24.8871 37.1004 25.123C37.1404 25.3589 37.1862 25.5947 37.2378 25.8363C37.4038 25.5027 37.6442 25.2208 37.9476 24.9964C38.251 24.7721 38.5773 24.6053 38.9379 24.5017C39.2986 24.3982 39.6707 24.3579 40.0542 24.3809C40.4435 24.4039 40.8041 24.496 41.1419 24.6455C41.4052 24.7721 41.6456 24.9562 41.8632 25.2035C42.0235 25.3934 42.1609 25.6062 42.2811 25.8421C42.4013 26.0779 42.4929 26.3195 42.573 26.5669C42.7619 27.1191 42.8821 27.6944 42.9279 28.2926C42.9737 28.8851 42.968 29.4719 42.8993 30.0471L42.8936 30.0299ZM43.0024 21.5737C42.8421 21.591 42.6818 21.5967 42.5272 21.591C42.3727 21.5795 42.2238 21.5507 42.0807 21.5047C41.8804 21.4587 41.7201 21.3666 41.5998 21.2343C41.5254 21.1595 41.4682 21.0733 41.4224 20.9755C41.3823 20.8777 41.348 20.7799 41.3308 20.6763C41.3022 20.5325 41.2678 20.2506 41.222 19.8365C41.182 19.4223 41.1362 18.9736 41.0904 18.4904C41.0446 18.0129 40.9988 17.5642 40.9644 17.1501C40.9244 16.7301 40.9015 16.454 40.8786 16.3102C40.8213 15.8673 40.7355 15.4358 40.6095 15.0159C40.4893 14.596 40.3805 14.1703 40.2832 13.7388C40.2431 13.5835 40.2202 13.4282 40.2031 13.2729C40.1859 13.1118 40.2031 12.9565 40.2546 12.8069C40.3118 12.6344 40.3977 12.4675 40.5179 12.3122C40.6381 12.1569 40.7755 12.0361 40.9358 11.9613C41.0503 11.9153 41.1934 11.8693 41.3594 11.8348C41.5254 11.8002 41.7029 11.7715 41.8804 11.7542C42.0578 11.7427 42.2295 11.7427 42.3956 11.76C42.5616 11.7772 42.6932 11.8233 42.7963 11.8865C42.9451 11.9901 43.0768 12.1224 43.1855 12.272C43.2943 12.4273 43.3859 12.5883 43.4603 12.7609C43.5061 12.8932 43.5405 13.0313 43.5634 13.1636C43.5863 13.2959 43.6092 13.434 43.6263 13.5778C43.6721 14.0092 43.7122 14.4349 43.7408 14.8548C43.7694 15.2747 43.7923 15.7004 43.8095 16.1319C44.0271 16.1146 44.2446 16.0974 44.4736 16.0858C44.7025 16.0743 44.9258 16.0686 45.1548 16.0571H45.3322C45.4238 16.0571 45.4811 16.0571 45.5097 16.0743C45.4983 16.0628 45.4925 16.0571 45.4925 16.0456V16.0053C45.4525 15.6429 45.4296 15.2747 45.4067 14.9066C45.3895 14.5384 45.3895 14.1703 45.4181 13.8079C45.4238 13.6756 45.441 13.5375 45.4582 13.4052C45.4754 13.2729 45.5269 13.1463 45.6013 13.0313C45.6585 12.9277 45.7501 12.8357 45.8818 12.7667C46.0135 12.6976 46.1566 12.6401 46.3226 12.5941C46.4829 12.5481 46.6432 12.5251 46.8092 12.5136C46.9752 12.5021 47.1183 12.5021 47.2385 12.5136C47.3129 12.5251 47.3931 12.5366 47.4732 12.5481C47.5534 12.5596 47.6335 12.5941 47.7079 12.6401C47.8396 12.7379 47.9369 12.8587 48.0056 13.014C48.0514 13.1463 48.08 13.2844 48.0972 13.4167C48.1086 13.549 48.1201 13.6813 48.1315 13.8194C48.143 14.1243 48.143 14.4349 48.1315 14.7513C48.1201 15.0677 48.1201 15.384 48.1201 15.7004C48.1086 16.1721 48.1086 16.6381 48.1144 17.0983C48.1144 17.5642 48.1258 18.0244 48.1373 18.4846C48.1373 18.6457 48.1373 18.8528 48.1487 19.1002C48.1602 19.3475 48.1487 19.6006 48.1373 19.8595C48.1201 20.1183 48.08 20.3599 48.0228 20.5843C47.9655 20.8086 47.8797 20.9697 47.7709 21.0675C47.6564 21.1538 47.519 21.2113 47.3587 21.2401C47.0668 21.3091 46.7634 21.3091 46.4543 21.2516C46.3512 21.2343 46.2482 21.1941 46.1508 21.1308C46.0535 21.0675 45.9791 20.987 45.9333 20.8949C45.8589 20.7684 45.8131 20.6361 45.8074 20.4865C45.7959 20.3369 45.7902 20.1931 45.7788 20.0493C45.7616 19.6466 45.7444 19.2382 45.733 18.8298C45.7215 18.4214 45.6986 18.0129 45.6471 17.6103C45.6185 17.6218 45.5841 17.6218 45.5498 17.6218H45.4353C45.1834 17.6218 44.9258 17.6275 44.6625 17.6448C44.4049 17.662 44.1473 17.685 43.8897 17.7253C43.9068 17.8979 43.9412 18.1395 43.9813 18.4501C44.0213 18.7608 44.0557 19.0886 44.0786 19.428C44.1015 19.7674 44.1072 20.0896 44.1015 20.3887C44.09 20.6878 44.0442 20.9122 43.9584 21.056C43.8553 21.2171 43.7122 21.3436 43.529 21.4242C43.3458 21.5047 43.1626 21.5565 42.9852 21.5737H43.0024ZM46.4428 31.8304C46.4428 31.8304 47.8797 27.1306 43.821 25.1575C43.821 25.1575 47.8968 27.3147 50.3755 21.1653C50.3813 21.148 50.387 21.1365 50.387 21.1365C50.387 21.148 50.3813 21.1538 50.3755 21.1653C50.2095 21.5737 48.2002 26.7164 52.6482 28.2754C52.6482 28.2754 48.6811 26.9811 46.4485 31.8304H46.4428Z" fill="#C4C7CC"/>
</g>
<defs>
<clipPath id="clip0_15988_638">
<rect width="61" height="48" fill="white" transform="translate(0 0.842773)"/>
</clipPath>
</defs>
</svg>
