<svg width="64" height="36" viewBox="0 0 64 36" fill="none" xmlns="http://www.w3.org/2000/svg">
<g clip-path="url(#clip0_15962_526)">
<path d="M14.9384 15.1875C14.6372 15.3975 14.3134 15.555 13.9595 15.6675C13.6056 15.78 13.2442 15.8325 12.8904 15.8325C12.1299 15.8325 11.4748 15.555 10.9252 15C10.6014 14.67 10.3304 14.295 10.112 13.875C9.89365 13.455 9.71294 13.02 9.56235 12.5775C9.35153 11.9775 9.20094 11.3775 9.10306 10.7625C9.00518 10.1475 8.92235 9.5325 8.84706 8.9025C8.77176 9.5325 8.68141 10.155 8.56847 10.785C8.45553 11.415 8.29741 12.0375 8.08659 12.6675C7.96612 13.0275 7.83059 13.3725 7.66494 13.71C7.49929 14.0475 7.30353 14.355 7.06259 14.64C6.784 15 6.46776 15.2775 6.12894 15.4725C5.77506 15.6525 5.38353 15.75 4.96188 15.7725C4.54024 15.795 4.13365 15.7425 3.74965 15.63C3.32047 15.495 2.92141 15.285 2.56 15C2.19859 14.715 1.88235 14.4 1.61129 14.055C1.18212 13.5 0.843294 12.885 0.609882 12.195C0.368941 11.505 0.210824 10.815 0.120471 10.11C0 9.1725 -0.0301176 8.2275 0.0301176 7.2675C0.0903529 6.3075 0.180706 5.355 0.301176 4.395C0.331294 4.14 0.368941 3.8925 0.421647 3.645C0.474353 3.3975 0.534588 3.1575 0.609882 2.9175C0.685176 2.7525 0.768 2.5875 0.858353 2.4225C0.948706 2.2575 1.06918 2.115 1.21224 1.995C1.39294 1.86 1.61129 1.755 1.88235 1.6725C2.15341 1.59 2.432 1.5375 2.71812 1.515C3.00424 1.4925 3.29035 1.5 3.57647 1.545C3.85506 1.59 4.096 1.6575 4.29176 1.7475C4.60047 1.9125 4.82635 2.1525 4.96188 2.4675C5.05224 2.7075 5.09741 2.955 5.10494 3.21C5.10494 3.465 5.10494 3.72 5.09741 3.975C5.08235 4.23 5.05976 4.5675 5.02212 4.995C4.98447 5.4225 4.94682 5.8875 4.90918 6.3825C4.87153 6.885 4.84141 7.4025 4.81129 7.9425C4.78118 8.4825 4.77365 8.9925 4.78118 9.48C4.78118 9.9675 4.81882 10.41 4.87906 10.8C4.93929 11.1975 5.03718 11.4975 5.16518 11.7075C5.22541 11.7975 5.30824 11.8875 5.41365 11.9775C5.51906 12.0675 5.62447 12.0975 5.72235 12.0675C5.82776 12.0375 5.92565 11.97 6.00847 11.8575C6.09882 11.745 6.17412 11.6175 6.24188 11.475C6.30965 11.3325 6.36235 11.19 6.4 11.04C6.43765 10.89 6.46776 10.755 6.49788 10.635C6.70871 9.72 6.83671 8.805 6.89694 7.875C6.95718 6.945 7.07765 6.03 7.25082 5.115C7.296 4.905 7.36376 4.7025 7.46165 4.5C7.55953 4.2975 7.70259 4.1475 7.89835 4.0425C8.01882 3.9675 8.18447 3.9075 8.40282 3.855C8.62118 3.8025 8.78682 3.8175 8.90729 3.885C8.92235 3.9 8.93741 3.9 8.96 3.885C8.98259 3.87 8.99765 3.8625 9.01271 3.8625C9.19341 3.8625 9.37412 3.8925 9.56988 3.9525C9.76565 4.0125 9.91623 4.11 10.0367 4.245C10.2174 4.44 10.3379 4.6575 10.4056 4.905C10.4734 5.1525 10.5186 5.4 10.5487 5.655C10.6692 6.375 10.7595 7.08 10.8198 7.785C10.88 8.49 10.9628 9.195 11.0682 9.915C11.1134 10.17 11.1586 10.425 11.2113 10.6875C11.264 10.95 11.3468 11.205 11.4673 11.46C11.5125 11.55 11.5576 11.64 11.6104 11.7375C11.6631 11.835 11.7233 11.91 11.7911 11.97C11.8588 12.03 11.9266 12.0675 12.0019 12.09C12.0772 12.1125 12.16 12.09 12.2504 12.0375C12.4311 11.9325 12.5666 11.7525 12.6645 11.4975C12.7624 11.2425 12.8301 10.965 12.8753 10.6575C12.9205 10.35 12.9431 10.0425 12.9506 9.735C12.9506 9.4275 12.9581 9.1725 12.9581 8.9625C12.928 8.1375 12.8753 7.32 12.8 6.51C12.7247 5.6925 12.6645 4.875 12.6193 4.0575C12.6042 3.7425 12.6118 3.4125 12.6268 3.0675C12.6494 2.7225 12.7473 2.4225 12.928 2.1675C13.0936 1.9425 13.3195 1.785 13.6056 1.695C13.8918 1.605 14.1704 1.5525 14.4414 1.5375C14.7802 1.5075 15.1341 1.5225 15.488 1.5825C15.8419 1.6425 16.1581 1.7775 16.4216 1.9875C16.6325 2.1375 16.7906 2.325 16.9035 2.5575C17.0165 2.79 17.1068 3.0225 17.1821 3.2625C17.2574 3.5625 17.3101 3.855 17.3478 4.14C17.3854 4.425 17.4231 4.7175 17.4682 5.0175C17.5285 5.5275 17.5736 6.0375 17.6113 6.54C17.6489 7.05 17.6715 7.5675 17.6866 8.085C17.6866 8.85 17.6339 9.615 17.5285 10.38C17.4231 11.1525 17.2273 11.895 16.9261 12.615C16.7153 13.125 16.4442 13.605 16.1129 14.0475C15.7816 14.4975 15.3826 14.8725 14.9233 15.1725L14.9384 15.1875ZM6.55812 3.57C6.54306 3.705 6.46776 3.78 6.32471 3.795C6.18165 3.81 6.09882 3.7575 6.06871 3.6375C5.99341 3.3975 5.94824 3.1575 5.93318 2.91C5.91812 2.6625 5.87294 2.43 5.79765 2.205C5.67718 1.875 5.49647 1.6125 5.24047 1.4175C4.96941 1.1925 4.66824 1.0125 4.31435 0.87C3.968 0.7275 3.61412 0.6675 3.25271 0.6825H2.87624C2.69553 0.6825 2.57506 0.6675 2.49976 0.6375C2.42447 0.5925 2.40188 0.5325 2.42447 0.4575C2.44706 0.3825 2.49224 0.33 2.56753 0.3C2.64282 0.285 2.79341 0.27 3.01176 0.255C3.23765 0.24 3.38071 0.2325 3.456 0.2325C3.74965 0.2325 4.05082 0.285 4.34447 0.39C4.63812 0.495 4.91671 0.6225 5.16518 0.7725C5.47388 0.9675 5.72988 1.185 5.91059 1.425C6.09882 1.665 6.23435 1.965 6.32471 2.325C6.33976 2.37 6.36235 2.4525 6.39247 2.5725C6.42259 2.6925 6.44518 2.82 6.46776 2.955C6.49035 3.09 6.50541 3.2175 6.52047 3.3375C6.53553 3.4575 6.54306 3.54 6.54306 3.585L6.55812 3.57ZM14.4941 16.53C14.4038 16.62 14.2682 16.6875 14.08 16.74C13.8918 16.7925 13.696 16.83 13.4852 16.8525C13.2744 16.875 13.0711 16.89 12.8753 16.89H12.3934C12.1976 16.86 12.0094 16.8375 11.8287 16.8225C11.6405 16.8075 11.4598 16.7775 11.2791 16.7325C11.0005 16.6425 10.7445 16.515 10.5186 16.35C10.4132 16.275 10.3379 16.1925 10.2927 16.1025C10.2475 16.0125 10.2927 15.96 10.4056 15.945C10.4659 15.93 10.5261 15.945 10.5864 15.975C10.6466 16.0125 10.7068 16.05 10.7671 16.0725C11.008 16.2075 11.264 16.2975 11.5351 16.35C11.8061 16.4025 12.0772 16.44 12.3482 16.4475C12.5892 16.4475 12.8151 16.4475 13.0409 16.425C13.2668 16.41 13.4852 16.38 13.7111 16.335C13.7562 16.32 13.8541 16.29 13.9972 16.245C14.1478 16.2 14.2456 16.17 14.2833 16.155C14.3887 16.14 14.464 16.1775 14.5167 16.2675C14.5694 16.3575 14.5544 16.44 14.4866 16.515L14.4941 16.53Z" fill="#1C73BA"/>
<path d="M20.7586 16.8675C20.3294 16.9425 19.9002 16.935 19.4786 16.845C19.0569 16.755 18.6729 16.59 18.3266 16.35C18.2362 16.29 18.1986 16.2075 18.2136 16.1025C18.2287 15.9975 18.2965 15.96 18.4169 15.99C18.4922 15.99 18.5449 16.0125 18.5826 16.0575C18.6202 16.1025 18.6654 16.14 18.7256 16.17C19.0494 16.365 19.4108 16.485 19.7948 16.5375C20.1788 16.59 20.5553 16.575 20.9092 16.5075C21.0146 16.4925 21.1652 16.44 21.376 16.365C21.5868 16.2825 21.7148 16.2075 21.7751 16.1325C21.8353 16.0725 21.8955 16.065 21.9633 16.11C22.0311 16.155 22.0461 16.215 22.016 16.29C21.9859 16.365 21.9106 16.44 21.7826 16.515C21.6546 16.59 21.5567 16.6425 21.4814 16.6725C21.3609 16.7325 21.2405 16.77 21.1125 16.8C20.9845 16.8225 20.864 16.845 20.7435 16.875L20.7586 16.8675ZM30.2532 16.485C29.9821 16.62 29.6885 16.71 29.3647 16.7625C29.0409 16.815 28.7096 16.8225 28.3859 16.77C28.0621 16.725 27.7534 16.6275 27.4748 16.4775C27.1962 16.3275 26.9628 16.125 26.7821 15.87C26.6918 15.735 26.5939 15.5025 26.4809 15.1725C26.368 14.8425 26.2701 14.49 26.1798 14.115C26.0894 13.74 26.0066 13.38 25.9313 13.0275C25.856 12.675 25.8033 12.42 25.7732 12.255C25.4795 12.27 25.1708 12.285 24.8621 12.285C24.5534 12.285 24.2447 12.315 23.9511 12.3375C23.8758 12.3375 23.7327 12.3525 23.5294 12.375C23.3186 12.3975 23.1002 12.42 22.8593 12.4425C22.6184 12.465 22.4 12.4875 22.1892 12.5025C21.9784 12.5175 21.8428 12.525 21.7675 12.525C21.7675 12.63 21.7675 12.7875 21.76 12.9975C21.7525 13.2075 21.7374 13.425 21.7148 13.65C21.6922 13.875 21.6621 14.085 21.6245 14.28C21.5868 14.475 21.5416 14.6175 21.4814 14.7075C21.376 14.8575 21.2329 14.9775 21.0598 15.075C20.8791 15.1725 20.6833 15.24 20.4649 15.2775C20.2466 15.315 20.0358 15.33 19.8325 15.3075C19.6216 15.2925 19.4334 15.255 19.2527 15.195C19.1322 15.15 19.0268 15.0975 18.9289 15.03C18.8311 14.9625 18.7482 14.88 18.6729 14.775C18.5374 14.595 18.4696 14.34 18.4696 14.01C18.4696 13.68 18.4998 13.335 18.5675 12.975C18.6353 12.615 18.7181 12.2625 18.816 11.9175C18.9139 11.5725 18.9816 11.2875 19.0268 11.0625C19.2678 10.0275 19.5915 9.0225 19.9981 8.0475C20.4047 7.065 20.8866 6.1275 21.4362 5.235C21.8654 4.545 22.3473 3.8925 22.8819 3.2625C23.4165 2.6325 24.0264 2.1075 24.7115 1.6725C24.9374 1.5375 25.2009 1.455 25.5021 1.4175C25.8033 1.38 26.112 1.3875 26.4132 1.4325C26.7144 1.4775 27.008 1.56 27.2941 1.6875C27.5727 1.815 27.8136 1.965 28.0094 2.145C28.2202 2.355 28.3934 2.5875 28.544 2.85C28.6946 3.1125 28.8151 3.3825 28.8979 3.6675C29.0334 4.0875 29.1313 4.515 29.184 4.9425C29.2442 5.3775 29.312 5.8125 29.3873 6.24C29.4174 6.39 29.4626 6.6375 29.5228 6.9825C29.5831 7.3275 29.6583 7.7175 29.7487 8.16C29.8391 8.6025 29.9294 9.0675 30.0273 9.5475C30.1252 10.035 30.2155 10.5 30.3059 10.935C30.3962 11.3775 30.4715 11.7675 30.5393 12.1125C30.6071 12.4575 30.6598 12.6975 30.7049 12.8325C30.72 12.8925 30.7501 13.005 30.7953 13.17C30.8405 13.335 30.8856 13.5075 30.9384 13.6875C30.9911 13.8675 31.0438 14.04 31.0965 14.205C31.1492 14.37 31.1793 14.4825 31.1944 14.5425C31.3148 14.9175 31.2998 15.27 31.1492 15.6C31.0739 15.795 30.9534 15.96 30.7953 16.1025C30.6296 16.245 30.4565 16.365 30.2607 16.47L30.2532 16.485ZM23.4315 7.065C23.2207 7.53 23.0249 8.0025 22.8442 8.475C22.656 8.955 22.4904 9.435 22.3398 9.9075C22.8593 9.8475 23.3788 9.81 23.8908 9.795C24.4028 9.78 24.9224 9.7575 25.4419 9.7275C25.4268 9.5625 25.4042 9.2325 25.3666 8.7375C25.3289 8.2425 25.2913 7.725 25.2461 7.1775C25.2009 6.63 25.1633 6.1125 25.1332 5.6175C25.1031 5.1225 25.088 4.7925 25.088 4.6275C24.7341 4.9725 24.4179 5.355 24.1544 5.775C23.8908 6.195 23.6499 6.6225 23.4391 7.05L23.4315 7.065ZM30.2532 2.625C30.1929 2.73 30.1252 2.7675 30.0424 2.7375C29.9595 2.7075 29.9445 2.64 29.9896 2.535C29.9595 2.475 29.9068 2.385 29.8315 2.265C29.7562 2.145 29.6809 2.0175 29.5981 1.8825C29.5153 1.7475 29.4325 1.62 29.3421 1.5C29.2518 1.38 29.184 1.2975 29.1388 1.2525C28.928 1.0725 28.6946 0.93 28.4386 0.825C28.1751 0.72 27.9115 0.645 27.648 0.6C27.5727 0.585 27.4221 0.5775 27.2038 0.5775C26.9854 0.5775 26.8348 0.5625 26.7595 0.5325C26.6993 0.5025 26.6692 0.45 26.6692 0.375C26.6692 0.3 26.6993 0.2475 26.7595 0.2175C26.8499 0.1725 26.9402 0.1575 27.0381 0.165C27.136 0.165 27.2263 0.1725 27.3167 0.1725C27.6254 0.1875 27.9341 0.2475 28.2428 0.36C28.544 0.4725 28.8226 0.6075 29.0786 0.7725C29.3271 0.9375 29.5379 1.1475 29.6885 1.41C29.8466 1.6725 29.9896 1.9275 30.1252 2.1825C30.1553 2.2425 30.1929 2.3175 30.2381 2.4075C30.2833 2.4975 30.2908 2.565 30.2607 2.61L30.2532 2.625Z" fill="#1C73BA"/>
<path d="M37.2781 15.9C36.8941 15.93 36.5026 15.96 36.1186 15.975C35.7346 15.9975 35.3431 16.0125 34.9591 16.0125C34.688 15.9975 34.4245 15.975 34.1534 15.96C33.8899 15.9375 33.6263 15.8925 33.3703 15.8175C33.0466 15.7125 32.7755 15.555 32.5647 15.345C32.4141 15.18 32.3087 14.97 32.256 14.7075C32.1958 14.445 32.1732 14.1675 32.1807 13.875C32.1807 13.5825 32.2259 13.2975 32.2936 13.02C32.3614 12.7425 32.4442 12.5025 32.5496 12.2925C32.6249 12.1575 32.7153 12.0375 32.8207 11.925C32.9261 11.8125 33.0466 11.7375 33.1746 11.6925C33.3402 11.6325 33.4983 11.6175 33.664 11.6325C33.8296 11.655 33.9878 11.685 34.1534 11.7075C34.5976 11.7825 35.0494 11.835 35.5012 11.865C35.9529 11.895 36.4047 11.9475 36.8489 12.0225C37.0748 12.0525 37.2781 12.0225 37.4588 11.9475C37.6471 11.865 37.7901 11.7525 37.9031 11.6025C38.016 11.4525 38.0687 11.295 38.0687 11.1225C38.0687 10.95 37.9934 10.785 37.8428 10.62C37.7675 10.545 37.6772 10.485 37.5642 10.44C37.4513 10.395 37.3384 10.3575 37.2179 10.3275C36.7736 10.2225 36.3294 10.11 35.8927 9.9825C35.456 9.855 35.0268 9.6975 34.6127 9.5025C34.3341 9.3825 34.0555 9.24 33.7845 9.075C33.5209 8.91 33.28 8.715 33.0692 8.49C32.9186 8.325 32.7906 8.1525 32.6776 7.965C32.5647 7.7775 32.4743 7.5825 32.3991 7.3725C32.2936 7.0425 32.2409 6.705 32.2334 6.36C32.2259 6.015 32.2409 5.67 32.2861 5.325C32.3313 5.025 32.3915 4.725 32.4668 4.425C32.5421 4.125 32.6551 3.8475 32.7981 3.5925C33.024 3.2025 33.3101 2.865 33.6565 2.58C34.0028 2.295 34.3718 2.0475 34.7558 1.8375C35.456 1.4925 36.1864 1.245 36.9619 1.095C37.7374 0.945 38.5054 0.885 39.2809 0.915C39.6499 0.93 40.0188 0.9525 40.3802 0.9825C40.7416 1.0125 41.088 1.11 41.4193 1.275C41.6301 1.38 41.8184 1.5375 41.9991 1.7475C42.1496 1.9575 42.2626 2.1975 42.3454 2.475C42.4282 2.7525 42.4734 3.0375 42.4809 3.33C42.4809 3.6225 42.4508 3.9 42.3831 4.17C42.3078 4.44 42.1873 4.6725 42.0292 4.8675C41.9087 4.9875 41.7732 5.085 41.6301 5.16C41.4795 5.235 41.3214 5.2875 41.1633 5.3175C40.8696 5.3625 40.576 5.355 40.2824 5.295C39.9962 5.235 39.6951 5.19 39.4014 5.16C38.912 5.1 38.3925 5.115 37.8428 5.205C37.6169 5.235 37.3986 5.28 37.1727 5.3475C36.9468 5.415 36.7435 5.505 36.5478 5.625C36.1638 5.865 35.9153 6.2175 35.8099 6.6825C35.7798 6.7875 35.7722 6.9 35.7798 7.02C35.7798 7.14 35.8174 7.245 35.8776 7.335C35.9981 7.53 36.2165 7.68 36.5327 7.7925C36.8489 7.905 37.1953 7.9875 37.5718 8.0475C37.9407 8.1075 38.3172 8.1525 38.6861 8.1825C39.0551 8.2125 39.3562 8.2425 39.5746 8.2725C39.8231 8.3025 40.0715 8.34 40.3125 8.385C40.5534 8.43 40.7793 8.4975 41.0052 8.5875C41.4042 8.7525 41.7506 9.03 42.0292 9.42C42.1948 9.645 42.3153 9.8925 42.3981 10.17C42.4809 10.4475 42.5336 10.725 42.5638 11.01C42.6089 11.55 42.5638 12.0975 42.4282 12.645C42.2927 13.2 42.0819 13.7025 41.7807 14.145C41.6151 14.4 41.4118 14.625 41.1708 14.8275C40.9224 15.03 40.6664 15.1875 40.4028 15.3075C39.9134 15.5325 39.4014 15.675 38.8668 15.7425C38.3322 15.81 37.7976 15.8625 37.2631 15.885L37.2781 15.9ZM32.8433 2.265C32.7228 2.31 32.6475 2.28 32.6099 2.1675C32.5722 2.055 32.5798 1.95 32.64 1.845C32.6551 1.8 32.7002 1.74 32.7755 1.6575C32.8508 1.575 32.9261 1.4925 33.0089 1.41C33.0918 1.3275 33.1671 1.2525 33.2424 1.1775C33.3176 1.1025 33.3779 1.05 33.4231 1.02C33.5586 0.915 33.6866 0.825 33.8146 0.7425C33.9426 0.66 34.0781 0.585 34.2287 0.51C34.5374 0.36 34.8612 0.2475 35.2 0.1725C35.5313 0.0975002 35.8701 0.0450002 36.2165 0.0150002C36.4122 1.66707e-07 36.5101 0.0675001 36.5176 0.2175C36.5176 0.3675 36.4423 0.465 36.2616 0.51C35.712 0.63 35.1623 0.7875 34.6202 0.9825C34.0781 1.1775 33.6188 1.4775 33.2499 1.8825C33.2198 1.9125 33.1595 1.98 33.0616 2.0925C32.9638 2.205 32.896 2.265 32.8508 2.28L32.8433 2.265ZM39.6122 17.0025C39.552 17.0175 39.4466 17.0325 39.2885 17.055C39.1304 17.0775 38.9647 17.1 38.784 17.1225C38.6033 17.145 38.4376 17.1675 38.272 17.19C38.1064 17.2125 37.9934 17.22 37.9407 17.22C37.8353 17.22 37.76 17.19 37.7073 17.145C37.6546 17.0925 37.6245 17.025 37.6169 16.9575C37.6169 16.8825 37.6245 16.815 37.6696 16.755C37.7148 16.695 37.7901 16.6575 37.8955 16.6425C37.9859 16.6425 38.144 16.6275 38.3774 16.605C38.6108 16.5825 38.8442 16.56 39.0927 16.5375C39.3412 16.515 39.5671 16.4925 39.7854 16.4625C40.0038 16.4325 40.1544 16.4025 40.2447 16.3725C40.3652 16.3275 40.448 16.3575 40.5007 16.4625C40.5534 16.5675 40.5308 16.6575 40.448 16.7325C40.3275 16.8375 40.1995 16.8975 40.0565 16.92C39.9134 16.9425 39.7704 16.9725 39.6198 17.0025H39.6122Z" fill="#1C73BA"/>
<path d="M48.0151 16.6875C47.7591 16.7175 47.5106 16.725 47.2696 16.71C47.0212 16.695 46.7878 16.65 46.5694 16.575C46.2607 16.5 46.0047 16.3575 45.8089 16.1475C45.6885 16.0275 45.5981 15.8925 45.5304 15.7425C45.4626 15.5925 45.4174 15.435 45.3873 15.27C45.3421 15.045 45.2894 14.61 45.2216 13.9575C45.1539 13.305 45.0861 12.6075 45.0108 11.8575C44.9355 11.1075 44.8678 10.41 44.8075 9.7575C44.7473 9.105 44.7021 8.67 44.672 8.445C44.5816 7.755 44.4386 7.0875 44.2504 6.4275C44.0546 5.7675 43.8889 5.1075 43.7384 4.4325C43.6781 4.1925 43.6405 3.9525 43.6179 3.705C43.5953 3.4575 43.6179 3.2175 43.6932 2.9775C43.7835 2.7075 43.9191 2.4525 44.1073 2.205C44.2955 1.9575 44.5139 1.7775 44.7624 1.6575C44.9431 1.5825 45.1614 1.515 45.4325 1.455C45.7035 1.395 45.9746 1.3575 46.2607 1.335C46.5393 1.3125 46.8104 1.3125 47.0739 1.3425C47.3299 1.3725 47.5482 1.44 47.7064 1.545C47.9473 1.71 48.1506 1.9125 48.3162 2.1525C48.4894 2.3925 48.6325 2.6475 48.7529 2.9175C48.8282 3.1275 48.8809 3.3375 48.9186 3.5475C48.9562 3.7575 48.9864 3.975 49.0165 4.2C49.0918 4.875 49.152 5.535 49.1972 6.195C49.2424 6.855 49.28 7.515 49.3101 8.19C49.6489 8.16 50.0028 8.1375 50.3567 8.1225C50.7106 8.1075 51.072 8.0925 51.4259 8.0775H51.7045C51.8475 8.0775 51.9379 8.0775 51.9831 8.1C51.968 8.085 51.9605 8.07 51.9605 8.055V7.9875C51.9002 7.4175 51.8551 6.8475 51.8249 6.27C51.7948 5.6925 51.8024 5.1225 51.8475 4.5525C51.8626 4.3425 51.8852 4.1325 51.9153 3.9225C51.9454 3.7125 52.0207 3.5175 52.1412 3.3375C52.2315 3.1725 52.3821 3.0375 52.5854 2.925C52.7962 2.8125 53.0221 2.7225 53.2781 2.655C53.5341 2.5875 53.7901 2.55 54.0461 2.535C54.3021 2.52 54.5355 2.52 54.7238 2.535C54.8442 2.55 54.9647 2.565 55.0927 2.5875C55.2207 2.61 55.3412 2.6625 55.4616 2.73C55.6725 2.88 55.8231 3.075 55.9285 3.315C56.0038 3.525 56.0489 3.735 56.0715 3.945C56.0941 4.155 56.1092 4.365 56.1242 4.575C56.1393 5.055 56.1393 5.5425 56.1242 6.03C56.1092 6.525 56.1016 7.02 56.1016 7.5075C56.0866 8.2425 56.0866 8.97 56.0941 9.6975C56.0941 10.425 56.1092 11.145 56.1242 11.865C56.1242 12.12 56.1242 12.4425 56.1468 12.8325C56.1619 13.2225 56.1468 13.62 56.1242 14.0175C56.0941 14.4225 56.0339 14.7975 55.9435 15.15C55.8532 15.5025 55.7176 15.75 55.5445 15.9C55.3638 16.035 55.1529 16.125 54.8969 16.17C54.4376 16.275 53.9633 16.2825 53.4739 16.1925C53.3082 16.1625 53.1501 16.1025 52.992 16.005C52.8339 15.9075 52.7209 15.7875 52.6456 15.6375C52.5252 15.4425 52.4574 15.2325 52.4424 15C52.4273 14.7675 52.4122 14.5425 52.3972 14.3175C52.3671 13.6875 52.3445 13.0575 52.3294 12.4125C52.3144 11.7675 52.2692 11.13 52.1939 10.5075C52.1487 10.5225 52.096 10.53 52.0358 10.53H51.8551C51.456 10.53 51.0494 10.5375 50.6428 10.56C50.2362 10.5825 49.8296 10.6275 49.4306 10.6875C49.4607 10.9575 49.5059 11.3325 49.5736 11.82C49.6414 12.3075 49.6941 12.8175 49.7318 13.3425C49.7694 13.875 49.7769 14.3775 49.7619 14.8425C49.7468 15.315 49.6715 15.66 49.536 15.885C49.3704 16.14 49.1445 16.3275 48.8584 16.455C48.5722 16.5825 48.2861 16.6575 48 16.6875H48.0151ZM47.104 17.6775C47.1793 17.7225 47.2019 17.79 47.1793 17.8875C47.1567 17.985 47.0965 18.0375 46.9911 18.0525C46.9308 18.0525 46.8405 18.0375 46.72 18.0225C46.5995 18 46.4715 17.9775 46.3435 17.955C46.2155 17.9325 46.08 17.9025 45.952 17.88C45.824 17.85 45.7412 17.8275 45.696 17.8125C45.4551 17.7375 45.2442 17.625 45.0485 17.475C44.8376 17.295 44.6795 17.0775 44.5666 16.815C44.4536 16.5525 44.3633 16.29 44.288 16.02C44.1826 15.615 44.1224 15.2025 44.1073 14.775C44.0922 14.3475 44.0696 13.9275 44.0395 13.5075C44.0395 13.4625 44.0395 13.3875 44.032 13.275C44.032 13.1625 44.0169 13.05 44.0019 12.93C43.9868 12.81 43.9793 12.6975 43.9793 12.585V12.375C43.9793 12.3 44.0169 12.255 44.0922 12.24C44.1675 12.225 44.2202 12.255 44.2504 12.33C44.2654 12.375 44.2805 12.45 44.2955 12.5625C44.3106 12.675 44.3181 12.795 44.3256 12.9225C44.3256 13.05 44.3482 13.17 44.3558 13.2825C44.3708 13.395 44.3784 13.47 44.3784 13.515C44.4235 13.995 44.4687 14.4825 44.5139 14.97C44.5591 15.465 44.672 15.9375 44.8452 16.38C44.8904 16.5 44.9431 16.62 45.0033 16.74C45.0635 16.86 45.1388 16.9575 45.2292 17.0325C45.3496 17.1375 45.4776 17.22 45.6056 17.28C45.7412 17.34 45.8767 17.3925 46.0047 17.4375C46.0499 17.4525 46.1252 17.4675 46.2306 17.4825C46.336 17.4975 46.4489 17.5125 46.5619 17.535C46.6824 17.5575 46.7878 17.58 46.8856 17.6025C46.9835 17.625 47.0513 17.6475 47.0965 17.6775H47.104ZM51.5388 2.6475C51.5238 2.7225 51.4861 2.775 51.4259 2.805C51.3657 2.835 51.3129 2.82 51.2678 2.76C51.1624 2.64 51.1624 2.49 51.2602 2.3025C51.3581 2.115 51.456 1.965 51.5614 1.845C51.84 1.545 52.1939 1.3275 52.6231 1.1925C53.0447 1.0575 53.4664 0.975001 53.8805 0.945001C53.9558 0.945001 54.0612 0.945001 54.1892 0.952501C54.3247 0.960001 54.4678 0.975001 54.6108 0.997501C54.7614 1.02 54.8969 1.05 55.0099 1.0875C55.1304 1.125 55.2207 1.1775 55.2734 1.23C55.3788 1.305 55.4014 1.4025 55.3412 1.5225C55.2809 1.6425 55.1906 1.6875 55.0776 1.6575C55.0024 1.6575 54.9421 1.635 54.8969 1.59C54.7313 1.515 54.5656 1.4625 54.3849 1.4475C54.2042 1.425 54.0386 1.41 53.8729 1.41C53.4889 1.44 53.1049 1.5075 52.736 1.6125C52.6005 1.6575 52.4649 1.71 52.3369 1.77C52.2014 1.83 52.0809 1.9125 51.9831 2.0175C51.9379 2.0475 51.8626 2.1225 51.7572 2.2425C51.6518 2.3625 51.584 2.445 51.5539 2.49C51.5539 2.505 51.5539 2.5275 51.5464 2.565C51.5388 2.6025 51.5388 2.625 51.5388 2.64V2.6475Z" fill="#1C73BA"/>
<path d="M8.91482 20.265C8.77929 20.4 8.68141 20.43 8.61364 20.3625C8.54588 20.295 8.57599 20.19 8.68894 20.04C8.89976 19.785 9.1407 19.575 9.41176 19.4025C9.68282 19.23 9.97646 19.11 10.2927 19.035C10.5412 18.975 10.8122 18.96 11.0833 18.99C11.3543 19.02 11.6179 19.0875 11.8739 19.1925C11.9492 19.2225 12.0922 19.29 12.2955 19.395C12.5063 19.5 12.6343 19.575 12.6946 19.62C12.7699 19.695 12.8075 19.785 12.8151 19.89C12.8151 19.995 12.7774 20.0625 12.672 20.0925C12.5967 20.1075 12.5214 20.0925 12.4386 20.0475C12.3558 20.0025 12.2805 19.9575 12.2052 19.9125C11.904 19.7175 11.5727 19.575 11.2038 19.485C10.8348 19.395 10.4734 19.4025 10.1346 19.5075C9.89364 19.5825 9.67529 19.6875 9.46446 19.8225C9.25364 19.9575 9.07294 20.1075 8.90729 20.2725L8.91482 20.265ZM12.4085 35.4C12.2729 35.43 12.0998 35.445 11.8739 35.4525C11.648 35.46 11.4296 35.4525 11.2038 35.445C10.9779 35.43 10.7671 35.4 10.5713 35.3475C10.368 35.295 10.2174 35.22 10.112 35.115C10.0066 35.025 9.91623 34.86 9.84094 34.62C9.76564 34.38 9.69788 34.125 9.63764 33.8475C9.57741 33.57 9.5247 33.3 9.47952 33.0375C9.43435 32.775 9.40423 32.5725 9.38917 32.4225C9.25364 31.5225 9.1407 30.6225 9.05788 29.7075C8.96752 28.8 8.8847 27.885 8.80941 26.97C8.77929 26.55 8.74917 26.025 8.71152 25.4025C8.67388 24.7725 8.68141 24.1425 8.71905 23.505C8.76423 22.8675 8.86211 22.2825 9.02023 21.7425C9.17835 21.2025 9.42682 20.805 9.76564 20.5575C10.0066 20.3775 10.2626 20.265 10.5336 20.22C10.8122 20.175 11.0833 20.19 11.3468 20.265C11.6103 20.34 11.8588 20.46 12.0847 20.6325C12.3106 20.805 12.4913 21.0225 12.6419 21.2925C13.2819 21.1275 13.9143 20.9925 14.5468 20.88C15.1793 20.7675 15.8193 20.6925 16.4743 20.6475C16.8433 20.6175 17.2198 20.6025 17.6038 20.6025C17.9878 20.6025 18.3416 20.6775 18.688 20.8275C19.0118 20.9475 19.2452 21.165 19.3807 21.48C19.5614 21.855 19.6216 22.245 19.5614 22.6425C19.5012 23.04 19.2903 23.34 18.9365 23.52C18.8009 23.595 18.5751 23.6475 18.2588 23.685C17.9426 23.7225 17.5962 23.7525 17.2348 23.775C16.8734 23.7975 16.5271 23.82 16.1958 23.835C15.872 23.85 15.6311 23.865 15.4805 23.88C15.1266 23.91 14.7652 23.955 14.4113 24.015C14.0574 24.075 13.696 24.1275 13.3421 24.1725C13.3421 24.5175 13.3421 24.8625 13.3647 25.215C13.3798 25.5675 13.4249 25.9125 13.5002 26.2575C13.696 26.2275 13.9896 26.19 14.3887 26.16C14.7878 26.1225 15.2169 26.0925 15.6612 26.07C16.1054 26.0475 16.5271 26.04 16.9336 26.055C17.3327 26.07 17.6339 26.1075 17.8221 26.1675C17.9878 26.2275 18.1308 26.3325 18.2588 26.4825C18.3868 26.6325 18.4847 26.7975 18.56 26.9775C18.6052 27.1125 18.6428 27.27 18.6805 27.4575C18.7181 27.645 18.7407 27.8325 18.7482 28.02C18.7482 28.2075 18.7407 28.38 18.7031 28.545C18.6654 28.71 18.5901 28.8375 18.4696 28.9275C18.3642 29.0025 18.2513 29.055 18.1233 29.085C17.9953 29.115 17.8748 29.145 17.7543 29.175C17.024 29.34 16.2936 29.43 15.5482 29.445C14.8028 29.46 14.0649 29.5125 13.3195 29.6025C13.3346 29.8425 13.3722 30.2025 13.44 30.6825C13.5078 31.1625 13.568 31.6575 13.6282 32.175C13.6885 32.6925 13.7186 33.1875 13.7261 33.6525C13.7261 34.125 13.696 34.4625 13.6056 34.6725C13.5002 34.8825 13.3346 35.0475 13.1012 35.175C12.8678 35.3025 12.6343 35.3775 12.4009 35.4075L12.4085 35.4ZM15.0889 30.735C14.9835 30.765 14.8781 30.765 14.7802 30.735C14.7351 30.705 14.7125 30.66 14.7049 30.6C14.6974 30.54 14.7125 30.495 14.7576 30.465C14.7878 30.435 14.8254 30.4275 14.8706 30.435C14.9158 30.435 14.9609 30.435 15.0061 30.42C15.0965 30.405 15.2546 30.375 15.4955 30.33C15.7365 30.285 15.9849 30.2475 16.256 30.2175C16.5271 30.1875 16.7755 30.1575 17.0165 30.135C17.2574 30.1125 17.4231 30.105 17.5285 30.105C17.6489 30.12 17.7318 30.18 17.7845 30.285C17.8372 30.39 17.7995 30.4725 17.6866 30.5325C17.6263 30.5625 17.4983 30.5775 17.3101 30.5625C17.1143 30.5625 16.9863 30.555 16.9111 30.555C16.6174 30.57 16.3162 30.5925 16.0075 30.6225C15.6988 30.6525 15.4052 30.69 15.104 30.735H15.0889Z" fill="#1C73BA"/>
<path d="M27.1887 34.35C26.9101 34.485 26.6089 34.575 26.3002 34.62C25.9915 34.665 25.6828 34.6725 25.3892 34.6425C24.96 34.6275 24.5384 34.5525 24.1318 34.4175C23.7252 34.2825 23.3487 34.095 23.0024 33.855C22.6184 33.6 22.2645 33.285 21.9558 32.91C21.6471 32.535 21.3911 32.13 21.1953 31.7025C21.0447 31.3875 20.9318 31.0575 20.8489 30.7125C20.7661 30.3675 20.6984 30.0225 20.6381 29.6775C20.5176 29.0025 20.4574 28.335 20.4574 27.6675C20.4574 27 20.48 26.3325 20.5252 25.6575C20.5402 25.4175 20.5628 25.065 20.6005 24.5925C20.6381 24.12 20.6908 23.6325 20.7586 23.1375C20.8264 22.635 20.9092 22.1625 21.0071 21.7125C21.1049 21.2625 21.2254 20.94 21.376 20.745C21.5567 20.49 21.7826 20.3175 22.0687 20.2275C22.2946 20.1525 22.5431 20.115 22.8292 20.1075C23.1078 20.1075 23.3864 20.13 23.6574 20.19C23.9209 20.25 24.1769 20.34 24.4179 20.4675C24.6588 20.595 24.8395 20.7525 24.9751 20.9475C25.0955 21.1125 25.1784 21.3 25.2235 21.51C25.2687 21.72 25.2913 21.93 25.2913 22.14C25.2762 22.59 25.216 23.0325 25.1031 23.46C24.9901 23.895 24.8772 24.33 24.7567 24.7575C24.5158 25.6575 24.3652 26.5725 24.2974 27.5025C24.2296 28.44 24.2748 29.3625 24.4179 30.27C24.448 30.51 24.5007 30.7425 24.576 30.9675C24.6513 31.1925 24.7718 31.3875 24.9299 31.5525C25.0955 31.7175 25.3064 31.83 25.5624 31.89C25.8259 31.95 26.0593 31.9425 26.2626 31.8675C26.4282 31.8225 26.5713 31.74 26.6993 31.62C26.8273 31.5 26.9252 31.3725 27.0005 31.2375C27.2113 30.8925 27.3619 30.54 27.4673 30.1725C27.5727 29.805 27.648 29.43 27.6932 29.04C27.8136 28.32 27.8889 27.6 27.9266 26.865C27.9642 26.13 28.0169 25.4025 28.0922 24.6675C28.1073 24.5025 28.1374 24.2475 28.1826 23.9025C28.2278 23.5575 28.2729 23.1975 28.3256 22.815C28.3784 22.4325 28.4386 22.0725 28.5139 21.7275C28.5892 21.3825 28.672 21.1425 28.7624 21.0075C28.8226 20.9175 28.8979 20.8425 28.9958 20.775C29.0936 20.7075 29.1915 20.6625 29.2969 20.6325C29.4927 20.5575 29.696 20.5125 29.9068 20.4975C30.1252 20.4825 30.336 20.4975 30.5393 20.52C30.8631 20.55 31.1341 20.6475 31.3449 20.8125C31.5106 20.9175 31.6311 21.0525 31.7214 21.2175C31.8118 21.3825 31.8795 21.555 31.9247 21.735C32.0753 22.26 32.1506 22.7925 32.1506 23.34C32.1506 23.8875 32.1732 24.4275 32.2184 24.9675C32.2635 25.5375 32.3313 26.1 32.4292 26.67C32.5271 27.24 32.6626 27.795 32.8433 28.35C32.9939 28.83 33.1671 29.295 33.3704 29.7525C33.5736 30.21 33.7769 30.6675 33.9802 31.1325C34.1007 31.4175 34.2061 31.7175 34.2889 32.0325C34.3793 32.3475 34.3868 32.655 34.3115 32.955C34.2513 33.21 34.1082 33.435 33.8899 33.63C33.6941 33.81 33.4682 33.945 33.1972 34.0425C32.9261 34.14 32.6701 34.185 32.4141 34.185C32.0904 34.155 31.8118 34.08 31.5859 33.96C31.3449 33.81 31.1492 33.615 30.9835 33.375C30.8179 33.135 30.6974 32.88 30.6146 32.6025C30.5318 32.325 30.464 32.055 30.4038 31.785C30.3285 31.485 30.2607 31.1925 30.2005 30.9C30.1402 30.6075 30.0725 30.315 29.9972 30.015C29.8767 30.54 29.7261 31.0575 29.5379 31.56C29.3496 32.07 29.1012 32.5425 28.7925 32.97C28.5816 33.255 28.3482 33.5175 28.0772 33.7575C27.8061 33.9975 27.5125 34.1925 27.1887 34.3425V34.35ZM25.3365 35.85C25.2461 35.895 25.088 35.91 24.8471 35.895C24.6061 35.88 24.448 35.865 24.3576 35.85C23.9586 35.805 23.552 35.745 23.1454 35.6625C22.7388 35.58 22.3548 35.4375 22.0009 35.2275C21.6169 34.9875 21.2781 34.665 20.9995 34.26C20.9544 34.2 20.8941 34.11 20.8113 33.9825C20.7285 33.855 20.6984 33.7575 20.7134 33.6825C20.7435 33.5625 20.8038 33.495 20.9016 33.48C20.9995 33.465 21.0673 33.51 21.1125 33.615C21.1727 33.735 21.2405 33.8475 21.3233 33.9525C21.4061 34.0575 21.4889 34.155 21.5793 34.245C21.9181 34.59 22.3247 34.845 22.784 35.01C22.8894 35.04 23.0475 35.0775 23.2659 35.1225C23.4842 35.1675 23.7101 35.205 23.9586 35.2425C24.2071 35.28 24.4405 35.31 24.6588 35.34C24.8847 35.37 25.0428 35.3775 25.1482 35.3625C25.2988 35.3325 25.4042 35.3625 25.4795 35.43C25.5548 35.505 25.5699 35.5875 25.5322 35.6775C25.4946 35.7675 25.4344 35.8275 25.344 35.8575L25.3365 35.85ZM33.4758 26.1825C33.4758 26.3325 33.408 26.415 33.2649 26.43C33.1219 26.445 33.0391 26.3775 33.0089 26.2275C32.9788 26.1075 32.9562 25.8825 32.9412 25.545C32.9261 25.2075 32.9111 24.855 32.8885 24.4875C32.8659 24.12 32.8508 23.7675 32.8433 23.43C32.8358 23.0925 32.8358 22.8675 32.8358 22.7475C32.8508 22.4025 32.8358 22.05 32.8132 21.69C32.7831 21.33 32.6852 21 32.5271 20.7C32.4066 20.49 32.2711 20.295 32.1054 20.1075C31.9398 19.92 31.7515 19.785 31.5256 19.695C31.4052 19.65 31.2847 19.635 31.1567 19.665C31.0287 19.6875 30.9082 19.6725 30.7878 19.635C30.6974 19.605 30.6598 19.5525 30.6673 19.47C30.6673 19.3875 30.72 19.335 30.8104 19.305C30.8856 19.275 31.0136 19.26 31.1868 19.245C31.3675 19.245 31.488 19.245 31.5633 19.26C31.6988 19.29 31.8193 19.3425 31.9322 19.425C32.0452 19.5075 32.1581 19.59 32.2786 19.68C32.4894 19.86 32.6701 20.07 32.8282 20.3175C32.9864 20.565 33.0918 20.82 33.152 21.09C33.2725 21.615 33.3327 22.1475 33.3327 22.68C33.3327 23.2125 33.3478 23.76 33.3779 24.2925C33.3779 24.3525 33.3779 24.4725 33.4005 24.6525C33.4155 24.8325 33.4231 25.0275 33.4306 25.2375C33.4381 25.4475 33.4456 25.6425 33.4607 25.8225C33.4758 26.0025 33.4833 26.1225 33.4833 26.1825H33.4758Z" fill="#1C73BA"/>
<path d="M39.424 34.08C39.1454 34.38 38.7765 34.5675 38.3247 34.6425C37.8729 34.7175 37.4513 34.7025 37.0673 34.5975C36.9167 34.5525 36.7736 34.485 36.6306 34.395C36.4875 34.305 36.3671 34.2 36.2616 34.08C36.1111 33.885 36.0056 33.5775 35.9379 33.15C35.8701 32.7225 35.8249 32.2725 35.7948 31.7925C35.7647 31.3125 35.7496 30.8475 35.7496 30.39V29.3475C35.7346 28.3725 35.712 27.4125 35.6744 26.4675C35.6367 25.515 35.584 24.5625 35.5087 23.61C35.4936 23.325 35.4635 23.0475 35.4184 22.7775C35.3732 22.5075 35.3506 22.23 35.3506 21.945C35.3506 21.795 35.3656 21.645 35.3958 21.495C35.4259 21.345 35.4786 21.21 35.5539 21.09C35.6593 20.94 35.7948 20.82 35.9529 20.73C36.1186 20.64 36.2918 20.5725 36.48 20.5425C36.6682 20.505 36.8565 20.4975 37.0447 20.5125C37.2405 20.5275 37.4136 20.565 37.5793 20.625C37.76 20.7 37.9106 20.8125 38.0386 20.9475C38.1666 21.09 38.272 21.24 38.3623 21.405C38.5431 21.75 38.6635 22.1025 38.7313 22.47C38.7991 22.8375 38.8668 23.205 38.9421 23.58C39.2132 23.055 39.5821 22.62 40.0565 22.2675C40.5308 21.915 41.0503 21.66 41.6151 21.495C42.1798 21.33 42.7671 21.27 43.3769 21.3075C43.9868 21.345 44.5591 21.48 45.0936 21.72C45.5078 21.915 45.8918 22.2075 46.2306 22.5975C46.4791 22.8975 46.7049 23.2275 46.8856 23.595C47.0739 23.9625 47.2245 24.3375 47.3449 24.7275C47.6386 25.5975 47.8268 26.49 47.9021 27.42C47.9774 28.35 47.9623 29.2575 47.8569 30.1575C47.7816 30.8325 47.6612 31.485 47.488 32.13C47.3148 32.775 47.0588 33.3825 46.72 33.945C46.6296 34.095 46.5016 34.2075 46.3285 34.29C46.1553 34.3725 45.9896 34.425 45.824 34.455C45.7035 34.485 45.5379 34.4925 45.3195 34.485C45.1012 34.485 44.8828 34.4625 44.6645 34.44C44.4386 34.4175 44.2278 34.38 44.032 34.3275C43.8287 34.275 43.6781 34.215 43.5727 34.14C43.4071 34.035 43.2866 33.8925 43.2038 33.7125C43.1209 33.5325 43.0758 33.3525 43.0607 33.1725C43.0306 32.7225 43.0607 32.2725 43.1435 31.815C43.2263 31.3575 43.3092 30.9075 43.3845 30.4575C43.4899 29.7825 43.5953 29.115 43.6932 28.44C43.7911 27.765 43.8362 27.09 43.8212 26.4C43.8061 26.1 43.776 25.8 43.7308 25.4925C43.6856 25.185 43.5953 24.9 43.4598 24.63C43.3092 24.285 43.0833 24.03 42.7896 23.865C42.6089 23.79 42.4207 23.76 42.2325 23.7675C42.0367 23.775 41.8409 23.82 41.6527 23.9025C41.4569 23.985 41.2762 24.09 41.1031 24.2175C40.9299 24.345 40.7943 24.48 40.6889 24.63C40.4781 24.915 40.3125 25.2225 40.1845 25.5525C40.0565 25.8825 39.9586 26.22 39.8833 26.565C39.7628 27.045 39.7026 27.525 39.6951 28.0125C39.6875 28.5 39.6951 28.9875 39.7402 29.4825C39.7779 29.9775 39.8231 30.4725 39.8758 30.975C39.9285 31.4775 39.9511 31.9725 39.9511 32.4675C39.9511 32.7525 39.9209 33.0375 39.8532 33.33C39.7854 33.6225 39.6499 33.87 39.4391 34.08H39.424ZM47.6085 22.44C47.6536 22.56 47.6235 22.6425 47.5332 22.695C47.4353 22.7475 47.3525 22.725 47.2772 22.62C47.1115 22.41 46.9609 22.2075 46.8179 22.005C46.6748 21.8025 46.5092 21.6225 46.3134 21.4575C46.1478 21.2925 45.9671 21.1575 45.7638 21.0525C45.5605 20.9475 45.3572 20.8575 45.1539 20.7825C45.1087 20.7675 45.0033 20.73 44.8452 20.67C44.6795 20.61 44.5816 20.5725 44.5365 20.5575C44.3708 20.5275 44.2202 20.5125 44.0696 20.5125H43.4221C43.3619 20.5125 43.3016 20.4975 43.2414 20.4675C43.136 20.4075 43.1285 20.3325 43.2188 20.2425C43.2791 20.1975 43.3619 20.175 43.4673 20.175C43.7911 20.145 44.1148 20.1375 44.4386 20.1375C44.7548 20.145 45.0635 20.205 45.3647 20.3025C45.8541 20.4675 46.3059 20.745 46.7275 21.135C47.1416 21.525 47.4428 21.96 47.616 22.4325L47.6085 22.44Z" fill="#1C73BA"/>
<path d="M59.9567 15.9375C59.9567 15.9375 56.2146 24.5475 63.5106 27.0825C63.5106 27.0825 57.2612 25.0575 53.7449 32.6325C53.7449 32.6325 56.0038 25.2975 49.6113 22.215C49.6113 22.215 56.0489 25.59 59.9567 15.9375Z" fill="#1C73BA"/>
</g>
<defs>
<clipPath id="clip0_15962_526">
<rect width="63.5106" height="35.9025" fill="white"/>
</clipPath>
</defs>
</svg>
