<svg width="49" height="49" viewBox="0 0 49 49" fill="none" xmlns="http://www.w3.org/2000/svg">
<path d="M45.414 22.0556L7.23298 30.6306L7.29821 26.8931L45.4793 18.3182L45.414 22.0556Z" fill="#03905A"/>
<path d="M29.9741 8.01808L7.78794 29.443C7.02469 30.1801 7.00346 31.3963 7.74052 32.1596L19.961 44.8142C20.698 45.5775 21.9143 45.5987 22.6775 44.8616L44.8637 23.4367C45.6269 22.6996 45.6482 21.4834 44.9111 20.7201L32.6907 8.0655C31.9536 7.30224 30.7374 7.28101 29.9741 8.01808Z" fill="#03905A"/>
<path d="M30.0424 4.06276L7.85624 25.4877C7.09298 26.2248 7.07175 27.441 7.80882 28.2043L20.0293 40.8589C20.7663 41.6221 21.9826 41.6434 22.7458 40.9063L44.932 19.4814C45.6952 18.7443 45.7165 17.5281 44.9794 16.7648L32.759 4.11017C32.0219 3.34692 30.8057 3.32569 30.0424 4.06276Z" fill="#4FC578"/>
<path d="M21.4941 12.3177L16.4055 17.2317L31.295 32.6503L36.3837 27.7363L21.4941 12.3177Z" fill="#7BD58F"/>
<path d="M44.0844 32.911L43.8693 45.2319C43.8646 45.5042 43.64 45.72 43.3688 45.7152C41.5067 45.6827 40.0225 44.147 40.055 42.2837L40.2198 32.8435L44.0844 32.911Z" fill="#E5E8EB"/>
<path d="M34.3443 32.7408L34.1905 41.5487C34.1859 41.8114 33.9686 42.0213 33.7059 42.0167C31.9038 41.9852 30.4679 40.4983 30.4993 38.6962L30.6044 32.6755L34.3443 32.7408Z" fill="#E5E8EB"/>
<path d="M44.0844 32.9109L44.0034 37.553L30.5234 37.3177L30.6044 32.6756C30.6694 28.9526 33.7396 25.9877 37.4627 26.0527C41.1857 26.1177 44.1494 29.1879 44.0844 32.9109Z" fill="#E5E8EB"/>
<path d="M37.3623 31.7351C38.4301 31.7538 39.2813 32.6352 39.2626 33.703L39.0796 44.1906C39.0748 44.463 38.8502 44.6787 38.579 44.6739C36.7157 44.6414 35.2303 43.1045 35.2629 41.2399L35.3956 33.6343C35.4143 32.5665 36.2956 31.7153 37.3635 31.734L37.3623 31.7351Z" fill="#E5E8EB"/>
<path d="M16.7109 4.56593L4.39 4.35087C4.11764 4.34612 3.89422 4.56305 3.88948 4.83421C3.85698 6.69633 5.33998 8.23324 7.2033 8.26577L16.6435 8.43055L16.7109 4.56593Z" fill="#E5E8EB"/>
<path d="M16.5409 14.3061L7.73304 14.1524C7.47028 14.1478 7.25299 14.3576 7.2484 14.6204C7.21694 16.4225 8.65281 17.9094 10.4549 17.9408L16.4756 18.0459L16.5409 14.3061Z" fill="#E5E8EB"/>
<path d="M16.7109 4.56587L12.0688 4.48484L11.8335 17.9648L16.4756 18.0458C20.1987 18.1108 23.2689 15.1459 23.3339 11.4229C23.3988 7.69987 20.434 4.63086 16.7109 4.56587Z" fill="#E5E8EB"/>
<path d="M17.6527 11.3238C17.6713 10.256 16.8202 9.37459 15.7524 9.35596L5.26475 9.17289C4.99239 9.16814 4.76897 9.38507 4.76424 9.65623C4.73172 11.5195 6.2159 13.0577 8.08041 13.0902L15.6861 13.223C16.7539 13.2416 17.6353 12.3905 17.6539 11.3226L17.6527 11.3238Z" fill="#E5E8EB"/>
</svg>
