<svg width="49" height="49" viewBox="0 0 49 49" fill="none" xmlns="http://www.w3.org/2000/svg">
<g clip-path="url(#clip0_15838_8304)">
<path d="M35.672 5.01895L32.072 7.20295C31.724 6.32695 30.824 5.89495 29.984 6.25495C29.084 6.63895 28.58 7.76695 28.88 8.77495C29 9.20695 29.252 9.53095 29.564 9.75895L27.932 11.7509L27.92 11.7629C27.908 11.7509 27.896 11.7389 27.896 11.7389C27.716 11.5829 27.548 11.4269 27.392 11.259C27.368 11.235 27.344 11.1989 27.308 11.1629C27.128 10.959 26.972 10.7309 26.816 10.5029C26.78 10.4429 26.744 10.3709 26.696 10.3109C26.552 10.0469 26.42 9.77095 26.324 9.49495C26.3 9.42295 26.276 9.36295 26.264 9.29095C26.192 9.06295 26.132 8.83495 26.096 8.59495C26.072 8.51095 26.06 8.42695 26.048 8.34295C26.012 8.06695 26 7.77895 26.012 7.47895C26.024 7.41895 26.024 7.35895 26.036 7.29895C26.048 7.15495 26.048 6.99895 26.084 6.85495C26.096 6.78295 26.12 6.72295 26.132 6.66295C26.168 6.47095 26.228 6.29095 26.288 6.11095C26.336 5.96695 26.372 5.83495 26.432 5.69095C26.516 5.51095 26.612 5.33095 26.708 5.16295C26.768 5.04295 26.828 4.93495 26.9 4.82695C27.032 4.64695 27.176 4.46695 27.32 4.29895C27.392 4.21495 27.452 4.14295 27.536 4.07095C27.692 3.90295 27.872 3.74695 28.052 3.61495C28.148 3.54295 28.232 3.48295 28.316 3.41095C28.4 3.36295 28.472 3.29095 28.556 3.24295C28.664 3.18295 28.784 3.13495 28.904 3.07495C29.012 3.02695 29.12 2.97895 29.24 2.93095C29.432 2.84695 29.636 2.77495 29.84 2.71495C29.96 2.67895 30.092 2.65495 30.224 2.61895C30.416 2.58295 30.608 2.55895 30.812 2.54695C30.956 2.53495 31.112 2.52295 31.256 2.52295C31.448 2.52295 31.64 2.54695 31.82 2.55895C31.916 2.57095 32 2.57095 32.096 2.58295C32.156 2.59495 32.216 2.61895 32.276 2.63095C32.492 2.67895 32.696 2.73895 32.888 2.81095C33.032 2.85895 33.164 2.89495 33.296 2.95495C33.5 3.03895 33.692 3.15895 33.884 3.26695C33.992 3.33895 34.112 3.38695 34.208 3.45895C34.412 3.60295 34.592 3.77095 34.772 3.93895C34.856 4.01095 34.952 4.08295 35.024 4.16695C35.204 4.35895 35.36 4.57495 35.504 4.79095C35.564 4.87495 35.624 4.93495 35.672 5.01895Z" fill="#333333"/>
<path d="M21.194 27.1013L17.1752 31.8065L17.0612 31.9397L20.5556 36.3281L20.582 36.3617L24.1448 34.0577C24.95 33.5369 25.9604 33.4421 26.8484 33.8033L31.1756 35.7173L34.1792 30.9233L29.5916 27.4481L21.194 27.1013Z" fill="#3E5AF4"/>
<path d="M27.5408 17.0731C26.9168 15.8359 27.4148 14.3287 28.6508 13.7047C29.4128 13.3195 30.2768 13.3639 30.974 13.7419C30.842 13.5979 30.7052 13.4575 30.5432 13.3327C30.14 13.0255 29.6396 12.7903 29.0252 12.6811C28.3856 12.5671 27.8636 12.5443 27.4088 12.5827C26.4464 12.6631 25.8176 13.0447 25.2452 13.5979C25.1528 13.6867 25.0616 13.7767 24.9704 13.8739C24.2084 14.6863 23.7236 15.7195 23.4824 16.8079L23.0216 18.8851L21.1964 27.1027L29.594 27.4495C29.594 27.4495 30.0476 25.3867 30.5576 23.0515L27.5432 17.0743L27.5408 17.0731Z" fill="#8595AA"/>
<path d="M17.1752 31.8066L16.9604 32.007C16.7372 32.2158 16.3952 32.2218 16.1648 32.0226L13.7624 29.937L9.85517 33.9582L9.80237 33.9702L12.4664 36.2838C13.6448 37.3074 15.1004 37.8162 16.5548 37.8162C17.9816 37.8162 19.3964 37.305 20.5556 36.3282L17.0612 31.9398L17.1752 31.8066Z" fill="#FFCCA8"/>
<path d="M35.6959 5.05504C35.6959 5.04304 35.6839 5.03104 35.6719 5.01904L32.0719 7.20304C31.7239 6.32704 30.8239 5.89504 29.9839 6.25504C29.0839 6.63904 28.5799 7.76704 28.8799 8.77504C28.9999 9.20704 29.2519 9.53104 29.5639 9.75904L27.9319 11.751L27.9199 11.763C27.9079 11.751 27.8959 11.739 27.8959 11.739L27.4039 12.579C27.8599 12.543 28.3879 12.567 29.0239 12.675C29.6359 12.795 30.1399 13.023 30.5479 13.335L30.7879 12.915C31.8319 12.999 32.9239 12.783 33.8959 12.207C36.3679 10.731 37.1719 7.52704 35.6959 5.05504ZM35.3839 8.42704C35.3119 8.87104 35.0479 9.19504 34.7959 9.15904C34.5439 9.11104 34.3999 8.71504 34.4719 8.27104C34.5439 7.83904 34.8079 7.50304 35.0599 7.55104C35.3119 7.59904 35.4559 7.98304 35.3839 8.42704Z" fill="#FFCCA8"/>
<path d="M31.6159 36.039C32.0299 36.3414 32.2807 36.8286 32.2831 37.3434L32.3131 41.577H37.9555L37.9255 37.3038C37.9099 35.0118 36.7951 32.835 34.9435 31.4838L34.1791 30.9246L31.1755 35.7186L31.6147 36.0402L31.6159 36.039Z" fill="#FFCCA8"/>
<path d="M25.244 13.5991C25.148 13.6831 25.064 13.7791 24.968 13.8751C24.212 14.6911 23.72 15.7231 23.48 16.8031L23.024 18.8791L20.528 19.1551C20.204 19.1911 19.916 19.3711 19.736 19.6351L18.512 21.5071C18.8 22.4671 18.62 23.5591 17.936 24.3991C16.844 25.7431 14.864 25.9351 13.532 24.8431C12.188 23.7511 11.996 21.7831 13.088 20.4391C13.22 20.2831 13.364 20.1391 13.52 20.0071C13.568 19.9111 13.604 19.8271 13.664 19.7311L15.56 16.8751C16.568 15.3511 18.176 14.3671 19.988 14.1631L25.244 13.5991Z" fill="#FFCCA8"/>
<path d="M44.528 20.9312C44.528 22.3232 43.616 23.4872 42.368 23.8952L38.036 26.2352C37.28 26.6432 36.452 26.8592 35.624 26.8592C35.12 26.8592 34.616 26.7752 34.112 26.6312C32.804 26.2232 31.724 25.3232 31.088 24.0992L30.56 23.0552L27.536 17.0672C26.912 15.8312 27.416 14.3312 28.652 13.7072C29.408 13.3232 30.272 13.3592 30.98 13.7432C31.412 13.9832 31.784 14.3432 32.024 14.8112L35.552 21.8192C35.552 21.8192 35.564 21.8192 35.588 21.8312C35.624 21.8432 35.648 21.8312 35.66 21.8192L38.324 20.3792C38.576 18.9152 39.86 17.7992 41.396 17.7992C43.124 17.7992 44.528 19.2032 44.528 20.9312Z" fill="#FFCCA8"/>
<path d="M32.3048 41.5769V46.4405C32.3048 46.7225 32.5328 46.9505 32.8148 46.9505H41.6864C41.9684 46.9505 42.1964 46.7225 42.1964 46.4405V45.7973C42.1964 44.8421 41.7092 43.9529 40.904 43.4393L37.988 41.5769H32.3048Z" fill="#4E5968"/>
<path d="M13.7636 29.9369L13.8164 29.8817L10.328 26.4917C10.1264 26.2949 9.80239 26.2997 9.60679 26.5025L3.42319 32.8649C3.22639 33.0665 3.23119 33.3905 3.43399 33.5861L3.89599 34.0349C4.58119 34.7009 5.55799 34.9709 6.48799 34.7513L9.80239 33.9701L9.85519 33.9581L13.7624 29.9369H13.7636Z" fill="#4E5968"/>
<path d="M34.7924 9.15777C35.0444 9.20097 35.3096 8.87577 35.3852 8.43177C35.4608 7.98777 35.318 7.59417 35.066 7.55097C34.814 7.50777 34.5488 7.83297 34.4732 8.27697C34.3976 8.72097 34.5404 9.11577 34.7924 9.15777Z" fill="black"/>
</g>
<defs>
<clipPath id="clip0_15838_8304">
<rect width="48" height="48" fill="white" transform="translate(0.5 0.843018)"/>
</clipPath>
</defs>
</svg>
