<svg width="148" height="148" viewBox="0 0 148 148" fill="none" xmlns="http://www.w3.org/2000/svg">
<path d="M61.8868 47.4711C51.707 58.9491 40.166 75.5059 30.1837 95.4705C28.6606 98.5168 24.9564 99.7514 21.9102 98.2282C18.864 96.705 17.6293 93.0007 19.1524 89.955C29.5839 69.0919 41.7171 51.6255 52.6598 39.2875C58.1215 33.1294 63.3915 28.13 68.1102 24.6131C70.4677 22.8555 72.7969 21.3864 75.0342 20.335C77.2024 19.3161 79.6795 18.5 82.2239 18.5C83.5559 18.5 85.0211 18.8299 86.3765 19.701C87.7104 20.5579 88.5712 21.702 89.1053 22.7601C90.074 24.6799 90.1813 26.7308 90.1573 28.1162C90.1061 31.0585 89.3223 34.7356 88.3165 38.4785C86.2556 46.1463 82.6296 56.3081 79.0252 66.3391L78.5196 67.7458C75.0305 77.4521 71.5956 87.0073 69.3627 94.6374C68.7614 96.6933 68.2687 98.5384 67.8913 100.155C72.1716 96.7149 77.4416 91.5466 83.0403 86.046L83.2229 85.8665C88.6594 80.5249 94.4104 74.8744 99.263 70.995C101.671 69.0704 104.267 67.2413 106.768 66.1819C108.869 65.2914 113.678 63.8447 117.418 67.5842C119.788 69.9547 120.446 73.0368 120.616 75.3345C120.795 77.7395 120.515 80.3313 120.08 82.7943C119.211 87.7258 117.465 93.4805 115.868 98.6722L115.611 99.5053C114.185 104.139 112.913 108.272 112.188 111.595C113.793 109.984 115.769 107.433 118.076 103.668C119.855 100.763 123.652 99.8513 126.556 101.63C129.46 103.409 130.372 107.206 128.593 110.11C125.244 115.577 121.779 120.017 118.103 122.773C114.258 125.658 109.225 127.284 104.132 124.738C100.38 122.862 99.5288 119.123 99.3395 117.055C99.1347 114.818 99.4585 112.377 99.8871 110.178C100.694 106.032 102.261 100.947 103.742 96.1426L104.079 95.0462C105.726 89.6948 107.222 84.693 107.934 80.6532C107.989 80.3418 108.038 80.0446 108.081 79.7603C107.73 80.0248 107.358 80.314 106.964 80.6285C102.661 84.0689 97.3408 89.2859 91.6842 94.8433L91.5016 95.0228C86.0657 100.364 80.3147 106.014 75.4621 109.894C73.054 111.819 70.4573 113.647 67.9567 114.707C65.8563 115.597 61.0467 117.044 57.3075 113.305C55.4032 111.401 54.9154 108.998 54.7583 107.536C54.5843 105.916 54.6922 104.199 54.8999 102.583C55.3187 99.3259 56.2976 95.3712 57.5261 91.1735C59.8678 83.1711 63.4192 73.2921 66.8535 63.7399L67.4183 62.1686C71.0789 51.9807 74.5057 42.349 76.4056 35.2779C76.5727 34.6547 76.7244 34.0668 76.8601 33.5139C76.4198 33.8156 75.9598 34.1445 75.4806 34.5018C71.64 37.3643 66.9867 41.7211 61.8868 47.4711Z" fill="#F3F4F5"/>
</svg>
