<?xml version="1.0" encoding="UTF-8"?>
<svg id="Layer_2" data-name="Layer 2" xmlns="http://www.w3.org/2000/svg" viewBox="0 0 193.13 18.8">
  <defs>
    <style>
      .cls-1 {
        fill: #18264f;
        stroke-width: 0px;
      }
    </style>
  </defs>
  <g id="_레이어_1" data-name="레이어 1">
    <g>
      <path class="cls-1" d="M9.4,0C4.21,0,0,4.21,0,9.4s4.21,9.4,9.4,9.4,9.4-4.21,9.4-9.4S14.59,0,9.4,0ZM9.6,17.09c-2.53,0-4.57-2.05-4.57-4.57s2.05-4.57,4.57-4.57,4.58,2.05,4.58,4.57-2.05,4.57-4.58,4.57Z"/>
      <g>
        <path class="cls-1" d="M24.19,2.04h2.96v11.17h6.8v2.57h-9.76V2.04Z"/>
        <path class="cls-1" d="M35.64,2.04h2.95v13.74h-2.95V2.04Z"/>
        <path class="cls-1" d="M40.91,2.04h9.41v2.51h-6.44v4.23h5.81l-.02,2.49h-5.79v4.51h-2.96V2.04Z"/>
        <path class="cls-1" d="M51.69,2.04h9.53l-.02,2.37h-6.58v3.36h5.77v2.41h-5.77v3.16h6.82v2.43h-9.76l.02-13.74Z"/>
        <path class="cls-1" d="M70.84,2.04h2.99v13.74h-2.99V2.04ZM71.97,2.04h4.15c1.24,0,2.33.32,3.27.95.94.63,1.66,1.47,2.16,2.52.5,1.05.75,2.18.75,3.41,0,1.16-.25,2.27-.75,3.32-.5,1.05-1.23,1.91-2.17,2.56-.95.65-2.06.98-3.32.98h-4.74l.65-13.74ZM75.86,13.36c.7,0,1.33-.21,1.89-.62.56-.42.99-.99,1.29-1.71.3-.72.43-1.51.41-2.35-.04-1.34-.38-2.39-1.02-3.14-.64-.75-1.5-1.13-2.58-1.13h-3.14l.2,8.95h2.96Z"/>
        <path class="cls-1" d="M84.54,2.04h2.95v13.74h-2.95V2.04Z"/>
        <path class="cls-1" d="M89,2.04h2.96l3.22,10.61,3.74-10.61h3.2l-4.96,13.74h-3.78l-4.39-13.74Z"/>
        <path class="cls-1" d="M103.28,2.04h9.53l-.02,2.37h-6.58v3.36h5.77v2.41h-5.77v3.16h6.82v2.43h-9.76l.02-13.74Z"/>
        <path class="cls-1" d="M115.17,2.04h2.96v13.74h-2.96V2.04ZM117.07,9.39l-.06-7.35h3.04c1.11-.01,2.07.18,2.9.59.82.41,1.45.95,1.88,1.64.43.69.65,1.44.66,2.27-.01,1.12-.36,2.05-1.05,2.8-.69.74-1.65,1.21-2.91,1.39l4.88,5.04h-3.6l-5.75-6.38ZM119.86,8.94c.83,0,1.48-.21,1.96-.62.47-.42.7-.98.67-1.71-.04-.71-.29-1.24-.75-1.58-.46-.34-1.08-.51-1.86-.51h-2.23l.02,4.43h2.19Z"/>
        <path class="cls-1" d="M130.14,15.21c-1.05-.63-1.86-1.48-2.41-2.57-.55-1.09-.82-2.29-.79-3.61.03-1.24.34-2.39.93-3.46.59-1.07,1.43-1.92,2.51-2.57,1.08-.65,2.33-.97,3.74-.97,1.23,0,2.29.27,3.19.8.9.54,1.61,1.2,2.12,2.01.51.8.83,1.61.95,2.43h-2.87c-.09-.42-.28-.83-.56-1.23-.28-.4-.68-.73-1.19-1-.51-.26-1.1-.4-1.77-.4-.79,0-1.5.2-2.12.58-.62.39-1.1.92-1.43,1.58-.34.66-.52,1.41-.56,2.22-.03.87.12,1.65.44,2.33.32.69.79,1.22,1.39,1.6.61.38,1.3.57,2.1.57.68,0,1.31-.15,1.88-.45.57-.3,1.04-.71,1.4-1.25.37-.53.59-1.15.67-1.85l2.87.06c-.09,1.05-.43,2.05-1.01,2.98-.58.93-1.37,1.68-2.37,2.25-1,.57-2.15.86-3.44.86-1.4,0-2.62-.31-3.68-.94ZM133.66,8.7h6.98v1.36l-1.42.65h-5.55v-2.02Z"/>
        <path class="cls-1" d="M142.45,2.04h9.53l-.02,2.37h-6.58v3.36h5.77v2.41h-5.77v3.16h6.82v2.43h-9.76l.02-13.74Z"/>
        <path class="cls-1" d="M157.26,6.42v9.35h-2.87V2.04h2.87l6.66,9.55V2.04h2.83v13.74h-2.96l-6.52-9.35Z"/>
        <path class="cls-1" d="M171.72,15.21c-1.02-.63-1.8-1.48-2.33-2.55-.53-1.07-.78-2.26-.74-3.55.01-1.29.31-2.48.89-3.56.58-1.08,1.39-1.94,2.43-2.57,1.04-.63,2.23-.95,3.58-.95,1.22,0,2.3.29,3.22.86.92.57,1.63,1.31,2.13,2.21.5.9.76,1.84.77,2.8h-2.81c-.04-.62-.2-1.18-.48-1.67-.28-.49-.67-.88-1.17-1.16-.49-.28-1.08-.41-1.75-.41-.75,0-1.42.2-2,.61-.58.41-1.03.95-1.35,1.63-.32.68-.5,1.41-.52,2.19-.03.88.11,1.66.41,2.32.3.66.73,1.18,1.3,1.55.57.37,1.25.55,2.03.55.59,0,1.14-.13,1.64-.4.5-.26.91-.63,1.23-1.11.32-.47.51-1.02.59-1.64h2.87c-.08.94-.39,1.85-.93,2.74-.54.89-1.28,1.62-2.2,2.18-.93.57-2.01.85-3.23.85-1.36,0-2.55-.31-3.57-.94Z"/>
        <path class="cls-1" d="M183.39,2.04h9.53l-.02,2.37h-6.58v3.36h5.77v2.41h-5.77v3.16h6.82v2.43h-9.76l.02-13.74Z"/>
      </g>
    </g>
  </g>
</svg>